<svg width="18" height="15" viewBox="0 0 16 15" fill="none" xmlns="http://www.w3.org/2000/svg">
    <path d="M9.53267 7.5L15.6633 1.74612C16.0886 1.34701 16.0886 0.698448 15.6633 0.299335C15.2381 -0.0997783 14.5471 -0.0997783 14.1218 0.299335L7.99114 6.05321L1.86047 0.315965C1.43522 -0.0831485 0.744186 -0.0831485 0.318937 0.315965C-0.106312 0.715078 -0.106312 1.36364 0.318937 1.76275L6.44961 7.5L0.336656 13.2539C-0.0885936 13.653 -0.0885936 14.3016 0.336656 14.7007C0.761905 15.0998 1.45293 15.0998 1.87818 14.7007L8.00886 8.94678L14.1395 14.7007C14.5648 15.0998 15.2558 15.0998 15.6811 14.7007C16.1063 14.3016 16.1063 13.653 15.6811 13.2539L9.53267 7.5Z" fill="#EBEAF6"/>
</svg>
