<svg width="15" height="15" fill="none" xmlns="http://www.w3.org/2000/svg"><g clip-path="url(#clip0)" fill-rule="evenodd" clip-rule="evenodd" fill="#65CBA0"><path d="M3.13 4.22a.78.78 0 00-.79.78v6.88a.78.78 0 00.79.78H10a.78.78 0 00.78-.79V8.13a.47.47 0 01.94 0v3.74A1.72 1.72 0 0110 13.6H3.12a1.72 1.72 0 01-1.71-1.71V5a1.72 1.72 0 011.72-1.72h3.75a.47.47 0 010 .94H3.13zM8.9 1.88c0-.26.22-.47.47-.47h3.76c.25 0 .46.2.46.47v3.75a.47.47 0 01-.93 0V2.33H9.37a.47.47 0 01-.46-.46z"/><path d="M13.46 1.54c.18.19.18.48 0 .67L6.58 9.08a.47.47 0 01-.66-.66l6.87-6.88a.47.47 0 01.67 0z"/></g><defs><clipPath id="clip0"><path fill="#fff" d="M0 0h15v15H0z"/></clipPath></defs></svg>