<svg width="30" height="30" viewBox="0 0 30 30" fill="none" xmlns="http://www.w3.org/2000/svg">
<g clip-path="url(#clip0)">
<path fill-rule="evenodd" clip-rule="evenodd" d="M6.25 8.4375C5.8356 8.4375 5.43817 8.60212 5.14515 8.89515C4.85212 9.18817 4.6875 9.5856 4.6875 10V23.75C4.6875 24.1644 4.85212 24.5618 5.14515 24.8549C5.43817 25.1479 5.8356 25.3125 6.25 25.3125H20C20.4144 25.3125 20.8118 25.1479 21.1049 24.8549C21.3979 24.5618 21.5625 24.1644 21.5625 23.75V16.25C21.5625 15.7322 21.9822 15.3125 22.5 15.3125C23.0178 15.3125 23.4375 15.7322 23.4375 16.25V23.75C23.4375 24.6617 23.0753 25.536 22.4307 26.1807C21.786 26.8253 20.9117 27.1875 20 27.1875H6.25C5.33832 27.1875 4.46398 26.8253 3.81932 26.1807C3.17466 25.536 2.8125 24.6617 2.8125 23.75V10C2.8125 9.08832 3.17466 8.21398 3.81932 7.56932C4.46398 6.92466 5.33832 6.5625 6.25 6.5625H13.75C14.2678 6.5625 14.6875 6.98223 14.6875 7.5C14.6875 8.01777 14.2678 8.4375 13.75 8.4375H6.25Z" fill="#65CBA0"/>
<path fill-rule="evenodd" clip-rule="evenodd" d="M17.8125 3.75C17.8125 3.23223 18.2322 2.8125 18.75 2.8125H26.25C26.7678 2.8125 27.1875 3.23223 27.1875 3.75V11.25C27.1875 11.7678 26.7678 12.1875 26.25 12.1875C25.7322 12.1875 25.3125 11.7678 25.3125 11.25V4.6875H18.75C18.2322 4.6875 17.8125 4.26777 17.8125 3.75Z" fill="#65CBA0"/>
<path fill-rule="evenodd" clip-rule="evenodd" d="M26.9129 3.08709C27.279 3.4532 27.279 4.0468 26.9129 4.41291L13.1629 18.1629C12.7968 18.529 12.2032 18.529 11.8371 18.1629C11.471 17.7968 11.471 17.2032 11.8371 16.8371L25.5871 3.08709C25.9532 2.72097 26.5468 2.72097 26.9129 3.08709Z" fill="#65CBA0"/>
</g>
<defs>
<clipPath id="clip0">
<rect width="30" height="30" fill="white"/>
</clipPath>
</defs>
</svg>
