<svg width="22" height="22" fill="none" xmlns="http://www.w3.org/2000/svg"><g clip-path="url(#clip0)" fill-rule="evenodd" clip-rule="evenodd" fill="#65CBA0"><path d="M4.58 6.19a1.15 1.15 0 00-1.14 1.14v10.09a1.15 1.15 0 001.14 1.14h10.09a1.15 1.15 0 001.14-1.14v-5.5a.69.69 0 111.38 0v5.5a2.52 2.52 0 01-2.52 2.52H4.58a2.52 2.52 0 01-2.52-2.52V7.33a2.52 2.52 0 012.52-2.52h5.5a.69.69 0 110 1.38h-5.5zM13.06 2.75c0-.38.31-.69.69-.69h5.5c.38 0 .69.31.69.69v5.5a.69.69 0 11-1.38 0V3.44h-4.81a.69.69 0 01-.69-.69z"/><path d="M19.74 2.26c.26.27.26.7 0 .98L9.65 13.32a.69.69 0 11-.97-.97L18.76 2.26c.27-.26.7-.26.98 0z"/></g><defs><clipPath id="clip0"><path fill="#fff" d="M0 0h22v22H0z"/></clipPath></defs></svg>