<svg width="1341" height="641" viewBox="0 0 1341 641" fill="none" xmlns="http://www.w3.org/2000/svg">
<g opacity="0.7">
<g opacity="0.7" filter="url(#filter0_d)">
<path d="M949.496 187.364C951.669 197.672 946.124 209.22 933.935 221.325C921.765 233.412 903.076 245.944 879.252 258.19C831.612 282.677 763.547 305.963 686.35 322.23C609.154 338.497 537.478 344.657 484.005 341.476C457.265 339.885 435.106 335.96 419.092 329.812C403.054 323.655 393.318 315.327 391.146 305.019C388.973 294.711 394.518 283.163 406.707 271.058C418.877 258.971 437.566 246.438 461.389 234.193C509.029 209.706 577.095 186.42 654.292 170.153C731.488 153.886 803.164 147.726 856.637 150.907C883.377 152.498 905.535 156.423 921.55 162.571C937.588 168.728 947.323 177.056 949.496 187.364Z" stroke="url(#paint0_linear)"/>
</g>
<g opacity="0.7" filter="url(#filter1_d)">
<path d="M1034.18 191.332C1037.38 206.506 1030.43 223.187 1014.85 240.41C999.271 257.621 975.167 275.27 944.326 292.335C882.651 326.462 794.159 358.188 693.473 379.405C592.787 400.621 499.016 407.302 428.81 400.964C393.704 397.795 364.525 391.374 343.329 381.911C322.117 372.442 309.021 359.986 305.822 344.811C302.624 329.637 309.577 312.956 325.162 295.733C340.736 278.522 364.84 260.873 395.681 243.808C457.356 209.681 545.848 177.955 646.534 156.738C747.22 135.522 840.991 128.841 911.197 135.179C946.303 138.348 975.482 144.769 996.678 154.232C1017.89 163.701 1030.99 176.157 1034.18 191.332Z" stroke="url(#paint1_linear)" stroke-width="1.2" stroke-linecap="round" stroke-linejoin="round"/>
</g>
<g opacity="0.7" filter="url(#filter2_d)">
<path d="M1150.69 185.844C1154.96 205.331 1145.79 226.92 1125.25 249.33C1104.72 271.726 1072.94 294.831 1032.28 317.303C950.975 362.243 834.285 404.586 701.488 433.661C568.692 462.736 444.977 473.029 352.318 466.178C305.984 462.752 267.451 455.042 239.438 443.274C211.406 431.497 194.042 415.719 189.772 396.232C185.501 376.745 194.675 355.156 215.214 332.745C235.74 310.349 267.519 287.245 308.177 264.773C389.486 219.833 506.176 177.49 638.973 148.415C771.77 119.34 895.484 109.047 988.143 115.898C1034.48 119.324 1073.01 127.033 1101.02 138.802C1129.06 150.578 1146.42 166.357 1150.69 185.844Z" stroke="url(#paint2_linear)" stroke-width="1.2" stroke-linecap="round" stroke-linejoin="round"/>
</g>
<g opacity="0.7" filter="url(#filter3_d)">
<path d="M1299.6 182.684C1305.06 207.549 1292.85 235.175 1265.8 263.899C1238.76 292.606 1196.99 322.292 1143.62 351.231C1036.89 409.106 883.902 463.931 709.943 501.969C535.985 540.008 374.043 554.05 252.852 546.013C192.252 541.994 141.877 532.457 105.292 517.663C68.6844 502.86 46.0288 482.856 40.5724 457.991C35.116 433.126 47.3196 405.5 74.3752 376.775C101.415 348.068 143.183 318.383 196.55 289.443C303.277 231.568 456.27 176.744 630.228 138.705C804.186 100.666 966.129 86.625 1087.32 94.6617C1147.92 98.6803 1198.29 108.217 1234.88 123.012C1271.49 137.815 1294.14 157.819 1299.6 182.684Z" stroke="url(#paint3_linear)" stroke-width="1.2" stroke-linecap="round" stroke-linejoin="round"/>
</g>
<g opacity="0.7" filter="url(#filter4_d)">
<path d="M872.585 186.245C873.203 189.178 872.474 192.368 870.432 195.783C868.389 199.202 865.048 202.812 860.511 206.553C851.438 214.034 837.666 221.966 820.205 229.876C785.292 245.691 735.735 261.37 679.811 273.154C623.888 284.938 572.217 290.59 533.889 290.208C514.721 290.017 498.918 288.316 487.597 285.133C481.936 283.541 477.422 281.586 474.172 279.283C470.925 276.982 468.971 274.358 468.352 271.424C467.734 268.491 468.463 265.302 470.505 261.886C472.549 258.468 475.889 254.857 480.426 251.117C489.499 243.636 503.272 235.704 520.732 227.794C555.645 211.978 605.202 196.299 661.126 184.515C717.049 172.731 768.72 167.079 807.048 167.462C826.216 167.653 842.019 169.353 853.34 172.537C859.001 174.129 863.515 176.084 866.765 178.387C870.012 180.688 871.967 183.312 872.585 186.245Z" stroke="url(#paint4_linear)"/>
</g>
</g>
<defs>
<filter id="filter0_d" x="384.183" y="147.598" width="572.276" height="205.186" filterUnits="userSpaceOnUse" color-interpolation-filters="sRGB">
<feFlood flood-opacity="0" result="BackgroundImageFix"/>
<feColorMatrix in="SourceAlpha" type="matrix" values="0 0 0 0 0 0 0 0 0 0 0 0 0 0 0 0 0 0 127 0"/>
<feOffset dy="4"/>
<feGaussianBlur stdDeviation="3"/>
<feColorMatrix type="matrix" values="0 0 0 0 0.811765 0 0 0 0 0.533333 0 0 0 0 0.627451 0 0 0 0.5 0"/>
<feBlend mode="normal" in2="BackgroundImageFix" result="effect1_dropShadow"/>
<feBlend mode="normal" in="SourceGraphic" in2="effect1_dropShadow" result="shape"/>
</filter>
<filter id="filter1_d" x="298.46" y="130.286" width="743.087" height="283.57" filterUnits="userSpaceOnUse" color-interpolation-filters="sRGB">
<feFlood flood-opacity="0" result="BackgroundImageFix"/>
<feColorMatrix in="SourceAlpha" type="matrix" values="0 0 0 0 0 0 0 0 0 0 0 0 0 0 0 0 0 0 127 0"/>
<feOffset dy="4"/>
<feGaussianBlur stdDeviation="3"/>
<feColorMatrix type="matrix" values="0 0 0 0 0.811765 0 0 0 0 0.533333 0 0 0 0 0.627451 0 0 0 0.5 0"/>
<feBlend mode="normal" in2="BackgroundImageFix" result="effect1_dropShadow"/>
<feBlend mode="normal" in="SourceGraphic" in2="effect1_dropShadow" result="shape"/>
</filter>
<filter id="filter2_d" x="182.145" y="111.257" width="976.171" height="367.561" filterUnits="userSpaceOnUse" color-interpolation-filters="sRGB">
<feFlood flood-opacity="0" result="BackgroundImageFix"/>
<feColorMatrix in="SourceAlpha" type="matrix" values="0 0 0 0 0 0 0 0 0 0 0 0 0 0 0 0 0 0 127 0"/>
<feOffset dy="4"/>
<feGaussianBlur stdDeviation="3"/>
<feColorMatrix type="matrix" values="0 0 0 0 0.811765 0 0 0 0 0.533333 0 0 0 0 0.627451 0 0 0 0.5 0"/>
<feBlend mode="normal" in2="BackgroundImageFix" result="effect1_dropShadow"/>
<feBlend mode="normal" in="SourceGraphic" in2="effect1_dropShadow" result="shape"/>
</filter>
<filter id="filter3_d" x="32.6967" y="89.8789" width="1274.78" height="468.916" filterUnits="userSpaceOnUse" color-interpolation-filters="sRGB">
<feFlood flood-opacity="0" result="BackgroundImageFix"/>
<feColorMatrix in="SourceAlpha" type="matrix" values="0 0 0 0 0 0 0 0 0 0 0 0 0 0 0 0 0 0 127 0"/>
<feOffset dy="4"/>
<feGaussianBlur stdDeviation="3"/>
<feColorMatrix type="matrix" values="0 0 0 0 0.811765 0 0 0 0 0.533333 0 0 0 0 0.627451 0 0 0 0.5 0"/>
<feBlend mode="normal" in2="BackgroundImageFix" result="effect1_dropShadow"/>
<feBlend mode="normal" in="SourceGraphic" in2="effect1_dropShadow" result="shape"/>
</filter>
<filter id="filter4_d" x="461.639" y="164.943" width="417.659" height="135.782" filterUnits="userSpaceOnUse" color-interpolation-filters="sRGB">
<feFlood flood-opacity="0" result="BackgroundImageFix"/>
<feColorMatrix in="SourceAlpha" type="matrix" values="0 0 0 0 0 0 0 0 0 0 0 0 0 0 0 0 0 0 127 0"/>
<feOffset dy="4"/>
<feGaussianBlur stdDeviation="3"/>
<feColorMatrix type="matrix" values="0 0 0 0 0.811765 0 0 0 0 0.533333 0 0 0 0 0.627451 0 0 0 0.5 0"/>
<feBlend mode="normal" in2="BackgroundImageFix" result="effect1_dropShadow"/>
<feBlend mode="normal" in="SourceGraphic" in2="effect1_dropShadow" result="shape"/>
</filter>
<linearGradient id="paint0_linear" x1="654.188" y1="169.664" x2="686.441" y2="322.722" gradientUnits="userSpaceOnUse">
<stop stop-color="#5D3BAE"/>
<stop offset="0.520833" stop-color="#714382"/>
<stop offset="1" stop-color="#8A4161"/>
</linearGradient>
<linearGradient id="paint1_linear" x1="646.41" y1="156.151" x2="693.578" y2="379.996" gradientUnits="userSpaceOnUse">
<stop stop-color="#5D3BAE"/>
<stop offset="0.520833" stop-color="#714382"/>
<stop offset="1" stop-color="#8A4161"/>
</linearGradient>
<linearGradient id="paint2_linear" x1="638.845" y1="147.829" x2="701.557" y2="434.26" gradientUnits="userSpaceOnUse">
<stop stop-color="#5D3BAE"/>
<stop offset="0.520833" stop-color="#714382"/>
<stop offset="1" stop-color="#8A4161"/>
</linearGradient>
<linearGradient id="paint3_linear" x1="630.1" y1="138.119" x2="709.803" y2="502.614" gradientUnits="userSpaceOnUse">
<stop stop-color="#5D3BAE"/>
<stop offset="0.520833" stop-color="#714382"/>
<stop offset="1" stop-color="#8A4161"/>
</linearGradient>
<linearGradient id="paint4_linear" x1="661.023" y1="184.026" x2="679.907" y2="273.645" gradientUnits="userSpaceOnUse">
<stop stop-color="#5D3BAE"/>
<stop offset="0.520833" stop-color="#714382"/>
<stop offset="1" stop-color="#8A4161"/>
</linearGradient>
</defs>
</svg>
