<svg width="28" height="27" viewBox="0 0 28 27" fill="none" xmlns="http://www.w3.org/2000/svg">
<path fill-rule="evenodd" clip-rule="evenodd" d="M3.9487 6.08435C3.47267 6.08435 3.01614 6.26242 2.67954 6.57938C2.34293 6.89635 2.15383 7.32625 2.15383 7.77451V22.6479C2.15383 23.0962 2.34293 23.5261 2.67954 23.843C3.01614 24.16 3.47267 24.3381 3.9487 24.3381H19.7435C20.2195 24.3381 20.676 24.16 21.0126 23.843C21.3492 23.5261 21.5383 23.0962 21.5383 22.6479V14.5351C21.5383 13.9751 22.0205 13.5211 22.6153 13.5211C23.21 13.5211 23.6922 13.9751 23.6922 14.5351V22.6479C23.6922 23.6341 23.2761 24.5799 22.5356 25.2772C21.7951 25.9745 20.7907 26.3663 19.7435 26.3663H3.9487C2.90144 26.3663 1.89707 25.9745 1.15655 25.2772C0.416022 24.5799 0 23.6341 0 22.6479V7.77451C0 6.78834 0.416022 5.84256 1.15655 5.14523C1.89707 4.44791 2.90144 4.05615 3.9487 4.05615H12.564C13.1588 4.05615 13.6409 4.51018 13.6409 5.07025C13.6409 5.63032 13.1588 6.08435 12.564 6.08435H3.9487Z" fill="#43BEFF"/>
<path fill-rule="evenodd" clip-rule="evenodd" d="M17.231 1.0141C17.231 0.454027 17.7131 0 18.3079 0H26.9232C27.518 0 28.0001 0.454027 28.0001 1.0141V9.12688C28.0001 9.68695 27.518 10.141 26.9232 10.141C26.3284 10.141 25.8463 9.68695 25.8463 9.12688V2.0282H18.3079C17.7131 2.0282 17.231 1.57417 17.231 1.0141Z" fill="#43BEFF"/>
<path fill-rule="evenodd" clip-rule="evenodd" d="M27.684 0.297022C28.1045 0.693052 28.1045 1.33514 27.684 1.73117L11.8892 16.6046C11.4686 17.0006 10.7868 17.0006 10.3662 16.6046C9.94564 16.2086 9.94564 15.5665 10.3662 15.1704L26.161 0.297022C26.5815 -0.0990073 27.2634 -0.0990073 27.684 0.297022Z" fill="#43BEFF"/>
</svg>
