<svg width="20" height="19" viewBox="0 0 20 19" fill="none" xmlns="http://www.w3.org/2000/svg">
<path fill-rule="evenodd" clip-rule="evenodd" d="M2.82052 4.34617C2.48049 4.34617 2.1544 4.47337 1.91397 4.69977C1.67354 4.92618 1.53846 5.23325 1.53846 5.55344V16.1773C1.53846 16.4975 1.67354 16.8046 1.91397 17.031C2.1544 17.2574 2.48049 17.3846 2.82052 17.3846H14.1026C14.4426 17.3846 14.7687 17.2574 15.0091 17.031C15.2496 16.8046 15.3846 16.4975 15.3846 16.1773V10.3825C15.3846 9.98243 15.729 9.65813 16.1539 9.65813C16.5787 9.65813 16.9231 9.98243 16.9231 10.3825V16.1773C16.9231 16.8817 16.6259 17.5573 16.097 18.0554C15.568 18.5535 14.8506 18.8333 14.1026 18.8333H2.82052C2.07247 18.8333 1.35506 18.5535 0.82611 18.0554C0.297161 17.5573 0 16.8817 0 16.1773V5.55344C0 4.84903 0.29716 4.17347 0.82611 3.67538C1.35506 3.17729 2.07247 2.89746 2.82052 2.89746H8.97437C9.3992 2.89746 9.7436 3.22177 9.7436 3.62182C9.7436 4.02187 9.3992 4.34617 8.97437 4.34617H2.82052Z" fill="#43BEFF"/>
<path fill-rule="evenodd" clip-rule="evenodd" d="M12.3079 0.724359C12.3079 0.324307 12.6523 0 13.0771 0H19.2309C19.6557 0 20.0001 0.324307 20.0001 0.724359V6.51923C20.0001 6.91929 19.6557 7.24359 19.2309 7.24359C18.8061 7.24359 18.4617 6.91929 18.4617 6.51923V1.44872H13.0771C12.6523 1.44872 12.3079 1.12441 12.3079 0.724359Z" fill="#43BEFF"/>
<path fill-rule="evenodd" clip-rule="evenodd" d="M19.7743 0.21216C20.0747 0.495039 20.0747 0.953677 19.7743 1.23656L8.49235 11.8605C8.19195 12.1434 7.7049 12.1434 7.4045 11.8605C7.1041 11.5776 7.1041 11.119 7.4045 10.8361L18.6865 0.21216C18.9869 -0.0707198 19.4739 -0.0707198 19.7743 0.21216Z" fill="#43BEFF"/>
</svg>
