<svg width="42" height="42" viewBox="0 0 42 42" fill="none" xmlns="http://www.w3.org/2000/svg">
<path d="M21.0011 33.25C18.5783 33.25 16.2099 32.5315 14.1954 31.1855C12.1809 29.8394 10.6107 27.9262 9.68358 25.6878C8.75641 23.4495 8.51382 20.9864 8.98648 18.6101C9.45915 16.2339 10.6258 14.0511 12.339 12.3379C14.0522 10.6247 16.235 9.45805 18.6112 8.98539C20.9875 8.51272 23.4506 8.75531 25.6889 9.68248C27.9273 10.6097 29.8405 12.1798 31.1866 14.1943C32.5326 16.2088 33.2511 18.5772 33.2511 21C33.2511 24.2489 31.9604 27.3647 29.6631 29.662C27.3658 31.9593 24.25 33.25 21.0011 33.25ZM21.0011 9.91667C18.809 9.91667 16.6662 10.5667 14.8435 11.7845C13.0209 13.0024 11.6003 14.7334 10.7614 16.7586C9.92257 18.7838 9.70308 21.0123 10.1307 23.1622C10.5584 25.3122 11.614 27.287 13.164 28.8371C14.714 30.3871 16.6889 31.4427 18.8388 31.8703C20.9888 32.298 23.2173 32.0785 25.2425 31.2396C27.2677 30.4008 28.9987 28.9802 30.2165 27.1575C31.4344 25.3349 32.0844 23.1921 32.0844 21C32.0844 18.0605 30.9167 15.2414 28.8382 13.1629C26.7596 11.0844 23.9406 9.91667 21.0011 9.91667V9.91667Z" fill="#F8F8FC"/>
<path d="M23.0417 41.9999H18.9584C18.4437 41.9984 17.9505 41.7932 17.5865 41.4293C17.2226 41.0653 17.0174 40.5721 17.0159 40.0574V38.1441C15.08 37.6976 13.2352 36.9222 11.5617 35.8516L10.4242 37.0183C10.2438 37.1987 10.0297 37.3418 9.79397 37.4395C9.55826 37.5371 9.30562 37.5874 9.05048 37.5874C8.79534 37.5874 8.5427 37.5371 8.30699 37.4395C8.07128 37.3418 7.85712 37.1987 7.67673 37.0183L4.78924 34.1016C4.6088 33.9212 4.46567 33.7071 4.36801 33.4713C4.27036 33.2356 4.2201 32.983 4.2201 32.7279C4.2201 32.4727 4.27036 32.2201 4.36801 31.9844C4.46567 31.7487 4.6088 31.5345 4.78924 31.3541L5.9559 30.1874C4.97609 28.5852 4.25924 26.8364 3.83257 25.0074H1.94258C1.68573 25.0067 1.43157 24.9552 1.19471 24.8558C0.957857 24.7565 0.742984 24.6113 0.562453 24.4286C0.381922 24.2459 0.239296 24.0293 0.142782 23.7912C0.0462686 23.5532 -0.00222946 23.2985 7.86769e-05 23.0416V18.9583C0.00161743 18.4436 0.206767 17.9504 0.570723 17.5864C0.934678 17.2225 1.42787 17.0173 1.94258 17.0158H3.85591C4.30881 15.0535 5.09826 13.1845 6.18923 11.4916L4.7834 10.0858C4.41864 9.72051 4.21376 9.22538 4.21376 8.70915C4.21376 8.19292 4.41864 7.69779 4.7834 7.33249L7.6709 4.44499C7.85128 4.26456 8.06545 4.12142 8.30116 4.02377C8.53687 3.92611 8.78951 3.87585 9.04464 3.87585C9.29978 3.87585 9.55242 3.92611 9.78813 4.02377C10.0238 4.12142 10.238 4.26456 10.4184 4.44499L11.9059 5.93249C13.4869 4.97506 15.2097 4.27415 17.01 3.85583V1.9425C17.0116 1.42678 17.2175 0.93271 17.5828 0.568588C17.948 0.204466 18.4427 -2.31147e-06 18.9584 0H23.0417C23.5564 0.00153875 24.0496 0.206688 24.4136 0.570644C24.7775 0.9346 24.9827 1.42779 24.9842 1.9425V3.85583C26.8132 4.28249 28.562 4.99935 30.1642 5.97915L31.6925 4.44499C31.8729 4.26456 32.0871 4.12142 32.3228 4.02377C32.5585 3.92611 32.8111 3.87585 33.0663 3.87585C33.3214 3.87585 33.574 3.92611 33.8098 4.02377C34.0455 4.12142 34.2596 4.26456 34.44 4.44499L37.3333 7.33249C37.6981 7.69779 37.903 8.19292 37.903 8.70915C37.903 9.22538 37.6981 9.72051 37.3333 10.0858L35.8575 11.5616C36.9281 13.2351 37.7036 15.08 38.15 17.0158H40.0633C40.577 17.0189 41.0687 17.2247 41.4314 17.5885C41.7941 17.9523 41.9985 18.4446 42 18.9583V23.0416C41.9985 23.5563 41.7933 24.0495 41.4294 24.4135C41.0654 24.7774 40.5722 24.9826 40.0575 24.9841H38.1442C37.7246 26.7841 37.0238 28.5067 36.0675 30.0883L37.3333 31.3541C37.5138 31.5345 37.6569 31.7487 37.7546 31.9844C37.8522 32.2201 37.9025 32.4727 37.9025 32.7279C37.9025 32.983 37.8522 33.2356 37.7546 33.4713C37.6569 33.7071 37.5138 33.9212 37.3333 34.1016L34.4458 37.0183C34.2655 37.1987 34.0513 37.3418 33.8156 37.4395C33.5799 37.5371 33.3272 37.5874 33.0721 37.5874C32.817 37.5874 32.5643 37.5371 32.3286 37.4395C32.0929 37.3418 31.8787 37.1987 31.6983 37.0183L30.5317 35.8516C28.8389 36.9426 26.9699 37.732 25.0075 38.1849V40.0983C24.9953 40.6099 24.7822 41.0962 24.4144 41.452C24.0465 41.8079 23.5535 42.0047 23.0417 41.9999ZM11.4859 34.5216C11.6022 34.5213 11.716 34.5559 11.8126 34.6208C13.5969 35.8296 15.6034 36.6723 17.7159 37.0999C17.8496 37.1272 17.9696 37.2005 18.0548 37.3071C18.1401 37.4137 18.1853 37.5468 18.1825 37.6833V40.0691C18.1856 40.2728 18.2687 40.4672 18.4139 40.6102C18.559 40.7531 18.7546 40.8333 18.9584 40.8333H23.0417C23.2475 40.8333 23.4448 40.7515 23.5903 40.606C23.7358 40.4605 23.8175 40.2632 23.8175 40.0574V37.6716C23.8148 37.5351 23.86 37.402 23.9452 37.2954C24.0305 37.1888 24.1505 37.1155 24.2842 37.0883C26.4252 36.6574 28.457 35.7983 30.2575 34.5624C30.3698 34.486 30.5053 34.4512 30.6405 34.464C30.7758 34.4767 30.9023 34.5363 30.9984 34.6324L32.515 36.1666C32.6615 36.3123 32.8597 36.3941 33.0663 36.3941C33.2729 36.3941 33.471 36.3123 33.6175 36.1666L36.5342 33.2499C36.6799 33.1035 36.7617 32.9053 36.7617 32.6987C36.7617 32.4921 36.6799 32.2939 36.5342 32.1474L34.9417 30.5549C34.849 30.4608 34.791 30.3379 34.7772 30.2065C34.7635 30.0751 34.7947 29.9429 34.8658 29.8316C35.9599 28.1293 36.7275 26.2382 37.1292 24.255C37.1564 24.1212 37.2298 24.0013 37.3363 23.916C37.4429 23.8307 37.576 23.7855 37.7125 23.7883H40.0983C40.292 23.7782 40.4749 23.696 40.6109 23.5578C40.747 23.4196 40.8263 23.2354 40.8333 23.0416V18.9583C40.8333 18.7525 40.7516 18.5552 40.6061 18.4097C40.4606 18.2642 40.2633 18.1825 40.0575 18.1825H37.6717C37.5352 18.1852 37.4021 18.14 37.2955 18.0548C37.1889 17.9695 37.1156 17.8495 37.0883 17.7158C36.6607 15.6034 35.818 13.5968 34.6092 11.8125C34.5373 11.6999 34.5062 11.5662 34.521 11.4334C34.5359 11.3007 34.5958 11.1771 34.6908 11.0833L36.505 9.26915C36.6503 9.12367 36.732 8.92645 36.732 8.72082C36.732 8.51518 36.6503 8.31796 36.505 8.17248L33.5883 5.28499C33.4419 5.1393 33.2437 5.05751 33.0371 5.05751C32.8305 5.05751 32.6323 5.1393 32.4859 5.28499L30.625 7.14582C30.5305 7.23993 30.4065 7.29879 30.2738 7.31259C30.1412 7.32639 30.0077 7.29429 29.8959 7.22165C28.1796 6.09506 26.2656 5.30336 24.255 4.88832C24.1213 4.86105 24.0013 4.78774 23.9161 4.68116C23.8308 4.57457 23.7856 4.44146 23.7884 4.30499V1.9425C23.7885 1.74169 23.7108 1.54865 23.5715 1.40396C23.4323 1.25927 23.2424 1.17421 23.0417 1.16666H18.9584C18.7526 1.16666 18.5553 1.2484 18.4098 1.3939C18.2643 1.5394 18.1825 1.73673 18.1825 1.9425V4.32832C18.1853 4.46479 18.1401 4.59791 18.0548 4.70449C17.9696 4.81108 17.8496 4.88439 17.7159 4.91166C15.7326 5.31337 13.8415 6.08089 12.1392 7.17499C12.0279 7.24613 11.8957 7.27737 11.7643 7.2636C11.6329 7.24982 11.51 7.19184 11.4159 7.09915L9.60173 5.24999C9.45526 5.1043 9.25707 5.02251 9.05048 5.02251C8.84389 5.02251 8.6457 5.1043 8.49923 5.24999L5.61174 8.16665C5.4664 8.31213 5.38476 8.50935 5.38476 8.71498C5.38476 8.92062 5.4664 9.11784 5.61174 9.26331L7.36173 11.0133C7.45784 11.1093 7.51742 11.2359 7.5302 11.3711C7.54298 11.5064 7.50815 11.6418 7.43173 11.7541C6.19526 13.5508 5.33418 15.5785 4.90007 17.7158C4.8728 17.8495 4.79949 17.9695 4.6929 18.0548C4.58632 18.14 4.45321 18.1852 4.31674 18.1825H1.94258C1.84069 18.1825 1.73981 18.2025 1.64568 18.2415C1.55155 18.2805 1.46602 18.3377 1.39398 18.4097C1.32194 18.4817 1.26479 18.5673 1.2258 18.6614C1.18681 18.7555 1.16674 18.8564 1.16674 18.9583V23.0416C1.16674 23.2474 1.24848 23.4447 1.39398 23.5902C1.53948 23.7357 1.73681 23.8175 1.94258 23.8175H4.3284C4.46487 23.8147 4.59798 23.8599 4.70457 23.9452C4.81116 24.0304 4.88446 24.1504 4.91174 24.2841C5.32569 26.2951 6.11747 28.2092 7.24506 29.9249C7.31771 30.0368 7.3498 30.1702 7.336 30.3029C7.3222 30.4356 7.26334 30.5596 7.16923 30.6541L5.64673 32.1766C5.50104 32.3231 5.41926 32.5213 5.41926 32.7279C5.41926 32.9344 5.50104 33.1326 5.64673 33.2791L8.53423 36.1958C8.6807 36.3415 8.87889 36.4232 9.08548 36.4232C9.29207 36.4232 9.49026 36.3415 9.63673 36.1958L11.0834 34.6908C11.1906 34.5844 11.3349 34.5238 11.4859 34.5216Z" fill="#F8F8FC"/>
<path d="M21.0019 22.1663C21.6462 22.1663 22.1685 21.644 22.1685 20.9997C22.1685 20.3553 21.6462 19.833 21.0019 19.833C20.3575 19.833 19.8352 20.3553 19.8352 20.9997C19.8352 21.644 20.3575 22.1663 21.0019 22.1663Z" fill="#F8F8FC"/>
<path d="M21.0018 21.5832C20.8647 21.583 20.732 21.5345 20.6271 21.4463C20.5221 21.358 20.4516 21.2356 20.4279 21.1005C20.4043 20.9655 20.4289 20.8264 20.4976 20.7077C20.5663 20.589 20.6746 20.4983 20.8035 20.4515L28.4743 17.6573C28.5463 17.6309 28.6228 17.6189 28.6995 17.6221C28.7761 17.6252 28.8514 17.6434 28.921 17.6756C28.9906 17.7079 29.0532 17.7535 29.1052 17.8099C29.1571 17.8663 29.1975 17.9324 29.2239 18.0044C29.2503 18.0764 29.2623 18.1529 29.2592 18.2296C29.256 18.3062 29.2378 18.3815 29.2056 18.4511C29.1734 18.5207 29.1278 18.5833 29.0713 18.6353C29.0149 18.6872 28.9488 18.7276 28.8768 18.754L21.2002 21.5482C21.1366 21.5713 21.0695 21.5831 21.0018 21.5832Z" fill="#F8F8FC"/>
<path d="M23.3316 24.9262C23.2381 24.9267 23.1458 24.9047 23.0626 24.862C22.9793 24.8194 22.9075 24.7574 22.8533 24.6812L20.52 21.3328C20.4411 21.2058 20.4141 21.0534 20.4443 20.9071C20.4746 20.7607 20.5599 20.6316 20.6826 20.5462C20.8054 20.4609 20.9561 20.426 21.1039 20.4486C21.2516 20.4712 21.385 20.5497 21.4766 20.6678L23.8099 24.0103C23.8985 24.1366 23.9335 24.2927 23.9073 24.4446C23.881 24.5966 23.7957 24.732 23.6699 24.8212C23.5708 24.8904 23.4525 24.9271 23.3316 24.9262V24.9262Z" fill="#F8F8FC"/>
</svg>
