<svg width="40" height="40" viewBox="0 0 40 40" fill="none" xmlns="http://www.w3.org/2000/svg">
<mask id="path-1-inside-1" fill="white">
<path d="M38.1818 9.09091C37.1416 9.09091 36.6183 9.75193 36.438 10.3896H36.1039V4.41558C36.1039 4.12845 35.8713 3.8961 35.5844 3.8961H29.6104V3.56179C30.2481 3.3817 30.9091 2.85816 30.9091 1.81818C30.9091 0.483969 29.8217 0 29.0909 0H26.4935C25.7627 0 24.6753 0.483969 24.6753 1.81818C24.6753 2.85816 25.3363 3.3817 25.974 3.56179V3.8961H20H14.026V3.56179C14.6637 3.3817 15.3247 2.85816 15.3247 1.81818C15.3247 0.483969 14.2373 0 13.5065 0H10.9091C10.1783 0 9.09091 0.483969 9.09091 1.81818C9.09091 2.85816 9.75193 3.3817 10.3896 3.56179V3.8961H4.41558C4.1287 3.8961 3.8961 4.12845 3.8961 4.41558V10.3896H3.56204C3.3817 9.75193 2.85841 9.09091 1.81818 9.09091C0.484223 9.09091 0 10.1781 0 10.9091V13.5065C0 14.2375 0.484223 15.3247 1.81818 15.3247C2.85841 15.3247 3.3817 14.6637 3.56204 14.026H3.8961V20V25.974H3.56204C3.3817 25.3363 2.85841 24.6753 1.81818 24.6753C0.484223 24.6753 0 25.7625 0 26.4935V29.0909C0 29.8219 0.484223 30.9091 1.81818 30.9091C2.85841 30.9091 3.3817 30.2481 3.56204 29.6104H3.8961V35.5844C3.8961 35.8716 4.1287 36.1039 4.41558 36.1039H10.3896V36.4382C9.75193 36.6183 9.09091 37.1418 9.09091 38.1818C9.09091 39.516 10.1783 40 10.9091 40H13.5065C14.2373 40 15.3247 39.516 15.3247 38.1818C15.3247 37.1418 14.6637 36.6183 14.026 36.4382V36.1039H20H25.974V36.4382C25.3363 36.6183 24.6753 37.1418 24.6753 38.1818C24.6753 39.516 25.7627 40 26.4935 40H29.0909C29.8217 40 30.9091 39.516 30.9091 38.1818C30.9091 37.1418 30.2481 36.6183 29.6104 36.4382V36.1039H35.5844C35.8713 36.1039 36.1039 35.8716 36.1039 35.5844V29.6104H36.438C36.6183 30.2481 37.1416 30.9091 38.1818 30.9091C39.5158 30.9091 40 29.8219 40 29.0909V26.4935C40 25.7625 39.5158 24.6753 38.1818 24.6753C37.1416 24.6753 36.6183 25.3363 36.438 25.974H36.1039V20V14.026H36.438C36.6183 14.6637 37.1416 15.3247 38.1818 15.3247C39.5158 15.3247 40 14.2375 40 13.5065V10.9091C40 10.1781 39.5158 9.09091 38.1818 9.09091ZM3.8961 28.5714H3.11688C2.83 28.5714 2.5974 28.8038 2.5974 29.0909C2.5974 29.2208 2.55986 29.8701 1.81818 29.8701C1.1285 29.8701 1.04353 29.3217 1.03896 29.0909V26.4935C1.03896 26.3636 1.0765 25.7143 1.81818 25.7143C2.50786 25.7143 2.59284 26.2627 2.5974 26.4935C2.5974 26.7806 2.83 27.013 3.11688 27.013H3.8961V28.5714ZM25.7143 1.81818C25.7143 1.12875 26.2627 1.04353 26.4935 1.03896H29.0909C29.221 1.03896 29.8701 1.0765 29.8701 1.81818C29.8701 2.50761 29.3217 2.59284 29.0909 2.5974C28.804 2.5974 28.5714 2.82975 28.5714 3.11688V3.8961H27.013V3.11688C27.013 2.82975 26.7804 2.5974 26.4935 2.5974C26.3634 2.5974 25.7143 2.55986 25.7143 1.81818ZM4.41558 12.987H3.11688C2.83 12.987 2.5974 13.2194 2.5974 13.5065C2.5974 13.6364 2.55986 14.2857 1.81818 14.2857C1.1285 14.2857 1.04353 13.7373 1.03896 13.5065V10.9091C1.03896 10.7792 1.0765 10.1299 1.81818 10.1299C2.50786 10.1299 2.59284 10.6783 2.5974 10.9091C2.5974 11.1962 2.83 11.4286 3.11688 11.4286H4.41558C4.70247 11.4286 4.93507 11.1962 4.93507 10.9091V4.93507H10.9091C11.196 4.93507 11.4286 4.70272 11.4286 4.41558V3.11688C11.4286 2.82975 11.196 2.5974 10.9091 2.5974C10.779 2.5974 10.1299 2.55986 10.1299 1.81818C10.1299 1.12875 10.6783 1.04353 10.9091 1.03896H13.5065C13.6366 1.03896 14.2857 1.0765 14.2857 1.81818C14.2857 2.50761 13.7373 2.59284 13.5065 2.5974C13.2196 2.5974 12.987 2.82975 12.987 3.11688V4.41558C12.987 4.70272 13.2196 4.93507 13.5065 4.93507H19.4805V10.9091C19.4805 11.1962 19.7131 11.4286 20 11.4286H21.2987C21.5856 11.4286 21.8182 11.1962 21.8182 10.9091C21.8182 10.7792 21.8557 10.1299 22.5974 10.1299C23.2871 10.1299 23.3721 10.6783 23.3766 10.9091V13.5065C23.3766 13.6364 23.3391 14.2857 22.5974 14.2857C21.9077 14.2857 21.8227 13.7373 21.8182 13.5065C21.8182 13.2194 21.5856 12.987 21.2987 12.987H20C19.7131 12.987 19.4805 13.2194 19.4805 13.5065V19.4805H14.026V19.1462C14.6637 18.9661 15.3247 18.4426 15.3247 17.4026C15.3247 16.0684 14.2373 15.5844 13.5065 15.5844H10.9091C10.1783 15.5844 9.09091 16.0684 9.09091 17.4026C9.09091 18.4426 9.75193 18.9661 10.3896 19.1462V19.4805H4.93507V13.5065C4.93507 13.2194 4.70247 12.987 4.41558 12.987ZM19.4805 35.0649H13.5065C13.2196 35.0649 12.987 35.2973 12.987 35.5844V36.8831C12.987 37.1703 13.2196 37.4026 13.5065 37.4026C13.6366 37.4026 14.2857 37.4401 14.2857 38.1818C14.2857 38.8697 13.7399 38.956 13.5032 38.961H10.9091C10.779 38.961 10.1299 38.9235 10.1299 38.1818C10.1299 37.4924 10.6783 37.4072 10.9091 37.4026C11.196 37.4026 11.4286 37.1703 11.4286 36.8831V35.5844C11.4286 35.2973 11.196 35.0649 10.9091 35.0649H4.93507V29.0909V26.4935V20.5195H10.9091C11.196 20.5195 11.4286 20.2871 11.4286 20V18.7013C11.4286 18.4142 11.196 18.1818 10.9091 18.1818C10.779 18.1818 10.1299 18.1443 10.1299 17.4026C10.1299 16.7132 10.6783 16.6279 10.9091 16.6234H13.5065C13.6366 16.6234 14.2857 16.6609 14.2857 17.4026C14.2857 18.092 13.7373 18.1773 13.5065 18.1818C13.2196 18.1818 12.987 18.4142 12.987 18.7013V20C12.987 20.2871 13.2196 20.5195 13.5065 20.5195H19.4805V25.974H19.1465C18.9661 25.3363 18.4428 24.6753 17.4026 24.6753C16.0686 24.6753 15.5844 25.7625 15.5844 26.4935V29.0909C15.5844 29.8219 16.0686 30.9091 17.4026 30.9091C18.4428 30.9091 18.9661 30.2481 19.1465 29.6104H19.4805V35.0649ZM35.0649 26.4935V29.0909V35.0649H29.0909C28.804 35.0649 28.5714 35.2973 28.5714 35.5844V36.8831C28.5714 37.1703 28.804 37.4026 29.0909 37.4026C29.221 37.4026 29.8701 37.4401 29.8701 38.1818C29.8701 38.8697 29.3243 38.956 29.0876 38.961H26.4935C26.3634 38.961 25.7143 38.9235 25.7143 38.1818C25.7143 37.4924 26.2627 37.4072 26.4935 37.4026C26.7804 37.4026 27.013 37.1703 27.013 36.8831V35.5844C27.013 35.2973 26.7804 35.0649 26.4935 35.0649H20.5195V29.0909C20.5195 28.8038 20.2869 28.5714 20 28.5714H18.7013C18.4144 28.5714 18.1818 28.8038 18.1818 29.0909C18.1818 29.2208 18.1443 29.8701 17.4026 29.8701C16.7129 29.8701 16.6279 29.3217 16.6234 29.0909V26.4935C16.6234 26.3636 16.6609 25.7143 17.4026 25.7143C18.0923 25.7143 18.1773 26.2627 18.1818 26.4935C18.1818 26.7806 18.4144 27.013 18.7013 27.013H20C20.2869 27.013 20.5195 26.7806 20.5195 26.4935V20.5195H25.974V20.8538C25.3363 21.0339 24.6753 21.5574 24.6753 22.5974C24.6753 23.9316 25.7627 24.4156 26.4935 24.4156H29.0909C29.8217 24.4156 30.9091 23.9316 30.9091 22.5974C30.9091 21.5574 30.2481 21.0339 29.6104 20.8538V20.5195H35.0649V26.4935ZM35.0649 10.9091V13.5065V19.4805H29.0909C28.804 19.4805 28.5714 19.7129 28.5714 20V21.2987C28.5714 21.5858 28.804 21.8182 29.0909 21.8182C29.221 21.8182 29.8701 21.8557 29.8701 22.5974C29.8701 22.6835 29.8616 22.7601 29.8462 22.8284C29.8347 22.8793 29.816 22.9212 29.7975 22.9632C29.7913 22.9774 29.788 22.9955 29.7811 23.0087C29.6165 23.3233 29.2651 23.3728 29.0876 23.3766H26.4935C26.3634 23.3766 25.7143 23.3391 25.7143 22.5974C25.7143 21.908 26.2627 21.8227 26.4935 21.8182C26.7804 21.8182 27.013 21.5858 27.013 21.2987V20C27.013 19.7129 26.7804 19.4805 26.4935 19.4805H20.5195V14.026H20.8535C21.0339 14.6637 21.5572 15.3247 22.5974 15.3247C23.9314 15.3247 24.4156 14.2375 24.4156 13.5065V10.9091C24.4156 10.1781 23.9314 9.09091 22.5974 9.09091C21.5572 9.09091 21.0339 9.75193 20.8535 10.3896H20.5195V4.93507H26.4935H29.0909H35.0649V10.9091ZM36.8831 27.013C37.17 27.013 37.4026 26.7806 37.4026 26.4935C37.4026 26.3636 37.4401 25.7143 38.1818 25.7143C38.8715 25.7143 38.9565 26.2627 38.961 26.4935V29.0909C38.961 29.2208 38.9235 29.8701 38.1818 29.8701C37.4921 29.8701 37.4072 29.3217 37.4026 29.0909C37.4026 28.8038 37.17 28.5714 36.8831 28.5714H36.1039V27.013H36.8831ZM38.961 13.5065C38.961 13.6364 38.9235 14.2857 38.1818 14.2857C37.4921 14.2857 37.4072 13.7373 37.4026 13.5065C37.4026 13.2194 37.17 12.987 36.8831 12.987H36.1039V11.4286H36.8831C37.17 11.4286 37.4026 11.1962 37.4026 10.9091C37.4026 10.7792 37.4401 10.1299 38.1818 10.1299C38.8715 10.1299 38.9565 10.6783 38.961 10.9091V13.5065Z"/>
</mask>
<path d="M38.1818 9.09091C37.1416 9.09091 36.6183 9.75193 36.438 10.3896H36.1039V4.41558C36.1039 4.12845 35.8713 3.8961 35.5844 3.8961H29.6104V3.56179C30.2481 3.3817 30.9091 2.85816 30.9091 1.81818C30.9091 0.483969 29.8217 0 29.0909 0H26.4935C25.7627 0 24.6753 0.483969 24.6753 1.81818C24.6753 2.85816 25.3363 3.3817 25.974 3.56179V3.8961H20H14.026V3.56179C14.6637 3.3817 15.3247 2.85816 15.3247 1.81818C15.3247 0.483969 14.2373 0 13.5065 0H10.9091C10.1783 0 9.09091 0.483969 9.09091 1.81818C9.09091 2.85816 9.75193 3.3817 10.3896 3.56179V3.8961H4.41558C4.1287 3.8961 3.8961 4.12845 3.8961 4.41558V10.3896H3.56204C3.3817 9.75193 2.85841 9.09091 1.81818 9.09091C0.484223 9.09091 0 10.1781 0 10.9091V13.5065C0 14.2375 0.484223 15.3247 1.81818 15.3247C2.85841 15.3247 3.3817 14.6637 3.56204 14.026H3.8961V20V25.974H3.56204C3.3817 25.3363 2.85841 24.6753 1.81818 24.6753C0.484223 24.6753 0 25.7625 0 26.4935V29.0909C0 29.8219 0.484223 30.9091 1.81818 30.9091C2.85841 30.9091 3.3817 30.2481 3.56204 29.6104H3.8961V35.5844C3.8961 35.8716 4.1287 36.1039 4.41558 36.1039H10.3896V36.4382C9.75193 36.6183 9.09091 37.1418 9.09091 38.1818C9.09091 39.516 10.1783 40 10.9091 40H13.5065C14.2373 40 15.3247 39.516 15.3247 38.1818C15.3247 37.1418 14.6637 36.6183 14.026 36.4382V36.1039H20H25.974V36.4382C25.3363 36.6183 24.6753 37.1418 24.6753 38.1818C24.6753 39.516 25.7627 40 26.4935 40H29.0909C29.8217 40 30.9091 39.516 30.9091 38.1818C30.9091 37.1418 30.2481 36.6183 29.6104 36.4382V36.1039H35.5844C35.8713 36.1039 36.1039 35.8716 36.1039 35.5844V29.6104H36.438C36.6183 30.2481 37.1416 30.9091 38.1818 30.9091C39.5158 30.9091 40 29.8219 40 29.0909V26.4935C40 25.7625 39.5158 24.6753 38.1818 24.6753C37.1416 24.6753 36.6183 25.3363 36.438 25.974H36.1039V20V14.026H36.438C36.6183 14.6637 37.1416 15.3247 38.1818 15.3247C39.5158 15.3247 40 14.2375 40 13.5065V10.9091C40 10.1781 39.5158 9.09091 38.1818 9.09091ZM3.8961 28.5714H3.11688C2.83 28.5714 2.5974 28.8038 2.5974 29.0909C2.5974 29.2208 2.55986 29.8701 1.81818 29.8701C1.1285 29.8701 1.04353 29.3217 1.03896 29.0909V26.4935C1.03896 26.3636 1.0765 25.7143 1.81818 25.7143C2.50786 25.7143 2.59284 26.2627 2.5974 26.4935C2.5974 26.7806 2.83 27.013 3.11688 27.013H3.8961V28.5714ZM25.7143 1.81818C25.7143 1.12875 26.2627 1.04353 26.4935 1.03896H29.0909C29.221 1.03896 29.8701 1.0765 29.8701 1.81818C29.8701 2.50761 29.3217 2.59284 29.0909 2.5974C28.804 2.5974 28.5714 2.82975 28.5714 3.11688V3.8961H27.013V3.11688C27.013 2.82975 26.7804 2.5974 26.4935 2.5974C26.3634 2.5974 25.7143 2.55986 25.7143 1.81818ZM4.41558 12.987H3.11688C2.83 12.987 2.5974 13.2194 2.5974 13.5065C2.5974 13.6364 2.55986 14.2857 1.81818 14.2857C1.1285 14.2857 1.04353 13.7373 1.03896 13.5065V10.9091C1.03896 10.7792 1.0765 10.1299 1.81818 10.1299C2.50786 10.1299 2.59284 10.6783 2.5974 10.9091C2.5974 11.1962 2.83 11.4286 3.11688 11.4286H4.41558C4.70247 11.4286 4.93507 11.1962 4.93507 10.9091V4.93507H10.9091C11.196 4.93507 11.4286 4.70272 11.4286 4.41558V3.11688C11.4286 2.82975 11.196 2.5974 10.9091 2.5974C10.779 2.5974 10.1299 2.55986 10.1299 1.81818C10.1299 1.12875 10.6783 1.04353 10.9091 1.03896H13.5065C13.6366 1.03896 14.2857 1.0765 14.2857 1.81818C14.2857 2.50761 13.7373 2.59284 13.5065 2.5974C13.2196 2.5974 12.987 2.82975 12.987 3.11688V4.41558C12.987 4.70272 13.2196 4.93507 13.5065 4.93507H19.4805V10.9091C19.4805 11.1962 19.7131 11.4286 20 11.4286H21.2987C21.5856 11.4286 21.8182 11.1962 21.8182 10.9091C21.8182 10.7792 21.8557 10.1299 22.5974 10.1299C23.2871 10.1299 23.3721 10.6783 23.3766 10.9091V13.5065C23.3766 13.6364 23.3391 14.2857 22.5974 14.2857C21.9077 14.2857 21.8227 13.7373 21.8182 13.5065C21.8182 13.2194 21.5856 12.987 21.2987 12.987H20C19.7131 12.987 19.4805 13.2194 19.4805 13.5065V19.4805H14.026V19.1462C14.6637 18.9661 15.3247 18.4426 15.3247 17.4026C15.3247 16.0684 14.2373 15.5844 13.5065 15.5844H10.9091C10.1783 15.5844 9.09091 16.0684 9.09091 17.4026C9.09091 18.4426 9.75193 18.9661 10.3896 19.1462V19.4805H4.93507V13.5065C4.93507 13.2194 4.70247 12.987 4.41558 12.987ZM19.4805 35.0649H13.5065C13.2196 35.0649 12.987 35.2973 12.987 35.5844V36.8831C12.987 37.1703 13.2196 37.4026 13.5065 37.4026C13.6366 37.4026 14.2857 37.4401 14.2857 38.1818C14.2857 38.8697 13.7399 38.956 13.5032 38.961H10.9091C10.779 38.961 10.1299 38.9235 10.1299 38.1818C10.1299 37.4924 10.6783 37.4072 10.9091 37.4026C11.196 37.4026 11.4286 37.1703 11.4286 36.8831V35.5844C11.4286 35.2973 11.196 35.0649 10.9091 35.0649H4.93507V29.0909V26.4935V20.5195H10.9091C11.196 20.5195 11.4286 20.2871 11.4286 20V18.7013C11.4286 18.4142 11.196 18.1818 10.9091 18.1818C10.779 18.1818 10.1299 18.1443 10.1299 17.4026C10.1299 16.7132 10.6783 16.6279 10.9091 16.6234H13.5065C13.6366 16.6234 14.2857 16.6609 14.2857 17.4026C14.2857 18.092 13.7373 18.1773 13.5065 18.1818C13.2196 18.1818 12.987 18.4142 12.987 18.7013V20C12.987 20.2871 13.2196 20.5195 13.5065 20.5195H19.4805V25.974H19.1465C18.9661 25.3363 18.4428 24.6753 17.4026 24.6753C16.0686 24.6753 15.5844 25.7625 15.5844 26.4935V29.0909C15.5844 29.8219 16.0686 30.9091 17.4026 30.9091C18.4428 30.9091 18.9661 30.2481 19.1465 29.6104H19.4805V35.0649ZM35.0649 26.4935V29.0909V35.0649H29.0909C28.804 35.0649 28.5714 35.2973 28.5714 35.5844V36.8831C28.5714 37.1703 28.804 37.4026 29.0909 37.4026C29.221 37.4026 29.8701 37.4401 29.8701 38.1818C29.8701 38.8697 29.3243 38.956 29.0876 38.961H26.4935C26.3634 38.961 25.7143 38.9235 25.7143 38.1818C25.7143 37.4924 26.2627 37.4072 26.4935 37.4026C26.7804 37.4026 27.013 37.1703 27.013 36.8831V35.5844C27.013 35.2973 26.7804 35.0649 26.4935 35.0649H20.5195V29.0909C20.5195 28.8038 20.2869 28.5714 20 28.5714H18.7013C18.4144 28.5714 18.1818 28.8038 18.1818 29.0909C18.1818 29.2208 18.1443 29.8701 17.4026 29.8701C16.7129 29.8701 16.6279 29.3217 16.6234 29.0909V26.4935C16.6234 26.3636 16.6609 25.7143 17.4026 25.7143C18.0923 25.7143 18.1773 26.2627 18.1818 26.4935C18.1818 26.7806 18.4144 27.013 18.7013 27.013H20C20.2869 27.013 20.5195 26.7806 20.5195 26.4935V20.5195H25.974V20.8538C25.3363 21.0339 24.6753 21.5574 24.6753 22.5974C24.6753 23.9316 25.7627 24.4156 26.4935 24.4156H29.0909C29.8217 24.4156 30.9091 23.9316 30.9091 22.5974C30.9091 21.5574 30.2481 21.0339 29.6104 20.8538V20.5195H35.0649V26.4935ZM35.0649 10.9091V13.5065V19.4805H29.0909C28.804 19.4805 28.5714 19.7129 28.5714 20V21.2987C28.5714 21.5858 28.804 21.8182 29.0909 21.8182C29.221 21.8182 29.8701 21.8557 29.8701 22.5974C29.8701 22.6835 29.8616 22.7601 29.8462 22.8284C29.8347 22.8793 29.816 22.9212 29.7975 22.9632C29.7913 22.9774 29.788 22.9955 29.7811 23.0087C29.6165 23.3233 29.2651 23.3728 29.0876 23.3766H26.4935C26.3634 23.3766 25.7143 23.3391 25.7143 22.5974C25.7143 21.908 26.2627 21.8227 26.4935 21.8182C26.7804 21.8182 27.013 21.5858 27.013 21.2987V20C27.013 19.7129 26.7804 19.4805 26.4935 19.4805H20.5195V14.026H20.8535C21.0339 14.6637 21.5572 15.3247 22.5974 15.3247C23.9314 15.3247 24.4156 14.2375 24.4156 13.5065V10.9091C24.4156 10.1781 23.9314 9.09091 22.5974 9.09091C21.5572 9.09091 21.0339 9.75193 20.8535 10.3896H20.5195V4.93507H26.4935H29.0909H35.0649V10.9091ZM36.8831 27.013C37.17 27.013 37.4026 26.7806 37.4026 26.4935C37.4026 26.3636 37.4401 25.7143 38.1818 25.7143C38.8715 25.7143 38.9565 26.2627 38.961 26.4935V29.0909C38.961 29.2208 38.9235 29.8701 38.1818 29.8701C37.4921 29.8701 37.4072 29.3217 37.4026 29.0909C37.4026 28.8038 37.17 28.5714 36.8831 28.5714H36.1039V27.013H36.8831ZM38.961 13.5065C38.961 13.6364 38.9235 14.2857 38.1818 14.2857C37.4921 14.2857 37.4072 13.7373 37.4026 13.5065C37.4026 13.2194 37.17 12.987 36.8831 12.987H36.1039V11.4286H36.8831C37.17 11.4286 37.4026 11.1962 37.4026 10.9091C37.4026 10.7792 37.4401 10.1299 38.1818 10.1299C38.8715 10.1299 38.9565 10.6783 38.961 10.9091V13.5065Z" fill="#F8F8FC" stroke="#F8F8FC" stroke-width="2" mask="url(#path-1-inside-1)"/>
</svg>
