<svg width="42" height="42" viewBox="0 0 42 42" fill="none" xmlns="http://www.w3.org/2000/svg">
<path d="M20.8336 16.7882C21.3058 16.7887 21.7584 16.9797 22.0923 17.3191C22.4261 17.6586 22.6139 18.1189 22.6144 18.599C22.6144 18.7328 22.6667 18.8612 22.7598 18.9559C22.8529 19.0505 22.9792 19.1037 23.1108 19.1037C23.2425 19.1037 23.3687 19.0505 23.4618 18.9559C23.5549 18.8612 23.6072 18.7328 23.6072 18.599C23.6064 17.9241 23.3679 17.2719 22.935 16.7603C22.5021 16.2488 21.9034 15.9117 21.2473 15.8102V14.785C21.2473 14.6512 21.195 14.5228 21.1019 14.4281C21.0088 14.3335 20.8826 14.2803 20.7509 14.2803C20.6193 14.2803 20.493 14.3335 20.3999 14.4281C20.3068 14.5228 20.2545 14.6512 20.2545 14.785V15.841C19.5845 15.9865 18.9911 16.379 18.5887 16.943C18.1864 17.5069 18.0036 18.2023 18.0755 18.8951C18.1474 19.588 18.469 20.2292 18.9783 20.6953C19.4876 21.1614 20.1485 21.4192 20.8336 21.4192C21.1859 21.4192 21.5302 21.5254 21.823 21.7244C22.1159 21.9234 22.3441 22.2062 22.4789 22.5371C22.6137 22.868 22.6489 23.2321 22.5802 23.5833C22.5115 23.9346 22.3419 24.2572 22.0928 24.5105C21.8438 24.7637 21.5265 24.9362 21.181 25.006C20.8356 25.0759 20.4775 25.04 20.1521 24.9029C19.8267 24.7659 19.5486 24.5338 19.3529 24.236C19.1573 23.9382 19.0528 23.5881 19.0528 23.2299C19.0528 23.0961 19.0005 22.9677 18.9075 22.873C18.8144 22.7784 18.6881 22.7252 18.5564 22.7252C18.4248 22.7252 18.2985 22.7784 18.2054 22.873C18.1124 22.9677 18.0601 23.0961 18.0601 23.2299C18.0609 23.8754 18.2791 24.5011 18.6784 25.0029C19.0777 25.5047 19.6339 25.8523 20.2545 25.9879V26.9831C20.2545 27.1169 20.3068 27.2453 20.3999 27.34C20.493 27.4346 20.6193 27.4878 20.7509 27.4878C20.8826 27.4878 21.0088 27.4346 21.1019 27.34C21.195 27.2453 21.2473 27.1169 21.2473 26.9831V26.0188C21.9392 25.9126 22.566 25.5445 23.0022 24.9883C23.4384 24.432 23.6518 23.7286 23.5994 23.0191C23.5471 22.3096 23.233 21.6465 22.7201 21.1626C22.2072 20.6787 21.5333 20.4098 20.8336 20.4098C20.3613 20.4098 19.9084 20.219 19.5744 19.8794C19.2405 19.5398 19.0528 19.0792 19.0528 18.599C19.0528 18.1187 19.2405 17.6581 19.5744 17.3186C19.9084 16.979 20.3613 16.7882 20.8336 16.7882V16.7882Z" fill="#F8F8FC"/>
<path d="M39.1494 18.1487C38.4954 18.1495 37.8616 18.3748 37.3538 18.7869C36.846 19.1991 36.4951 19.773 36.3597 20.4128H35.2586C35.1164 17.0171 33.7626 13.7847 31.4425 11.3012L32.225 10.5187C32.813 10.9208 33.5303 11.0881 34.2355 10.9878C34.9408 10.8875 35.5829 10.5267 36.0355 9.97658C36.4881 9.42645 36.7182 8.72682 36.6807 8.01545C36.6432 7.30409 36.3407 6.63254 35.8328 6.13307C35.3249 5.63359 34.6484 5.34237 33.9365 5.31677C33.2246 5.29116 32.5289 5.53303 31.9864 5.99473C31.4439 6.45643 31.094 7.1045 31.0055 7.81134C30.9169 8.51817 31.0963 9.23253 31.5081 9.81375L30.7321 10.5898C28.1788 8.19775 24.8332 6.83106 21.3354 6.75113V5.68046C22.0426 5.59661 22.6928 5.25104 23.1579 4.71181C23.6231 4.17257 23.8695 3.47873 23.8487 2.76689C23.8279 2.05505 23.5414 1.37679 23.0455 0.865636C22.5497 0.354484 21.8804 0.0474792 21.1695 0.00506342C20.4587 -0.0373524 19.7576 0.187894 19.2045 0.636458C18.6514 1.08502 18.2863 1.7244 18.181 2.42872C18.0757 3.13303 18.2378 3.85125 18.6356 4.44197C19.0333 5.0327 19.6378 5.45312 20.33 5.62047V6.76311C16.9666 6.91922 13.7677 8.2639 11.3029 10.5577L10.5201 9.77504C10.9227 9.18715 11.0907 8.46981 10.9908 7.76429C10.891 7.05876 10.5306 6.41618 9.98066 5.9631C9.43071 5.51001 8.73104 5.27925 8.01945 5.31626C7.30785 5.35328 6.6359 5.65538 6.13592 6.16307C5.63594 6.67077 5.34417 7.34727 5.31807 8.05935C5.29196 8.77142 5.53341 9.46747 5.99487 10.0104C6.45633 10.5534 7.10435 10.9039 7.81133 10.9929C8.5183 11.0819 9.23299 10.903 9.81464 10.4914L10.5901 11.2668C8.23095 13.7755 6.86244 17.0551 6.7387 20.4966H5.65646C5.53084 19.7954 5.14725 19.1667 4.58123 18.7342C4.0152 18.3017 3.30777 18.0968 2.59823 18.1599C1.88869 18.2229 1.22847 18.5494 0.747588 19.0749C0.266702 19.6004 0 20.2869 0 20.9993C0 21.7116 0.266702 22.3981 0.747588 22.9236C1.22847 23.4491 1.88869 23.7756 2.59823 23.8386C3.30777 23.9017 4.0152 23.6968 4.58123 23.2643C5.14725 22.8319 5.53084 22.2031 5.65646 21.502H6.73727C6.85249 24.9766 8.23655 28.2886 10.6278 30.8121L9.88284 31.5571C9.31466 31.1297 8.60702 30.9303 7.89924 30.9985C7.19147 31.0666 6.53484 31.3972 6.05862 31.9252C5.58241 32.4533 5.32112 33.1404 5.32618 33.8514C5.33125 34.5625 5.60231 35.2458 6.086 35.767C6.56969 36.2882 7.23097 36.6094 7.93964 36.6675C8.64832 36.7255 9.35304 36.5161 9.91508 36.0806C10.4771 35.645 10.8557 35.0149 10.9764 34.3141C11.0971 33.6134 10.9511 32.8929 10.5671 32.2944L11.3435 31.518C13.8244 33.8088 17.0397 35.1417 20.4138 35.2781V36.3589C19.7166 36.5054 19.0995 36.9076 18.684 37.4863C18.2685 38.0651 18.0847 38.7784 18.1689 39.4858C18.2531 40.1932 18.599 40.8435 19.1387 41.3086C19.6784 41.7737 20.3726 42.0199 21.0847 41.9987C21.7968 41.9776 22.4752 41.6905 22.9862 41.1942C23.4973 40.6978 23.804 40.0281 23.846 39.3169C23.8879 38.6057 23.6621 37.9046 23.2129 37.3516C22.7638 36.7986 22.1239 36.4338 21.4192 36.329V35.2843C24.9262 35.1836 28.2722 33.7901 30.8139 31.3716L31.5582 32.1159C31.1293 32.6846 30.9289 33.3932 30.9964 34.1022C31.0639 34.8113 31.3944 35.4694 31.9228 35.947C32.4512 36.4245 33.1393 36.6869 33.8516 36.6825C34.5638 36.6781 35.2486 36.4072 35.7711 35.9231C36.2936 35.4391 36.6159 34.7769 36.6746 34.0671C36.7334 33.3573 36.5242 32.6512 36.0883 32.0879C35.6524 31.5245 35.0215 31.1448 34.3196 31.0235C33.6178 30.9021 32.8959 31.0479 32.2962 31.4321L31.5187 30.6546C33.8417 28.129 35.1729 24.8484 35.2665 21.4182H36.3298C36.41 21.9581 36.6436 22.4637 37.0028 22.8748C37.362 23.2859 37.8316 23.5852 38.356 23.7372C38.8803 23.8891 39.4372 23.8873 39.9606 23.732C40.4839 23.5766 40.9516 23.2743 41.3081 22.8609C41.6647 22.4475 41.895 21.9404 41.9717 21.3999C42.0484 20.8595 41.9684 20.3083 41.741 19.812C41.5136 19.3157 41.1485 18.8951 40.6891 18.6003C40.2297 18.3054 39.6953 18.1487 39.1494 18.1487V18.1487ZM2.85114 22.8444C2.4862 22.8444 2.12946 22.7362 1.82604 22.5334C1.52261 22.3307 1.28613 22.0425 1.14648 21.7053C1.00684 21.3682 0.970313 20.9972 1.04152 20.6392C1.11272 20.2813 1.28847 19.9525 1.54652 19.6945C1.80457 19.4365 2.13335 19.2607 2.49128 19.1895C2.8492 19.1184 3.2202 19.1549 3.55735 19.2946C3.89451 19.4342 4.18268 19.6707 4.38543 19.9741C4.58817 20.2776 4.69639 20.6343 4.69639 20.9993C4.69583 21.4885 4.50124 21.9575 4.15531 22.3034C3.80937 22.6493 3.34035 22.8439 2.85114 22.8444V22.8444ZM32.5289 6.86114C32.7869 6.60307 33.1157 6.42732 33.4737 6.35611C33.8316 6.28491 34.2026 6.32145 34.5398 6.46111C34.877 6.60077 35.1652 6.83728 35.368 7.14073C35.5707 7.44418 35.6789 7.80094 35.6789 8.1659C35.6789 8.53086 35.5707 8.88762 35.368 9.19107C35.1652 9.49452 34.877 9.73103 34.5398 9.87069C34.2026 10.0104 33.8316 10.0469 33.4737 9.97568C33.1157 9.90448 32.7869 9.72873 32.5289 9.47066C32.3568 9.29972 32.2202 9.09644 32.1271 8.87252C32.0339 8.64859 31.9859 8.40844 31.9859 8.1659C31.9859 7.92336 32.0339 7.68321 32.1271 7.45928C32.2202 7.23536 32.3568 7.03207 32.5289 6.86114V6.86114ZM19.155 2.85018C19.155 2.48522 19.2632 2.12846 19.466 1.82501C19.6687 1.52156 19.9569 1.28505 20.2941 1.14539C20.6313 1.00573 21.0023 0.969186 21.3602 1.04039C21.7182 1.11158 22.047 1.28733 22.305 1.54539C22.5631 1.80345 22.7389 2.13224 22.8101 2.49019C22.8813 2.84813 22.8447 3.21915 22.705 3.55632C22.5654 3.8935 22.3289 4.18168 22.0254 4.38444C21.722 4.5872 21.3652 4.69542 21.0003 4.69542C20.511 4.69487 20.042 4.50028 19.6961 4.15435C19.3501 3.80842 19.1556 3.3394 19.155 2.85018V2.85018ZM6.86211 9.47066C6.60404 9.2126 6.42829 8.88381 6.35708 8.52586C6.28588 8.16792 6.32241 7.7969 6.46208 7.45972C6.60174 7.12254 6.83825 6.83435 7.1417 6.63158C7.44515 6.42882 7.80191 6.3206 8.16687 6.3206C8.53183 6.3206 8.88859 6.42882 9.19204 6.63158C9.4955 6.83435 9.73201 7.12254 9.87167 7.45972C10.0113 7.7969 10.0479 8.16792 9.97666 8.52586C9.90545 8.88381 9.7297 9.2126 9.47163 9.47066C9.12532 9.8162 8.65609 10.0103 8.16687 10.0103C7.67766 10.0103 7.20842 9.8162 6.86211 9.47066ZM9.47163 35.1374C9.16978 35.4392 8.77261 35.627 8.3478 35.6688C7.92299 35.7107 7.49682 35.6039 7.1419 35.3667C6.78699 35.1295 6.52529 34.7767 6.40139 34.3682C6.27749 33.9597 6.29906 33.5209 6.46242 33.1265C6.62579 32.7321 6.92084 32.4066 7.2973 32.2054C7.67376 32.0042 8.10835 31.9397 8.52701 32.023C8.94567 32.1063 9.32251 32.3322 9.59331 32.6621C9.86411 32.9921 10.0121 33.4058 10.0121 33.8326C10.0119 34.322 9.8175 34.7912 9.47163 35.1374V35.1374ZM22.8455 39.1483C22.8456 39.5133 22.7374 39.8701 22.5347 40.1736C22.332 40.4771 22.0439 40.7137 21.7067 40.8534C21.3695 40.9931 20.9985 41.0298 20.6405 40.9586C20.2826 40.8874 19.9537 40.7117 19.6956 40.4537C19.4375 40.1956 19.2617 39.8669 19.1905 39.5089C19.1193 39.1509 19.1558 38.7799 19.2954 38.4427C19.4351 38.1055 19.6716 37.8173 19.975 37.6145C20.2785 37.4117 20.6353 37.3035 21.0003 37.3035C21.4894 37.3041 21.9584 37.4986 22.3043 37.8444C22.6502 38.1903 22.8448 38.6592 22.8455 39.1483V39.1483ZM35.1384 32.5279C35.3965 32.7859 35.5722 33.1147 35.6434 33.4727C35.7146 33.8306 35.6781 34.2016 35.5384 34.5388C35.3988 34.876 35.1623 35.1642 34.8588 35.3669C34.5554 35.5697 34.1986 35.6779 33.8336 35.6779C33.4687 35.6779 33.1119 35.5697 32.8085 35.3669C32.505 35.1642 32.2685 34.876 32.1288 34.5388C31.9892 34.2016 31.9527 33.8306 32.0239 33.4727C32.0951 33.1147 32.2708 32.7859 32.5289 32.5279C32.6994 32.355 32.9025 32.2178 33.1265 32.1241C33.3505 32.0305 33.5909 31.9822 33.8336 31.9822C34.0764 31.9822 34.3168 32.0305 34.5408 32.1241C34.7648 32.2178 34.9679 32.355 35.1384 32.5279ZM21.0003 34.2858C13.6849 34.2858 7.73354 28.3343 7.73354 21.019C7.73354 13.7037 13.6849 7.75234 21.0003 7.75234C28.3156 7.75234 34.267 13.7037 34.267 21.019C34.267 28.3343 28.3156 34.2858 21.0003 34.2858ZM39.1494 22.8444C38.7844 22.8444 38.4277 22.7362 38.1243 22.5334C37.8209 22.3307 37.5844 22.0425 37.4447 21.7053C37.3051 21.3682 37.2686 20.9972 37.3398 20.6392C37.411 20.2813 37.5867 19.9525 37.8448 19.6945C38.1028 19.4365 38.4316 19.2607 38.7895 19.1895C39.1474 19.1184 39.5184 19.1549 39.8556 19.2946C40.1928 19.4342 40.4809 19.6707 40.6837 19.9741C40.8864 20.2776 40.9946 20.6343 40.9946 20.9993C40.9941 21.4885 40.7995 21.9575 40.4535 22.3034C40.1076 22.6493 39.6386 22.8439 39.1494 22.8444Z" fill="#F8F8FC"/>
<path d="M20.8019 10.5C18.7644 10.5 16.7726 11.1119 15.0785 12.2584C13.3843 13.4049 12.0639 15.0345 11.2842 16.9411C10.5045 18.8476 10.3005 20.9455 10.698 22.9695C11.0955 24.9935 12.0766 26.8527 13.5174 28.3119C14.9581 29.7711 16.7937 30.7648 18.7921 31.1674C20.7905 31.57 22.8618 31.3634 24.7442 30.5737C26.6267 29.784 28.2356 28.4466 29.3676 26.7308C30.4996 25.0149 31.1038 22.9976 31.1038 20.934C31.1007 18.1677 30.0143 15.5156 28.083 13.5595C26.1517 11.6034 23.5332 10.5031 20.8019 10.5V10.5ZM20.8019 30.3551C18.9622 30.3551 17.1637 29.8025 15.6341 28.7673C14.1044 27.7321 12.9121 26.2607 12.2081 24.5393C11.5041 22.8178 11.3198 20.9235 11.6788 19.096C12.0377 17.2685 12.9236 15.5898 14.2245 14.2722C15.5254 12.9547 17.1828 12.0574 18.9872 11.6939C20.7916 11.3303 22.6619 11.5169 24.3616 12.23C26.0613 12.943 27.514 14.1506 28.5361 15.6999C29.5582 17.2492 30.1038 19.0706 30.1038 20.934C30.101 23.4317 29.12 25.8264 27.3762 27.5926C25.6324 29.3587 23.268 30.3522 20.8019 30.3551V30.3551Z" fill="#F8F8FC"/>
</svg>
