<svg width="339" height="53" viewBox="0 0 339 53" fill="none" xmlns="http://www.w3.org/2000/svg">
<g clip-path="url(#clip0)">
<path d="M89.3643 45.936L84.9767 33.3877H77.6123V52.7109H82.0376L81.929 38.2445H81.9479L87.5055 52.7109H91.2278L96.7901 38.2445H96.7948L96.691 52.7109H101.116V33.3877H93.7471L89.3643 45.936Z" fill="white"/>
<path d="M135.226 41.7552V45.6246H139.963C139.963 46.3191 139.939 46.8435 139.882 47.1789C139.802 47.727 139.462 48.0624 138.887 48.1853C138.241 48.2797 136.811 48.3364 134.594 48.3506C132.565 48.3128 131.348 48.2703 130.947 48.2231C130.126 48.1238 129.635 47.6183 129.48 46.7207C129.362 46.0545 129.296 44.8025 129.296 42.9741C129.296 41.3773 129.357 40.2717 129.47 39.6481C129.616 38.826 130.032 38.3347 130.711 38.174C131.428 38.0181 132.721 37.9378 134.584 37.9378C136.679 37.9378 138.09 38.004 138.802 38.1221C139.34 38.2213 139.661 38.5048 139.76 38.9867C139.797 39.1709 139.816 39.5347 139.826 40.0591H144.317C144.317 39.256 144.303 38.6654 144.289 38.278C144.194 36.8323 143.935 35.7787 143.506 35.0984C143.024 34.3614 142.194 33.8369 141.01 33.5488C139.835 33.2511 137.84 33.1094 135.018 33.1094C132.82 33.1094 131.079 33.185 129.791 33.3362C128.88 33.4401 128.168 33.5724 127.673 33.7425C127.173 33.9031 126.753 34.144 126.422 34.4559C125.79 35.0275 125.347 36.0197 125.083 37.4276C124.903 38.4339 124.814 40.1867 124.814 42.6765C124.814 44.1505 124.828 45.5348 124.866 46.8435C124.899 47.8829 125.007 48.7994 125.196 49.6026C125.587 51.2467 126.621 52.2436 128.277 52.6027C129.47 52.8625 131.461 52.9995 134.249 52.9995C135.811 52.9995 137.179 52.9712 138.316 52.9145C139.392 52.8625 140.387 52.7208 141.298 52.4893C143.053 52.0216 144.015 50.6703 144.194 48.4451C144.303 47.0608 144.345 45.1096 144.345 42.582C144.345 42.4592 144.341 42.1851 144.326 41.7552H135.226V41.7552Z" fill="white"/>
<path d="M154.88 33.3877L147.063 52.7109H152.186L153.451 49.4416H163.198L164.462 52.7109H169.562L161.848 33.3877H154.88ZM155.059 45.2131L157.885 37.8949H158.787L161.627 45.2131H155.059Z" fill="white"/>
<path d="M188.792 38.0272V33.3877H172.284V38.0272H181.531L172.043 48.0526V52.7109H189.117V48.0526H179.172L188.792 38.0272Z" fill="white"/>
<path d="M208.828 33.4165C207.63 33.2086 205.483 33.1094 202.398 33.1094C199.142 33.1094 196.911 33.2133 195.708 33.4165C193.986 33.7236 192.934 34.7913 192.547 36.6339C192.278 37.8906 192.141 40.0355 192.141 43.0592C192.141 46.0734 192.278 48.2136 192.547 49.475C192.934 51.3176 193.986 52.3901 195.708 52.6877C196.897 52.8956 199.086 52.9995 202.27 52.9995C205.455 52.9995 207.639 52.8956 208.828 52.6877C210.55 52.3853 211.602 51.3176 211.994 49.475C212.258 48.2136 212.395 46.0734 212.395 43.0592C212.395 40.0355 212.253 37.8953 211.994 36.6339C211.602 34.7913 210.55 33.7236 208.828 33.4165ZM207.748 46.1207C207.573 47.0986 207.04 47.6608 206.129 47.8073C205.464 47.9207 204.176 47.9727 202.27 47.9727C200.36 47.9727 199.072 47.9207 198.402 47.8073C197.496 47.6608 196.953 47.1033 196.774 46.1207C196.684 45.5915 196.633 44.7269 196.633 43.5269C196.633 41.6796 196.713 40.4087 196.868 39.7142C197.038 39.0197 197.411 38.5709 197.996 38.3725C198.477 38.2118 199.841 38.1315 202.096 38.1315C203.714 38.1315 204.709 38.1457 205.087 38.1599C206.12 38.2307 206.809 38.4103 207.125 38.7174C207.488 39.0339 207.715 39.6812 207.818 40.6544C207.88 41.2402 207.899 42.2277 207.899 43.6167C207.894 44.7458 207.847 45.5773 207.748 46.1207Z" fill="white"/>
<path d="M231.172 47.8022L224.133 33.3877H216.74V52.7109H221.25V38.287L228.331 52.7109H235.668V33.3877H231.172V47.8022Z" fill="white"/>
<path d="M255.317 37.9327V33.3877H240.919V52.7109H255.317V48.0714H245.339V44.9722H255.317V40.7248H245.339V37.9327H255.317Z" fill="white"/>
<path d="M106.051 52.7109H120.45V48.0714H110.476V44.9722H120.45V40.7248H110.476V37.9327H120.45V33.3877H106.051V52.7109Z" fill="white"/>
<path d="M85.5664 27.5864C85.0711 27.8368 84.0756 28.0919 82.7924 28.0919C79.8296 28.0919 77.6123 26.2163 77.6123 22.7721C77.6123 19.4839 79.8296 17.2539 83.0896 17.2539C84.3917 17.2539 85.222 17.5374 85.5806 17.7216L85.2504 18.8319C84.7361 18.5815 84.0049 18.3925 83.1368 18.3925C80.6741 18.3925 79.037 19.9658 79.037 22.7249C79.037 25.2997 80.5231 26.9486 83.0707 26.9486C83.8963 26.9486 84.7361 26.7785 85.2787 26.5139L85.5664 27.5864Z" fill="white"/>
<path d="M88.5858 16.8623H87.213V27.9318H88.5858V16.8623Z" fill="white"/>
<path d="M97.7006 24.0956C97.7006 26.8925 95.771 28.1067 93.95 28.1067C91.9119 28.1067 90.3409 26.6091 90.3409 24.2232C90.3409 21.6956 91.9874 20.2168 94.0773 20.2168C96.2381 20.2121 97.7006 21.7853 97.7006 24.0956ZM91.7232 24.1759C91.7232 25.8295 92.6714 27.0721 94.016 27.0721C95.3181 27.0721 96.3041 25.8437 96.3041 24.1429C96.3041 22.8625 95.6625 21.242 94.049 21.242C92.4214 21.242 91.7232 22.7444 91.7232 24.1759Z" fill="white"/>
<path d="M105.726 25.8719C105.726 26.6514 105.74 27.3365 105.787 27.9317H104.574L104.499 26.6986H104.466C104.107 27.3081 103.31 28.1066 101.975 28.1066C100.791 28.1066 99.3754 27.4546 99.3754 24.7994V20.3867H100.744V24.5632C100.744 25.9994 101.178 26.9632 102.423 26.9632C103.343 26.9632 103.98 26.3207 104.23 25.716C104.306 25.5128 104.357 25.2671 104.357 25.0167V20.3867H105.721V25.8719H105.726Z" fill="white"/>
<path d="M114.501 16.8623V25.9853C114.501 26.6562 114.52 27.4168 114.562 27.9318H113.331L113.274 26.6184H113.246C112.821 27.4641 111.901 28.1019 110.675 28.1019C108.853 28.1019 107.457 26.557 107.457 24.2656C107.433 21.7569 108.995 20.212 110.83 20.212C111.981 20.212 112.755 20.76 113.099 21.3695H113.132V16.8623H114.501ZM113.137 23.4577C113.137 23.2876 113.123 23.0561 113.076 22.886C112.868 22.012 112.123 21.2939 111.094 21.2939C109.679 21.2939 108.844 22.5412 108.844 24.2089C108.844 25.7396 109.589 26.9964 111.071 26.9964C111.986 26.9964 112.826 26.3916 113.081 25.3617C113.128 25.1774 113.142 24.9884 113.142 24.7711V23.4577H113.137Z" fill="white"/>
<path d="M121.478 17.4248H120.12V27.9321H121.478V17.4248Z" fill="white"/>
<path d="M123.95 22.423C123.95 21.6434 123.927 21.0056 123.884 20.3867H125.097L125.172 21.634H125.205C125.578 20.9159 126.451 20.2119 127.696 20.2119C128.739 20.2119 130.357 20.8355 130.357 23.4246V27.927H128.989V23.5805C128.989 22.3616 128.536 21.3458 127.243 21.3458C126.342 21.3458 125.639 21.9836 125.408 22.749C125.347 22.9238 125.319 23.1553 125.319 23.3868V27.927H123.95V22.423Z" fill="white"/>
<path d="M132.579 22.423C132.579 21.6434 132.565 21.0056 132.523 20.3867H133.735L133.811 21.634H133.844C134.212 20.9159 135.089 20.2119 136.335 20.2119C137.372 20.2119 139 20.8355 139 23.4246V27.927H137.627V23.5805C137.627 22.3616 137.179 21.3458 135.886 21.3458C134.981 21.3458 134.282 21.9836 134.051 22.749C133.985 22.9238 133.957 23.1553 133.957 23.3868V27.927H132.584V22.423H132.579Z" fill="white"/>
<path d="M148.035 24.0956C148.035 26.8925 146.105 28.1067 144.289 28.1067C142.246 28.1067 140.675 26.6091 140.675 24.2232C140.675 21.6956 142.326 20.2168 144.416 20.2168C146.572 20.2121 148.035 21.7853 148.035 24.0956ZM142.057 24.1759C142.057 25.8295 143.01 27.0721 144.345 27.0721C145.657 27.0721 146.638 25.8437 146.638 24.1429C146.638 22.8625 146.001 21.242 144.378 21.242C142.755 21.242 142.057 22.7444 142.057 24.1759Z" fill="white"/>
<path d="M150.177 20.3867L151.658 24.6246C151.903 25.3096 152.101 25.938 152.267 26.5569H152.314C152.479 25.938 152.701 25.3096 152.951 24.6246L154.418 20.3867H155.843L152.885 27.9317H151.578L148.719 20.3867H150.177V20.3867Z" fill="white"/>
<path d="M161.244 27.9319L161.136 26.9823H161.093C160.674 27.5776 159.862 28.1067 158.791 28.1067C157.263 28.1067 156.48 27.0295 156.48 25.9382C156.48 24.1145 158.102 23.1176 161.013 23.1318V22.9759C161.013 22.3523 160.843 21.2326 159.301 21.2326C158.603 21.2326 157.871 21.4499 157.343 21.7901L157.032 20.8877C157.654 20.4814 158.56 20.2168 159.508 20.2168C161.811 20.2168 162.367 21.7901 162.367 23.3066V26.1271C162.367 26.7839 162.405 27.4217 162.495 27.9319H161.244ZM161.037 24.0814C159.546 24.0484 157.852 24.3129 157.852 25.7823C157.852 26.6705 158.442 27.0909 159.14 27.0909C160.131 27.0909 160.749 26.4673 160.961 25.8295C161.009 25.6878 161.037 25.5366 161.037 25.3901V24.0814V24.0814Z" fill="white"/>
<path d="M166.16 18.2188V20.3873H168.118V21.4314H166.16V25.4992C166.16 26.4347 166.425 26.9638 167.189 26.9638C167.547 26.9638 167.812 26.9166 167.977 26.8693L168.043 27.8945C167.779 28.0079 167.363 28.0882 166.835 28.0882C166.193 28.0882 165.684 27.8851 165.354 27.5071C164.967 27.1055 164.825 26.4299 164.825 25.5465V21.4314H163.665V20.3873H164.825V18.5778L166.16 18.2188Z" fill="white"/>
<path d="M176.384 24.0956C176.384 26.8925 174.459 28.1067 172.628 28.1067C170.595 28.1067 169.019 26.6091 169.019 24.2232C169.019 21.6956 170.666 20.2168 172.761 20.2168C174.917 20.2121 176.384 21.7853 176.384 24.0956ZM170.411 24.1759C170.411 25.8295 171.359 27.0721 172.699 27.0721C174.006 27.0721 174.987 25.8437 174.987 24.1429C174.987 22.8625 174.35 21.242 172.728 21.242C171.109 21.242 170.411 22.7444 170.411 24.1759Z" fill="white"/>
<path d="M178.106 22.7444C178.106 21.8562 178.096 21.0861 178.044 20.3869H179.243L179.29 21.8704H179.351C179.696 20.8546 180.521 20.2168 181.437 20.2168C181.597 20.2168 181.706 20.2357 181.828 20.264V21.5586C181.687 21.5302 181.55 21.516 181.361 21.516C180.399 21.516 179.71 22.2531 179.521 23.2783C179.488 23.4625 179.465 23.6846 179.465 23.9161V27.9366H178.106V22.7444V22.7444Z" fill="white"/>
<path d="M0 0H18.4603L28.0295 26.6628L36.0696 0H69.4753L56.5711 38.3313H69.2193V53H38.0692L51.7069 14.1837H45.6734L31.2608 53H25.165L13.2571 24.3139L13.2433 53H0V0Z" fill="white"/>
</g>
<defs>
<clipPath id="clip0">
<rect width="338.236" height="53" fill="white"/>
</clipPath>
</defs>
</svg>
