<svg width="24" height="24" viewBox="0 0 24 24" fill="none" xmlns="http://www.w3.org/2000/svg">
<path d="M5.41312 6.12087C5.41312 5.9015 5.23526 5.72363 5.01589 5.72363C4.79652 5.72363 4.61865 5.9015 4.61865 6.12087C4.61865 6.34024 4.79652 6.5181 5.01589 6.5181C5.23526 6.52403 5.41312 6.34024 5.41312 6.12087Z" fill="#65CBA0"/>
<path d="M5.31137 7.83203C5.15722 7.83203 5.03271 7.95654 5.03271 8.11069C5.03271 8.26484 5.15722 8.38935 5.31137 8.38935C5.46552 8.38935 5.59003 8.26484 5.59003 8.11069C5.5841 7.95654 5.45959 7.83203 5.31137 7.83203Z" fill="#65CBA0"/>
<path d="M4.27616 11.6738L3.71884 11.5137C3.70699 11.5137 3.70106 11.5019 3.70106 11.4959L3.51134 10.9445C3.49948 10.9208 3.4639 10.9208 3.45798 10.9445L3.2979 11.5019C3.2979 11.5137 3.28604 11.5196 3.28011 11.5196L2.72872 11.7094C2.70501 11.7212 2.70501 11.7568 2.72872 11.7627L3.28604 11.9228C3.2979 11.9228 3.30383 11.9347 3.30383 11.9406L3.49355 12.492C3.50541 12.5157 3.54098 12.5157 3.54691 12.492L3.70699 11.9347C3.70699 11.9228 3.71885 11.9169 3.72478 11.9169L4.27616 11.7272C4.3058 11.7153 4.3058 11.6797 4.27616 11.6738Z" fill="#65CBA0"/>
<path d="M16.1152 18.4107C16.0796 18.4344 16.044 18.4581 16.0085 18.4819C14.8227 19.134 13.4353 19.5668 11.9709 19.5668C10.5124 19.5668 9.16657 19.134 7.98672 18.4819C7.94522 18.4581 7.90372 18.4344 7.86815 18.4048C7.11518 18.885 6.48079 19.4601 5.95312 20.1657C7.61913 21.4107 9.70016 22.1518 11.9887 22.1637C14.2654 22.1755 16.3405 21.4226 18.0361 20.1775C17.5025 19.466 16.8741 18.8909 16.1152 18.4107Z" fill="#65CBA0"/>
<path d="M15.8225 5.31302C16.0419 5.31302 16.2198 5.13516 16.2198 4.91579C16.2198 4.69642 16.0419 4.51855 15.8225 4.51855C15.6032 4.51855 15.4253 4.69642 15.4253 4.91579C15.4253 5.13516 15.6032 5.31302 15.8225 5.31302Z" fill="#65CBA0"/>
<path d="M10.8127 4.02674C11.0973 4.02674 11.3285 3.79552 11.3285 3.51093C11.3285 3.22634 11.0973 2.99512 10.8127 2.99512C10.5281 2.99512 10.2969 3.22634 10.2969 3.51093C10.2969 3.79552 10.5281 4.02674 10.8127 4.02674Z" fill="#65CBA0"/>
<path d="M14.7312 3.35098C14.8794 3.35098 14.998 3.2324 14.998 3.08418C14.998 2.93596 14.8794 2.81738 14.7312 2.81738C14.5829 2.81738 14.4644 2.93596 14.4644 3.08418C14.4644 3.2324 14.5829 3.35098 14.7312 3.35098Z" fill="#65CBA0"/>
<path d="M9.33601 12.4448C8.99807 12.4092 8.6957 12.6582 8.66012 12.9962C8.62455 13.3341 8.87356 13.6365 9.21151 13.6721C9.54945 13.7076 9.85182 13.4586 9.88739 13.1207C9.91704 12.7827 9.67396 12.4804 9.33601 12.4448Z" fill="#65CBA0"/>
<path d="M13.9468 10.7752C13.5258 10.959 13.3302 11.4452 13.514 11.872C13.6978 12.293 14.1839 12.4886 14.6108 12.3048C15.0318 12.121 15.2274 11.6349 15.0436 11.208C14.8539 10.7871 14.3677 10.5914 13.9468 10.7752Z" fill="#65CBA0"/>
<path d="M21.7988 10.4569L21.36 10.3324C21.3541 10.3324 21.3482 10.3264 21.3423 10.3205L21.2 9.88771C21.194 9.864 21.1644 9.86993 21.1585 9.88771L21.034 10.3264C21.034 10.3324 21.028 10.3383 21.0221 10.3442L20.5952 10.4925C20.5715 10.4984 20.5774 10.528 20.5952 10.534L21.034 10.6585C21.0399 10.6585 21.0458 10.6644 21.0518 10.6703L21.2 11.1031C21.2059 11.1268 21.2355 11.1209 21.2415 11.1031L21.366 10.6644C21.366 10.6585 21.3719 10.6525 21.3778 10.6466L21.8047 10.4984C21.8225 10.4925 21.8225 10.4628 21.7988 10.4569Z" fill="#65CBA0"/>
<path d="M12 0C5.37154 0 0 5.37155 0 12C0 18.6285 5.37154 24 12 24C18.6285 24 24 18.6285 24 12C24 5.37155 18.6285 0 12 0ZM11.9881 23.0573C5.88142 23.0455 0.942686 18.089 0.954544 11.9882C0.966401 5.88736 5.92292 0.942689 12.0237 0.954547C18.1304 0.966405 23.0692 5.92293 23.0573 12.0237C23.0455 18.1245 18.0889 23.0633 11.9881 23.0573Z" fill="#65CBA0"/>
<path d="M20.5411 8.1556L19.8534 7.95995C19.8415 7.95402 19.8356 7.94809 19.8297 7.93624L19.5925 7.26035C19.5806 7.22477 19.5332 7.2307 19.5273 7.26035L19.3316 7.94809C19.3257 7.95995 19.3198 7.96588 19.3079 7.97181L18.638 8.20896C18.6083 8.22082 18.6083 8.26825 18.638 8.27418L19.3257 8.46983C19.3376 8.47576 19.3435 8.48169 19.3494 8.49355L19.5866 9.16944C19.5984 9.20501 19.6459 9.19908 19.6518 9.16944L19.8474 8.48169C19.8534 8.46983 19.8593 8.4639 19.8712 8.45798L20.5411 8.22082C20.5767 8.20896 20.5767 8.16153 20.5411 8.1556Z" fill="#65CBA0"/>
<path d="M12.0052 5.72363C8.53684 5.72363 5.72656 8.53391 5.72656 12.0023C5.72656 15.4707 8.53684 18.281 12.0052 18.281C15.4736 18.281 18.2839 15.4707 18.2839 12.0023C18.2898 8.53391 15.4736 5.72363 12.0052 5.72363ZM12.0052 17.3501C9.45581 17.3501 7.38664 15.281 7.38664 12.7315C7.38664 11.5161 7.86095 10.4074 8.6317 9.58332C8.857 9.33431 8.60206 8.9015 8.49534 8.7355C8.38862 8.58727 8.29969 8.39755 8.37083 8.2849C8.45976 8.14854 8.6317 8.13075 8.80364 8.16632C9.31352 8.27304 9.69297 8.51613 9.75818 8.43312C9.79969 8.38569 9.71075 8.2434 9.65739 8.16632C9.53289 7.98846 9.52696 7.78688 9.63368 7.7098C9.74633 7.63273 9.94198 7.65051 10.0546 7.70387C10.2147 7.77502 10.3985 7.85209 10.7779 8.02996C10.9143 8.08925 11.27 8.14854 11.7206 8.11889C11.8155 8.11297 11.9104 8.10704 12.0111 8.10704C14.5606 8.10704 16.6297 10.1762 16.6297 12.7256C16.6238 15.281 14.5606 17.3501 12.0052 17.3501Z" fill="#65CBA0"/>
<path d="M19.6228 14.5127C19.4272 14.5127 19.2671 14.6728 19.2671 14.8684C19.2671 15.0641 19.4272 15.2242 19.6228 15.2242C19.8185 15.2242 19.9786 15.0641 19.9786 14.8684C19.9786 14.6728 19.8185 14.5127 19.6228 14.5127Z" fill="#65CBA0"/>
</svg>
