<svg width="16" height="16" viewBox="0 0 16 16" fill="none" xmlns="http://www.w3.org/2000/svg">
<path d="M3.60884 4.08123C3.60884 3.93498 3.49026 3.81641 3.34402 3.81641C3.19777 3.81641 3.07919 3.93498 3.07919 4.08123C3.07919 4.22748 3.19777 4.34605 3.34402 4.34605C3.49026 4.35001 3.60884 4.22748 3.60884 4.08123Z" fill="#EBEAF6"/>
<path d="M3.54084 5.22168C3.43808 5.22168 3.35507 5.30468 3.35507 5.40745C3.35507 5.51022 3.43808 5.59322 3.54084 5.59322C3.64361 5.59322 3.72661 5.51022 3.72661 5.40745C3.72266 5.30468 3.63966 5.22168 3.54084 5.22168Z" fill="#EBEAF6"/>
<path d="M2.85085 7.78318L2.47931 7.67646C2.47141 7.67646 2.46745 7.66856 2.46745 7.6646L2.34097 7.29701C2.33307 7.2812 2.30935 7.2812 2.3054 7.29701L2.19868 7.66856C2.19868 7.67646 2.19077 7.68041 2.18682 7.68041L1.81923 7.8069C1.80342 7.8148 1.80342 7.83852 1.81923 7.84247L2.19077 7.94919C2.19868 7.94919 2.20263 7.95709 2.20263 7.96105L2.32911 8.32864C2.33702 8.34445 2.36073 8.34445 2.36469 8.32864L2.47141 7.9571C2.47141 7.94919 2.47931 7.94524 2.48326 7.94524L2.85085 7.81875C2.87062 7.81085 2.87062 7.78713 2.85085 7.78318Z" fill="#EBEAF6"/>
<path d="M10.7435 12.2745C10.7197 12.2903 10.696 12.3061 10.6723 12.3219C9.8818 12.7567 8.9569 13.0452 7.98061 13.0452C7.00828 13.0452 6.11104 12.7567 5.32448 12.3219C5.29681 12.3061 5.26915 12.2903 5.24543 12.2705C4.74345 12.5907 4.32053 12.9741 3.96875 13.4444C5.07942 14.2745 6.46678 14.7685 7.99247 14.7764C9.51026 14.7843 10.8937 14.2824 12.0241 13.4523C11.6684 12.978 11.2494 12.5946 10.7435 12.2745Z" fill="#EBEAF6"/>
<path d="M10.5485 3.54136C10.6948 3.54136 10.8133 3.42279 10.8133 3.27654C10.8133 3.1303 10.6948 3.01172 10.5485 3.01172C10.4023 3.01172 10.2837 3.1303 10.2837 3.27654C10.2837 3.42279 10.4023 3.54136 10.5485 3.54136Z" fill="#EBEAF6"/>
<path d="M7.20838 2.68384C7.3981 2.68384 7.55225 2.52969 7.55225 2.33997C7.55225 2.15025 7.3981 1.99609 7.20838 1.99609C7.01865 1.99609 6.8645 2.15025 6.8645 2.33997C6.8645 2.52969 7.01865 2.68384 7.20838 2.68384Z" fill="#EBEAF6"/>
<path d="M9.82093 2.23464C9.91975 2.23464 9.9988 2.15558 9.9988 2.05677C9.9988 1.95796 9.91975 1.87891 9.82093 1.87891C9.72212 1.87891 9.64307 1.95796 9.64307 2.05677C9.64307 2.15558 9.72212 2.23464 9.82093 2.23464Z" fill="#EBEAF6"/>
<path d="M6.22388 8.2962C5.99858 8.27249 5.797 8.43849 5.77328 8.66379C5.74957 8.88909 5.91558 9.09067 6.14087 9.11438C6.36617 9.1381 6.56775 8.97209 6.59146 8.74679C6.61123 8.5215 6.44917 8.31992 6.22388 8.2962Z" fill="#EBEAF6"/>
<path d="M9.29801 7.18281C9.01738 7.30534 8.88694 7.62945 9.00947 7.91404C9.132 8.19467 9.45611 8.32511 9.7407 8.20258C10.0213 8.08005 10.1518 7.75594 10.0292 7.47135C9.90275 7.19072 9.57864 7.06028 9.29801 7.18281Z" fill="#EBEAF6"/>
<path d="M14.5326 6.97191L14.2402 6.8889C14.2362 6.8889 14.2323 6.88495 14.2283 6.881L14.1334 6.59246C14.1295 6.57665 14.1097 6.5806 14.1058 6.59246L14.0228 6.88495C14.0228 6.8889 14.0188 6.89285 14.0149 6.89681L13.7303 6.99562C13.7145 6.99957 13.7184 7.01934 13.7303 7.02329L14.0228 7.10629C14.0267 7.10629 14.0307 7.11025 14.0346 7.1142L14.1334 7.40274C14.1374 7.41855 14.1572 7.41459 14.1611 7.40274L14.2441 7.11025C14.2441 7.10629 14.2481 7.10234 14.252 7.09839L14.5366 6.99957C14.5485 6.99562 14.5485 6.97586 14.5326 6.97191Z" fill="#EBEAF6"/>
<path d="M8 0C3.58103 0 0 3.58103 0 8.00001C0 12.419 3.58103 16 8 16C12.419 16 16 12.419 16 8.00001C16 3.58103 12.419 0 8 0ZM7.99209 15.3716C3.92095 15.3637 0.628457 12.0593 0.636362 7.99211C0.644268 3.92491 3.94862 0.62846 8.01581 0.636365C12.087 0.64427 15.3794 3.94862 15.3715 8.01582C15.3636 12.083 12.0593 15.3755 7.99209 15.3716Z" fill="#EBEAF6"/>
<path d="M13.6942 5.43642L13.2357 5.30598C13.2278 5.30203 13.2238 5.29808 13.2199 5.29017L13.0618 4.83958C13.0539 4.81586 13.0222 4.81982 13.0183 4.83958L12.8879 5.29808C12.8839 5.30598 12.88 5.30994 12.872 5.31389L12.4254 5.47199C12.4056 5.4799 12.4056 5.51152 12.4254 5.51547L12.8839 5.6459C12.8918 5.64986 12.8958 5.65381 12.8997 5.66171L13.0578 6.11231C13.0657 6.13602 13.0973 6.13207 13.1013 6.11231L13.2317 5.65381C13.2357 5.6459 13.2396 5.64195 13.2475 5.638L13.6942 5.4799C13.7179 5.47199 13.7179 5.44037 13.6942 5.43642Z" fill="#EBEAF6"/>
<path d="M8.0034 3.81641C5.69115 3.81641 3.81763 5.68993 3.81763 8.00218C3.81763 10.3144 5.69115 12.188 8.0034 12.188C10.3157 12.188 12.1892 10.3144 12.1892 8.00218C12.1931 5.68993 10.3157 3.81641 8.0034 3.81641ZM8.0034 11.5674C6.30379 11.5674 4.92435 10.188 4.92435 8.48835C4.92435 7.67807 5.24055 6.93894 5.75439 6.38953C5.90458 6.22353 5.73462 5.93499 5.66348 5.82432C5.59233 5.7255 5.53304 5.59902 5.58047 5.52392C5.63976 5.43301 5.75439 5.42115 5.86901 5.44487C6.20893 5.51601 6.4619 5.67807 6.50537 5.62273C6.53304 5.59111 6.47375 5.49625 6.43818 5.44487C6.35518 5.32629 6.35122 5.1919 6.42237 5.14052C6.49747 5.08914 6.6279 5.10099 6.703 5.13657C6.80972 5.184 6.93225 5.23538 7.18522 5.35396C7.27612 5.39348 7.51328 5.43301 7.81367 5.41325C7.87692 5.40929 7.94016 5.40534 8.00735 5.40534C9.70696 5.40534 11.0864 6.78479 11.0864 8.4844C11.0825 10.188 9.70696 11.5674 8.0034 11.5674Z" fill="#EBEAF6"/>
<path d="M13.082 9.67578C12.9516 9.67578 12.8448 9.7825 12.8448 9.91294C12.8448 10.0434 12.9516 10.1501 13.082 10.1501C13.2124 10.1501 13.3192 10.0434 13.3192 9.91294C13.3192 9.7825 13.2124 9.67578 13.082 9.67578Z" fill="#EBEAF6"/>
</svg>
