<svg viewBox="0 0 70 70" fill="none" xmlns="http://www.w3.org/2000/svg"><mask id="a" maskUnits="userSpaceOnUse" x="0" y="0" width="70" height="70"><path d="M15.8 17.86a1.16 1.16 0 10-1.17 1.16c.64.02 1.16-.52 1.16-1.16zM15.5 22.84a.81.81 0 10.8.81.83.83 0 00-.8-.8zM12.47 34.05l-1.62-.47c-.04 0-.05-.03-.05-.05l-.56-1.6c-.03-.08-.14-.08-.15 0l-.47 1.62c0 .03-.04.05-.05.05l-1.61.55c-.07.04-.07.14 0 .16l1.62.47c.04 0 .06.03.06.05l.55 1.6c.03.07.14.07.16 0l.46-1.62c0-.03.04-.05.05-.05l1.61-.56c.09-.03.09-.13 0-.15zM47 53.7l-.3.22a24.58 24.58 0 01-11.78 3.16 23.98 23.98 0 01-11.97-3.39 20.84 20.84 0 00-5.59 5.14 29.5 29.5 0 0017.6 5.82c6.65.04 12.7-2.16 17.65-5.79a20.7 20.7 0 00-5.6-5.15zM46.15 15.5a1.16 1.16 0 100-2.32 1.16 1.16 0 000 2.31zM27.23 36.3a1.8 1.8 0 101.61 1.97 1.81 1.81 0 00-1.6-1.97zM40.68 31.42a2.43 2.43 0 101.93 4.46 2.43 2.43 0 00-1.93-4.46zM63.58 30.5l-1.28-.36c-.02 0-.03-.02-.05-.04l-.42-1.26c-.01-.07-.1-.05-.12 0l-.36 1.28c0 .02-.02.04-.03.05l-1.25.44c-.07.01-.05.1 0 .12l1.28.36c.02 0 .04.02.05.04l.43 1.26c.02.07.1.05.13 0l.36-1.28c0-.02.02-.04.03-.05l1.25-.44c.05-.01.05-.1-.02-.12z" fill="#A8A5CE"/><path d="M35 0a35 35 0 100 70 35 35 0 000-70zm-.03 67.25a32.23 32.23 0 11.1-64.46 32.23 32.23 0 01-.1 64.46z" fill="#A8A5CE"/><path d="M59.9 23.78l-2-.57a.14.14 0 01-.07-.07l-.69-1.97c-.03-.1-.17-.09-.19 0l-.57 2a.14.14 0 01-.07.07l-1.95.7c-.09.03-.09.17 0 .18l2 .57c.04.02.06.04.07.07l.7 1.98c.03.1.17.08.19 0l.57-2.01a.13.13 0 01.07-.07l1.95-.7c.1-.03.1-.16 0-.18zM35.01 16.7a18.31 18.31 0 100 36.62 18.31 18.31 0 000-36.62zm0 33.91a13.48 13.48 0 01-9.83-22.65c.65-.73-.1-1.99-.4-2.47-.31-.44-.57-.99-.37-1.32.26-.4.77-.45 1.27-.34 1.48.3 2.59 1.02 2.78.77.12-.13-.14-.55-.3-.77-.36-.52-.37-1.11-.06-1.33.33-.23.9-.18 1.23-.02.46.2 1 .43 2.1.95.4.17 1.44.34 2.75.26a13.48 13.48 0 11.83 26.92zM57.23 42.33a1.04 1.04 0 000 2.08 1.04 1.04 0 000-2.08z" fill="#A8A5CE"/></mask><g mask="url(#a)"><path fill="url(#paint0_linear)" d="M0 0h70v70H0z"/></g><defs><linearGradient id="paint0_linear" x1="0" y1="35" x2="71.69" y2="35" gradientUnits="userSpaceOnUse"><stop stop-color="#65CBA0"/><stop offset=".56" stop-color="#CF88A0"/><stop offset="1" stop-color="#5CA2B1"/></linearGradient></defs></svg>