<svg width="1468" height="960" viewBox="0 0 1468 960" fill="none" xmlns="http://www.w3.org/2000/svg">
<g opacity="0.1" filter="url(#filter0_d)">
<ellipse rx="924.854" ry="874.119" transform="matrix(1 0 0.000739351 1 524.5 480.119)" stroke="#B9DCFF" stroke-opacity="0.5" stroke-width="4" stroke-miterlimit="2"/>
</g>
<g opacity="0.3" filter="url(#filter1_d)">
<path d="M1188.72 480.375C1189 833.038 886.723 1119 513.485 1119C140.246 1119 -162.474 833.038 -162.75 480.375C-163.026 127.711 139.247 -158.25 512.486 -158.25C885.724 -158.25 1188.44 127.711 1188.72 480.375Z" stroke="url(#paint0_linear)" stroke-opacity="0.5" stroke-width="1.5" stroke-linecap="round" stroke-linejoin="round"/>
</g>
<g opacity="0.6" filter="url(#filter2_d)">
<ellipse rx="263.436" ry="248.985" transform="matrix(1 0 0.000782263 1 512.631 479.985)" stroke="url(#paint1_linear)" stroke-opacity="0.5" stroke-width="5" stroke-linecap="round" stroke-linejoin="round"/>
</g>
<g opacity="0.4" filter="url(#filter3_d)">
<path d="M977.246 480.154C977.435 722.337 769.84 918.807 513.388 918.807C256.936 918.807 49.0338 722.337 48.8443 480.154C48.6549 237.971 256.25 41.5 512.702 41.5C769.154 41.5 977.056 237.971 977.246 480.154Z" stroke="url(#paint2_linear)" stroke-opacity="0.5" stroke-width="3" stroke-linecap="round" stroke-linejoin="round"/>
</g>
<g opacity="0.5" filter="url(#filter4_d)">
<path d="M879.365 480.856C879.514 671.763 715.859 826.713 513.589 826.713C311.319 826.713 147.421 671.763 147.272 480.856C147.123 289.95 310.778 135 513.048 135C715.317 135 879.215 289.95 879.365 480.856Z" stroke="#005CB3" stroke-opacity="0.5" stroke-width="4" stroke-linecap="round" stroke-linejoin="round"/>
</g>
<g opacity="0.4" filter="url(#filter5_d)">
<path d="M1081.61 480.349C1081.84 777.066 827.517 1017.7 513.437 1017.7C199.356 1017.7 -55.3468 777.066 -55.5789 480.349C-55.811 183.632 198.516 -57 512.596 -57C826.676 -57 1081.38 183.632 1081.61 480.349Z" stroke="#005CB3" stroke-opacity="0.5" stroke-width="2" stroke-linecap="round" stroke-linejoin="round"/>
</g>
<g opacity="0.5" filter="url(#filter6_d)">
<ellipse cx="512" cy="479.5" rx="82" ry="79.5" fill="url(#paint3_linear)"/>
<path d="M593.5 479.5C593.5 523.116 557.026 558.5 512 558.5C466.974 558.5 430.5 523.116 430.5 479.5C430.5 435.884 466.974 400.5 512 400.5C557.026 400.5 593.5 435.884 593.5 479.5Z" stroke="#6638B6"/>
</g>
<g opacity="0.8">
<path d="M503.218 449.167C503.218 448.875 502.981 448.638 502.688 448.638C502.396 448.638 502.159 448.875 502.159 449.167C502.159 449.46 502.396 449.697 502.688 449.697C502.981 449.705 503.218 449.46 503.218 449.167Z" fill="#EBEAF6"/>
<path d="M503.083 451.443C502.877 451.443 502.711 451.609 502.711 451.815C502.711 452.02 502.877 452.186 503.083 452.186C503.288 452.186 503.454 452.02 503.454 451.815C503.446 451.609 503.28 451.443 503.083 451.443Z" fill="#EBEAF6"/>
<path d="M501.702 456.568L500.959 456.355C500.943 456.355 500.936 456.339 500.936 456.331L500.683 455.596C500.667 455.564 500.619 455.564 500.611 455.596L500.398 456.339C500.398 456.355 500.382 456.363 500.374 456.363L499.639 456.616C499.608 456.632 499.608 456.679 499.639 456.687L500.382 456.9C500.398 456.9 500.406 456.916 500.406 456.924L500.659 457.659C500.675 457.691 500.722 457.691 500.73 457.659L500.943 456.916C500.943 456.9 500.959 456.892 500.967 456.892L501.702 456.639C501.742 456.624 501.742 456.576 501.702 456.568Z" fill="#EBEAF6"/>
<path d="M517.487 465.555C517.439 465.586 517.392 465.618 517.345 465.65C515.764 466.519 513.914 467.096 511.961 467.096C510.017 467.096 508.222 466.519 506.649 465.65C506.594 465.618 506.538 465.586 506.491 465.547C505.487 466.187 504.641 466.954 503.938 467.895C506.159 469.555 508.934 470.543 511.985 470.559C515.021 470.575 517.787 469.571 520.048 467.911C519.337 466.962 518.499 466.195 517.487 465.555Z" fill="#EBEAF6"/>
<path d="M517.098 448.078C517.391 448.078 517.628 447.841 517.628 447.548C517.628 447.256 517.391 447.019 517.098 447.019C516.806 447.019 516.568 447.256 516.568 447.548C516.568 447.841 516.806 448.078 517.098 448.078Z" fill="#EBEAF6"/>
<path d="M510.416 446.363C510.796 446.363 511.104 446.055 511.104 445.675C511.104 445.296 510.796 444.987 510.416 444.987C510.037 444.987 509.728 445.296 509.728 445.675C509.728 446.055 510.037 446.363 510.416 446.363Z" fill="#EBEAF6"/>
<path d="M515.643 445.474C515.841 445.474 515.999 445.316 515.999 445.118C515.999 444.921 515.841 444.763 515.643 444.763C515.445 444.763 515.287 444.921 515.287 445.118C515.287 445.316 515.445 445.474 515.643 445.474Z" fill="#EBEAF6"/>
<path d="M508.447 457.592C507.996 457.545 507.593 457.877 507.545 458.328C507.498 458.778 507.83 459.181 508.281 459.229C508.731 459.276 509.134 458.944 509.182 458.494C509.221 458.043 508.897 457.64 508.447 457.592Z" fill="#EBEAF6"/>
<path d="M514.597 455.361C514.036 455.606 513.775 456.254 514.02 456.823C514.265 457.384 514.913 457.645 515.482 457.4C516.044 457.155 516.305 456.507 516.06 455.938C515.807 455.377 515.158 455.116 514.597 455.361Z" fill="#EBEAF6"/>
<path d="M525.065 454.95L524.48 454.784C524.472 454.784 524.465 454.776 524.457 454.768L524.267 454.191C524.259 454.159 524.22 454.167 524.212 454.191L524.046 454.776C524.046 454.784 524.038 454.792 524.03 454.799L523.461 454.997C523.429 455.005 523.437 455.045 523.461 455.052L524.046 455.218C524.053 455.218 524.061 455.226 524.069 455.234L524.267 455.811C524.275 455.843 524.314 455.835 524.322 455.811L524.488 455.226C524.488 455.218 524.496 455.211 524.504 455.203L525.073 455.005C525.097 454.997 525.097 454.958 525.065 454.95Z" fill="#EBEAF6"/>
<path d="M512 441C503.162 441 496 448.162 496 457C496 465.838 503.162 473 512 473C520.838 473 528 465.838 528 457C528 448.162 520.838 441 512 441ZM511.984 471.743C503.842 471.727 497.257 465.119 497.273 456.984C497.289 448.85 503.897 442.257 512.032 442.273C520.174 442.289 526.759 448.897 526.743 457.032C526.727 465.166 520.119 471.751 511.984 471.743Z" fill="#EBEAF6"/>
<path d="M523.387 451.867L522.47 451.606C522.455 451.598 522.447 451.59 522.439 451.574L522.123 450.673C522.107 450.626 522.044 450.634 522.036 450.673L521.775 451.59C521.767 451.606 521.759 451.614 521.743 451.622L520.85 451.938C520.81 451.954 520.81 452.017 520.85 452.025L521.767 452.286C521.783 452.294 521.791 452.302 521.798 452.318L522.115 453.219C522.13 453.266 522.194 453.258 522.202 453.219L522.462 452.302C522.47 452.286 522.478 452.278 522.494 452.27L523.387 451.954C523.435 451.938 523.435 451.875 523.387 451.867Z" fill="#EBEAF6"/>
<path d="M512.006 448.638C507.382 448.638 503.635 452.385 503.635 457.009C503.635 461.634 507.382 465.381 512.006 465.381C516.631 465.381 520.378 461.634 520.378 457.009C520.386 452.385 516.631 448.638 512.006 448.638ZM512.006 464.14C508.607 464.14 505.848 461.381 505.848 457.982C505.848 456.361 506.48 454.883 507.508 453.784C507.808 453.452 507.469 452.875 507.326 452.654C507.184 452.456 507.065 452.203 507.16 452.053C507.279 451.871 507.508 451.847 507.737 451.895C508.417 452.037 508.923 452.361 509.01 452.25C509.065 452.187 508.947 451.997 508.876 451.895C508.71 451.657 508.702 451.389 508.844 451.286C508.994 451.183 509.255 451.207 509.405 451.278C509.619 451.373 509.864 451.476 510.37 451.713C510.552 451.792 511.026 451.871 511.627 451.831C511.753 451.823 511.88 451.816 512.014 451.816C515.413 451.816 518.172 454.574 518.172 457.974C518.164 461.381 515.413 464.14 512.006 464.14Z" fill="#EBEAF6"/>
<path d="M522.164 460.354C521.903 460.354 521.69 460.568 521.69 460.829C521.69 461.09 521.903 461.303 522.164 461.303C522.425 461.303 522.638 461.09 522.638 460.829C522.638 460.568 522.425 460.354 522.164 460.354Z" fill="#EBEAF6"/>
</g>
<g opacity="0.8">
<path d="M481.526 481.939C480.994 481.786 480.382 481.703 479.695 481.703H476.33H476.155L476.107 481.863L473.146 492.224H475.138L476.128 488.755H478.288C479.082 488.755 479.816 488.672 480.469 488.506C481.135 488.334 481.721 488.078 482.212 487.746C482.71 487.407 483.101 486.986 483.37 486.494C483.639 486.009 483.774 485.44 483.774 484.801C483.774 483.958 483.484 483.255 482.919 482.719C482.549 482.367 482.078 482.099 481.526 481.939ZM481.001 486.462C480.408 486.858 479.52 487.056 478.369 487.056H476.619L477.649 483.447H479.661C480.489 483.447 481.095 483.619 481.458 483.958C481.708 484.194 481.822 484.482 481.822 484.871C481.822 485.587 481.559 486.092 481.001 486.462Z" fill="#EBEAF6"/>
<path d="M468.455 481.709C467.869 481.709 467.331 481.785 466.84 481.939C466.348 482.092 465.917 482.309 465.554 482.577C465.184 482.852 464.888 483.191 464.679 483.58C464.47 483.97 464.363 484.398 464.363 484.839C464.363 485.196 464.43 485.529 464.571 485.816C464.706 486.103 464.914 486.365 465.177 486.589C465.426 486.806 465.742 487.004 466.113 487.196C466.469 487.375 466.887 487.553 467.358 487.732C467.647 487.841 467.863 487.95 468.071 488.058C468.125 488.084 468.179 488.109 468.233 488.135C468.475 488.25 468.664 488.371 468.791 488.486C468.913 488.588 469 488.697 469.047 488.799C469.094 488.901 469.121 489.023 469.121 489.15C469.121 489.361 469.081 489.534 468.987 489.693C468.886 489.866 468.738 490.019 468.563 490.141C468.374 490.268 468.078 490.402 467.876 490.454C467.472 490.556 466.866 490.569 466.442 490.569C466.375 490.569 462.478 490.556 462.478 490.556L462 492.223H466.967C467.566 492.223 468.098 492.153 468.59 492.006C469.081 491.859 469.525 491.635 469.916 491.341C470.292 491.054 470.602 490.709 470.824 490.313C471.046 489.911 471.154 489.483 471.154 488.997C471.154 488.639 471.087 488.314 470.959 488.026C470.831 487.745 470.636 487.483 470.387 487.247C470.144 487.023 469.848 486.819 469.491 486.634C469.155 486.461 468.751 486.289 468.307 486.129C468.024 486.027 467.802 485.918 467.587 485.822C467.519 485.79 467.452 485.758 467.385 485.727C467.129 485.612 466.92 485.49 466.759 485.369C466.617 485.267 466.523 485.158 466.463 485.049C466.409 484.947 466.382 484.826 466.382 484.685C466.382 484.526 466.422 484.366 466.503 484.219C466.59 484.059 466.718 483.919 466.88 483.791C467.048 483.663 467.264 483.555 467.519 483.478C467.782 483.401 468.085 483.357 468.421 483.357H472.561L473.039 481.689H468.455V481.709Z" fill="#EBEAF6"/>
<path d="M504.856 489.132C504.142 490.039 503.032 490.575 501.881 490.575C500.918 490.575 500.137 490.307 499.633 489.802C499.148 489.317 498.912 488.608 498.959 487.752C499.101 485.229 500.891 483.395 503.213 483.395C504.452 483.395 505.522 484.015 506.007 485.005L506.114 485.229L507.595 484.379L507.77 484.277L507.689 484.104C506.989 482.616 505.394 481.722 503.429 481.709H503.382C499.882 481.709 497.203 484.245 497.007 487.745C496.933 489.029 497.331 490.135 498.138 490.946C499 491.808 500.252 492.262 501.759 492.262C503.301 492.262 504.768 491.655 505.791 490.639L504.856 489.132Z" fill="#EBEAF6"/>
<path d="M516.203 489.132C515.483 490.052 514.366 490.582 513.174 490.582C513.154 490.582 513.195 490.582 513.174 490.582C512.246 490.569 511.465 490.301 510.98 489.809C510.502 489.33 510.28 488.647 510.307 487.784L518.162 487.752L518.223 487.618C518.337 487.343 518.546 486.794 518.647 486.226C518.876 484.922 518.606 483.798 517.866 482.974C517.159 482.182 516.055 481.729 514.83 481.729C511.391 481.729 508.544 484.367 508.348 487.733C508.274 488.991 508.645 490.084 509.425 490.889C510.26 491.745 511.573 492.224 513.094 492.268C513.141 492.268 513.047 492.268 513.094 492.268C514.285 492.268 516.001 491.808 517.146 490.659L516.203 489.132ZM516.681 486.226L510.623 486.206C511.223 484.571 512.589 483.53 514.346 483.396C514.44 483.389 514.534 483.383 514.628 483.383C515.376 483.383 515.995 483.626 516.365 484.073C516.776 484.571 516.883 485.312 516.681 486.226Z" fill="#EBEAF6"/>
<path d="M494.073 482.553C493.339 481.991 492.316 481.716 490.943 481.716C490.593 481.716 489.893 481.71 489.227 481.71C488.621 481.71 487.685 481.703 487.416 481.703H487.126L488.183 483.421H490.701C491.582 483.421 492.242 483.575 492.653 483.881C493.05 484.175 493.252 484.616 493.252 485.191C493.252 485.319 493.238 485.459 493.211 485.612C493.184 485.772 493.151 485.913 493.117 486.04L493.11 486.053C492.659 485.938 492.161 485.836 491.629 485.74C490.997 485.632 490.324 485.574 489.624 485.574C488.944 485.574 488.304 485.657 487.732 485.83C487.153 486.002 486.642 486.245 486.211 486.564C485.774 486.884 485.43 487.286 485.195 487.752C484.952 488.219 484.831 488.742 484.831 489.317C484.831 489.79 484.932 490.212 485.127 490.576C485.323 490.934 485.578 491.24 485.901 491.483C486.218 491.726 486.595 491.911 487.005 492.039C487.416 492.166 487.86 492.23 488.318 492.23C489.011 492.23 489.657 492.115 490.243 491.885C490.579 491.764 491.414 491.272 491.919 490.946L492.592 492.026H493.373L494.988 486.366C495.042 486.181 495.076 485.996 495.103 485.81C495.109 485.753 495.123 485.702 495.13 485.644C495.17 485.408 495.19 485.172 495.19 484.948C495.197 483.939 494.82 483.128 494.073 482.553ZM492.552 488.072C492.531 488.148 491.979 490.014 489.26 490.557C489.253 490.557 488.957 490.621 488.54 490.621C488.23 490.621 487.941 490.589 487.678 490.525C487.476 490.461 487.315 490.384 487.201 490.288C486.864 490.014 486.696 489.656 486.696 489.196C486.696 488.921 486.776 488.615 486.925 488.346C487.059 488.104 487.382 487.842 487.611 487.669C487.833 487.503 488.116 487.369 488.506 487.254C488.856 487.146 489.26 487.094 489.698 487.094C490.317 487.094 490.916 487.133 491.468 487.216C491.926 487.28 492.35 487.363 492.727 487.459L492.552 488.072Z" fill="#EBEAF6"/>
<path d="M555.451 483.689L554.906 485.593H560.755L560.075 487.982H554.226L553.64 490.045H560.23L559.523 492.511H549.635L552.859 481.224H562L561.293 483.689H555.451Z" fill="#EBEAF6"/>
<path d="M549.973 481.224L546.756 492.511H544.023L540.186 486.321L538.416 492.517H535.118L538.342 481.23H541.102L544.918 487.394L546.675 481.23H549.973V481.224Z" fill="#EBEAF6"/>
<path d="M521.171 487.79C521.46 483.862 524.738 481 529.12 481C532.782 481 534.902 483.057 534.68 485.982C534.39 489.911 531.112 492.773 526.731 492.773C523.069 492.766 520.956 490.716 521.171 487.79ZM531.22 486.168C531.328 484.667 530.392 483.645 528.622 483.645C526.313 483.645 524.779 485.459 524.624 487.592C524.516 489.093 525.452 490.115 527.222 490.115C529.531 490.115 531.065 488.308 531.22 486.168Z" fill="#EBEAF6"/>
</g>
<path d="M487.465 509.269V514H485.871V501.914H490.329C491.651 501.914 492.686 502.252 493.433 502.927C494.186 503.602 494.562 504.496 494.562 505.608C494.562 506.781 494.194 507.686 493.458 508.322C492.728 508.953 491.679 509.269 490.312 509.269H487.465ZM487.465 507.965H490.329C491.181 507.965 491.834 507.766 492.288 507.368C492.741 506.964 492.968 506.383 492.968 505.625C492.968 504.905 492.741 504.33 492.288 503.898C491.834 503.466 491.211 503.242 490.42 503.226H487.465V507.965ZM498.023 514H496.488V501.25H498.023V514ZM506.034 513.112C505.436 513.815 504.559 514.166 503.402 514.166C502.445 514.166 501.715 513.889 501.211 513.336C500.713 512.777 500.461 511.952 500.456 510.862V505.019H501.991V510.821C501.991 512.182 502.545 512.863 503.651 512.863C504.825 512.863 505.605 512.426 505.992 511.551V505.019H507.528V514H506.067L506.034 513.112ZM509.503 509.435C509.503 508.035 509.827 506.922 510.475 506.098C511.122 505.268 511.98 504.853 513.048 504.853C514.144 504.853 514.999 505.24 515.613 506.015L515.688 505.019H517.09V513.784C517.09 514.946 516.744 515.862 516.053 516.532C515.367 517.201 514.442 517.536 513.28 517.536C512.633 517.536 511.999 517.398 511.379 517.121C510.76 516.844 510.286 516.465 509.96 515.984L510.757 515.062C511.415 515.876 512.221 516.283 513.172 516.283C513.919 516.283 514.5 516.072 514.916 515.652C515.336 515.231 515.546 514.639 515.546 513.875V513.104C514.932 513.812 514.094 514.166 513.031 514.166C511.98 514.166 511.128 513.743 510.475 512.896C509.827 512.049 509.503 510.896 509.503 509.435ZM511.047 509.609C511.047 510.622 511.255 511.418 511.67 512C512.085 512.575 512.666 512.863 513.413 512.863C514.382 512.863 515.093 512.423 515.546 511.543V507.442C515.076 506.585 514.37 506.156 513.43 506.156C512.683 506.156 512.099 506.446 511.678 507.027C511.258 507.608 511.047 508.469 511.047 509.609ZM521.083 514H519.547V505.019H521.083V514ZM519.423 502.636C519.423 502.387 519.498 502.177 519.647 502.005C519.802 501.834 520.029 501.748 520.328 501.748C520.626 501.748 520.853 501.834 521.008 502.005C521.163 502.177 521.241 502.387 521.241 502.636C521.241 502.885 521.163 503.093 521.008 503.259C520.853 503.425 520.626 503.508 520.328 503.508C520.029 503.508 519.802 503.425 519.647 503.259C519.498 503.093 519.423 502.885 519.423 502.636ZM525.001 505.019L525.051 506.147C525.737 505.284 526.633 504.853 527.74 504.853C529.638 504.853 530.596 505.923 530.612 508.065V514H529.077V508.057C529.071 507.409 528.922 506.931 528.628 506.621C528.341 506.311 527.89 506.156 527.275 506.156C526.777 506.156 526.34 506.289 525.964 506.554C525.588 506.82 525.294 507.168 525.084 507.6V514H523.548V505.019H525.001ZM538.158 511.618C538.158 511.203 538 510.882 537.685 510.655C537.375 510.422 536.83 510.223 536.049 510.057C535.275 509.891 534.658 509.692 534.198 509.459C533.744 509.227 533.407 508.95 533.186 508.629C532.97 508.308 532.862 507.927 532.862 507.484C532.862 506.748 533.172 506.125 533.792 505.616C534.417 505.107 535.214 504.853 536.182 504.853C537.2 504.853 538.025 505.115 538.656 505.641C539.292 506.167 539.61 506.839 539.61 507.658H538.066C538.066 507.238 537.887 506.875 537.527 506.571C537.173 506.266 536.724 506.114 536.182 506.114C535.623 506.114 535.186 506.236 534.871 506.479C534.555 506.723 534.397 507.041 534.397 507.434C534.397 507.805 534.544 508.084 534.837 508.272C535.131 508.461 535.659 508.64 536.423 508.812C537.192 508.984 537.815 509.188 538.291 509.426C538.766 509.664 539.118 509.952 539.345 510.29C539.577 510.622 539.693 511.028 539.693 511.51C539.693 512.312 539.372 512.957 538.73 513.444C538.089 513.925 537.256 514.166 536.232 514.166C535.513 514.166 534.876 514.039 534.323 513.784C533.769 513.53 533.335 513.175 533.02 512.722C532.71 512.262 532.555 511.767 532.555 511.236H534.09C534.118 511.75 534.323 512.16 534.705 512.464C535.092 512.763 535.601 512.913 536.232 512.913C536.813 512.913 537.278 512.796 537.626 512.564C537.981 512.326 538.158 512.011 538.158 511.618Z" fill="white"/>
<defs>
<filter id="filter0_d" x="-418.354" y="-412" width="1885.71" height="1784.24" filterUnits="userSpaceOnUse" color-interpolation-filters="sRGB">
<feFlood flood-opacity="0" result="BackgroundImageFix"/>
<feColorMatrix in="SourceAlpha" type="matrix" values="0 0 0 0 0 0 0 0 0 0 0 0 0 0 0 0 0 0 127 0"/>
<feMorphology radius="6" operator="dilate" in="SourceAlpha" result="effect1_dropShadow"/>
<feOffset/>
<feGaussianBlur stdDeviation="5"/>
<feColorMatrix type="matrix" values="0 0 0 0 0 0 0 0 0 0.411765 0 0 0 0 0.8 0 0 0 0.2 0"/>
<feBlend mode="normal" in2="BackgroundImageFix" result="effect1_dropShadow"/>
<feBlend mode="normal" in="SourceGraphic" in2="effect1_dropShadow" result="shape"/>
</filter>
<filter id="filter1_d" x="-177.5" y="-173" width="1380.97" height="1306.75" filterUnits="userSpaceOnUse" color-interpolation-filters="sRGB">
<feFlood flood-opacity="0" result="BackgroundImageFix"/>
<feColorMatrix in="SourceAlpha" type="matrix" values="0 0 0 0 0 0 0 0 0 0 0 0 0 0 0 0 0 0 127 0"/>
<feMorphology radius="4" operator="dilate" in="SourceAlpha" result="effect1_dropShadow"/>
<feOffset/>
<feGaussianBlur stdDeviation="5"/>
<feColorMatrix type="matrix" values="0 0 0 0 0.666667 0 0 0 0 0.623529 0 0 0 0 0.937255 0 0 0 0.2 0"/>
<feBlend mode="normal" in2="BackgroundImageFix" result="effect1_dropShadow"/>
<feBlend mode="normal" in="SourceGraphic" in2="effect1_dropShadow" result="shape"/>
</filter>
<filter id="filter2_d" x="232.695" y="214.5" width="559.873" height="530.97" filterUnits="userSpaceOnUse" color-interpolation-filters="sRGB">
<feFlood flood-opacity="0" result="BackgroundImageFix"/>
<feColorMatrix in="SourceAlpha" type="matrix" values="0 0 0 0 0 0 0 0 0 0 0 0 0 0 0 0 0 0 127 0"/>
<feMorphology radius="4" operator="dilate" in="SourceAlpha" result="effect1_dropShadow"/>
<feOffset/>
<feGaussianBlur stdDeviation="5"/>
<feColorMatrix type="matrix" values="0 0 0 0 0.666667 0 0 0 0 0.623529 0 0 0 0 0.937255 0 0 0 0.2 0"/>
<feBlend mode="normal" in2="BackgroundImageFix" result="effect1_dropShadow"/>
<feBlend mode="normal" in="SourceGraphic" in2="effect1_dropShadow" result="shape"/>
</filter>
<filter id="filter3_d" x="33.3442" y="26" width="959.402" height="908.307" filterUnits="userSpaceOnUse" color-interpolation-filters="sRGB">
<feFlood flood-opacity="0" result="BackgroundImageFix"/>
<feColorMatrix in="SourceAlpha" type="matrix" values="0 0 0 0 0 0 0 0 0 0 0 0 0 0 0 0 0 0 127 0"/>
<feMorphology radius="4" operator="dilate" in="SourceAlpha" result="effect1_dropShadow"/>
<feOffset/>
<feGaussianBlur stdDeviation="5"/>
<feColorMatrix type="matrix" values="0 0 0 0 0.666667 0 0 0 0 0.623529 0 0 0 0 0.937255 0 0 0 0.2 0"/>
<feBlend mode="normal" in2="BackgroundImageFix" result="effect1_dropShadow"/>
<feBlend mode="normal" in="SourceGraphic" in2="effect1_dropShadow" result="shape"/>
</filter>
<filter id="filter4_d" x="129.272" y="117" width="768.093" height="727.713" filterUnits="userSpaceOnUse" color-interpolation-filters="sRGB">
<feFlood flood-opacity="0" result="BackgroundImageFix"/>
<feColorMatrix in="SourceAlpha" type="matrix" values="0 0 0 0 0 0 0 0 0 0 0 0 0 0 0 0 0 0 127 0"/>
<feMorphology radius="6" operator="dilate" in="SourceAlpha" result="effect1_dropShadow"/>
<feOffset/>
<feGaussianBlur stdDeviation="5"/>
<feColorMatrix type="matrix" values="0 0 0 0 0 0 0 0 0 0.411765 0 0 0 0 0.8 0 0 0 0.2 0"/>
<feBlend mode="normal" in2="BackgroundImageFix" result="effect1_dropShadow"/>
<feBlend mode="normal" in="SourceGraphic" in2="effect1_dropShadow" result="shape"/>
</filter>
<filter id="filter5_d" x="-72.579" y="-74" width="1171.19" height="1108.7" filterUnits="userSpaceOnUse" color-interpolation-filters="sRGB">
<feFlood flood-opacity="0" result="BackgroundImageFix"/>
<feColorMatrix in="SourceAlpha" type="matrix" values="0 0 0 0 0 0 0 0 0 0 0 0 0 0 0 0 0 0 127 0"/>
<feMorphology radius="6" operator="dilate" in="SourceAlpha" result="effect1_dropShadow"/>
<feOffset/>
<feGaussianBlur stdDeviation="5"/>
<feColorMatrix type="matrix" values="0 0 0 0 0 0 0 0 0 0.411765 0 0 0 0 0.8 0 0 0 0.2 0"/>
<feBlend mode="normal" in2="BackgroundImageFix" result="effect1_dropShadow"/>
<feBlend mode="normal" in="SourceGraphic" in2="effect1_dropShadow" result="shape"/>
</filter>
<filter id="filter6_d" x="416" y="386" width="192" height="187" filterUnits="userSpaceOnUse" color-interpolation-filters="sRGB">
<feFlood flood-opacity="0" result="BackgroundImageFix"/>
<feColorMatrix in="SourceAlpha" type="matrix" values="0 0 0 0 0 0 0 0 0 0 0 0 0 0 0 0 0 0 127 0"/>
<feMorphology radius="4" operator="dilate" in="SourceAlpha" result="effect1_dropShadow"/>
<feOffset/>
<feGaussianBlur stdDeviation="5"/>
<feColorMatrix type="matrix" values="0 0 0 0 0.67451 0 0 0 0 0.407843 0 0 0 0 0.505882 0 0 0 0.1 0"/>
<feBlend mode="normal" in2="BackgroundImageFix" result="effect1_dropShadow"/>
<feBlend mode="normal" in="SourceGraphic" in2="effect1_dropShadow" result="shape"/>
</filter>
<linearGradient id="paint0_linear" x1="512.485" y1="-159" x2="512.485" y2="1119.75" gradientUnits="userSpaceOnUse">
<stop stop-color="#5D3BAE"/>
<stop offset="0.520833" stop-color="#714382"/>
<stop offset="1" stop-color="#8A4161"/>
</linearGradient>
<linearGradient id="paint1_linear" x1="263.436" y1="0" x2="263.436" y2="497.97" gradientUnits="userSpaceOnUse">
<stop stop-color="#5D3BAE"/>
<stop offset="0.520833" stop-color="#714382"/>
<stop offset="1" stop-color="#8A4161"/>
</linearGradient>
<linearGradient id="paint2_linear" x1="512.701" y1="40" x2="512.701" y2="920.307" gradientUnits="userSpaceOnUse">
<stop stop-color="#5D3BAE"/>
<stop offset="0.520833" stop-color="#714382"/>
<stop offset="1" stop-color="#8A4161"/>
</linearGradient>
<linearGradient id="paint3_linear" x1="430.676" y1="413.066" x2="571.67" y2="542.924" gradientUnits="userSpaceOnUse">
<stop offset="0.0138937" stop-color="#EE9450"/>
<stop offset="1" stop-color="#6638B6" stop-opacity="0.5"/>
</linearGradient>
</defs>
</svg>
