<svg width="164" height="634" viewBox="0 0 164 634" fill="none" xmlns="http://www.w3.org/2000/svg">
<path d="M24.9912 4.20312V12.6318C24.9912 14.0322 24.5518 15.1396 23.6729 15.9541C22.7998 16.7686 21.6045 17.1758 20.0869 17.1758C18.5928 17.1758 17.4062 16.7803 16.5273 15.9893C15.6484 15.1982 15.2002 14.1113 15.1826 12.7285V4.20312H17.8193V12.6494C17.8193 13.4873 18.0186 14.0996 18.417 14.4863C18.8213 14.8672 19.3779 15.0576 20.0869 15.0576C21.5693 15.0576 22.3223 14.2783 22.3457 12.7197V4.20312H24.9912ZM29.79 12.4912V17H27.1533V4.20312H32.1455C33.1064 4.20312 33.9502 4.37891 34.6768 4.73047C35.4092 5.08203 35.9717 5.58301 36.3643 6.2334C36.7568 6.87793 36.9531 7.61328 36.9531 8.43945C36.9531 9.69336 36.5225 10.6836 35.6611 11.4102C34.8057 12.1309 33.6191 12.4912 32.1016 12.4912H29.79ZM29.79 10.3555H32.1455C32.8428 10.3555 33.373 10.1914 33.7363 9.86328C34.1055 9.53516 34.29 9.06641 34.29 8.45703C34.29 7.83008 34.1055 7.32324 33.7363 6.93652C33.3672 6.5498 32.8574 6.35059 32.207 6.33887H29.79V10.3555ZM48.8184 12.7373C48.7188 14.1143 48.209 15.1982 47.2891 15.9893C46.375 16.7803 45.168 17.1758 43.668 17.1758C42.0273 17.1758 40.7354 16.625 39.792 15.5234C38.8545 14.416 38.3857 12.8984 38.3857 10.9707V10.1885C38.3857 8.95801 38.6025 7.87402 39.0361 6.93652C39.4697 5.99902 40.0879 5.28125 40.8906 4.7832C41.6992 4.2793 42.6367 4.02734 43.7031 4.02734C45.1797 4.02734 46.3691 4.42285 47.2715 5.21387C48.1738 6.00488 48.6953 7.11523 48.8359 8.54492H46.1992C46.1348 7.71875 45.9033 7.12109 45.5049 6.75195C45.1123 6.37695 44.5117 6.18945 43.7031 6.18945C42.8242 6.18945 42.165 6.50586 41.7256 7.13867C41.292 7.76562 41.0693 8.74121 41.0576 10.0654V11.0322C41.0576 12.415 41.2656 13.4258 41.6816 14.0645C42.1035 14.7031 42.7656 15.0225 43.668 15.0225C44.4824 15.0225 45.0889 14.8379 45.4873 14.4688C45.8916 14.0938 46.123 13.5166 46.1816 12.7373H48.8184ZM61.0615 10.8916C61.0615 12.1514 60.8389 13.2559 60.3936 14.2051C59.9482 15.1543 59.3096 15.8867 58.4775 16.4023C57.6514 16.918 56.7021 17.1758 55.6299 17.1758C54.5693 17.1758 53.623 16.9209 52.791 16.4111C51.959 15.9014 51.3145 15.1748 50.8574 14.2314C50.4004 13.2822 50.1689 12.1924 50.1631 10.9619V10.3291C50.1631 9.06934 50.3887 7.96191 50.8398 7.00684C51.2969 6.0459 51.9385 5.31055 52.7646 4.80078C53.5967 4.28516 54.5459 4.02734 55.6123 4.02734C56.6787 4.02734 57.625 4.28516 58.4512 4.80078C59.2832 5.31055 59.9248 6.0459 60.376 7.00684C60.833 7.96191 61.0615 9.06641 61.0615 10.3203V10.8916ZM58.3896 10.3115C58.3896 8.96973 58.1494 7.9502 57.6689 7.25293C57.1885 6.55566 56.5029 6.20703 55.6123 6.20703C54.7275 6.20703 54.0449 6.55273 53.5645 7.24414C53.084 7.92969 52.8408 8.9375 52.835 10.2676V10.8916C52.835 12.1982 53.0752 13.2119 53.5557 13.9326C54.0361 14.6533 54.7275 15.0137 55.6299 15.0137C56.5146 15.0137 57.1943 14.668 57.6689 13.9766C58.1436 13.2793 58.3838 12.2656 58.3896 10.9355V10.3115ZM66.4229 4.20312L69.71 13.4844L72.9795 4.20312H76.4424V17H73.7969V13.502L74.0605 7.46387L70.6064 17H68.7959L65.3506 7.47266L65.6143 13.502V17H62.9775V4.20312H66.4229ZM81.5488 17H78.9121V4.20312H81.5488V17ZM94.4072 17H91.7705L86.6377 8.58008V17H84.001V4.20312H86.6377L91.7793 12.6406V4.20312H94.4072V17ZM106.835 15.3828C106.36 15.9512 105.689 16.3936 104.822 16.71C103.955 17.0205 102.994 17.1758 101.939 17.1758C100.832 17.1758 99.8594 16.9355 99.0215 16.4551C98.1895 15.9688 97.5449 15.2656 97.0879 14.3457C96.6367 13.4258 96.4053 12.3447 96.3936 11.1025V10.2324C96.3936 8.95508 96.6074 7.85059 97.0352 6.91895C97.4688 5.98145 98.0898 5.2666 98.8984 4.77441C99.7129 4.27637 100.665 4.02734 101.755 4.02734C103.272 4.02734 104.459 4.39062 105.314 5.11719C106.17 5.83789 106.677 6.88965 106.835 8.27246H104.269C104.151 7.54004 103.891 7.00391 103.486 6.66406C103.088 6.32422 102.537 6.1543 101.834 6.1543C100.938 6.1543 100.255 6.49121 99.7861 7.16504C99.3174 7.83887 99.0801 8.84082 99.0742 10.1709V10.9883C99.0742 12.3301 99.3291 13.3438 99.8389 14.0293C100.349 14.7148 101.096 15.0576 102.08 15.0576C103.07 15.0576 103.776 14.8467 104.198 14.4248V12.2188H101.799V10.2764H106.835V15.3828Z" fill="#B9DCFF"/>
<path d="M37.9375 33.5469V38H36.4375V26.625H40.6328C41.8776 26.625 42.8516 26.9427 43.5547 27.5781C44.263 28.2135 44.6172 29.0547 44.6172 30.1016C44.6172 31.2057 44.2708 32.0573 43.5781 32.6562C42.8906 33.25 41.9036 33.5469 40.6172 33.5469H37.9375ZM37.9375 32.3203H40.6328C41.4349 32.3203 42.0495 32.1328 42.4766 31.7578C42.9036 31.3776 43.1172 30.8307 43.1172 30.1172C43.1172 29.4401 42.9036 28.8984 42.4766 28.4922C42.0495 28.0859 41.4635 27.875 40.7188 27.8594H37.9375V32.3203ZM47.875 38H46.4297V26H47.875V38ZM55.4141 37.1641C54.8516 37.8255 54.026 38.1562 52.9375 38.1562C52.0365 38.1562 51.349 37.8958 50.875 37.375C50.4062 36.849 50.1693 36.0729 50.1641 35.0469V29.5469H51.6094V35.0078C51.6094 36.2891 52.1302 36.9297 53.1719 36.9297C54.276 36.9297 55.0104 36.5182 55.375 35.6953V29.5469H56.8203V38H55.4453L55.4141 37.1641ZM58.6797 33.7031C58.6797 32.3854 58.9844 31.3385 59.5938 30.5625C60.2031 29.7812 61.0104 29.3906 62.0156 29.3906C63.0469 29.3906 63.8516 29.7552 64.4297 30.4844L64.5 29.5469H65.8203V37.7969C65.8203 38.8906 65.4948 39.7526 64.8438 40.3828C64.1979 41.013 63.3281 41.3281 62.2344 41.3281C61.625 41.3281 61.0286 41.1979 60.4453 40.9375C59.862 40.6771 59.4167 40.3203 59.1094 39.8672L59.8594 39C60.4792 39.7656 61.237 40.1484 62.1328 40.1484C62.8359 40.1484 63.3828 39.9505 63.7734 39.5547C64.1693 39.1589 64.3672 38.6016 64.3672 37.8828V37.1562C63.7891 37.8229 63 38.1562 62 38.1562C61.0104 38.1562 60.2083 37.7578 59.5938 36.9609C58.9844 36.1641 58.6797 35.0781 58.6797 33.7031ZM60.1328 33.8672C60.1328 34.8203 60.3281 35.5703 60.7188 36.1172C61.1094 36.6589 61.6562 36.9297 62.3594 36.9297C63.2708 36.9297 63.9401 36.5156 64.3672 35.6875V31.8281C63.9245 31.0208 63.2604 30.6172 62.375 30.6172C61.6719 30.6172 61.1224 30.8906 60.7266 31.4375C60.3307 31.9844 60.1328 32.7943 60.1328 33.8672ZM69.5781 38H68.1328V29.5469H69.5781V38ZM68.0156 27.3047C68.0156 27.0703 68.0859 26.8724 68.2266 26.7109C68.3724 26.5495 68.5859 26.4688 68.8672 26.4688C69.1484 26.4688 69.362 26.5495 69.5078 26.7109C69.6536 26.8724 69.7266 27.0703 69.7266 27.3047C69.7266 27.5391 69.6536 27.7344 69.5078 27.8906C69.362 28.0469 69.1484 28.125 68.8672 28.125C68.5859 28.125 68.3724 28.0469 68.2266 27.8906C68.0859 27.7344 68.0156 27.5391 68.0156 27.3047ZM73.2656 29.5469L73.3125 30.6094C73.9583 29.7969 74.8021 29.3906 75.8438 29.3906C77.6302 29.3906 78.5312 30.3984 78.5469 32.4141V38H77.1016V32.4062C77.0964 31.7969 76.9557 31.3464 76.6797 31.0547C76.4089 30.763 75.9844 30.6172 75.4062 30.6172C74.9375 30.6172 74.526 30.7422 74.1719 30.9922C73.8177 31.2422 73.5417 31.5703 73.3438 31.9766V38H71.8984V29.5469H73.2656ZM85.6484 35.7578C85.6484 35.3672 85.5 35.0651 85.2031 34.8516C84.9115 34.6328 84.3984 34.4453 83.6641 34.2891C82.9349 34.1328 82.3542 33.9453 81.9219 33.7266C81.4948 33.5078 81.1771 33.2474 80.9688 32.9453C80.7656 32.6432 80.6641 32.2839 80.6641 31.8672C80.6641 31.1745 80.9557 30.5885 81.5391 30.1094C82.1276 29.6302 82.8776 29.3906 83.7891 29.3906C84.7474 29.3906 85.5234 29.638 86.1172 30.1328C86.7161 30.6276 87.0156 31.2604 87.0156 32.0312H85.5625C85.5625 31.6354 85.3932 31.2943 85.0547 31.0078C84.7214 30.7214 84.2995 30.5781 83.7891 30.5781C83.263 30.5781 82.8516 30.6927 82.5547 30.9219C82.2578 31.151 82.1094 31.4505 82.1094 31.8203C82.1094 32.1693 82.2474 32.4323 82.5234 32.6094C82.7995 32.7865 83.2969 32.9557 84.0156 33.1172C84.7396 33.2786 85.3255 33.4714 85.7734 33.6953C86.2214 33.9193 86.5521 34.1901 86.7656 34.5078C86.9844 34.8203 87.0938 35.2031 87.0938 35.6562C87.0938 36.4115 86.7917 37.0182 86.1875 37.4766C85.5833 37.9297 84.7995 38.1562 83.8359 38.1562C83.1589 38.1562 82.5599 38.0365 82.0391 37.7969C81.5182 37.5573 81.1094 37.224 80.8125 36.7969C80.5208 36.3646 80.375 35.8984 80.375 35.3984H81.8203C81.8464 35.8828 82.0391 36.2682 82.3984 36.5547C82.763 36.8359 83.2422 36.9766 83.8359 36.9766C84.3828 36.9766 84.8203 36.8672 85.1484 36.6484C85.4818 36.4245 85.6484 36.1276 85.6484 35.7578Z" fill="white"/>
<g opacity="0.6" filter="url(#filter0_d)">
<circle cx="96" cy="143" r="38" fill="url(#paint0_linear)"/>
<circle cx="96" cy="143" r="37.5" stroke="#007EE5"/>
</g>
<path d="M83.3882 134.203C83.9404 134.203 84.3698 134.123 84.6766 133.964C85.1587 133.713 85.3997 133.262 85.3997 132.61C85.3997 131.954 85.1433 131.512 84.6306 131.284C84.3414 131.157 83.9119 131.093 83.3422 131.093H81.0086V134.203H83.3882ZM83.8286 138.838C84.6306 138.838 85.2025 138.596 85.5443 138.113C85.759 137.808 85.8664 137.439 85.8664 137.006C85.8664 136.277 85.5531 135.78 84.9264 135.516C84.5933 135.374 84.1529 135.304 83.6051 135.304H81.0086V138.838H83.8286ZM79.7268 129.958H83.8746C85.0053 129.958 85.8094 130.309 86.2871 131.011C86.5676 131.425 86.7078 131.904 86.7078 132.446C86.7078 133.08 86.5347 133.599 86.1885 134.005C86.0088 134.219 85.7503 134.415 85.4128 134.593C85.908 134.789 86.2783 135.01 86.5237 135.256C86.9576 135.693 87.1745 136.297 87.1745 137.067C87.1745 137.715 86.9795 138.3 86.5895 138.824C86.0066 139.608 85.0798 140 83.8089 140H79.7268V129.958ZM89.4884 138.052C89.4884 138.407 89.6133 138.688 89.8631 138.893C90.1128 139.098 90.4086 139.2 90.7505 139.2C91.1668 139.2 91.57 139.1 91.96 138.899C92.6173 138.567 92.946 138.022 92.946 137.266V136.274C92.8014 136.37 92.6151 136.45 92.3873 136.514C92.1594 136.577 91.9359 136.623 91.7168 136.65L91.0003 136.746C90.5708 136.805 90.2487 136.899 90.034 137.026C89.6702 137.241 89.4884 137.582 89.4884 138.052ZM92.3544 135.563C92.6261 135.527 92.808 135.409 92.9 135.208C92.9526 135.099 92.9789 134.941 92.9789 134.736C92.9789 134.317 92.8342 134.014 92.545 133.827C92.2602 133.636 91.8504 133.54 91.3158 133.54C90.6979 133.54 90.2596 133.713 90.0011 134.06C89.8565 134.251 89.7623 134.536 89.7184 134.914H88.6141C88.636 134.012 88.9165 133.385 89.4555 133.034C89.9989 132.679 90.6278 132.501 91.3421 132.501C92.1703 132.501 92.843 132.665 93.3601 132.993C93.8728 133.321 94.1292 133.832 94.1292 134.524V138.742C94.1292 138.87 94.1533 138.972 94.2015 139.05C94.2541 139.127 94.3615 139.166 94.5236 139.166C94.5762 139.166 94.6354 139.164 94.7011 139.159C94.7668 139.15 94.837 139.139 94.9115 139.125V140.034C94.7274 140.089 94.5872 140.123 94.4908 140.137C94.3943 140.15 94.2629 140.157 94.0963 140.157C93.6888 140.157 93.393 140.007 93.2089 139.706C93.1125 139.547 93.0446 139.321 93.0052 139.029C92.7641 139.357 92.4179 139.642 91.9666 139.884C91.5152 140.125 91.0178 140.246 90.4744 140.246C89.8214 140.246 89.2868 140.041 88.8705 139.631C88.4585 139.216 88.2526 138.699 88.2526 138.079C88.2526 137.4 88.4563 136.874 88.8639 136.5C89.2714 136.126 89.8061 135.896 90.4678 135.81L92.3544 135.563ZM96.0749 132.713H97.2779V140H96.0749V132.713ZM96.0749 129.958H97.2779V131.353H96.0749V129.958ZM99.8218 136.425C99.8218 137.209 99.9818 137.865 100.302 138.394C100.622 138.922 101.134 139.187 101.84 139.187C102.388 139.187 102.837 138.943 103.187 138.455C103.542 137.963 103.72 137.259 103.72 136.343C103.72 135.418 103.538 134.734 103.174 134.292C102.811 133.845 102.361 133.622 101.827 133.622C101.231 133.622 100.746 133.859 100.374 134.333C100.006 134.807 99.8218 135.504 99.8218 136.425ZM101.603 132.549C102.142 132.549 102.594 132.667 102.957 132.904C103.168 133.041 103.407 133.28 103.674 133.622V129.924H104.811V140H103.746V138.981C103.47 139.433 103.144 139.758 102.767 139.959C102.39 140.16 101.958 140.26 101.472 140.26C100.687 140.26 100.008 139.918 99.434 139.234C98.8599 138.546 98.5729 137.632 98.5729 136.493C98.5729 135.427 98.8336 134.504 99.3551 133.725C99.881 132.941 100.63 132.549 101.603 132.549ZM107.749 132.679V137.539C107.749 137.913 107.806 138.218 107.92 138.455C108.131 138.893 108.523 139.111 109.097 139.111C109.921 139.111 110.482 138.729 110.78 137.963C110.942 137.553 111.023 136.99 111.023 136.274V132.679H112.206V140H111.089L111.102 138.92C110.948 139.198 110.758 139.433 110.53 139.624C110.079 140.007 109.531 140.198 108.887 140.198C107.883 140.198 107.199 139.85 106.836 139.152C106.638 138.779 106.54 138.28 106.54 137.655V132.679H107.749ZM76.1048 151.885L74.639 147.448L73.0811 151.885H76.1048ZM73.9553 145.958H75.4344L78.938 156H77.505L76.5255 152.992H72.7064L71.6612 156H70.3202L73.9553 145.958ZM80.4236 145.958H81.7449V156H80.4236V145.958ZM91.6905 145.685C92.9131 145.685 93.8619 146.02 94.5368 146.689C95.2116 147.359 95.5863 148.12 95.6608 148.973H94.3856C94.241 148.326 93.9517 147.813 93.5179 147.435C93.0884 147.056 92.4837 146.867 91.7036 146.867C90.7527 146.867 89.9836 147.216 89.3963 147.913C88.8135 148.606 88.5221 149.67 88.5221 151.105C88.5221 152.281 88.785 153.236 89.3109 153.97C89.8411 154.699 90.63 155.063 91.6773 155.063C92.6414 155.063 93.3755 154.678 93.8794 153.908C94.1467 153.503 94.3461 152.969 94.4776 152.309H95.7529C95.6389 153.366 95.262 154.252 94.6222 154.968C93.8553 155.829 92.8211 156.26 91.5196 156.26C90.3977 156.26 89.4555 155.907 88.693 155.2C87.6894 154.266 87.1877 152.824 87.1877 150.873C87.1877 149.392 87.5645 148.177 88.3183 147.229C89.1334 146.2 90.2575 145.685 91.6905 145.685ZM97.2253 145.958H98.4085V156H97.2253V145.958ZM102.984 155.207C103.768 155.207 104.305 154.899 104.594 154.284C104.888 153.664 105.035 152.976 105.035 152.22C105.035 151.536 104.929 150.98 104.719 150.552C104.386 149.877 103.812 149.54 102.997 149.54C102.274 149.54 101.748 149.827 101.419 150.401C101.09 150.976 100.926 151.668 100.926 152.479C100.926 153.259 101.09 153.908 101.419 154.428C101.748 154.947 102.269 155.207 102.984 155.207ZM103.03 148.467C103.937 148.467 104.704 148.781 105.33 149.41C105.957 150.039 106.27 150.964 106.27 152.186C106.27 153.366 105.994 154.341 105.442 155.111C104.89 155.882 104.033 156.267 102.872 156.267C101.903 156.267 101.134 155.927 100.565 155.248C99.9949 154.564 99.7101 153.648 99.7101 152.5C99.7101 151.27 100.01 150.29 100.611 149.561C101.211 148.831 102.017 148.467 103.03 148.467ZM108.867 148.679V153.539C108.867 153.913 108.924 154.218 109.038 154.455C109.248 154.893 109.64 155.111 110.214 155.111C111.038 155.111 111.599 154.729 111.897 153.963C112.059 153.553 112.14 152.99 112.14 152.274V148.679H113.324V156H112.206L112.219 154.92C112.066 155.198 111.875 155.433 111.647 155.624C111.196 156.007 110.648 156.198 110.004 156.198C109.001 156.198 108.317 155.85 107.953 155.152C107.756 154.779 107.657 154.28 107.657 153.655V148.679H108.867ZM115.927 152.425C115.927 153.209 116.087 153.865 116.407 154.394C116.726 154.922 117.239 155.187 117.945 155.187C118.493 155.187 118.942 154.943 119.292 154.455C119.647 153.963 119.825 153.259 119.825 152.343C119.825 151.418 119.643 150.734 119.279 150.292C118.915 149.845 118.466 149.622 117.932 149.622C117.336 149.622 116.851 149.859 116.479 150.333C116.111 150.807 115.927 151.504 115.927 152.425ZM117.708 148.549C118.247 148.549 118.699 148.667 119.062 148.904C119.273 149.041 119.511 149.28 119.779 149.622V145.924H120.916V156H119.851V154.981C119.575 155.433 119.249 155.758 118.872 155.959C118.495 156.16 118.063 156.26 117.577 156.26C116.792 156.26 116.113 155.918 115.539 155.234C114.965 154.546 114.678 153.632 114.678 152.493C114.678 151.427 114.939 150.504 115.46 149.725C115.986 148.941 116.735 148.549 117.708 148.549Z" fill="#B9DCFF"/>
<g opacity="0.6" filter="url(#filter1_d)">
<circle cx="106" cy="358" r="44" fill="url(#paint1_linear)"/>
<circle cx="106" cy="358" r="43.5" stroke="#007EE5"/>
</g>
<path d="M91.7617 341.089H93.5283V354H91.7617V341.089ZM101.228 346.547C101.966 346.547 102.54 346.444 102.95 346.239C103.595 345.917 103.917 345.337 103.917 344.499C103.917 343.655 103.574 343.087 102.889 342.794C102.502 342.63 101.928 342.548 101.166 342.548H98.0459V346.547H101.228ZM101.816 352.506C102.889 352.506 103.653 352.195 104.11 351.574C104.397 351.182 104.541 350.707 104.541 350.15C104.541 349.213 104.122 348.574 103.284 348.234C102.839 348.053 102.25 347.962 101.518 347.962H98.0459V352.506H101.816ZM96.332 341.089H101.878C103.39 341.089 104.465 341.54 105.104 342.442C105.479 342.976 105.666 343.591 105.666 344.288C105.666 345.103 105.435 345.771 104.972 346.292C104.731 346.567 104.386 346.819 103.935 347.048C104.597 347.3 105.092 347.584 105.42 347.9C106 348.463 106.29 349.239 106.29 350.229C106.29 351.062 106.029 351.814 105.508 352.488C104.729 353.496 103.489 354 101.79 354H96.332V341.089ZM108.338 341.089H110.843L114.552 352.005L118.234 341.089H120.713V354H119.052V346.38C119.052 346.116 119.058 345.68 119.069 345.07C119.081 344.461 119.087 343.808 119.087 343.11L115.404 354H113.673L109.964 343.11V343.506C109.964 343.822 109.97 344.306 109.981 344.956C109.999 345.601 110.008 346.075 110.008 346.38V354H108.338V341.089ZM89.2744 361.737C90.9092 361.737 92.1777 362.168 93.0801 363.029C93.9824 363.891 94.4834 364.869 94.583 365.965H92.8779C92.6846 365.133 92.2979 364.474 91.7178 363.987C91.1436 363.501 90.335 363.258 89.292 363.258C88.0205 363.258 86.9922 363.706 86.207 364.603C85.4277 365.493 85.0381 366.861 85.0381 368.707C85.0381 370.219 85.3896 371.446 86.0928 372.39C86.8018 373.327 87.8564 373.796 89.2568 373.796C90.5459 373.796 91.5273 373.301 92.2012 372.311C92.5586 371.789 92.8252 371.104 93.001 370.254H94.7061C94.5537 371.613 94.0498 372.753 93.1943 373.673C92.1689 374.78 90.7861 375.334 89.0459 375.334C87.5459 375.334 86.2861 374.88 85.2666 373.972C83.9248 372.771 83.2539 370.916 83.2539 368.408C83.2539 366.504 83.7578 364.942 84.7656 363.724C85.8555 362.399 87.3584 361.737 89.2744 361.737ZM96.6748 362.089H98.2568V375H96.6748V362.089ZM104.374 373.98C105.423 373.98 106.141 373.585 106.527 372.794C106.92 371.997 107.116 371.112 107.116 370.14C107.116 369.261 106.976 368.546 106.694 367.995C106.249 367.128 105.481 366.694 104.392 366.694C103.425 366.694 102.722 367.063 102.282 367.802C101.843 368.54 101.623 369.431 101.623 370.474C101.623 371.476 101.843 372.311 102.282 372.979C102.722 373.646 103.419 373.98 104.374 373.98ZM104.436 365.314C105.648 365.314 106.674 365.719 107.512 366.527C108.35 367.336 108.769 368.525 108.769 370.096C108.769 371.613 108.399 372.867 107.661 373.857C106.923 374.848 105.777 375.343 104.225 375.343C102.93 375.343 101.901 374.906 101.14 374.033C100.378 373.154 99.9971 371.977 99.9971 370.5C99.9971 368.918 100.398 367.658 101.201 366.721C102.004 365.783 103.082 365.314 104.436 365.314ZM112.24 365.587V371.836C112.24 372.316 112.316 372.709 112.469 373.014C112.75 373.576 113.274 373.857 114.042 373.857C115.144 373.857 115.894 373.365 116.292 372.381C116.509 371.854 116.617 371.13 116.617 370.21V365.587H118.199V375H116.705L116.723 373.611C116.518 373.969 116.263 374.271 115.958 374.517C115.354 375.009 114.622 375.255 113.761 375.255C112.419 375.255 111.505 374.807 111.019 373.91C110.755 373.43 110.623 372.788 110.623 371.985V365.587H112.24ZM121.68 370.403C121.68 371.411 121.894 372.255 122.321 372.935C122.749 373.614 123.435 373.954 124.378 373.954C125.11 373.954 125.711 373.641 126.18 373.014C126.654 372.381 126.892 371.476 126.892 370.298C126.892 369.108 126.648 368.229 126.162 367.661C125.676 367.087 125.075 366.8 124.36 366.8C123.563 366.8 122.916 367.104 122.418 367.714C121.926 368.323 121.68 369.22 121.68 370.403ZM124.062 365.42C124.782 365.42 125.386 365.572 125.872 365.877C126.153 366.053 126.473 366.36 126.83 366.8V362.045H128.351V375H126.927V373.69C126.558 374.271 126.121 374.689 125.617 374.947C125.113 375.205 124.536 375.334 123.886 375.334C122.837 375.334 121.929 374.895 121.161 374.016C120.394 373.131 120.01 371.956 120.01 370.491C120.01 369.12 120.358 367.934 121.056 366.932C121.759 365.924 122.761 365.42 124.062 365.42Z" fill="#B9DCFF"/>
<g opacity="0.6" filter="url(#filter2_d)">
<circle cx="64" cy="570" r="50" fill="url(#paint2_linear)"/>
<circle cx="64" cy="570" r="49.5" stroke="#007EE5"/>
</g>
<path d="M40.6525 559.121L38.5584 552.783L36.3328 559.121H40.6525ZM37.5818 550.654H39.6947L44.6999 565H42.6527L41.2535 560.703H35.7976L34.3045 565H32.3888L37.5818 550.654ZM46.2212 550.654H47.9115V565H46.2212V550.654ZM50.4563 554.59H52.1748V565H50.4563V554.59ZM50.4563 550.654H52.1748V552.646H50.4563V550.654ZM54.607 550.605H56.2504V555.811C56.6197 555.309 57.0611 554.928 57.5744 554.668C58.0878 554.401 58.645 554.268 59.246 554.268C60.498 554.268 61.5122 554.717 62.2885 555.615C63.0711 556.507 63.4624 557.826 63.4624 559.57C63.4624 561.224 63.0773 562.598 62.3073 563.691C61.5373 564.785 60.4699 565.332 59.1051 565.332C58.3413 565.332 57.6965 565.14 57.1706 564.756C56.8576 564.528 56.5227 564.163 56.1658 563.662V565H54.607V550.605ZM59.0018 563.779C59.9158 563.779 60.5982 563.402 61.049 562.646C61.506 561.891 61.7345 560.895 61.7345 559.658C61.7345 558.558 61.506 557.646 61.049 556.924C60.5982 556.201 59.9315 555.84 59.0488 555.84C58.2787 555.84 57.6026 556.136 57.0204 556.729C56.4444 557.321 56.1564 558.298 56.1564 559.658C56.1564 560.641 56.2754 561.439 56.5133 562.051C56.9578 563.203 57.7873 563.779 59.0018 563.779ZM66.7397 562.217C66.7397 562.725 66.9181 563.125 67.2749 563.418C67.6318 563.711 68.0544 563.857 68.5427 563.857C69.1374 563.857 69.7134 563.714 70.2706 563.428C71.2096 562.952 71.6791 562.174 71.6791 561.094V559.678C71.4726 559.814 71.2065 559.928 70.8809 560.02C70.5554 560.111 70.2361 560.176 69.9231 560.215L68.8995 560.352C68.286 560.436 67.8259 560.57 67.5191 560.752C66.9995 561.058 66.7397 561.546 66.7397 562.217ZM70.834 558.662C71.2221 558.61 71.4819 558.441 71.6134 558.154C71.6885 557.998 71.7261 557.773 71.7261 557.48C71.7261 556.882 71.5195 556.449 71.1063 556.182C70.6994 555.908 70.114 555.771 69.3503 555.771C68.4676 555.771 67.8415 556.019 67.4721 556.514C67.2656 556.787 67.131 557.194 67.0684 557.734H65.4907C65.522 556.445 65.9227 555.55 66.6927 555.049C67.469 554.541 68.3674 554.287 69.3878 554.287C70.5711 554.287 71.532 554.521 72.2708 554.99C73.0032 555.459 73.3695 556.188 73.3695 557.178V563.203C73.3695 563.385 73.4039 563.532 73.4728 563.643C73.5479 563.753 73.7013 563.809 73.9329 563.809C74.008 563.809 74.0925 563.805 74.1864 563.799C74.2804 563.786 74.3805 563.77 74.4869 563.75V565.049C74.224 565.127 74.0237 565.176 73.8859 565.195C73.7482 565.215 73.5604 565.225 73.3225 565.225C72.7403 565.225 72.3177 565.01 72.0548 564.58C71.917 564.352 71.82 564.03 71.7637 563.613C71.4193 564.082 70.9248 564.489 70.2799 564.834C69.6351 565.179 68.9246 565.352 68.1483 565.352C67.2155 565.352 66.4517 565.059 65.857 564.473C65.2685 563.88 64.9742 563.141 64.9742 562.256C64.9742 561.286 65.2654 560.534 65.8476 560C66.4298 559.466 67.1936 559.137 68.1389 559.014L70.834 558.662ZM76.0176 550.605H77.661V555.811C78.0303 555.309 78.4717 554.928 78.9851 554.668C79.4984 554.401 80.0556 554.268 80.6566 554.268C81.9087 554.268 82.9229 554.717 83.6991 555.615C84.4817 556.507 84.873 557.826 84.873 559.57C84.873 561.224 84.488 562.598 83.7179 563.691C82.9479 564.785 81.8805 565.332 80.5157 565.332C79.752 565.332 79.1071 565.14 78.5813 564.756C78.2682 564.528 77.9333 564.163 77.5765 563.662V565H76.0176V550.605ZM80.4124 563.779C81.3264 563.779 82.0088 563.402 82.4596 562.646C82.9166 561.891 83.1451 560.895 83.1451 559.658C83.1451 558.558 82.9166 557.646 82.4596 556.924C82.0088 556.201 81.3421 555.84 80.4594 555.84C79.6894 555.84 79.0132 556.136 78.431 556.729C77.855 557.321 77.5671 558.298 77.5671 559.658C77.5671 560.641 77.686 561.439 77.9239 562.051C78.3684 563.203 79.1979 563.779 80.4124 563.779ZM88.1503 562.217C88.1503 562.725 88.3287 563.125 88.6856 563.418C89.0424 563.711 89.465 563.857 89.9533 563.857C90.548 563.857 91.124 563.714 91.6812 563.428C92.6202 562.952 93.0898 562.174 93.0898 561.094V559.678C92.8832 559.814 92.6171 559.928 92.2916 560.02C91.966 560.111 91.6467 560.176 91.3337 560.215L90.3101 560.352C89.6966 560.436 89.2365 560.57 88.9297 560.752C88.4101 561.058 88.1503 561.546 88.1503 562.217ZM92.2446 558.662C92.6328 558.61 92.8926 558.441 93.024 558.154C93.0992 557.998 93.1367 557.773 93.1367 557.48C93.1367 556.882 92.9301 556.449 92.5169 556.182C92.11 555.908 91.5247 555.771 90.7609 555.771C89.8782 555.771 89.2521 556.019 88.8828 556.514C88.6762 556.787 88.5416 557.194 88.479 557.734H86.9014C86.9327 556.445 87.3333 555.55 88.1034 555.049C88.8796 554.541 89.778 554.287 90.7985 554.287C91.9817 554.287 92.9427 554.521 93.6814 554.99C94.4139 555.459 94.7801 556.188 94.7801 557.178V563.203C94.7801 563.385 94.8145 563.532 94.8834 563.643C94.9585 563.753 95.1119 563.809 95.3435 563.809C95.4186 563.809 95.5032 563.805 95.5971 563.799C95.691 563.786 95.7911 563.77 95.8976 563.75V565.049C95.6346 565.127 95.4343 565.176 95.2966 565.195C95.1588 565.215 94.971 565.225 94.7331 565.225C94.1509 565.225 93.7283 565.01 93.4654 564.58C93.3277 564.352 93.2306 564.03 93.1743 563.613C92.83 564.082 92.3354 564.489 91.6906 564.834C91.0457 565.179 90.3352 565.352 89.5589 565.352C88.6261 565.352 87.8623 565.059 87.2676 564.473C86.6791 563.88 86.3849 563.141 86.3849 562.256C86.3849 561.286 86.676 560.534 87.2582 560C87.8404 559.466 88.6042 559.137 89.5495 559.014L92.2446 558.662ZM46.3432 573.264C48.0899 573.264 49.4453 573.742 50.4094 574.699C51.3735 575.656 51.9088 576.743 52.0152 577.961H50.1934C49.9868 577.036 49.5736 576.304 48.9538 575.764C48.3403 575.223 47.4764 574.953 46.362 574.953C45.0035 574.953 43.9048 575.451 43.0659 576.447C42.2333 577.437 41.817 578.957 41.817 581.008C41.817 582.688 42.1926 584.051 42.9438 585.1C43.7013 586.141 44.8282 586.662 46.3245 586.662C47.7018 586.662 48.7504 586.112 49.4703 585.012C49.8522 584.432 50.1371 583.671 50.3249 582.727H52.1466C51.9839 584.237 51.4455 585.503 50.5315 586.525C49.4359 587.756 47.9584 588.371 46.0991 588.371C44.4964 588.371 43.1504 587.867 42.0611 586.857C40.6275 585.523 39.9107 583.462 39.9107 580.676C39.9107 578.56 40.4491 576.825 41.5259 575.471C42.6903 573.999 44.2961 573.264 46.3432 573.264ZM54.2501 573.654H55.9405V588H54.2501V573.654ZM62.4763 586.867C63.5969 586.867 64.3639 586.428 64.777 585.549C65.1965 584.663 65.4062 583.68 65.4062 582.6C65.4062 581.623 65.256 580.829 64.9555 580.217C64.4797 579.253 63.6596 578.771 62.4951 578.771C61.4621 578.771 60.7109 579.182 60.2414 580.002C59.7718 580.822 59.5371 581.812 59.5371 582.971C59.5371 584.084 59.7718 585.012 60.2414 585.754C60.7109 586.496 61.4559 586.867 62.4763 586.867ZM62.5421 577.238C63.838 577.238 64.9335 577.688 65.8288 578.586C66.724 579.484 67.1716 580.806 67.1716 582.551C67.1716 584.237 66.7772 585.63 65.9884 586.73C65.1996 587.831 63.9757 588.381 62.3167 588.381C60.9331 588.381 59.8344 587.896 59.0206 586.926C58.2067 585.949 57.7998 584.641 57.7998 583C57.7998 581.242 58.2286 579.842 59.0863 578.801C59.944 577.759 61.0959 577.238 62.5421 577.238ZM70.8809 577.541V584.484C70.8809 585.018 70.9623 585.454 71.1251 585.793C71.4256 586.418 71.9859 586.73 72.806 586.73C73.983 586.73 74.7843 586.184 75.21 585.09C75.4417 584.504 75.5575 583.7 75.5575 582.678V577.541H77.2478V588H75.6514L75.6702 586.457C75.451 586.854 75.1787 587.189 74.8532 587.463C74.2084 588.01 73.4258 588.283 72.5055 588.283C71.0719 588.283 70.0953 587.785 69.5756 586.789C69.2939 586.255 69.1531 585.542 69.1531 584.65V577.541H70.8809ZM80.9665 582.893C80.9665 584.012 81.195 584.95 81.652 585.705C82.109 586.46 82.8415 586.838 83.8494 586.838C84.6319 586.838 85.2736 586.49 85.7745 585.793C86.2816 585.09 86.5351 584.084 86.5351 582.775C86.5351 581.454 86.2753 580.477 85.7557 579.846C85.2361 579.208 84.5944 578.889 83.8306 578.889C82.9792 578.889 82.2874 579.227 81.7553 579.904C81.2294 580.581 80.9665 581.577 80.9665 582.893ZM83.5113 577.355C84.2814 577.355 84.9262 577.525 85.4458 577.863C85.7463 578.059 86.0875 578.4 86.4694 578.889V573.605H88.094V588H86.5727V586.545C86.1783 587.189 85.7119 587.655 85.1735 587.941C84.6351 588.228 84.0184 588.371 83.3235 588.371C82.2029 588.371 81.2325 587.883 80.4124 586.906C79.5923 585.923 79.1823 584.618 79.1823 582.99C79.1823 581.467 79.5548 580.148 80.2997 579.035C81.051 577.915 82.1215 577.355 83.5113 577.355Z" fill="#B9DCFF"/>
<g opacity="0.6" filter="url(#filter3_d)">
<circle cx="106" cy="248" r="28" fill="url(#paint3_linear)"/>
<circle cx="106" cy="248" r="27.5" stroke="#007EE5"/>
</g>
<path d="M92.8828 242.523H94.4531V254H92.8828V242.523ZM97.6328 251.375C97.6745 251.844 97.7917 252.203 97.9844 252.453C98.3385 252.906 98.9531 253.133 99.8281 253.133C100.349 253.133 100.807 253.021 101.203 252.797C101.599 252.568 101.797 252.216 101.797 251.742C101.797 251.383 101.638 251.109 101.32 250.922C101.117 250.807 100.716 250.674 100.117 250.523L99 250.242C98.2865 250.065 97.7604 249.867 97.4219 249.648C96.8177 249.268 96.5156 248.742 96.5156 248.07C96.5156 247.279 96.7995 246.638 97.3672 246.148C97.9401 245.659 98.7083 245.414 99.6719 245.414C100.932 245.414 101.841 245.784 102.398 246.523C102.747 246.992 102.917 247.497 102.906 248.039H101.578C101.552 247.721 101.44 247.432 101.242 247.172C100.919 246.802 100.359 246.617 99.5625 246.617C99.0312 246.617 98.6276 246.719 98.3516 246.922C98.0807 247.125 97.9453 247.393 97.9453 247.727C97.9453 248.091 98.125 248.383 98.4844 248.602C98.6927 248.732 99 248.846 99.4062 248.945L100.336 249.172C101.346 249.417 102.023 249.654 102.367 249.883C102.914 250.242 103.188 250.807 103.188 251.578C103.188 252.323 102.904 252.966 102.336 253.508C101.773 254.049 100.914 254.32 99.7578 254.32C98.513 254.32 97.6302 254.039 97.1094 253.477C96.5938 252.909 96.3177 252.208 96.2812 251.375H97.6328ZM105.078 243.297H106.5V245.633H107.836V246.781H106.5V252.242C106.5 252.534 106.599 252.729 106.797 252.828C106.906 252.885 107.089 252.914 107.344 252.914C107.411 252.914 107.484 252.914 107.562 252.914C107.641 252.909 107.732 252.901 107.836 252.891V254C107.674 254.047 107.505 254.081 107.328 254.102C107.156 254.122 106.969 254.133 106.766 254.133C106.109 254.133 105.664 253.966 105.43 253.633C105.195 253.294 105.078 252.857 105.078 252.32V246.781H103.945V245.633H105.078V243.297ZM109.25 245.672H110.68V254H109.25V245.672ZM109.25 242.523H110.68V244.117H109.25V242.523ZM116.133 253.094C117.065 253.094 117.703 252.742 118.047 252.039C118.396 251.331 118.57 250.544 118.57 249.68C118.57 248.898 118.445 248.263 118.195 247.773C117.799 247.003 117.117 246.617 116.148 246.617C115.289 246.617 114.664 246.945 114.273 247.602C113.883 248.258 113.688 249.049 113.688 249.977C113.688 250.867 113.883 251.609 114.273 252.203C114.664 252.797 115.284 253.094 116.133 253.094ZM116.188 245.391C117.266 245.391 118.177 245.75 118.922 246.469C119.667 247.188 120.039 248.245 120.039 249.641C120.039 250.99 119.711 252.104 119.055 252.984C118.398 253.865 117.38 254.305 116 254.305C114.849 254.305 113.935 253.917 113.258 253.141C112.581 252.359 112.242 251.312 112.242 250C112.242 248.594 112.599 247.474 113.312 246.641C114.026 245.807 114.984 245.391 116.188 245.391Z" fill="#B9DCFF"/>
<defs>
<filter id="filter0_d" x="44" y="91" width="104" height="104" filterUnits="userSpaceOnUse" color-interpolation-filters="sRGB">
<feFlood flood-opacity="0" result="BackgroundImageFix"/>
<feColorMatrix in="SourceAlpha" type="matrix" values="0 0 0 0 0 0 0 0 0 0 0 0 0 0 0 0 0 0 127 0"/>
<feMorphology radius="4" operator="dilate" in="SourceAlpha" result="effect1_dropShadow"/>
<feOffset/>
<feGaussianBlur stdDeviation="5"/>
<feColorMatrix type="matrix" values="0 0 0 0 0.0156863 0 0 0 0 0.341176 0 0 0 0 0.607843 0 0 0 0.4 0"/>
<feBlend mode="normal" in2="BackgroundImageFix" result="effect1_dropShadow"/>
<feBlend mode="normal" in="SourceGraphic" in2="effect1_dropShadow" result="shape"/>
</filter>
<filter id="filter1_d" x="48" y="300" width="116" height="116" filterUnits="userSpaceOnUse" color-interpolation-filters="sRGB">
<feFlood flood-opacity="0" result="BackgroundImageFix"/>
<feColorMatrix in="SourceAlpha" type="matrix" values="0 0 0 0 0 0 0 0 0 0 0 0 0 0 0 0 0 0 127 0"/>
<feMorphology radius="4" operator="dilate" in="SourceAlpha" result="effect1_dropShadow"/>
<feOffset/>
<feGaussianBlur stdDeviation="5"/>
<feColorMatrix type="matrix" values="0 0 0 0 0.0156863 0 0 0 0 0.341176 0 0 0 0 0.607843 0 0 0 0.4 0"/>
<feBlend mode="normal" in2="BackgroundImageFix" result="effect1_dropShadow"/>
<feBlend mode="normal" in="SourceGraphic" in2="effect1_dropShadow" result="shape"/>
</filter>
<filter id="filter2_d" x="0" y="506" width="128" height="128" filterUnits="userSpaceOnUse" color-interpolation-filters="sRGB">
<feFlood flood-opacity="0" result="BackgroundImageFix"/>
<feColorMatrix in="SourceAlpha" type="matrix" values="0 0 0 0 0 0 0 0 0 0 0 0 0 0 0 0 0 0 127 0"/>
<feMorphology radius="4" operator="dilate" in="SourceAlpha" result="effect1_dropShadow"/>
<feOffset/>
<feGaussianBlur stdDeviation="5"/>
<feColorMatrix type="matrix" values="0 0 0 0 0.0156863 0 0 0 0 0.341176 0 0 0 0 0.607843 0 0 0 0.4 0"/>
<feBlend mode="normal" in2="BackgroundImageFix" result="effect1_dropShadow"/>
<feBlend mode="normal" in="SourceGraphic" in2="effect1_dropShadow" result="shape"/>
</filter>
<filter id="filter3_d" x="64" y="206" width="84" height="84" filterUnits="userSpaceOnUse" color-interpolation-filters="sRGB">
<feFlood flood-opacity="0" result="BackgroundImageFix"/>
<feColorMatrix in="SourceAlpha" type="matrix" values="0 0 0 0 0 0 0 0 0 0 0 0 0 0 0 0 0 0 127 0"/>
<feMorphology radius="4" operator="dilate" in="SourceAlpha" result="effect1_dropShadow"/>
<feOffset/>
<feGaussianBlur stdDeviation="5"/>
<feColorMatrix type="matrix" values="0 0 0 0 0.0156863 0 0 0 0 0.341176 0 0 0 0 0.607843 0 0 0 0.4 0"/>
<feBlend mode="normal" in2="BackgroundImageFix" result="effect1_dropShadow"/>
<feBlend mode="normal" in="SourceGraphic" in2="effect1_dropShadow" result="shape"/>
</filter>
<linearGradient id="paint0_linear" x1="75.5385" y1="110.846" x2="134" y2="186.554" gradientUnits="userSpaceOnUse">
<stop stop-color="#43BEFF" stop-opacity="0.5"/>
<stop offset="1" stop-color="#B9DCFF" stop-opacity="0.2"/>
</linearGradient>
<linearGradient id="paint1_linear" x1="82.3077" y1="320.769" x2="150" y2="408.431" gradientUnits="userSpaceOnUse">
<stop stop-color="#43BEFF" stop-opacity="0.5"/>
<stop offset="1" stop-color="#B9DCFF" stop-opacity="0.2"/>
</linearGradient>
<linearGradient id="paint2_linear" x1="37.0769" y1="527.692" x2="114" y2="627.308" gradientUnits="userSpaceOnUse">
<stop stop-color="#43BEFF" stop-opacity="0.5"/>
<stop offset="1" stop-color="#B9DCFF" stop-opacity="0.2"/>
</linearGradient>
<linearGradient id="paint3_linear" x1="90.9231" y1="224.308" x2="134" y2="280.092" gradientUnits="userSpaceOnUse">
<stop stop-color="#43BEFF" stop-opacity="0.5"/>
<stop offset="1" stop-color="#B9DCFF" stop-opacity="0.2"/>
</linearGradient>
</defs>
</svg>
