<svg width="187" height="626" viewBox="0 0 187 626" fill="none" xmlns="http://www.w3.org/2000/svg">
<g opacity="0.5" filter="url(#filter0_d)">
<circle cx="49" cy="49" r="35" fill="url(#paint0_linear)"/>
<circle cx="49" cy="49" r="34.5" stroke="#004F99"/>
</g>
<path d="M19.1137 44.3926H22.8381C23.5743 44.3926 24.1678 44.6094 24.6185 45.043C25.0693 45.4727 25.2946 46.0781 25.2946 46.8594C25.2946 47.5312 25.0937 48.1172 24.6918 48.6172C24.2898 49.1133 23.6719 49.3613 22.8381 49.3613H20.235V53H19.1137V44.3926ZM24.1621 46.8652C24.1621 46.2324 23.9368 45.8027 23.486 45.5762C23.2381 45.4551 22.8982 45.3945 22.4662 45.3945H20.235V48.377H22.4662C22.9695 48.377 23.3771 48.2656 23.6888 48.043C24.0044 47.8203 24.1621 47.4277 24.1621 46.8652ZM26.5962 46.7246H27.5597V47.8086C27.6385 47.5977 27.832 47.3418 28.14 47.041C28.448 46.7363 28.803 46.584 29.2049 46.584C29.2237 46.584 29.2556 46.5859 29.3007 46.5898C29.3458 46.5938 29.4228 46.6016 29.5317 46.6133V47.7266C29.4716 47.7148 29.4152 47.707 29.3627 47.7031C29.3138 47.6992 29.2594 47.6973 29.1993 47.6973C28.6884 47.6973 28.2959 47.8691 28.0217 48.2129C27.7475 48.5527 27.6104 48.9453 27.6104 49.3906V53H26.5962V46.7246ZM32.8053 52.3203C33.4776 52.3203 33.9378 52.0566 34.1857 51.5293C34.4374 50.998 34.5632 50.4082 34.5632 49.7598C34.5632 49.1738 34.473 48.6973 34.2927 48.3301C34.0073 47.752 33.5152 47.4629 32.8165 47.4629C32.1967 47.4629 31.746 47.709 31.4643 48.2012C31.1826 48.6934 31.0417 49.2871 31.0417 49.9824C31.0417 50.6504 31.1826 51.207 31.4643 51.6523C31.746 52.0977 32.193 52.3203 32.8053 52.3203ZM32.8447 46.543C33.6222 46.543 34.2796 46.8125 34.8167 47.3516C35.3539 47.8906 35.6224 48.6836 35.6224 49.7305C35.6224 50.7422 35.3858 51.5781 34.9125 52.2383C34.4392 52.8984 33.7049 53.2285 32.7095 53.2285C31.8793 53.2285 31.2201 52.9375 30.7318 52.3555C30.2435 51.7695 29.9993 50.9844 29.9993 50C29.9993 48.9453 30.2566 48.1055 30.7713 47.4805C31.2859 46.8555 31.977 46.543 32.8447 46.543ZM36.8338 46.7246H37.8368V47.6152C38.0772 47.3066 38.295 47.082 38.4903 46.9414C38.8247 46.7031 39.204 46.584 39.6285 46.584C40.1093 46.584 40.4962 46.707 40.7892 46.9531C40.9544 47.0938 41.1047 47.3008 41.2399 47.5742C41.4653 47.2383 41.7301 46.9902 42.0344 46.8301C42.3386 46.666 42.6804 46.584 43.0598 46.584C43.8712 46.584 44.4233 46.8887 44.7163 47.498C44.8741 47.8262 44.953 48.2676 44.953 48.8223V53H43.8993V48.6406C43.8993 48.2227 43.7979 47.9355 43.5951 47.7793C43.396 47.623 43.1519 47.5449 42.8626 47.5449C42.4645 47.5449 42.1208 47.6836 41.8315 47.9609C41.5461 48.2383 41.4033 48.7012 41.4033 49.3496V53H40.3722V48.9043C40.3722 48.4785 40.3234 48.168 40.2257 47.9727C40.0717 47.6797 39.7844 47.5332 39.3637 47.5332C38.9805 47.5332 38.6312 47.6875 38.3157 47.9961C38.0039 48.3047 37.848 48.8633 37.848 49.6719V53H36.8338V46.7246ZM48.959 46.584C49.3872 46.584 49.8023 46.6895 50.2042 46.9004C50.6061 47.1074 50.9123 47.377 51.1226 47.709C51.3255 48.0254 51.4607 48.3945 51.5283 48.8164C51.5884 49.1055 51.6184 49.5664 51.6184 50.1992H47.1955C47.2142 50.8359 47.3589 51.3477 47.6293 51.7344C47.8998 52.1172 48.3186 52.3086 48.8858 52.3086C49.4154 52.3086 49.838 52.127 50.1535 51.7637C50.3338 51.5527 50.4615 51.3086 50.5366 51.0312H51.5339C51.5076 51.2617 51.4194 51.5195 51.2691 51.8047C51.1226 52.0859 50.9573 52.3164 50.7733 52.4961C50.4653 52.8086 50.084 53.0195 49.6295 53.1289C49.3853 53.1914 49.1093 53.2227 48.8013 53.2227C48.05 53.2227 47.4133 52.9395 46.8912 52.373C46.3691 51.8027 46.108 51.0059 46.108 49.9824C46.108 48.9746 46.371 48.1562 46.8968 47.5273C47.4227 46.8984 48.1101 46.584 48.959 46.584ZM50.5761 49.3613C50.5348 48.9043 50.439 48.5391 50.2887 48.2656C50.0108 47.7578 49.5469 47.5039 48.897 47.5039C48.4313 47.5039 48.0406 47.6797 47.7251 48.0312C47.4096 48.3789 47.2424 48.8223 47.2236 49.3613H50.5761ZM53.0721 44.9727H54.0976V46.7246H55.061V47.5859H54.0976V51.6816C54.0976 51.9004 54.1689 52.0469 54.3117 52.1211C54.3906 52.1641 54.522 52.1855 54.7061 52.1855C54.7549 52.1855 54.8075 52.1855 54.8638 52.1855C54.9202 52.1816 54.9859 52.1758 55.061 52.168V53C54.9446 53.0352 54.8225 53.0605 54.6948 53.0762C54.5709 53.0918 54.4356 53.0996 54.2891 53.0996C53.8158 53.0996 53.4947 52.9746 53.3257 52.7246C53.1566 52.4707 53.0721 52.1426 53.0721 51.7402V47.5859H52.2551V46.7246H53.0721V44.9727ZM56.0809 44.3633H57.0951V47.5742C57.3355 47.2578 57.5514 47.0352 57.743 46.9062C58.0698 46.6836 58.4774 46.5723 58.9657 46.5723C59.8409 46.5723 60.4344 46.8906 60.7461 47.5273C60.9152 47.875 60.9997 48.3574 60.9997 48.9746V53H59.9573V49.0449C59.9573 48.584 59.901 48.2461 59.7883 48.0312C59.6042 47.6875 59.2587 47.5156 58.7516 47.5156C58.3309 47.5156 57.9496 47.666 57.6078 47.9668C57.266 48.2676 57.0951 48.8359 57.0951 49.6719V53H56.0809V44.3633ZM65.017 46.584C65.4452 46.584 65.8603 46.6895 66.2622 46.9004C66.6641 47.1074 66.9702 47.377 67.1806 47.709C67.3834 48.0254 67.5186 48.3945 67.5863 48.8164C67.6464 49.1055 67.6764 49.5664 67.6764 50.1992H63.2534C63.2722 50.8359 63.4168 51.3477 63.6873 51.7344C63.9577 52.1172 64.3765 52.3086 64.9437 52.3086C65.4734 52.3086 65.8959 52.127 66.2115 51.7637C66.3918 51.5527 66.5195 51.3086 66.5946 51.0312H67.5919C67.5656 51.2617 67.4773 51.5195 67.3271 51.8047C67.1806 52.0859 67.0153 52.3164 66.8313 52.4961C66.5232 52.8086 66.142 53.0195 65.6875 53.1289C65.4433 53.1914 65.1672 53.2227 64.8592 53.2227C64.108 53.2227 63.4713 52.9395 62.9492 52.373C62.427 51.8027 62.166 51.0059 62.166 49.9824C62.166 48.9746 62.4289 48.1562 62.9548 47.5273C63.4807 46.8984 64.1681 46.584 65.017 46.584ZM66.634 49.3613C66.5927 48.9043 66.4969 48.5391 66.3467 48.2656C66.0687 47.7578 65.6048 47.5039 64.955 47.5039C64.4892 47.5039 64.0986 47.6797 63.7831 48.0312C63.4675 48.3789 63.3004 48.8223 63.2816 49.3613H66.634ZM69.9414 46.7246V50.8906C69.9414 51.2109 69.9903 51.4727 70.0879 51.6758C70.2682 52.0508 70.6044 52.2383 71.0965 52.2383C71.8026 52.2383 72.2834 51.9102 72.5389 51.2539C72.6779 50.9023 72.7473 50.4199 72.7473 49.8066V46.7246H73.7615V53H72.8037L72.815 52.0742C72.6835 52.3125 72.5201 52.5137 72.3248 52.6777C71.9379 53.0059 71.4683 53.1699 70.9162 53.1699C70.056 53.1699 69.47 52.8711 69.1582 52.2734C68.9892 51.9531 68.9047 51.5254 68.9047 50.9902V46.7246H69.9414ZM75.9533 51.0312C75.9834 51.3828 76.0679 51.6523 76.2069 51.8398C76.4623 52.1797 76.9055 52.3496 77.5366 52.3496C77.9122 52.3496 78.2427 52.2656 78.5282 52.0977C78.8137 51.9258 78.9564 51.6621 78.9564 51.3066C78.9564 51.0371 78.8419 50.832 78.6127 50.6914C78.4662 50.6055 78.177 50.5059 77.745 50.3926L76.9393 50.1816C76.4247 50.0488 76.0453 49.9004 75.8012 49.7363C75.3655 49.4512 75.1476 49.0566 75.1476 48.5527C75.1476 47.959 75.3523 47.4785 75.7617 47.1113C76.1749 46.7441 76.729 46.5605 77.4239 46.5605C78.3329 46.5605 78.9884 46.8379 79.3903 47.3926C79.6419 47.7441 79.764 48.123 79.7565 48.5293H78.7987C78.7799 48.291 78.6991 48.0742 78.5564 47.8789C78.3235 47.6016 77.9197 47.4629 77.345 47.4629C76.9619 47.4629 76.6707 47.5391 76.4717 47.6914C76.2763 47.8438 76.1787 48.0449 76.1787 48.2949C76.1787 48.5684 76.3083 48.7871 76.5675 48.9512C76.7177 49.0488 76.9393 49.1348 77.2323 49.209L77.9028 49.3789C78.6315 49.5625 79.1198 49.7402 79.3677 49.9121C79.7621 50.1816 79.9593 50.6055 79.9593 51.1836C79.9593 51.7422 79.7546 52.2246 79.3452 52.6309C78.9395 53.0371 78.3197 53.2402 77.4859 53.2402C76.5881 53.2402 75.9514 53.0293 75.5758 52.6074C75.2039 52.1816 75.0049 51.6562 74.9786 51.0312H75.9533Z" fill="#43BEFF"/>
<g opacity="0.5" filter="url(#filter1_d)">
<circle cx="120" cy="577" r="35" fill="url(#paint1_linear)"/>
<circle cx="120" cy="577" r="34.5" stroke="#004F99"/>
</g>
<path d="M99.9541 571.675V572.786H96.812V581H95.5298V572.786H92.3877V571.675H99.9541ZM102.347 574.049C102.83 574.049 103.297 574.164 103.75 574.392C104.203 574.616 104.548 574.908 104.785 575.268C105.013 575.611 105.166 576.011 105.242 576.468C105.309 576.781 105.343 577.28 105.343 577.966H100.36C100.382 578.656 100.544 579.21 100.849 579.629C101.154 580.044 101.626 580.251 102.265 580.251C102.861 580.251 103.337 580.054 103.693 579.661C103.896 579.432 104.04 579.168 104.125 578.867H105.248C105.218 579.117 105.119 579.396 104.95 579.705C104.785 580.01 104.598 580.259 104.391 580.454C104.044 580.793 103.615 581.021 103.103 581.14C102.827 581.207 102.516 581.241 102.169 581.241C101.323 581.241 100.606 580.934 100.018 580.321C99.4294 579.703 99.1353 578.84 99.1353 577.731C99.1353 576.639 99.4315 575.753 100.024 575.071C100.616 574.39 101.391 574.049 102.347 574.049ZM104.169 577.058C104.122 576.563 104.014 576.167 103.845 575.871C103.532 575.321 103.009 575.046 102.277 575.046C101.753 575.046 101.312 575.236 100.957 575.617C100.602 575.994 100.413 576.474 100.392 577.058H104.169ZM106.784 574.202H107.87V575.376C107.958 575.147 108.176 574.87 108.523 574.544C108.87 574.214 109.27 574.049 109.723 574.049C109.744 574.049 109.78 574.051 109.831 574.056C109.882 574.06 109.969 574.068 110.091 574.081V575.287C110.024 575.274 109.96 575.266 109.901 575.262C109.846 575.257 109.785 575.255 109.717 575.255C109.141 575.255 108.699 575.442 108.39 575.814C108.081 576.182 107.927 576.607 107.927 577.09V581H106.784V574.202ZM111.113 574.202H112.199V575.376C112.288 575.147 112.506 574.87 112.853 574.544C113.2 574.214 113.599 574.049 114.052 574.049C114.073 574.049 114.109 574.051 114.16 574.056C114.211 574.06 114.298 574.068 114.42 574.081V575.287C114.353 575.274 114.289 575.266 114.23 575.262C114.175 575.257 114.114 575.255 114.046 575.255C113.47 575.255 113.028 575.442 112.719 575.814C112.41 576.182 112.256 576.607 112.256 577.09V581H111.113V574.202ZM116.287 579.191C116.287 579.521 116.407 579.781 116.648 579.972C116.89 580.162 117.175 580.257 117.505 580.257C117.907 580.257 118.297 580.164 118.673 579.978C119.308 579.669 119.625 579.163 119.625 578.461V577.541C119.486 577.629 119.306 577.703 119.086 577.763C118.866 577.822 118.65 577.864 118.438 577.89L117.747 577.979C117.332 578.034 117.021 578.12 116.813 578.239C116.462 578.438 116.287 578.755 116.287 579.191ZM119.054 576.88C119.317 576.847 119.492 576.736 119.581 576.55C119.632 576.449 119.657 576.303 119.657 576.112C119.657 575.723 119.518 575.442 119.238 575.268C118.963 575.09 118.568 575.001 118.051 575.001C117.455 575.001 117.031 575.162 116.782 575.484C116.642 575.662 116.551 575.926 116.509 576.277H115.442C115.464 575.439 115.734 574.858 116.255 574.532C116.78 574.202 117.387 574.037 118.077 574.037C118.876 574.037 119.526 574.189 120.025 574.494C120.521 574.798 120.768 575.272 120.768 575.916V579.832C120.768 579.951 120.791 580.046 120.838 580.118C120.889 580.19 120.992 580.226 121.149 580.226C121.2 580.226 121.257 580.223 121.32 580.219C121.384 580.211 121.451 580.2 121.523 580.188V581.032C121.346 581.083 121.21 581.114 121.117 581.127C121.024 581.14 120.897 581.146 120.736 581.146C120.343 581.146 120.057 581.006 119.879 580.727C119.786 580.579 119.721 580.369 119.683 580.099C119.45 580.403 119.116 580.668 118.68 580.892C118.244 581.116 117.764 581.229 117.239 581.229C116.608 581.229 116.092 581.038 115.69 580.657C115.292 580.272 115.093 579.792 115.093 579.216C115.093 578.586 115.29 578.097 115.684 577.75C116.077 577.403 116.593 577.189 117.232 577.109L119.054 576.88ZM122.933 573.167C122.95 572.693 123.032 572.346 123.18 572.126C123.447 571.737 123.961 571.542 124.723 571.542C124.795 571.542 124.869 571.544 124.945 571.548C125.021 571.553 125.108 571.559 125.205 571.567V572.608C125.087 572.6 125 572.596 124.945 572.596C124.894 572.591 124.845 572.589 124.799 572.589C124.452 572.589 124.244 572.68 124.177 572.862C124.109 573.04 124.075 573.497 124.075 574.233H125.205V575.135H124.062V581H122.933V575.135H121.987V574.233H122.933V573.167ZM128.963 580.264C129.72 580.264 130.239 579.978 130.518 579.407C130.802 578.831 130.943 578.192 130.943 577.49C130.943 576.855 130.842 576.339 130.639 575.941C130.317 575.315 129.763 575.001 128.976 575.001C128.277 575.001 127.77 575.268 127.452 575.801C127.135 576.334 126.976 576.978 126.976 577.731C126.976 578.455 127.135 579.058 127.452 579.54C127.77 580.022 128.273 580.264 128.963 580.264ZM129.007 574.005C129.883 574.005 130.624 574.297 131.229 574.881C131.834 575.465 132.137 576.324 132.137 577.458C132.137 578.554 131.87 579.46 131.337 580.175C130.804 580.89 129.976 581.248 128.855 581.248C127.92 581.248 127.177 580.932 126.627 580.302C126.077 579.667 125.802 578.816 125.802 577.75C125.802 576.607 126.092 575.698 126.671 575.021C127.251 574.343 128.03 574.005 129.007 574.005ZM133.533 574.202H134.619V575.376C134.708 575.147 134.925 574.87 135.272 574.544C135.619 574.214 136.019 574.049 136.472 574.049C136.493 574.049 136.529 574.051 136.58 574.056C136.631 574.06 136.718 574.068 136.84 574.081V575.287C136.773 575.274 136.709 575.266 136.65 575.262C136.595 575.257 136.534 575.255 136.466 575.255C135.89 575.255 135.448 575.442 135.139 575.814C134.83 576.182 134.676 576.607 134.676 577.09V581H133.533V574.202ZM137.831 574.202H138.96V575.167C139.231 574.832 139.477 574.589 139.697 574.437C140.073 574.178 140.501 574.049 140.979 574.049C141.521 574.049 141.957 574.183 142.287 574.449C142.473 574.602 142.642 574.826 142.794 575.122C143.048 574.758 143.347 574.489 143.689 574.316C144.032 574.138 144.417 574.049 144.845 574.049C145.759 574.049 146.381 574.379 146.711 575.04C146.889 575.395 146.978 575.873 146.978 576.474V581H145.791V576.277C145.791 575.825 145.676 575.514 145.448 575.344C145.223 575.175 144.948 575.09 144.623 575.09C144.174 575.09 143.787 575.241 143.461 575.541C143.139 575.841 142.979 576.343 142.979 577.045V581H141.817V576.563C141.817 576.102 141.762 575.765 141.652 575.554C141.478 575.236 141.155 575.078 140.681 575.078C140.249 575.078 139.855 575.245 139.5 575.579C139.149 575.913 138.973 576.519 138.973 577.395V581H137.831V574.202Z" fill="#43BEFF"/>
<g opacity="0.5" filter="url(#filter2_d)">
<circle cx="138" cy="383" r="35" fill="url(#paint2_linear)"/>
<circle cx="138" cy="383" r="34.5" stroke="#004F99"/>
</g>
<path d="M111.027 383.991C111.057 384.52 111.182 384.95 111.402 385.28C111.821 385.898 112.559 386.207 113.617 386.207C114.091 386.207 114.523 386.139 114.912 386.003C115.665 385.741 116.042 385.271 116.042 384.594C116.042 384.086 115.883 383.725 115.566 383.509C115.244 383.297 114.741 383.113 114.055 382.957L112.792 382.671C111.967 382.485 111.383 382.279 111.04 382.055C110.448 381.666 110.151 381.084 110.151 380.31C110.151 379.472 110.441 378.784 111.021 378.247C111.601 377.709 112.422 377.44 113.484 377.44C114.461 377.44 115.291 377.677 115.972 378.151C116.658 378.621 117 379.374 117 380.411H115.813C115.75 379.912 115.615 379.529 115.407 379.262C115.022 378.776 114.368 378.532 113.446 378.532C112.701 378.532 112.166 378.689 111.84 379.002C111.514 379.315 111.351 379.679 111.351 380.094C111.351 380.551 111.542 380.885 111.922 381.097C112.172 381.232 112.737 381.401 113.617 381.604L114.925 381.903C115.555 382.047 116.042 382.243 116.385 382.493C116.977 382.929 117.273 383.562 117.273 384.391C117.273 385.424 116.897 386.162 116.144 386.606C115.395 387.051 114.523 387.273 113.528 387.273C112.369 387.273 111.461 386.977 110.805 386.384C110.149 385.796 109.828 384.998 109.84 383.991H111.027ZM121.59 386.232C122.123 386.232 122.565 386.01 122.917 385.565C123.272 385.117 123.45 384.448 123.45 383.56C123.45 383.018 123.371 382.552 123.215 382.163C122.919 381.414 122.377 381.04 121.59 381.04C120.799 381.04 120.257 381.435 119.965 382.227C119.808 382.65 119.73 383.187 119.73 383.839C119.73 384.364 119.808 384.81 119.965 385.178C120.261 385.881 120.803 386.232 121.59 386.232ZM118.632 380.233H119.743V381.135C119.971 380.826 120.221 380.587 120.492 380.417C120.877 380.164 121.33 380.037 121.85 380.037C122.62 380.037 123.274 380.333 123.812 380.925C124.349 381.514 124.618 382.356 124.618 383.452C124.618 384.933 124.23 385.991 123.456 386.625C122.965 387.028 122.394 387.229 121.742 387.229C121.23 387.229 120.801 387.116 120.454 386.892C120.25 386.765 120.024 386.547 119.774 386.238V389.71H118.632V380.233ZM125.957 380.233H127.119V387H125.957V380.233ZM125.957 377.675H127.119V378.97H125.957V377.675ZM128.852 380.202H129.937V381.167C130.259 380.769 130.599 380.483 130.959 380.31C131.319 380.136 131.719 380.049 132.159 380.049C133.124 380.049 133.775 380.386 134.114 381.059C134.3 381.427 134.393 381.954 134.393 382.639V387H133.231V382.715C133.231 382.301 133.17 381.966 133.047 381.712C132.844 381.289 132.476 381.078 131.943 381.078C131.672 381.078 131.45 381.105 131.276 381.16C130.963 381.253 130.688 381.439 130.451 381.719C130.261 381.943 130.136 382.176 130.077 382.417C130.022 382.654 129.994 382.995 129.994 383.439V387H128.852V380.202ZM136.088 380.202H137.173V381.167C137.495 380.769 137.836 380.483 138.195 380.31C138.555 380.136 138.955 380.049 139.395 380.049C140.36 380.049 141.012 380.386 141.35 381.059C141.536 381.427 141.629 381.954 141.629 382.639V387H140.468V382.715C140.468 382.301 140.406 381.966 140.284 381.712C140.081 381.289 139.712 381.078 139.179 381.078C138.908 381.078 138.686 381.105 138.513 381.16C138.2 381.253 137.924 381.439 137.688 381.719C137.497 381.943 137.372 382.176 137.313 382.417C137.258 382.654 137.23 382.995 137.23 383.439V387H136.088V380.202ZM144.2 385.191C144.2 385.521 144.321 385.781 144.562 385.972C144.803 386.162 145.089 386.257 145.419 386.257C145.821 386.257 146.21 386.164 146.587 385.978C147.222 385.669 147.539 385.163 147.539 384.461V383.541C147.399 383.629 147.22 383.703 147 383.763C146.779 383.822 146.564 383.864 146.352 383.89L145.66 383.979C145.245 384.034 144.934 384.12 144.727 384.239C144.376 384.438 144.2 384.755 144.2 385.191ZM146.968 382.88C147.23 382.847 147.406 382.736 147.495 382.55C147.545 382.449 147.571 382.303 147.571 382.112C147.571 381.723 147.431 381.442 147.152 381.268C146.877 381.09 146.481 381.001 145.965 381.001C145.368 381.001 144.945 381.162 144.695 381.484C144.556 381.662 144.465 381.926 144.422 382.277H143.356C143.377 381.439 143.648 380.858 144.168 380.532C144.693 380.202 145.3 380.037 145.99 380.037C146.79 380.037 147.44 380.189 147.939 380.494C148.434 380.798 148.682 381.272 148.682 381.916V385.832C148.682 385.951 148.705 386.046 148.751 386.118C148.802 386.19 148.906 386.226 149.062 386.226C149.113 386.226 149.17 386.223 149.234 386.219C149.297 386.211 149.365 386.2 149.437 386.188V387.032C149.259 387.083 149.124 387.114 149.031 387.127C148.938 387.14 148.811 387.146 148.65 387.146C148.256 387.146 147.971 387.006 147.793 386.727C147.7 386.579 147.634 386.369 147.596 386.099C147.363 386.403 147.029 386.668 146.593 386.892C146.157 387.116 145.677 387.229 145.152 387.229C144.522 387.229 144.006 387.038 143.604 386.657C143.206 386.272 143.007 385.792 143.007 385.216C143.007 384.586 143.204 384.097 143.597 383.75C143.991 383.403 144.507 383.189 145.146 383.109L146.968 382.88ZM150.535 377.675H151.633V383.09L154.566 380.202H156.026L153.423 382.747L156.172 387H154.712L152.592 383.572L151.633 384.448V387H150.535V377.675ZM159.892 380.049C160.374 380.049 160.842 380.164 161.294 380.392C161.747 380.616 162.092 380.908 162.329 381.268C162.558 381.611 162.71 382.011 162.786 382.468C162.854 382.781 162.888 383.28 162.888 383.966H157.905C157.926 384.656 158.089 385.21 158.394 385.629C158.698 386.044 159.17 386.251 159.809 386.251C160.406 386.251 160.882 386.054 161.237 385.661C161.44 385.432 161.584 385.168 161.669 384.867H162.792C162.763 385.117 162.663 385.396 162.494 385.705C162.329 386.01 162.143 386.259 161.936 386.454C161.589 386.793 161.159 387.021 160.647 387.14C160.372 387.207 160.061 387.241 159.714 387.241C158.868 387.241 158.15 386.934 157.562 386.321C156.974 385.703 156.68 384.84 156.68 383.731C156.68 382.639 156.976 381.753 157.568 381.071C158.161 380.39 158.935 380.049 159.892 380.049ZM161.713 383.058C161.667 382.563 161.559 382.167 161.39 381.871C161.076 381.321 160.554 381.046 159.822 381.046C159.297 381.046 158.857 381.236 158.501 381.617C158.146 381.994 157.958 382.474 157.937 383.058H161.713ZM164.329 380.202H165.414V381.376C165.503 381.147 165.721 380.87 166.068 380.544C166.415 380.214 166.815 380.049 167.268 380.049C167.289 380.049 167.325 380.051 167.375 380.056C167.426 380.06 167.513 380.068 167.636 380.081V381.287C167.568 381.274 167.505 381.266 167.445 381.262C167.39 381.257 167.329 381.255 167.261 381.255C166.686 381.255 166.243 381.442 165.935 381.814C165.626 382.182 165.471 382.607 165.471 383.09V387H164.329V380.202Z" fill="#43BEFF"/>
<g opacity="0.5" filter="url(#filter3_d)">
<circle cx="57" cy="457" r="30" fill="url(#paint3_linear)"/>
<circle cx="57" cy="457" r="29.5" stroke="#004F99"/>
</g>
<path d="M42.2559 451.958H43.6299V456.107H48.8525V451.958H50.2266V462H48.8525V457.304H43.6299V462H42.2559V451.958ZM55.2236 454.515C55.7432 454.515 56.2467 454.638 56.7344 454.884C57.222 455.125 57.5934 455.44 57.8486 455.827C58.0947 456.196 58.2588 456.627 58.3408 457.119C58.4137 457.456 58.4502 457.994 58.4502 458.732H53.084C53.1068 459.475 53.2822 460.072 53.6104 460.523C53.9385 460.97 54.4466 461.193 55.1348 461.193C55.7773 461.193 56.29 460.981 56.6729 460.558C56.8916 460.312 57.0465 460.027 57.1377 459.703H58.3477C58.3158 459.972 58.2087 460.273 58.0264 460.605C57.8486 460.934 57.6481 461.202 57.4248 461.412C57.0511 461.777 56.5885 462.023 56.0371 462.15C55.7409 462.223 55.4059 462.26 55.0322 462.26C54.1208 462.26 53.3483 461.929 52.7148 461.269C52.0814 460.603 51.7646 459.674 51.7646 458.479C51.7646 457.304 52.0837 456.349 52.7217 455.615C53.3597 454.882 54.1937 454.515 55.2236 454.515ZM57.1855 457.755C57.1354 457.222 57.0192 456.796 56.8369 456.477C56.4997 455.884 55.9368 455.588 55.1484 455.588C54.5833 455.588 54.1094 455.793 53.7266 456.203C53.3438 456.609 53.141 457.126 53.1182 457.755H57.1855ZM60.002 451.958H61.2324V462H60.002V451.958ZM63.085 454.679H64.3018V455.718C64.5934 455.358 64.8577 455.096 65.0947 454.932C65.5003 454.654 65.9606 454.515 66.4756 454.515C67.0589 454.515 67.5283 454.658 67.8838 454.945C68.0843 455.109 68.2666 455.351 68.4307 455.67C68.7041 455.278 69.0254 454.989 69.3945 454.802C69.7637 454.61 70.1784 454.515 70.6387 454.515C71.623 454.515 72.293 454.87 72.6484 455.581C72.8398 455.964 72.9355 456.479 72.9355 457.126V462H71.6572V456.914C71.6572 456.426 71.5342 456.091 71.2881 455.909C71.0465 455.727 70.7503 455.636 70.3994 455.636C69.9163 455.636 69.4993 455.798 69.1484 456.121C68.8021 456.445 68.6289 456.985 68.6289 457.741V462H67.3779V457.222C67.3779 456.725 67.3187 456.363 67.2002 456.135C67.0133 455.793 66.6647 455.622 66.1543 455.622C65.6895 455.622 65.2656 455.802 64.8828 456.162C64.5046 456.522 64.3154 457.174 64.3154 458.117V462H63.085V454.679Z" fill="#43BEFF"/>
<g opacity="0.5" filter="url(#filter4_d)">
<circle cx="133" cy="163" r="30" fill="url(#paint4_linear)"/>
<circle cx="133" cy="163" r="29.5" stroke="#004F99"/>
</g>
<path d="M112.348 166.004C112.742 166.004 113.066 165.963 113.32 165.881C113.773 165.729 114.145 165.436 114.434 165.002C114.664 164.654 114.83 164.209 114.932 163.666C114.99 163.342 115.02 163.041 115.02 162.764C115.02 161.697 114.807 160.869 114.381 160.279C113.959 159.689 113.277 159.395 112.336 159.395H110.268V166.004H112.348ZM109.096 158.393H112.582C113.766 158.393 114.684 158.812 115.336 159.652C115.918 160.41 116.209 161.381 116.209 162.564C116.209 163.479 116.037 164.305 115.693 165.043C115.088 166.348 114.047 167 112.57 167H109.096V158.393ZM118.383 165.33C118.383 165.635 118.494 165.875 118.717 166.051C118.939 166.227 119.203 166.314 119.508 166.314C119.879 166.314 120.238 166.229 120.586 166.057C121.172 165.771 121.465 165.305 121.465 164.656V163.807C121.336 163.889 121.17 163.957 120.967 164.012C120.764 164.066 120.564 164.105 120.369 164.129L119.73 164.211C119.348 164.262 119.061 164.342 118.869 164.451C118.545 164.635 118.383 164.928 118.383 165.33ZM120.938 163.197C121.18 163.166 121.342 163.064 121.424 162.893C121.471 162.799 121.494 162.664 121.494 162.488C121.494 162.129 121.365 161.869 121.107 161.709C120.854 161.545 120.488 161.463 120.012 161.463C119.461 161.463 119.07 161.611 118.84 161.908C118.711 162.072 118.627 162.316 118.588 162.641H117.604C117.623 161.867 117.873 161.33 118.354 161.029C118.838 160.725 119.398 160.572 120.035 160.572C120.773 160.572 121.373 160.713 121.834 160.994C122.291 161.275 122.52 161.713 122.52 162.307V165.922C122.52 166.031 122.541 166.119 122.584 166.186C122.631 166.252 122.727 166.285 122.871 166.285C122.918 166.285 122.971 166.283 123.029 166.279C123.088 166.271 123.15 166.262 123.217 166.25V167.029C123.053 167.076 122.928 167.105 122.842 167.117C122.756 167.129 122.639 167.135 122.49 167.135C122.127 167.135 121.863 167.006 121.699 166.748C121.613 166.611 121.553 166.418 121.518 166.168C121.303 166.449 120.994 166.693 120.592 166.9C120.189 167.107 119.746 167.211 119.262 167.211C118.68 167.211 118.203 167.035 117.832 166.684C117.465 166.328 117.281 165.885 117.281 165.354C117.281 164.771 117.463 164.32 117.826 164C118.189 163.68 118.666 163.482 119.256 163.408L120.938 163.197ZM124.465 158.973H125.531V160.725H126.533V161.586H125.531V165.682C125.531 165.9 125.605 166.047 125.754 166.121C125.836 166.164 125.973 166.186 126.164 166.186C126.215 166.186 126.27 166.186 126.328 166.186C126.387 166.182 126.455 166.176 126.533 166.168V167C126.412 167.035 126.285 167.061 126.152 167.076C126.023 167.092 125.883 167.1 125.73 167.1C125.238 167.1 124.904 166.975 124.729 166.725C124.553 166.471 124.465 166.143 124.465 165.74V161.586H123.615V160.725H124.465V158.973ZM128.402 165.33C128.402 165.635 128.514 165.875 128.736 166.051C128.959 166.227 129.223 166.314 129.527 166.314C129.898 166.314 130.258 166.229 130.605 166.057C131.191 165.771 131.484 165.305 131.484 164.656V163.807C131.355 163.889 131.189 163.957 130.986 164.012C130.783 164.066 130.584 164.105 130.389 164.129L129.75 164.211C129.367 164.262 129.08 164.342 128.889 164.451C128.564 164.635 128.402 164.928 128.402 165.33ZM130.957 163.197C131.199 163.166 131.361 163.064 131.443 162.893C131.49 162.799 131.514 162.664 131.514 162.488C131.514 162.129 131.385 161.869 131.127 161.709C130.873 161.545 130.508 161.463 130.031 161.463C129.48 161.463 129.09 161.611 128.859 161.908C128.73 162.072 128.646 162.316 128.607 162.641H127.623C127.643 161.867 127.893 161.33 128.373 161.029C128.857 160.725 129.418 160.572 130.055 160.572C130.793 160.572 131.393 160.713 131.854 160.994C132.311 161.275 132.539 161.713 132.539 162.307V165.922C132.539 166.031 132.561 166.119 132.604 166.186C132.65 166.252 132.746 166.285 132.891 166.285C132.938 166.285 132.99 166.283 133.049 166.279C133.107 166.271 133.17 166.262 133.236 166.25V167.029C133.072 167.076 132.947 167.105 132.861 167.117C132.775 167.129 132.658 167.135 132.51 167.135C132.146 167.135 131.883 167.006 131.719 166.748C131.633 166.611 131.572 166.418 131.537 166.168C131.322 166.449 131.014 166.693 130.611 166.9C130.209 167.107 129.766 167.211 129.281 167.211C128.699 167.211 128.223 167.035 127.852 166.684C127.484 166.328 127.301 165.885 127.301 165.354C127.301 164.771 127.482 164.32 127.846 164C128.209 163.68 128.686 163.482 129.275 163.408L130.957 163.197ZM141.059 166.004C141.453 166.004 141.777 165.963 142.031 165.881C142.484 165.729 142.855 165.436 143.145 165.002C143.375 164.654 143.541 164.209 143.643 163.666C143.701 163.342 143.73 163.041 143.73 162.764C143.73 161.697 143.518 160.869 143.092 160.279C142.67 159.689 141.988 159.395 141.047 159.395H138.979V166.004H141.059ZM137.807 158.393H141.293C142.477 158.393 143.395 158.812 144.047 159.652C144.629 160.41 144.92 161.381 144.92 162.564C144.92 163.479 144.748 164.305 144.404 165.043C143.799 166.348 142.758 167 141.281 167H137.807V158.393ZM148.775 166.32C149.475 166.32 149.953 166.057 150.211 165.529C150.473 164.998 150.604 164.408 150.604 163.76C150.604 163.174 150.51 162.697 150.322 162.33C150.025 161.752 149.514 161.463 148.787 161.463C148.143 161.463 147.674 161.709 147.381 162.201C147.088 162.693 146.941 163.287 146.941 163.982C146.941 164.65 147.088 165.207 147.381 165.652C147.674 166.098 148.139 166.32 148.775 166.32ZM148.816 160.543C149.625 160.543 150.309 160.812 150.867 161.352C151.426 161.891 151.705 162.684 151.705 163.73C151.705 164.742 151.459 165.578 150.967 166.238C150.475 166.898 149.711 167.229 148.676 167.229C147.812 167.229 147.127 166.938 146.619 166.355C146.111 165.77 145.857 164.984 145.857 164C145.857 162.945 146.125 162.105 146.66 161.48C147.195 160.855 147.914 160.543 148.816 160.543ZM155.18 160.613C155.672 160.613 156.102 160.734 156.469 160.977C156.668 161.113 156.871 161.312 157.078 161.574V160.783H158.051V166.49C158.051 167.287 157.934 167.916 157.699 168.377C157.262 169.229 156.436 169.654 155.221 169.654C154.545 169.654 153.977 169.502 153.516 169.197C153.055 168.896 152.797 168.424 152.742 167.779H153.814C153.865 168.061 153.967 168.277 154.119 168.43C154.357 168.664 154.732 168.781 155.244 168.781C156.053 168.781 156.582 168.496 156.832 167.926C156.98 167.59 157.049 166.99 157.037 166.127C156.826 166.447 156.572 166.686 156.275 166.842C155.979 166.998 155.586 167.076 155.098 167.076C154.418 167.076 153.822 166.836 153.311 166.355C152.803 165.871 152.549 165.072 152.549 163.959C152.549 162.908 152.805 162.088 153.316 161.498C153.832 160.908 154.453 160.613 155.18 160.613ZM157.078 163.836C157.078 163.059 156.918 162.482 156.598 162.107C156.277 161.732 155.869 161.545 155.373 161.545C154.631 161.545 154.123 161.893 153.85 162.588C153.705 162.959 153.633 163.445 153.633 164.047C153.633 164.754 153.775 165.293 154.061 165.664C154.35 166.031 154.736 166.215 155.221 166.215C155.979 166.215 156.512 165.873 156.82 165.189C156.992 164.803 157.078 164.352 157.078 163.836Z" fill="#43BEFF"/>
<path opacity="0.7" d="M59.5342 287.46V295.193C59.5342 296.852 59.0972 298.1 58.2232 298.936C57.3492 299.772 56.0762 300.19 54.4042 300.19C52.7576 300.19 51.4909 299.772 50.6042 298.936C49.7302 298.1 49.2932 296.852 49.2932 295.193V287.46H51.3262V294.946C51.3262 296.137 51.5732 297.017 52.0672 297.587C52.5739 298.144 53.3529 298.423 54.4042 298.423C55.4682 298.423 56.2472 298.144 56.7412 297.587C57.2479 297.017 57.5012 296.137 57.5012 294.946V287.46H59.5342ZM62.6517 303.99V290.5H64.4567L64.5517 292.286C64.8304 291.691 65.2547 291.216 65.8247 290.861C66.3947 290.494 67.0534 290.31 67.8007 290.31C68.5734 290.31 69.27 290.506 69.8907 290.899C70.524 291.292 71.0244 291.855 71.3917 292.59C71.7717 293.325 71.9617 294.205 71.9617 295.231C71.9617 296.27 71.7717 297.163 71.3917 297.91C71.0117 298.645 70.4987 299.208 69.8527 299.601C69.2194 299.994 68.5164 300.19 67.7437 300.19C67.0344 300.19 66.42 300.032 65.9007 299.715C65.3814 299.386 64.976 298.961 64.6847 298.442V303.99H62.6517ZM67.3067 298.537C68.1174 298.537 68.757 298.246 69.2257 297.663C69.6944 297.08 69.9287 296.276 69.9287 295.25C69.9287 294.224 69.7007 293.42 69.2447 292.837C68.7887 292.242 68.1554 291.944 67.3447 291.944C66.5467 291.944 65.9007 292.242 65.4067 292.837C64.9254 293.432 64.6847 294.237 64.6847 295.25C64.6847 296.251 64.919 297.049 65.3877 297.644C65.869 298.239 66.5087 298.537 67.3067 298.537ZM78.6678 290.31C79.7952 290.31 80.6945 290.557 81.3658 291.051C82.0372 291.545 82.5185 292.185 82.8098 292.97L80.8908 293.73C80.7262 293.147 80.4602 292.704 80.0928 292.4C79.7382 292.083 79.2695 291.925 78.6868 291.925C77.8381 291.925 77.1731 292.216 76.6918 292.799C76.2231 293.369 75.9888 294.192 75.9888 295.269C75.9888 296.333 76.2295 297.15 76.7108 297.72C77.1921 298.29 77.8508 298.575 78.6868 298.575C79.3455 298.575 79.8648 298.417 80.2448 298.1C80.6375 297.783 80.8972 297.327 81.0238 296.732L82.8668 297.359C82.6008 298.22 82.1132 298.911 81.4038 299.43C80.6945 299.937 79.8015 300.19 78.7248 300.19C77.7875 300.19 76.9578 299.994 76.2358 299.601C75.5265 299.208 74.9691 298.645 74.5638 297.91C74.1585 297.163 73.9558 296.276 73.9558 295.25C73.9558 294.224 74.1585 293.344 74.5638 292.609C74.9691 291.862 75.5265 291.292 76.2358 290.899C76.9451 290.506 77.7558 290.31 78.6678 290.31ZM89.3558 290.31C90.2804 290.31 91.0974 290.506 91.8068 290.899C92.5161 291.292 93.0671 291.862 93.4598 292.609C93.8651 293.344 94.0678 294.224 94.0678 295.25C94.0678 296.276 93.8651 297.163 93.4598 297.91C93.0671 298.645 92.5161 299.208 91.8068 299.601C91.0974 299.994 90.2804 300.19 89.3558 300.19C88.4311 300.19 87.6141 299.994 86.9048 299.601C86.1954 299.208 85.6381 298.645 85.2328 297.91C84.8274 297.163 84.6248 296.276 84.6248 295.25C84.6248 294.224 84.8274 293.344 85.2328 292.609C85.6381 291.862 86.1954 291.292 86.9048 290.899C87.6141 290.506 88.4311 290.31 89.3558 290.31ZM89.3558 291.906C88.5198 291.906 87.8611 292.197 87.3798 292.78C86.8984 293.35 86.6578 294.173 86.6578 295.25C86.6578 296.327 86.8984 297.156 87.3798 297.739C87.8611 298.309 88.5198 298.594 89.3558 298.594C90.1918 298.594 90.8441 298.309 91.3128 297.739C91.7941 297.156 92.0348 296.327 92.0348 295.25C92.0348 294.173 91.7941 293.35 91.3128 292.78C90.8441 292.197 90.1918 291.906 89.3558 291.906ZM96.6253 300V290.5H98.4303L98.5253 292.096C98.8547 291.488 99.2917 291.038 99.8363 290.747C100.394 290.456 100.983 290.31 101.603 290.31C102.287 290.31 102.914 290.468 103.484 290.785C104.067 291.089 104.504 291.551 104.795 292.172C104.998 291.754 105.277 291.406 105.631 291.127C105.986 290.848 106.379 290.646 106.809 290.519C107.24 290.38 107.664 290.31 108.082 290.31C108.69 290.31 109.26 290.437 109.792 290.69C110.324 290.943 110.755 291.33 111.084 291.849C111.414 292.368 111.578 293.033 111.578 293.844V300H109.545V294.167C109.545 293.382 109.355 292.824 108.975 292.495C108.608 292.153 108.146 291.982 107.588 291.982C106.93 291.982 106.353 292.229 105.859 292.723C105.365 293.204 105.118 293.907 105.118 294.832V300H103.085V294.167C103.085 293.382 102.895 292.824 102.515 292.495C102.148 292.153 101.686 291.982 101.128 291.982C100.748 291.982 100.368 292.083 99.9883 292.286C99.6083 292.489 99.2917 292.805 99.0383 293.236C98.785 293.667 98.6583 294.237 98.6583 294.946V300H96.6253ZM115.686 288.904C115.243 288.904 114.901 288.796 114.66 288.581C114.432 288.353 114.318 288.036 114.318 287.631C114.318 287.226 114.432 286.915 114.66 286.7C114.901 286.485 115.243 286.377 115.686 286.377C116.117 286.377 116.446 286.485 116.674 286.7C116.915 286.915 117.035 287.226 117.035 287.631C117.035 288.036 116.915 288.353 116.674 288.581C116.446 288.796 116.117 288.904 115.686 288.904ZM116.693 290.5V300H114.66V290.5H116.693ZM119.874 300V290.5H121.679L121.774 292.134C122.091 291.501 122.528 291.038 123.085 290.747C123.655 290.456 124.289 290.31 124.985 290.31C125.657 290.31 126.258 290.443 126.79 290.709C127.335 290.962 127.766 291.355 128.082 291.887C128.399 292.406 128.557 293.059 128.557 293.844V300H126.524V294.471C126.524 293.534 126.328 292.888 125.935 292.533C125.555 292.166 125.074 291.982 124.491 291.982C124.073 291.982 123.668 292.077 123.275 292.267C122.883 292.457 122.553 292.774 122.287 293.217C122.034 293.648 121.907 294.224 121.907 294.946V300H119.874ZM136.996 298.518C137.959 298.518 138.706 298.733 139.238 299.164C139.77 299.582 140.036 300.165 140.036 300.912C140.036 301.583 139.827 302.153 139.409 302.622C138.991 303.103 138.421 303.464 137.699 303.705C136.977 303.958 136.16 304.085 135.248 304.085C133.677 304.085 132.518 303.844 131.771 303.363C131.036 302.882 130.669 302.28 130.669 301.558C130.669 301.127 130.796 300.741 131.049 300.399C131.302 300.057 131.72 299.823 132.303 299.696C131.948 299.544 131.67 299.335 131.467 299.069C131.264 298.79 131.163 298.436 131.163 298.005C131.163 297.587 131.283 297.22 131.524 296.903C131.765 296.574 132.119 296.327 132.588 296.162C131.587 295.592 131.087 294.712 131.087 293.521C131.087 292.558 131.461 291.786 132.208 291.203C132.955 290.608 133.943 290.31 135.172 290.31C135.97 290.31 136.673 290.437 137.281 290.69C137.382 290.057 137.661 289.537 138.117 289.132C138.573 288.714 139.149 288.505 139.846 288.505C139.909 288.505 139.96 288.505 139.998 288.505L140.321 290.101C140.258 290.088 140.182 290.082 140.093 290.082C139.004 290.082 138.396 290.481 138.269 291.279C138.94 291.862 139.276 292.609 139.276 293.521C139.276 294.496 138.902 295.275 138.155 295.858C137.408 296.441 136.413 296.732 135.172 296.732C134.653 296.732 134.178 296.688 133.747 296.599C133.405 296.688 133.158 296.827 133.006 297.017C132.867 297.194 132.797 297.384 132.797 297.587C132.797 298.208 133.247 298.518 134.146 298.518H136.996ZM135.172 291.735C134.589 291.735 134.102 291.9 133.709 292.229C133.329 292.546 133.139 292.976 133.139 293.521C133.139 294.066 133.329 294.503 133.709 294.832C134.102 295.161 134.589 295.326 135.172 295.326C135.767 295.326 136.255 295.161 136.635 294.832C137.028 294.503 137.224 294.066 137.224 293.521C137.224 292.976 137.028 292.546 136.635 292.229C136.255 291.9 135.767 291.735 135.172 291.735ZM135.248 302.565C136.287 302.565 137.053 302.426 137.547 302.147C138.054 301.868 138.307 301.539 138.307 301.159C138.307 300.868 138.187 300.633 137.946 300.456C137.718 300.279 137.3 300.19 136.692 300.19H133.633C133.266 300.19 132.962 300.285 132.721 300.475C132.493 300.665 132.379 300.912 132.379 301.216C132.379 301.634 132.632 301.963 133.139 302.204C133.646 302.445 134.349 302.565 135.248 302.565ZM47.3056 309.46V322H45.2726V309.46H47.3056ZM50.6654 322V312.5H52.4704L52.5654 314.134C52.882 313.501 53.319 313.038 53.8764 312.747C54.4464 312.456 55.0797 312.31 55.7764 312.31C56.4477 312.31 57.0494 312.443 57.5814 312.709C58.126 312.962 58.5567 313.355 58.8734 313.887C59.19 314.406 59.3484 315.059 59.3484 315.844V322H57.3154V316.471C57.3154 315.534 57.119 314.888 56.7264 314.533C56.3464 314.166 55.865 313.982 55.2824 313.982C54.8644 313.982 54.459 314.077 54.0664 314.267C53.6737 314.457 53.3444 314.774 53.0784 315.217C52.825 315.648 52.6984 316.224 52.6984 316.946V322H50.6654ZM68.3597 312.5V314.096H65.0917V319.15C65.0917 319.606 65.2184 319.948 65.4717 320.176C65.7251 320.391 66.0544 320.499 66.4597 320.499C66.8144 320.499 67.1121 320.448 67.3527 320.347C67.6061 320.233 67.8404 320.081 68.0557 319.891L68.5117 321.373C68.2204 321.626 67.8594 321.829 67.4287 321.981C67.0107 322.12 66.5421 322.19 66.0227 322.19C65.1867 322.19 64.4837 321.987 63.9137 321.582C63.3437 321.164 63.0587 320.467 63.0587 319.492V314.096H61.2347V312.5H63.0587V310.277L65.0917 309.707V312.5H68.3597ZM74.5505 322.19C73.6005 322.19 72.7645 321.994 72.0425 321.601C71.3331 321.208 70.7758 320.645 70.3705 319.91C69.9651 319.163 69.7625 318.276 69.7625 317.25C69.7625 316.224 69.9588 315.344 70.3515 314.609C70.7568 313.862 71.3078 313.292 72.0045 312.899C72.7138 312.506 73.5245 312.31 74.4365 312.31C75.3611 312.31 76.1465 312.5 76.7925 312.88C77.4385 313.26 77.9325 313.779 78.2745 314.438C78.6165 315.097 78.7875 315.844 78.7875 316.68C78.7875 316.921 78.7811 317.142 78.7685 317.345C78.7558 317.548 78.7368 317.719 78.7115 317.858H71.7575C71.8461 318.745 72.1311 319.422 72.6125 319.891C73.1065 320.347 73.7398 320.575 74.5125 320.575C75.1458 320.575 75.6588 320.455 76.0515 320.214C76.4441 319.973 76.7545 319.638 76.9825 319.207L78.5975 319.967C78.2681 320.664 77.7425 321.208 77.0205 321.601C76.3111 321.994 75.4878 322.19 74.5505 322.19ZM74.3985 313.925C73.7018 313.925 73.1255 314.128 72.6695 314.533C72.2261 314.938 71.9411 315.527 71.8145 316.3H76.8115C76.7608 315.54 76.5201 314.957 76.0895 314.552C75.6588 314.134 75.0951 313.925 74.3985 313.925ZM86.7128 320.518C87.6755 320.518 88.4228 320.733 88.9548 321.164C89.4868 321.582 89.7528 322.165 89.7528 322.912C89.7528 323.583 89.5438 324.153 89.1258 324.622C88.7078 325.103 88.1378 325.464 87.4158 325.705C86.6938 325.958 85.8768 326.085 84.9648 326.085C83.3942 326.085 82.2352 325.844 81.4878 325.363C80.7532 324.882 80.3858 324.28 80.3858 323.558C80.3858 323.127 80.5125 322.741 80.7658 322.399C81.0192 322.057 81.4372 321.823 82.0198 321.696C81.6652 321.544 81.3865 321.335 81.1838 321.069C80.9812 320.79 80.8798 320.436 80.8798 320.005C80.8798 319.587 81.0002 319.22 81.2408 318.903C81.4815 318.574 81.8362 318.327 82.3048 318.162C81.3042 317.592 80.8038 316.712 80.8038 315.521C80.8038 314.558 81.1775 313.786 81.9248 313.203C82.6722 312.608 83.6602 312.31 84.8888 312.31C85.6868 312.31 86.3898 312.437 86.9978 312.69C87.0992 312.057 87.3778 311.537 87.8338 311.132C88.2898 310.714 88.8662 310.505 89.5628 310.505C89.6262 310.505 89.6768 310.505 89.7148 310.505L90.0378 312.101C89.9745 312.088 89.8985 312.082 89.8098 312.082C88.7205 312.082 88.1125 312.481 87.9858 313.279C88.6572 313.862 88.9928 314.609 88.9928 315.521C88.9928 316.496 88.6192 317.275 87.8718 317.858C87.1245 318.441 86.1302 318.732 84.8888 318.732C84.3695 318.732 83.8945 318.688 83.4638 318.599C83.1218 318.688 82.8748 318.827 82.7228 319.017C82.5835 319.194 82.5138 319.384 82.5138 319.587C82.5138 320.208 82.9635 320.518 83.8628 320.518H86.7128ZM84.8888 313.735C84.3062 313.735 83.8185 313.9 83.4258 314.229C83.0458 314.546 82.8558 314.976 82.8558 315.521C82.8558 316.066 83.0458 316.503 83.4258 316.832C83.8185 317.161 84.3062 317.326 84.8888 317.326C85.4842 317.326 85.9718 317.161 86.3518 316.832C86.7445 316.503 86.9408 316.066 86.9408 315.521C86.9408 314.976 86.7445 314.546 86.3518 314.229C85.9718 313.9 85.4842 313.735 84.8888 313.735ZM84.9648 324.565C86.0035 324.565 86.7698 324.426 87.2638 324.147C87.7705 323.868 88.0238 323.539 88.0238 323.159C88.0238 322.868 87.9035 322.633 87.6628 322.456C87.4348 322.279 87.0168 322.19 86.4088 322.19H83.3498C82.9825 322.19 82.6785 322.285 82.4378 322.475C82.2098 322.665 82.0958 322.912 82.0958 323.216C82.0958 323.634 82.3492 323.963 82.8558 324.204C83.3625 324.445 84.0655 324.565 84.9648 324.565ZM91.6156 322V312.5H93.3446L93.5346 314.21C94.0539 312.943 95.0482 312.31 96.5176 312.31C96.7076 312.31 96.8976 312.329 97.0876 312.367C97.2776 312.392 97.4359 312.437 97.5626 312.5L97.2776 314.286C97.1382 314.235 96.9799 314.197 96.8026 314.172C96.6379 314.134 96.4099 314.115 96.1186 314.115C95.7132 314.115 95.3206 314.223 94.9406 314.438C94.5732 314.641 94.2629 314.957 94.0096 315.388C93.7689 315.806 93.6486 316.332 93.6486 316.965V322H91.6156ZM104.77 315.901C104.77 315.268 104.592 314.78 104.238 314.438C103.896 314.083 103.421 313.906 102.813 313.906C102.243 313.906 101.749 314.039 101.331 314.305C100.925 314.571 100.634 315.002 100.457 315.597L98.7467 314.875C98.9873 314.102 99.456 313.482 100.153 313.013C100.862 312.544 101.774 312.31 102.889 312.31C103.636 312.31 104.301 312.437 104.884 312.69C105.479 312.931 105.941 313.304 106.271 313.811C106.613 314.305 106.784 314.932 106.784 315.692V319.929C106.784 320.398 107.018 320.632 107.487 320.632C107.715 320.632 107.936 320.6 108.152 320.537L108.038 321.943C107.746 322.082 107.379 322.152 106.936 322.152C106.429 322.152 105.992 322.038 105.625 321.81C105.257 321.582 105.01 321.24 104.884 320.784C104.58 321.253 104.143 321.607 103.573 321.848C103.003 322.076 102.433 322.19 101.863 322.19C100.963 322.19 100.216 321.975 99.6207 321.544C99.0253 321.113 98.7277 320.467 98.7277 319.606C98.7277 318.909 98.9557 318.333 99.4117 317.877C99.8803 317.421 100.539 317.104 101.388 316.927L104.77 316.262V315.901ZM100.78 319.454C100.78 319.809 100.913 320.094 101.179 320.309C101.457 320.512 101.825 320.613 102.281 320.613C102.711 320.613 103.117 320.543 103.497 320.404C103.877 320.265 104.181 320.037 104.409 319.72C104.649 319.403 104.77 318.992 104.77 318.485V317.687L102.376 318.181C101.831 318.282 101.426 318.428 101.16 318.618C100.906 318.808 100.78 319.087 100.78 319.454ZM115.786 312.5V314.096H112.518V319.15C112.518 319.606 112.644 319.948 112.898 320.176C113.151 320.391 113.48 320.499 113.886 320.499C114.24 320.499 114.538 320.448 114.779 320.347C115.032 320.233 115.266 320.081 115.482 319.891L115.938 321.373C115.646 321.626 115.285 321.829 114.855 321.981C114.437 322.12 113.968 322.19 113.449 322.19C112.613 322.19 111.91 321.987 111.34 321.582C110.77 321.164 110.485 320.467 110.485 319.492V314.096H108.661V312.5H110.485V310.277L112.518 309.707V312.5H115.786ZM118.822 310.904C118.379 310.904 118.037 310.796 117.796 310.581C117.568 310.353 117.454 310.036 117.454 309.631C117.454 309.226 117.568 308.915 117.796 308.7C118.037 308.485 118.379 308.377 118.822 308.377C119.253 308.377 119.582 308.485 119.81 308.7C120.051 308.915 120.171 309.226 120.171 309.631C120.171 310.036 120.051 310.353 119.81 310.581C119.582 310.796 119.253 310.904 118.822 310.904ZM119.829 312.5V322H117.796V312.5H119.829ZM127.133 312.31C128.058 312.31 128.875 312.506 129.584 312.899C130.293 313.292 130.844 313.862 131.237 314.609C131.642 315.344 131.845 316.224 131.845 317.25C131.845 318.276 131.642 319.163 131.237 319.91C130.844 320.645 130.293 321.208 129.584 321.601C128.875 321.994 128.058 322.19 127.133 322.19C126.208 322.19 125.391 321.994 124.682 321.601C123.973 321.208 123.415 320.645 123.01 319.91C122.605 319.163 122.402 318.276 122.402 317.25C122.402 316.224 122.605 315.344 123.01 314.609C123.415 313.862 123.973 313.292 124.682 312.899C125.391 312.506 126.208 312.31 127.133 312.31ZM127.133 313.906C126.297 313.906 125.638 314.197 125.157 314.78C124.676 315.35 124.435 316.173 124.435 317.25C124.435 318.327 124.676 319.156 125.157 319.739C125.638 320.309 126.297 320.594 127.133 320.594C127.969 320.594 128.621 320.309 129.09 319.739C129.571 319.156 129.812 318.327 129.812 317.25C129.812 316.173 129.571 315.35 129.09 314.78C128.621 314.197 127.969 313.906 127.133 313.906ZM134.403 322V312.5H136.208L136.303 314.134C136.619 313.501 137.056 313.038 137.614 312.747C138.184 312.456 138.817 312.31 139.514 312.31C140.185 312.31 140.787 312.443 141.319 312.709C141.863 312.962 142.294 313.355 142.611 313.887C142.927 314.406 143.086 315.059 143.086 315.844V322H141.053V316.471C141.053 315.534 140.856 314.888 140.464 314.533C140.084 314.166 139.602 313.982 139.02 313.982C138.602 313.982 138.196 314.077 137.804 314.267C137.411 314.457 137.082 314.774 136.816 315.217C136.562 315.648 136.436 316.224 136.436 316.946V322H134.403Z" fill="#43BEFF"/>
<g opacity="0.5" filter="url(#filter5_d)">
<circle cx="101" cy="237" r="20" fill="url(#paint5_linear)"/>
<circle cx="101" cy="237" r="19.5" stroke="#004F99"/>
</g>
<path d="M95.9706 239.006C95.9706 239.854 95.85 240.512 95.609 240.981C95.162 241.838 94.3119 242.267 93.0585 242.267C92.3354 242.267 91.7175 242.064 91.2048 241.658C90.6921 241.248 90.4357 240.521 90.4357 239.478V238.76H91.665V239.478C91.665 240.024 91.7811 240.437 92.0134 240.715C92.25 240.988 92.6159 241.125 93.1111 241.125C93.8079 241.125 94.2637 240.877 94.4784 240.38C94.6099 240.075 94.6756 239.498 94.6756 238.65V231.958H95.9706V239.006ZM97.8045 234.713H99.0075V242H97.8045V234.713ZM97.8045 231.958H99.0075V233.353H97.8045V231.958ZM100.835 234.679H101.959V235.943C102.051 235.697 102.277 235.399 102.636 235.048C102.995 234.692 103.409 234.515 103.878 234.515C103.9 234.515 103.938 234.517 103.99 234.521C104.043 234.526 104.133 234.535 104.26 234.549V235.848C104.19 235.834 104.124 235.825 104.062 235.82C104.005 235.816 103.942 235.813 103.872 235.813C103.276 235.813 102.818 236.014 102.498 236.415C102.178 236.812 102.018 237.27 102.018 237.789V242H100.835V234.679ZM106.192 240.052C106.192 240.407 106.317 240.688 106.567 240.893C106.817 241.098 107.113 241.2 107.454 241.2C107.871 241.2 108.274 241.1 108.664 240.899C109.321 240.567 109.65 240.022 109.65 239.266V238.274C109.505 238.37 109.319 238.45 109.091 238.514C108.863 238.577 108.64 238.623 108.421 238.65L107.704 238.746C107.275 238.805 106.953 238.899 106.738 239.026C106.374 239.241 106.192 239.582 106.192 240.052ZM109.058 237.563C109.33 237.527 109.512 237.409 109.604 237.208C109.656 237.099 109.683 236.941 109.683 236.736C109.683 236.317 109.538 236.014 109.249 235.827C108.964 235.636 108.554 235.54 108.02 235.54C107.402 235.54 106.964 235.713 106.705 236.06C106.56 236.251 106.466 236.536 106.422 236.914H105.318C105.34 236.012 105.62 235.385 106.159 235.034C106.703 234.679 107.332 234.501 108.046 234.501C108.874 234.501 109.547 234.665 110.064 234.993C110.577 235.321 110.833 235.832 110.833 236.524V240.742C110.833 240.87 110.857 240.972 110.905 241.05C110.958 241.127 111.065 241.166 111.228 241.166C111.28 241.166 111.339 241.164 111.405 241.159C111.471 241.15 111.541 241.139 111.615 241.125V242.034C111.431 242.089 111.291 242.123 111.195 242.137C111.098 242.15 110.967 242.157 110.8 242.157C110.393 242.157 110.097 242.007 109.913 241.706C109.816 241.547 109.748 241.321 109.709 241.029C109.468 241.357 109.122 241.642 108.67 241.884C108.219 242.125 107.722 242.246 107.178 242.246C106.525 242.246 105.991 242.041 105.574 241.631C105.162 241.216 104.956 240.699 104.956 240.079C104.956 239.4 105.16 238.874 105.568 238.5C105.975 238.126 106.51 237.896 107.172 237.81L109.058 237.563Z" fill="#43BEFF"/>
<defs>
<filter id="filter0_d" x="0" y="0" width="98" height="98" filterUnits="userSpaceOnUse" color-interpolation-filters="sRGB">
<feFlood flood-opacity="0" result="BackgroundImageFix"/>
<feColorMatrix in="SourceAlpha" type="matrix" values="0 0 0 0 0 0 0 0 0 0 0 0 0 0 0 0 0 0 127 0"/>
<feMorphology radius="4" operator="dilate" in="SourceAlpha" result="effect1_dropShadow"/>
<feOffset/>
<feGaussianBlur stdDeviation="5"/>
<feColorMatrix type="matrix" values="0 0 0 0 0.0156863 0 0 0 0 0.341176 0 0 0 0 0.607843 0 0 0 0.4 0"/>
<feBlend mode="normal" in2="BackgroundImageFix" result="effect1_dropShadow"/>
<feBlend mode="normal" in="SourceGraphic" in2="effect1_dropShadow" result="shape"/>
</filter>
<filter id="filter1_d" x="71" y="528" width="98" height="98" filterUnits="userSpaceOnUse" color-interpolation-filters="sRGB">
<feFlood flood-opacity="0" result="BackgroundImageFix"/>
<feColorMatrix in="SourceAlpha" type="matrix" values="0 0 0 0 0 0 0 0 0 0 0 0 0 0 0 0 0 0 127 0"/>
<feMorphology radius="4" operator="dilate" in="SourceAlpha" result="effect1_dropShadow"/>
<feOffset/>
<feGaussianBlur stdDeviation="5"/>
<feColorMatrix type="matrix" values="0 0 0 0 0.0156863 0 0 0 0 0.341176 0 0 0 0 0.607843 0 0 0 0.4 0"/>
<feBlend mode="normal" in2="BackgroundImageFix" result="effect1_dropShadow"/>
<feBlend mode="normal" in="SourceGraphic" in2="effect1_dropShadow" result="shape"/>
</filter>
<filter id="filter2_d" x="89" y="334" width="98" height="98" filterUnits="userSpaceOnUse" color-interpolation-filters="sRGB">
<feFlood flood-opacity="0" result="BackgroundImageFix"/>
<feColorMatrix in="SourceAlpha" type="matrix" values="0 0 0 0 0 0 0 0 0 0 0 0 0 0 0 0 0 0 127 0"/>
<feMorphology radius="4" operator="dilate" in="SourceAlpha" result="effect1_dropShadow"/>
<feOffset/>
<feGaussianBlur stdDeviation="5"/>
<feColorMatrix type="matrix" values="0 0 0 0 0.0156863 0 0 0 0 0.341176 0 0 0 0 0.607843 0 0 0 0.4 0"/>
<feBlend mode="normal" in2="BackgroundImageFix" result="effect1_dropShadow"/>
<feBlend mode="normal" in="SourceGraphic" in2="effect1_dropShadow" result="shape"/>
</filter>
<filter id="filter3_d" x="13" y="413" width="88" height="88" filterUnits="userSpaceOnUse" color-interpolation-filters="sRGB">
<feFlood flood-opacity="0" result="BackgroundImageFix"/>
<feColorMatrix in="SourceAlpha" type="matrix" values="0 0 0 0 0 0 0 0 0 0 0 0 0 0 0 0 0 0 127 0"/>
<feMorphology radius="4" operator="dilate" in="SourceAlpha" result="effect1_dropShadow"/>
<feOffset/>
<feGaussianBlur stdDeviation="5"/>
<feColorMatrix type="matrix" values="0 0 0 0 0.0156863 0 0 0 0 0.341176 0 0 0 0 0.607843 0 0 0 0.4 0"/>
<feBlend mode="normal" in2="BackgroundImageFix" result="effect1_dropShadow"/>
<feBlend mode="normal" in="SourceGraphic" in2="effect1_dropShadow" result="shape"/>
</filter>
<filter id="filter4_d" x="89" y="119" width="88" height="88" filterUnits="userSpaceOnUse" color-interpolation-filters="sRGB">
<feFlood flood-opacity="0" result="BackgroundImageFix"/>
<feColorMatrix in="SourceAlpha" type="matrix" values="0 0 0 0 0 0 0 0 0 0 0 0 0 0 0 0 0 0 127 0"/>
<feMorphology radius="4" operator="dilate" in="SourceAlpha" result="effect1_dropShadow"/>
<feOffset/>
<feGaussianBlur stdDeviation="5"/>
<feColorMatrix type="matrix" values="0 0 0 0 0.0156863 0 0 0 0 0.341176 0 0 0 0 0.607843 0 0 0 0.4 0"/>
<feBlend mode="normal" in2="BackgroundImageFix" result="effect1_dropShadow"/>
<feBlend mode="normal" in="SourceGraphic" in2="effect1_dropShadow" result="shape"/>
</filter>
<filter id="filter5_d" x="67" y="203" width="68" height="68" filterUnits="userSpaceOnUse" color-interpolation-filters="sRGB">
<feFlood flood-opacity="0" result="BackgroundImageFix"/>
<feColorMatrix in="SourceAlpha" type="matrix" values="0 0 0 0 0 0 0 0 0 0 0 0 0 0 0 0 0 0 127 0"/>
<feMorphology radius="4" operator="dilate" in="SourceAlpha" result="effect1_dropShadow"/>
<feOffset/>
<feGaussianBlur stdDeviation="5"/>
<feColorMatrix type="matrix" values="0 0 0 0 0.0156863 0 0 0 0 0.341176 0 0 0 0 0.607843 0 0 0 0.4 0"/>
<feBlend mode="normal" in2="BackgroundImageFix" result="effect1_dropShadow"/>
<feBlend mode="normal" in="SourceGraphic" in2="effect1_dropShadow" result="shape"/>
</filter>
<linearGradient id="paint0_linear" x1="30.1538" y1="19.3846" x2="84" y2="89.1154" gradientUnits="userSpaceOnUse">
<stop stop-color="#43BEFF" stop-opacity="0.5"/>
<stop offset="1" stop-color="#B9DCFF" stop-opacity="0.2"/>
</linearGradient>
<linearGradient id="paint1_linear" x1="101.154" y1="547.385" x2="155" y2="617.115" gradientUnits="userSpaceOnUse">
<stop stop-color="#43BEFF" stop-opacity="0.5"/>
<stop offset="1" stop-color="#B9DCFF" stop-opacity="0.2"/>
</linearGradient>
<linearGradient id="paint2_linear" x1="119.154" y1="353.385" x2="173" y2="423.115" gradientUnits="userSpaceOnUse">
<stop stop-color="#43BEFF" stop-opacity="0.5"/>
<stop offset="1" stop-color="#B9DCFF" stop-opacity="0.2"/>
</linearGradient>
<linearGradient id="paint3_linear" x1="40.8462" y1="431.615" x2="87" y2="491.385" gradientUnits="userSpaceOnUse">
<stop stop-color="#43BEFF" stop-opacity="0.5"/>
<stop offset="1" stop-color="#B9DCFF" stop-opacity="0.2"/>
</linearGradient>
<linearGradient id="paint4_linear" x1="116.846" y1="137.615" x2="163" y2="197.385" gradientUnits="userSpaceOnUse">
<stop stop-color="#43BEFF" stop-opacity="0.5"/>
<stop offset="1" stop-color="#B9DCFF" stop-opacity="0.2"/>
</linearGradient>
<linearGradient id="paint5_linear" x1="90.2308" y1="220.077" x2="121" y2="259.923" gradientUnits="userSpaceOnUse">
<stop stop-color="#43BEFF" stop-opacity="0.5"/>
<stop offset="1" stop-color="#B9DCFF" stop-opacity="0.2"/>
</linearGradient>
</defs>
</svg>
