<svg viewBox="0 0 125 571" fill="none" xmlns="http://www.w3.org/2000/svg">
<g opacity="0.5" filter="url(#filter0_d)">
<circle cx="52.5" cy="93.5" r="37.5" fill="url(#paint0_linear)"/>
<circle cx="52.5" cy="93.5" r="37" stroke="#004F99"/>
</g>
<path d="M17.3795 88.958H21.7245C22.5835 88.958 23.2759 89.2109 23.8017 89.7168C24.3276 90.2181 24.5905 90.9245 24.5905 91.8359C24.5905 92.6198 24.3561 93.3034 23.8872 93.8867C23.4183 94.4655 22.6974 94.7549 21.7245 94.7549H18.6876V99H17.3795V88.958ZM23.2693 91.8428C23.2693 91.1045 23.0063 90.6032 22.4805 90.3389C22.1912 90.1976 21.7946 90.127 21.2907 90.127H18.6876V93.6064H21.2907C21.8779 93.6064 22.3534 93.4766 22.7171 93.2168C23.0852 92.957 23.2693 92.499 23.2693 91.8428ZM26.109 91.6787H27.2331V92.9434C27.3251 92.6973 27.5508 92.3988 27.9101 92.0479C28.2695 91.6924 28.6836 91.5146 29.1525 91.5146C29.1744 91.5146 29.2117 91.5169 29.2643 91.5215C29.3168 91.526 29.4067 91.5352 29.5338 91.5488V92.8477C29.4637 92.834 29.3979 92.8249 29.3366 92.8203C29.2796 92.8158 29.2161 92.8135 29.1459 92.8135C28.5499 92.8135 28.092 93.014 27.7721 93.415C27.4522 93.8115 27.2922 94.2695 27.2922 94.7891V99H26.109V91.6787ZM33.3529 98.207C34.1374 98.207 34.6742 97.8994 34.9634 97.2842C35.257 96.6644 35.4038 95.9762 35.4038 95.2197C35.4038 94.5361 35.2987 93.9801 35.0883 93.5518C34.7553 92.8773 34.1812 92.54 33.3661 92.54C32.643 92.54 32.1171 92.8271 31.7885 93.4014C31.4598 93.9756 31.2955 94.6683 31.2955 95.4795C31.2955 96.2588 31.4598 96.9082 31.7885 97.4277C32.1171 97.9473 32.6386 98.207 33.3529 98.207ZM33.399 91.4668C34.3061 91.4668 35.073 91.7812 35.6997 92.4102C36.3263 93.0391 36.6397 93.9642 36.6397 95.1855C36.6397 96.3659 36.3636 97.3411 35.8114 98.1113C35.2592 98.8815 34.4025 99.2666 33.2412 99.2666C32.2727 99.2666 31.5036 98.9271 30.9339 98.248C30.3642 97.5645 30.0794 96.6484 30.0794 95.5C30.0794 94.2695 30.3796 93.2897 30.9799 92.5605C31.5803 91.8314 32.3866 91.4668 33.399 91.4668ZM38.0529 91.6787H39.223V92.7178C39.5035 92.3577 39.7577 92.0957 39.9855 91.9316C40.3756 91.6536 40.8182 91.5146 41.3134 91.5146C41.8743 91.5146 42.3257 91.6582 42.6675 91.9453C42.8603 92.1094 43.0356 92.3509 43.1934 92.6699C43.4563 92.278 43.7653 91.9886 44.1202 91.8018C44.4752 91.6104 44.874 91.5146 45.3166 91.5146C46.2632 91.5146 46.9074 91.8701 47.2492 92.5811C47.4332 92.9639 47.5253 93.4788 47.5253 94.126V99H46.296V93.9141C46.296 93.4264 46.1777 93.0915 45.9411 92.9092C45.7088 92.7269 45.424 92.6357 45.0865 92.6357C44.622 92.6357 44.221 92.7975 43.8836 93.1211C43.5505 93.4447 43.384 93.9847 43.384 94.7412V99H42.1811V94.2217C42.1811 93.7249 42.1241 93.3626 42.0102 93.1348C41.8305 92.793 41.4952 92.6221 41.0044 92.6221C40.5574 92.6221 40.1499 92.8021 39.7818 93.1621C39.418 93.5221 39.2362 94.1738 39.2362 95.1172V99H38.0529V91.6787ZM52.199 91.5146C52.6986 91.5146 53.1828 91.6377 53.6517 91.8838C54.1206 92.1253 54.4778 92.4398 54.7232 92.8271C54.9598 93.1963 55.1176 93.627 55.1965 94.1191C55.2666 94.4564 55.3016 94.9941 55.3016 95.7324H50.1415C50.1634 96.4753 50.3321 97.0723 50.6477 97.5234C50.9632 97.9701 51.4518 98.1934 52.1135 98.1934C52.7314 98.1934 53.2244 97.9814 53.5926 97.5576C53.8029 97.3115 53.9519 97.0267 54.0395 96.7031H55.203C55.1724 96.972 55.0694 97.2728 54.8941 97.6055C54.7232 97.9336 54.5304 98.2025 54.3156 98.4121C53.9563 98.7767 53.5115 99.0228 52.9812 99.1504C52.6964 99.2233 52.3743 99.2598 52.0149 99.2598C51.1385 99.2598 50.3957 98.9294 49.7865 98.2686C49.1774 97.6032 48.8728 96.6735 48.8728 95.4795C48.8728 94.3037 49.1796 93.349 49.7931 92.6152C50.4066 91.8815 51.2086 91.5146 52.199 91.5146ZM54.0856 94.7549C54.0374 94.2217 53.9256 93.7956 53.7503 93.4766C53.426 92.8841 52.8848 92.5879 52.1267 92.5879C51.5833 92.5879 51.1275 92.793 50.7594 93.2031C50.3913 93.6087 50.1963 94.126 50.1744 94.7549H54.0856ZM56.9976 89.6348H58.194V91.6787H59.318V92.6836H58.194V97.4619C58.194 97.7171 58.2772 97.888 58.4437 97.9746C58.5358 98.0247 58.6892 98.0498 58.9039 98.0498C58.9609 98.0498 59.0222 98.0498 59.0879 98.0498C59.1537 98.0452 59.2304 98.0384 59.318 98.0293V99C59.1822 99.041 59.0397 99.0706 58.8907 99.0889C58.7461 99.1071 58.5884 99.1162 58.4175 99.1162C57.8653 99.1162 57.4906 98.9704 57.2934 98.6787C57.0962 98.3825 56.9976 97.9997 56.9976 97.5303V92.6836H56.0444V91.6787H56.9976V89.6348ZM60.5078 88.9238H61.691V92.6699C61.9715 92.3008 62.2235 92.041 62.447 91.8906C62.8282 91.6309 63.3037 91.501 63.8734 91.501C64.8945 91.501 65.5869 91.8724 65.9506 92.6152C66.1478 93.0208 66.2464 93.5837 66.2464 94.3037V99H65.0303V94.3857C65.0303 93.848 64.9646 93.4538 64.8331 93.2031C64.6184 92.8021 64.2152 92.6016 63.6236 92.6016C63.1328 92.6016 62.688 92.777 62.2892 93.1279C61.8904 93.4788 61.691 94.1419 61.691 95.1172V99H60.5078V88.9238ZM70.9333 91.5146C71.4329 91.5146 71.9171 91.6377 72.386 91.8838C72.8549 92.1253 73.2121 92.4398 73.4575 92.8271C73.6941 93.1963 73.8519 93.627 73.9308 94.1191C74.0009 94.4564 74.0359 94.9941 74.0359 95.7324H68.8758C68.8977 96.4753 69.0664 97.0723 69.3819 97.5234C69.6975 97.9701 70.1861 98.1934 70.8478 98.1934C71.4657 98.1934 71.9587 97.9814 72.3268 97.5576C72.5372 97.3115 72.6862 97.0267 72.7738 96.7031H73.9373C73.9067 96.972 73.8037 97.2728 73.6284 97.6055C73.4575 97.9336 73.2647 98.2025 73.0499 98.4121C72.6906 98.7767 72.2458 99.0228 71.7155 99.1504C71.4307 99.2233 71.1086 99.2598 70.7492 99.2598C69.8728 99.2598 69.13 98.9294 68.5208 98.2686C67.9117 97.6032 67.6071 96.6735 67.6071 95.4795C67.6071 94.3037 67.9139 93.349 68.5274 92.6152C69.1409 91.8815 69.9429 91.5146 70.9333 91.5146ZM72.8199 94.7549C72.7716 94.2217 72.6599 93.7956 72.4846 93.4766C72.1603 92.8841 71.6191 92.5879 70.861 92.5879C70.3176 92.5879 69.8618 92.793 69.4937 93.2031C69.1256 93.6087 68.9306 94.126 68.9087 94.7549H72.8199ZM76.6785 91.6787V96.5391C76.6785 96.9128 76.7354 97.2181 76.8494 97.4551C77.0597 97.8926 77.4519 98.1113 78.026 98.1113C78.8499 98.1113 79.4108 97.7285 79.7088 96.9629C79.871 96.5527 79.952 95.9899 79.952 95.2744V91.6787H81.1353V99H80.0178L80.0309 97.9199C79.8775 98.1979 79.6869 98.4326 79.459 98.624C79.0077 99.0068 78.4599 99.1982 77.8157 99.1982C76.8121 99.1982 76.1285 98.8496 75.7648 98.1523C75.5676 97.7786 75.469 97.2796 75.469 96.6553V91.6787H76.6785ZM83.6923 96.7031C83.7274 97.1133 83.826 97.4277 83.9881 97.6465C84.2861 98.043 84.8032 98.2412 85.5395 98.2412C85.9777 98.2412 86.3633 98.1432 86.6964 97.9473C87.0294 97.7467 87.196 97.4391 87.196 97.0244C87.196 96.71 87.0623 96.4707 86.795 96.3066C86.6241 96.2064 86.2866 96.0902 85.7827 95.958L84.8427 95.7119C84.2423 95.557 83.7997 95.3838 83.5148 95.1924C83.0065 94.8597 82.7523 94.3994 82.7523 93.8115C82.7523 93.1188 82.9912 92.5583 83.4688 92.1299C83.9509 91.7015 84.5973 91.4873 85.408 91.4873C86.4685 91.4873 87.2332 91.8109 87.7021 92.458C87.9957 92.8682 88.1382 93.3102 88.1294 93.7842H87.0119C86.99 93.5062 86.8958 93.2533 86.7292 93.0254C86.4575 92.7018 85.9865 92.54 85.316 92.54C84.869 92.54 84.5293 92.6289 84.2971 92.8066C84.0692 92.9844 83.9553 93.2191 83.9553 93.5107C83.9553 93.8298 84.1064 94.085 84.4088 94.2764C84.5841 94.3903 84.8427 94.4906 85.1845 94.5771L85.9667 94.7754C86.8169 94.9896 87.3866 95.1969 87.6758 95.3975C88.136 95.7119 88.366 96.2064 88.366 96.8809C88.366 97.5326 88.1272 98.0954 87.6495 98.5693C87.1762 99.0433 86.4532 99.2803 85.4803 99.2803C84.4329 99.2803 83.6901 99.0342 83.2519 98.542C82.8181 98.0452 82.5858 97.4323 82.5551 96.7031H83.6923Z" fill="#43BEFF"/>
<g opacity="0.5" filter="url(#filter1_d)">
<circle cx="41.5" cy="529.5" r="27.5" fill="url(#paint1_linear)"/>
<circle cx="41.5" cy="529.5" r="27" stroke="#004F99"/>
</g>
<path d="M20.4121 524.958V526.154H17.0283V535H15.6475V526.154H12.2637V524.958H20.4121ZM22.9893 527.515C23.5088 527.515 24.0124 527.638 24.5 527.884C24.9876 528.125 25.359 528.44 25.6143 528.827C25.8604 529.196 26.0244 529.627 26.1064 530.119C26.1794 530.456 26.2158 530.994 26.2158 531.732H20.8496C20.8724 532.475 21.0479 533.072 21.376 533.523C21.7041 533.97 22.2122 534.193 22.9004 534.193C23.543 534.193 24.0557 533.981 24.4385 533.558C24.6572 533.312 24.8122 533.027 24.9033 532.703H26.1133C26.0814 532.972 25.9743 533.273 25.792 533.605C25.6143 533.934 25.4137 534.202 25.1904 534.412C24.8167 534.777 24.3542 535.023 23.8027 535.15C23.5065 535.223 23.1715 535.26 22.7979 535.26C21.8864 535.26 21.1139 534.929 20.4805 534.269C19.847 533.603 19.5303 532.674 19.5303 531.479C19.5303 530.304 19.8493 529.349 20.4873 528.615C21.1253 527.882 21.9593 527.515 22.9893 527.515ZM24.9512 530.755C24.901 530.222 24.7848 529.796 24.6025 529.477C24.2653 528.884 23.7025 528.588 22.9141 528.588C22.349 528.588 21.875 528.793 21.4922 529.203C21.1094 529.609 20.9066 530.126 20.8838 530.755H24.9512ZM27.7676 527.679H28.9365V528.943C29.0322 528.697 29.2669 528.399 29.6406 528.048C30.0143 527.692 30.445 527.515 30.9326 527.515C30.9554 527.515 30.9941 527.517 31.0488 527.521C31.1035 527.526 31.1969 527.535 31.3291 527.549V528.848C31.2562 528.834 31.1878 528.825 31.124 528.82C31.0648 528.816 30.9987 528.813 30.9258 528.813C30.306 528.813 29.8298 529.014 29.4971 529.415C29.1644 529.812 28.998 530.27 28.998 530.789V535H27.7676V527.679ZM32.4297 527.679H33.5986V528.943C33.6943 528.697 33.929 528.399 34.3027 528.048C34.6764 527.692 35.1071 527.515 35.5947 527.515C35.6175 527.515 35.6562 527.517 35.7109 527.521C35.7656 527.526 35.859 527.535 35.9912 527.549V528.848C35.9183 528.834 35.8499 528.825 35.7861 528.82C35.7269 528.816 35.6608 528.813 35.5879 528.813C34.9681 528.813 34.4919 529.014 34.1592 529.415C33.8265 529.812 33.6602 530.27 33.6602 530.789V535H32.4297V527.679ZM38.001 533.052C38.001 533.407 38.1309 533.688 38.3906 533.893C38.6504 534.098 38.958 534.2 39.3135 534.2C39.7464 534.2 40.1657 534.1 40.5713 533.899C41.2549 533.567 41.5967 533.022 41.5967 532.266V531.274C41.4463 531.37 41.2526 531.45 41.0156 531.514C40.7786 531.577 40.5462 531.623 40.3184 531.65L39.5732 531.746C39.1266 531.805 38.7917 531.899 38.5684 532.026C38.1901 532.241 38.001 532.582 38.001 533.052ZM40.9814 530.563C41.264 530.527 41.4531 530.409 41.5488 530.208C41.6035 530.099 41.6309 529.941 41.6309 529.736C41.6309 529.317 41.4805 529.014 41.1797 528.827C40.8835 528.636 40.4574 528.54 39.9014 528.54C39.2588 528.54 38.8031 528.713 38.5342 529.06C38.3838 529.251 38.2858 529.536 38.2402 529.914H37.0918C37.1146 529.012 37.4062 528.385 37.9668 528.034C38.5319 527.679 39.1859 527.501 39.9287 527.501C40.79 527.501 41.4896 527.665 42.0273 527.993C42.5605 528.321 42.8271 528.832 42.8271 529.524V533.742C42.8271 533.87 42.8522 533.972 42.9023 534.05C42.957 534.127 43.0687 534.166 43.2373 534.166C43.292 534.166 43.3535 534.164 43.4219 534.159C43.4902 534.15 43.5632 534.139 43.6406 534.125V535.034C43.4492 535.089 43.3034 535.123 43.2031 535.137C43.1029 535.15 42.9661 535.157 42.793 535.157C42.3691 535.157 42.0615 535.007 41.8701 534.706C41.7699 534.547 41.6992 534.321 41.6582 534.029C41.4076 534.357 41.0475 534.642 40.5781 534.884C40.1087 535.125 39.5915 535.246 39.0264 535.246C38.3473 535.246 37.7913 535.041 37.3584 534.631C36.93 534.216 36.7158 533.699 36.7158 533.079C36.7158 532.4 36.9277 531.874 37.3516 531.5C37.7754 531.126 38.3314 530.896 39.0195 530.81L40.9814 530.563ZM45.1582 526.564C45.1764 526.054 45.2653 525.68 45.4248 525.443C45.7119 525.024 46.2656 524.814 47.0859 524.814C47.1634 524.814 47.2432 524.817 47.3252 524.821C47.4072 524.826 47.5007 524.833 47.6055 524.842V525.963C47.4779 525.954 47.3844 525.949 47.3252 525.949C47.2705 525.945 47.2181 525.942 47.168 525.942C46.7943 525.942 46.571 526.04 46.498 526.236C46.4251 526.428 46.3887 526.92 46.3887 527.713H47.6055V528.684H46.375V535H45.1582V528.684H44.1396V527.713H45.1582V526.564ZM51.6523 534.207C52.4681 534.207 53.0264 533.899 53.3271 533.284C53.6325 532.664 53.7852 531.976 53.7852 531.22C53.7852 530.536 53.6758 529.98 53.457 529.552C53.1107 528.877 52.5137 528.54 51.666 528.54C50.9141 528.54 50.3672 528.827 50.0254 529.401C49.6836 529.976 49.5127 530.668 49.5127 531.479C49.5127 532.259 49.6836 532.908 50.0254 533.428C50.3672 533.947 50.9095 534.207 51.6523 534.207ZM51.7002 527.467C52.6436 527.467 53.4411 527.781 54.0928 528.41C54.7445 529.039 55.0703 529.964 55.0703 531.186C55.0703 532.366 54.7832 533.341 54.209 534.111C53.6348 534.882 52.7438 535.267 51.5361 535.267C50.529 535.267 49.7292 534.927 49.1367 534.248C48.5443 533.564 48.248 532.648 48.248 531.5C48.248 530.27 48.5602 529.29 49.1846 528.561C49.8089 527.831 50.6475 527.467 51.7002 527.467ZM56.5742 527.679H57.7432V528.943C57.8389 528.697 58.0736 528.399 58.4473 528.048C58.821 527.692 59.2516 527.515 59.7393 527.515C59.762 527.515 59.8008 527.517 59.8555 527.521C59.9102 527.526 60.0036 527.535 60.1357 527.549V528.848C60.0628 528.834 59.9945 528.825 59.9307 528.82C59.8714 528.816 59.8053 528.813 59.7324 528.813C59.1126 528.813 58.6364 529.014 58.3037 529.415C57.971 529.812 57.8047 530.27 57.8047 530.789V535H56.5742V527.679ZM61.2021 527.679H62.4189V528.718C62.7106 528.358 62.9749 528.096 63.2119 527.932C63.6175 527.654 64.0778 527.515 64.5928 527.515C65.1761 527.515 65.6455 527.658 66.001 527.945C66.2015 528.109 66.3838 528.351 66.5479 528.67C66.8213 528.278 67.1426 527.989 67.5117 527.802C67.8809 527.61 68.2956 527.515 68.7559 527.515C69.7402 527.515 70.4102 527.87 70.7656 528.581C70.957 528.964 71.0527 529.479 71.0527 530.126V535H69.7744V529.914C69.7744 529.426 69.6514 529.091 69.4053 528.909C69.1637 528.727 68.8675 528.636 68.5166 528.636C68.0335 528.636 67.6165 528.798 67.2656 529.121C66.9193 529.445 66.7461 529.985 66.7461 530.741V535H65.4951V530.222C65.4951 529.725 65.4359 529.363 65.3174 529.135C65.1305 528.793 64.7819 528.622 64.2715 528.622C63.8066 528.622 63.3828 528.802 63 529.162C62.6217 529.522 62.4326 530.174 62.4326 531.117V535H61.2021V527.679Z" fill="#43BEFF"/>
<g opacity="0.5" filter="url(#filter2_d)">
<circle cx="72.5" cy="365.5" r="27.5" fill="url(#paint2_linear)"/>
<circle cx="72.5" cy="365.5" r="27" stroke="#004F99"/>
</g>
<path d="M43.4141 367.76C43.446 368.329 43.5804 368.792 43.8174 369.147C44.2686 369.813 45.0638 370.146 46.2031 370.146C46.7135 370.146 47.1784 370.073 47.5977 369.927C48.4089 369.644 48.8145 369.138 48.8145 368.409C48.8145 367.862 48.6436 367.473 48.3018 367.24C47.9554 367.012 47.4131 366.814 46.6748 366.646L45.3145 366.338C44.4258 366.137 43.7969 365.916 43.4277 365.675C42.7897 365.256 42.4707 364.629 42.4707 363.795C42.4707 362.893 42.7829 362.152 43.4072 361.573C44.0316 360.994 44.9157 360.705 46.0596 360.705C47.1123 360.705 48.0055 360.96 48.7393 361.471C49.4775 361.977 49.8467 362.788 49.8467 363.904H48.5684C48.5 363.367 48.3542 362.954 48.1309 362.667C47.7161 362.143 47.012 361.881 46.0186 361.881C45.2165 361.881 44.64 362.049 44.2891 362.387C43.9382 362.724 43.7627 363.116 43.7627 363.562C43.7627 364.055 43.9678 364.415 44.3779 364.643C44.6468 364.788 45.2552 364.971 46.2031 365.189L47.6113 365.511C48.2904 365.666 48.8145 365.878 49.1836 366.146C49.8216 366.616 50.1406 367.297 50.1406 368.19C50.1406 369.302 49.735 370.098 48.9238 370.576C48.1172 371.055 47.1784 371.294 46.1074 371.294C44.8587 371.294 43.8812 370.975 43.1748 370.337C42.4684 369.703 42.1221 368.844 42.1357 367.76H43.4141ZM54.7891 370.173C55.3633 370.173 55.8395 369.934 56.2178 369.455C56.6006 368.972 56.792 368.252 56.792 367.295C56.792 366.712 56.7077 366.21 56.5391 365.791C56.2201 364.984 55.6367 364.581 54.7891 364.581C53.9368 364.581 53.3535 365.007 53.0391 365.859C52.8704 366.315 52.7861 366.894 52.7861 367.596C52.7861 368.161 52.8704 368.642 53.0391 369.038C53.3581 369.795 53.9414 370.173 54.7891 370.173ZM51.6035 363.713H52.7998V364.684C53.0459 364.351 53.3148 364.093 53.6064 363.911C54.0212 363.638 54.5088 363.501 55.0693 363.501C55.8988 363.501 56.6029 363.82 57.1816 364.458C57.7604 365.091 58.0498 365.998 58.0498 367.179C58.0498 368.774 57.6328 369.913 56.7988 370.597C56.2702 371.03 55.6549 371.246 54.9531 371.246C54.4017 371.246 53.9391 371.125 53.5654 370.884C53.3467 370.747 53.1029 370.512 52.834 370.18V373.919H51.6035V363.713ZM59.4922 363.713H60.7432V371H59.4922V363.713ZM59.4922 360.958H60.7432V362.353H59.4922V360.958ZM62.6094 363.679H63.7783V364.718C64.1247 364.289 64.4915 363.982 64.8789 363.795C65.2663 363.608 65.6969 363.515 66.1709 363.515C67.21 363.515 67.9118 363.877 68.2764 364.602C68.4769 364.998 68.5771 365.565 68.5771 366.304V371H67.3262V366.386C67.3262 365.939 67.2601 365.579 67.1279 365.306C66.9092 364.85 66.5127 364.622 65.9385 364.622C65.6468 364.622 65.4076 364.652 65.2207 364.711C64.8835 364.811 64.5872 365.012 64.332 365.312C64.127 365.554 63.9925 365.805 63.9287 366.064C63.8695 366.32 63.8398 366.687 63.8398 367.165V371H62.6094V363.679ZM70.4023 363.679H71.5713V364.718C71.9176 364.289 72.2845 363.982 72.6719 363.795C73.0592 363.608 73.4899 363.515 73.9639 363.515C75.0029 363.515 75.7048 363.877 76.0693 364.602C76.2699 364.998 76.3701 365.565 76.3701 366.304V371H75.1191V366.386C75.1191 365.939 75.0531 365.579 74.9209 365.306C74.7021 364.85 74.3057 364.622 73.7314 364.622C73.4398 364.622 73.2005 364.652 73.0137 364.711C72.6764 364.811 72.3802 365.012 72.125 365.312C71.9199 365.554 71.7855 365.805 71.7217 366.064C71.6624 366.32 71.6328 366.687 71.6328 367.165V371H70.4023V363.679ZM79.1387 369.052C79.1387 369.407 79.2686 369.688 79.5283 369.893C79.7881 370.098 80.0957 370.2 80.4512 370.2C80.8841 370.2 81.3034 370.1 81.709 369.899C82.3926 369.567 82.7344 369.022 82.7344 368.266V367.274C82.584 367.37 82.3903 367.45 82.1533 367.514C81.9163 367.577 81.6839 367.623 81.4561 367.65L80.7109 367.746C80.2643 367.805 79.9294 367.899 79.7061 368.026C79.3278 368.241 79.1387 368.582 79.1387 369.052ZM82.1191 366.563C82.4017 366.527 82.5908 366.409 82.6865 366.208C82.7412 366.099 82.7686 365.941 82.7686 365.736C82.7686 365.317 82.6182 365.014 82.3174 364.827C82.0212 364.636 81.5951 364.54 81.0391 364.54C80.3965 364.54 79.9408 364.713 79.6719 365.06C79.5215 365.251 79.4235 365.536 79.3779 365.914H78.2295C78.2523 365.012 78.5439 364.385 79.1045 364.034C79.6696 363.679 80.3236 363.501 81.0664 363.501C81.9277 363.501 82.6273 363.665 83.165 363.993C83.6982 364.321 83.9648 364.832 83.9648 365.524V369.742C83.9648 369.87 83.9899 369.972 84.04 370.05C84.0947 370.127 84.2064 370.166 84.375 370.166C84.4297 370.166 84.4912 370.164 84.5596 370.159C84.6279 370.15 84.7008 370.139 84.7783 370.125V371.034C84.5869 371.089 84.4411 371.123 84.3408 371.137C84.2406 371.15 84.1038 371.157 83.9307 371.157C83.5068 371.157 83.1992 371.007 83.0078 370.706C82.9076 370.547 82.8369 370.321 82.7959 370.029C82.5452 370.357 82.1852 370.642 81.7158 370.884C81.2464 371.125 80.7292 371.246 80.1641 371.246C79.485 371.246 78.929 371.041 78.4961 370.631C78.0677 370.216 77.8535 369.699 77.8535 369.079C77.8535 368.4 78.0654 367.874 78.4893 367.5C78.9131 367.126 79.4691 366.896 80.1572 366.81L82.1191 366.563ZM85.9609 360.958H87.1436V366.789L90.3018 363.679H91.874L89.0713 366.42L92.0312 371H90.459L88.1758 367.309L87.1436 368.252V371H85.9609V360.958ZM96.0371 363.515C96.5566 363.515 97.0602 363.638 97.5479 363.884C98.0355 364.125 98.4069 364.44 98.6621 364.827C98.9082 365.196 99.0723 365.627 99.1543 366.119C99.2272 366.456 99.2637 366.994 99.2637 367.732H93.8975C93.9202 368.475 94.0957 369.072 94.4238 369.523C94.752 369.97 95.2601 370.193 95.9482 370.193C96.5908 370.193 97.1035 369.981 97.4863 369.558C97.7051 369.312 97.86 369.027 97.9512 368.703H99.1611C99.1292 368.972 99.0221 369.273 98.8398 369.605C98.6621 369.934 98.4616 370.202 98.2383 370.412C97.8646 370.777 97.402 371.023 96.8506 371.15C96.5544 371.223 96.2194 371.26 95.8457 371.26C94.9342 371.26 94.1618 370.929 93.5283 370.269C92.8949 369.603 92.5781 368.674 92.5781 367.479C92.5781 366.304 92.8971 365.349 93.5352 364.615C94.1732 363.882 95.0072 363.515 96.0371 363.515ZM97.999 366.755C97.9489 366.222 97.8327 365.796 97.6504 365.477C97.3132 364.884 96.7503 364.588 95.9619 364.588C95.3968 364.588 94.9229 364.793 94.54 365.203C94.1572 365.609 93.9544 366.126 93.9316 366.755H97.999ZM100.815 363.679H101.984V364.943C102.08 364.697 102.315 364.399 102.688 364.048C103.062 363.692 103.493 363.515 103.98 363.515C104.003 363.515 104.042 363.517 104.097 363.521C104.151 363.526 104.245 363.535 104.377 363.549V364.848C104.304 364.834 104.236 364.825 104.172 364.82C104.113 364.816 104.047 364.813 103.974 364.813C103.354 364.813 102.878 365.014 102.545 365.415C102.212 365.812 102.046 366.27 102.046 366.789V371H100.815V363.679Z" fill="#43BEFF"/>
<g opacity="0.5" filter="url(#filter3_d)">
<circle cx="47.5" cy="443.5" r="21.5" fill="url(#paint3_linear)"/>
<circle cx="47.5" cy="443.5" r="21" stroke="#004F99"/>
</g>
<path d="M32.2559 438.958H33.6299V443.107H38.8525V438.958H40.2266V449H38.8525V444.304H33.6299V449H32.2559V438.958ZM45.2236 441.515C45.7432 441.515 46.2467 441.638 46.7344 441.884C47.222 442.125 47.5934 442.44 47.8486 442.827C48.0947 443.196 48.2588 443.627 48.3408 444.119C48.4137 444.456 48.4502 444.994 48.4502 445.732H43.084C43.1068 446.475 43.2822 447.072 43.6104 447.523C43.9385 447.97 44.4466 448.193 45.1348 448.193C45.7773 448.193 46.29 447.981 46.6729 447.558C46.8916 447.312 47.0465 447.027 47.1377 446.703H48.3477C48.3158 446.972 48.2087 447.273 48.0264 447.605C47.8486 447.934 47.6481 448.202 47.4248 448.412C47.0511 448.777 46.5885 449.023 46.0371 449.15C45.7409 449.223 45.4059 449.26 45.0322 449.26C44.1208 449.26 43.3483 448.929 42.7148 448.269C42.0814 447.603 41.7646 446.674 41.7646 445.479C41.7646 444.304 42.0837 443.349 42.7217 442.615C43.3597 441.882 44.1937 441.515 45.2236 441.515ZM47.1855 444.755C47.1354 444.222 47.0192 443.796 46.8369 443.477C46.4997 442.884 45.9368 442.588 45.1484 442.588C44.5833 442.588 44.1094 442.793 43.7266 443.203C43.3438 443.609 43.141 444.126 43.1182 444.755H47.1855ZM50.002 438.958H51.2324V449H50.002V438.958ZM53.085 441.679H54.3018V442.718C54.5934 442.358 54.8577 442.096 55.0947 441.932C55.5003 441.654 55.9606 441.515 56.4756 441.515C57.0589 441.515 57.5283 441.658 57.8838 441.945C58.0843 442.109 58.2666 442.351 58.4307 442.67C58.7041 442.278 59.0254 441.989 59.3945 441.802C59.7637 441.61 60.1784 441.515 60.6387 441.515C61.623 441.515 62.293 441.87 62.6484 442.581C62.8398 442.964 62.9355 443.479 62.9355 444.126V449H61.6572V443.914C61.6572 443.426 61.5342 443.091 61.2881 442.909C61.0465 442.727 60.7503 442.636 60.3994 442.636C59.9163 442.636 59.4993 442.798 59.1484 443.121C58.8021 443.445 58.6289 443.985 58.6289 444.741V449H57.3779V444.222C57.3779 443.725 57.3187 443.363 57.2002 443.135C57.0133 442.793 56.6647 442.622 56.1543 442.622C55.6895 442.622 55.2656 442.802 54.8828 443.162C54.5046 443.522 54.3154 444.174 54.3154 445.117V449H53.085V441.679Z" fill="#43BEFF"/>
<g opacity="0.5" filter="url(#filter4_d)">
<circle cx="83.5" cy="176.5" r="27.5" fill="url(#paint4_linear)"/>
<circle cx="83.5" cy="176.5" r="27" stroke="#004F99"/>
</g>
<path d="M58.3223 180.838C58.7826 180.838 59.1608 180.79 59.457 180.694C59.9857 180.517 60.4186 180.175 60.7559 179.669C61.0247 179.263 61.2184 178.744 61.3369 178.11C61.4053 177.732 61.4395 177.381 61.4395 177.058C61.4395 175.813 61.1911 174.847 60.6943 174.159C60.2021 173.471 59.4069 173.127 58.3086 173.127H55.8955V180.838H58.3223ZM54.5283 171.958H58.5957C59.9766 171.958 61.0475 172.448 61.8086 173.428C62.4876 174.312 62.8271 175.444 62.8271 176.825C62.8271 177.892 62.6266 178.855 62.2256 179.717C61.5192 181.239 60.3047 182 58.582 182H54.5283V171.958ZM65.3633 180.052C65.3633 180.407 65.4932 180.688 65.7529 180.893C66.0127 181.098 66.3203 181.2 66.6758 181.2C67.1087 181.2 67.528 181.1 67.9336 180.899C68.6172 180.567 68.959 180.022 68.959 179.266V178.274C68.8086 178.37 68.6149 178.45 68.3779 178.514C68.141 178.577 67.9085 178.623 67.6807 178.65L66.9355 178.746C66.4889 178.805 66.154 178.899 65.9307 179.026C65.5524 179.241 65.3633 179.582 65.3633 180.052ZM68.3438 177.563C68.6263 177.527 68.8154 177.409 68.9111 177.208C68.9658 177.099 68.9932 176.941 68.9932 176.736C68.9932 176.317 68.8428 176.014 68.542 175.827C68.2458 175.636 67.8197 175.54 67.2637 175.54C66.6211 175.54 66.1654 175.713 65.8965 176.06C65.7461 176.251 65.6481 176.536 65.6025 176.914H64.4541C64.4769 176.012 64.7686 175.385 65.3291 175.034C65.8942 174.679 66.5482 174.501 67.291 174.501C68.1523 174.501 68.8519 174.665 69.3896 174.993C69.9229 175.321 70.1895 175.832 70.1895 176.524V180.742C70.1895 180.87 70.2145 180.972 70.2646 181.05C70.3193 181.127 70.431 181.166 70.5996 181.166C70.6543 181.166 70.7158 181.164 70.7842 181.159C70.8525 181.15 70.9255 181.139 71.0029 181.125V182.034C70.8115 182.089 70.6657 182.123 70.5654 182.137C70.4652 182.15 70.3285 182.157 70.1553 182.157C69.7314 182.157 69.4238 182.007 69.2324 181.706C69.1322 181.547 69.0615 181.321 69.0205 181.029C68.7699 181.357 68.4098 181.642 67.9404 181.884C67.471 182.125 66.9538 182.246 66.3887 182.246C65.7096 182.246 65.1536 182.041 64.7207 181.631C64.2923 181.216 64.0781 180.699 64.0781 180.079C64.0781 179.4 64.29 178.874 64.7139 178.5C65.1377 178.126 65.6937 177.896 66.3818 177.81L68.3438 177.563ZM72.459 172.635H73.7031V174.679H74.8721V175.684H73.7031V180.462C73.7031 180.717 73.7897 180.888 73.9629 180.975C74.0586 181.025 74.2181 181.05 74.4414 181.05C74.5007 181.05 74.5645 181.05 74.6328 181.05C74.7012 181.045 74.7809 181.038 74.8721 181.029V182C74.7308 182.041 74.5827 182.071 74.4277 182.089C74.2773 182.107 74.1133 182.116 73.9355 182.116C73.3613 182.116 72.9717 181.97 72.7666 181.679C72.5615 181.382 72.459 181 72.459 180.53V175.684H71.4678V174.679H72.459V172.635ZM77.0527 180.052C77.0527 180.407 77.1826 180.688 77.4424 180.893C77.7021 181.098 78.0098 181.2 78.3652 181.2C78.7982 181.2 79.2174 181.1 79.623 180.899C80.3066 180.567 80.6484 180.022 80.6484 179.266V178.274C80.498 178.37 80.3044 178.45 80.0674 178.514C79.8304 178.577 79.598 178.623 79.3701 178.65L78.625 178.746C78.1784 178.805 77.8434 178.899 77.6201 179.026C77.2419 179.241 77.0527 179.582 77.0527 180.052ZM80.0332 177.563C80.3158 177.527 80.5049 177.409 80.6006 177.208C80.6553 177.099 80.6826 176.941 80.6826 176.736C80.6826 176.317 80.5322 176.014 80.2314 175.827C79.9352 175.636 79.5091 175.54 78.9531 175.54C78.3105 175.54 77.8548 175.713 77.5859 176.06C77.4355 176.251 77.3376 176.536 77.292 176.914H76.1436C76.1663 176.012 76.458 175.385 77.0186 175.034C77.5837 174.679 78.2376 174.501 78.9805 174.501C79.8418 174.501 80.5413 174.665 81.0791 174.993C81.6123 175.321 81.8789 175.832 81.8789 176.524V180.742C81.8789 180.87 81.904 180.972 81.9541 181.05C82.0088 181.127 82.1204 181.166 82.2891 181.166C82.3438 181.166 82.4053 181.164 82.4736 181.159C82.542 181.15 82.6149 181.139 82.6924 181.125V182.034C82.501 182.089 82.3551 182.123 82.2549 182.137C82.1546 182.15 82.0179 182.157 81.8447 182.157C81.4209 182.157 81.1133 182.007 80.9219 181.706C80.8216 181.547 80.751 181.321 80.71 181.029C80.4593 181.357 80.0993 181.642 79.6299 181.884C79.1605 182.125 78.6432 182.246 78.0781 182.246C77.3991 182.246 76.8431 182.041 76.4102 181.631C75.9818 181.216 75.7676 180.699 75.7676 180.079C75.7676 179.4 75.9795 178.874 76.4033 178.5C76.8271 178.126 77.3831 177.896 78.0713 177.81L80.0332 177.563ZM91.8184 180.838C92.2786 180.838 92.6569 180.79 92.9531 180.694C93.4818 180.517 93.9147 180.175 94.252 179.669C94.5208 179.263 94.7145 178.744 94.833 178.11C94.9014 177.732 94.9355 177.381 94.9355 177.058C94.9355 175.813 94.6872 174.847 94.1904 174.159C93.6982 173.471 92.903 173.127 91.8047 173.127H89.3916V180.838H91.8184ZM88.0244 171.958H92.0918C93.4727 171.958 94.5436 172.448 95.3047 173.428C95.9837 174.312 96.3232 175.444 96.3232 176.825C96.3232 177.892 96.1227 178.855 95.7217 179.717C95.0153 181.239 93.8008 182 92.0781 182H88.0244V171.958ZM100.821 181.207C101.637 181.207 102.195 180.899 102.496 180.284C102.801 179.664 102.954 178.976 102.954 178.22C102.954 177.536 102.845 176.98 102.626 176.552C102.28 175.877 101.683 175.54 100.835 175.54C100.083 175.54 99.5361 175.827 99.1943 176.401C98.8525 176.976 98.6816 177.668 98.6816 178.479C98.6816 179.259 98.8525 179.908 99.1943 180.428C99.5361 180.947 100.078 181.207 100.821 181.207ZM100.869 174.467C101.812 174.467 102.61 174.781 103.262 175.41C103.913 176.039 104.239 176.964 104.239 178.186C104.239 179.366 103.952 180.341 103.378 181.111C102.804 181.882 101.913 182.267 100.705 182.267C99.6979 182.267 98.8981 181.927 98.3057 181.248C97.7132 180.564 97.417 179.648 97.417 178.5C97.417 177.27 97.7292 176.29 98.3535 175.561C98.9779 174.831 99.8164 174.467 100.869 174.467ZM108.293 174.549C108.867 174.549 109.368 174.69 109.797 174.973C110.029 175.132 110.266 175.365 110.508 175.67V174.747H111.643V181.405C111.643 182.335 111.506 183.069 111.232 183.606C110.722 184.6 109.758 185.097 108.341 185.097C107.552 185.097 106.889 184.919 106.352 184.563C105.814 184.213 105.513 183.661 105.449 182.909H106.7C106.759 183.237 106.878 183.49 107.056 183.668C107.334 183.941 107.771 184.078 108.368 184.078C109.312 184.078 109.929 183.745 110.221 183.08C110.394 182.688 110.474 181.989 110.46 180.981C110.214 181.355 109.918 181.633 109.571 181.815C109.225 181.998 108.767 182.089 108.197 182.089C107.404 182.089 106.709 181.809 106.112 181.248C105.52 180.683 105.224 179.751 105.224 178.452C105.224 177.226 105.522 176.269 106.119 175.581C106.721 174.893 107.445 174.549 108.293 174.549ZM110.508 178.309C110.508 177.402 110.321 176.729 109.947 176.292C109.574 175.854 109.097 175.636 108.519 175.636C107.653 175.636 107.06 176.041 106.741 176.853C106.573 177.285 106.488 177.853 106.488 178.555C106.488 179.38 106.655 180.008 106.987 180.441C107.325 180.87 107.776 181.084 108.341 181.084C109.225 181.084 109.847 180.685 110.207 179.888C110.408 179.437 110.508 178.91 110.508 178.309Z" fill="#43BEFF"/>
<g opacity="0.5" filter="url(#filter5_d)">
<circle cx="82" cy="247" r="18" fill="url(#paint5_linear)"/>
<circle cx="82" cy="247" r="17.5" stroke="#004F99"/>
</g>
<path d="M76.9706 249.006C76.9706 249.854 76.85 250.512 76.609 250.981C76.162 251.838 75.3119 252.267 74.0585 252.267C73.3354 252.267 72.7175 252.064 72.2048 251.658C71.6921 251.248 71.4357 250.521 71.4357 249.478V248.76H72.665V249.478C72.665 250.024 72.7811 250.437 73.0134 250.715C73.25 250.988 73.6159 251.125 74.1111 251.125C74.8079 251.125 75.2637 250.877 75.4784 250.38C75.6099 250.075 75.6756 249.498 75.6756 248.65V241.958H76.9706V249.006ZM78.8045 244.713H80.0075V252H78.8045V244.713ZM78.8045 241.958H80.0075V243.353H78.8045V241.958ZM81.8349 244.679H82.959V245.943C83.051 245.697 83.2767 245.399 83.636 245.048C83.9954 244.692 84.4095 244.515 84.8784 244.515C84.9003 244.515 84.9376 244.517 84.9902 244.521C85.0427 244.526 85.1326 244.535 85.2597 244.549V245.848C85.1895 245.834 85.1238 245.825 85.0625 245.82C85.0055 245.816 84.9419 245.813 84.8718 245.813C84.2758 245.813 83.8179 246.014 83.498 246.415C83.1781 246.812 83.0181 247.27 83.0181 247.789V252H81.8349V244.679ZM87.1923 250.052C87.1923 250.407 87.3172 250.688 87.5669 250.893C87.8167 251.098 88.1125 251.2 88.4544 251.2C88.8707 251.2 89.2738 251.1 89.6639 250.899C90.3212 250.567 90.6499 250.022 90.6499 249.266V248.274C90.5053 248.37 90.319 248.45 90.0911 248.514C89.8633 248.577 89.6398 248.623 89.4207 248.65L88.7041 248.746C88.2747 248.805 87.9526 248.899 87.7379 249.026C87.3741 249.241 87.1923 249.582 87.1923 250.052ZM90.0583 247.563C90.33 247.527 90.5118 247.409 90.6039 247.208C90.6565 247.099 90.6828 246.941 90.6828 246.736C90.6828 246.317 90.5381 246.014 90.2489 245.827C89.9641 245.636 89.5543 245.54 89.0197 245.54C88.4018 245.54 87.9635 245.713 87.705 246.06C87.5604 246.251 87.4661 246.536 87.4223 246.914H86.318C86.3399 246.012 86.6204 245.385 87.1594 245.034C87.7028 244.679 88.3317 244.501 89.046 244.501C89.8742 244.501 90.5469 244.665 91.064 244.993C91.5767 245.321 91.8331 245.832 91.8331 246.524V250.742C91.8331 250.87 91.8572 250.972 91.9054 251.05C91.958 251.127 92.0654 251.166 92.2275 251.166C92.2801 251.166 92.3393 251.164 92.405 251.159C92.4707 251.15 92.5408 251.139 92.6153 251.125V252.034C92.4313 252.089 92.2911 252.123 92.1946 252.137C92.0982 252.15 91.9668 252.157 91.8002 252.157C91.3927 252.157 91.0969 252.007 90.9128 251.706C90.8164 251.547 90.7485 251.321 90.709 251.029C90.468 251.357 90.1218 251.642 89.6704 251.884C89.2191 252.125 88.7217 252.246 88.1783 252.246C87.5253 252.246 86.9907 252.041 86.5744 251.631C86.1624 251.216 85.9564 250.699 85.9564 250.079C85.9564 249.4 86.1602 248.874 86.5678 248.5C86.9753 248.126 87.51 247.896 88.1717 247.81L90.0583 247.563Z" fill="#43BEFF"/>
<path opacity="0.7" d="M22.9762 4.44V10.952C22.9762 12.3493 22.6082 13.4 21.8722 14.104C21.1362 14.808 20.0642 15.16 18.6562 15.16C17.2695 15.16 16.2029 14.808 15.4562 14.104C14.7202 13.4 14.3522 12.3493 14.3522 10.952V4.44H16.0642V10.744C16.0642 11.7467 16.2722 12.488 16.6882 12.968C17.1149 13.4373 17.7709 13.672 18.6562 13.672C19.5522 13.672 20.2082 13.4373 20.6242 12.968C21.0509 12.488 21.2642 11.7467 21.2642 10.744V4.44H22.9762ZM25.6014 18.36V7H27.1214L27.2014 8.504C27.4361 8.00267 27.7934 7.60267 28.2734 7.304C28.7534 6.99467 29.3081 6.84 29.9374 6.84C30.5881 6.84 31.1748 7.00533 31.6974 7.336C32.2308 7.66667 32.6521 8.14133 32.9614 8.76C33.2814 9.37867 33.4414 10.12 33.4414 10.984C33.4414 11.8587 33.2814 12.6107 32.9614 13.24C32.6414 13.8587 32.2094 14.3333 31.6654 14.664C31.1321 14.9947 30.5401 15.16 29.8894 15.16C29.2921 15.16 28.7748 15.0267 28.3374 14.76C27.9001 14.4827 27.5588 14.1253 27.3134 13.688V18.36H25.6014ZM29.5214 13.768C30.2041 13.768 30.7428 13.5227 31.1374 13.032C31.5321 12.5413 31.7294 11.864 31.7294 11C31.7294 10.136 31.5374 9.45867 31.1534 8.968C30.7694 8.46667 30.2361 8.216 29.5534 8.216C28.8814 8.216 28.3374 8.46667 27.9214 8.968C27.5161 9.46933 27.3134 10.1467 27.3134 11C27.3134 11.8427 27.5108 12.5147 27.9054 13.016C28.3108 13.5173 28.8494 13.768 29.5214 13.768ZM39.0887 6.84C40.038 6.84 40.7954 7.048 41.3607 7.464C41.926 7.88 42.3314 8.41867 42.5767 9.08L40.9607 9.72C40.822 9.22933 40.598 8.856 40.2887 8.6C39.99 8.33333 39.5954 8.2 39.1047 8.2C38.39 8.2 37.83 8.44533 37.4247 8.936C37.03 9.416 36.8327 10.1093 36.8327 11.016C36.8327 11.912 37.0354 12.6 37.4407 13.08C37.846 13.56 38.4007 13.8 39.1047 13.8C39.6594 13.8 40.0967 13.6667 40.4167 13.4C40.7474 13.1333 40.966 12.7493 41.0727 12.248L42.6247 12.776C42.4007 13.5013 41.99 14.0827 41.3927 14.52C40.7954 14.9467 40.0434 15.16 39.1367 15.16C38.3474 15.16 37.6487 14.9947 37.0407 14.664C36.4434 14.3333 35.974 13.8587 35.6327 13.24C35.2914 12.6107 35.1207 11.864 35.1207 11C35.1207 10.136 35.2914 9.39467 35.6327 8.776C35.974 8.14667 36.4434 7.66667 37.0407 7.336C37.638 7.00533 38.3207 6.84 39.0887 6.84ZM48.0891 6.84C48.8677 6.84 49.5557 7.00533 50.1531 7.336C50.7504 7.66667 51.2144 8.14667 51.5451 8.776C51.8864 9.39467 52.0571 10.136 52.0571 11C52.0571 11.864 51.8864 12.6107 51.5451 13.24C51.2144 13.8587 50.7504 14.3333 50.1531 14.664C49.5557 14.9947 48.8677 15.16 48.0891 15.16C47.3104 15.16 46.6224 14.9947 46.0251 14.664C45.4277 14.3333 44.9584 13.8587 44.6171 13.24C44.2757 12.6107 44.1051 11.864 44.1051 11C44.1051 10.136 44.2757 9.39467 44.6171 8.776C44.9584 8.14667 45.4277 7.66667 46.0251 7.336C46.6224 7.00533 47.3104 6.84 48.0891 6.84ZM48.0891 8.184C47.3851 8.184 46.8304 8.42933 46.4251 8.92C46.0197 9.4 45.8171 10.0933 45.8171 11C45.8171 11.9067 46.0197 12.6053 46.4251 13.096C46.8304 13.576 47.3851 13.816 48.0891 13.816C48.7931 13.816 49.3424 13.576 49.7371 13.096C50.1424 12.6053 50.3451 11.9067 50.3451 11C50.3451 10.0933 50.1424 9.4 49.7371 8.92C49.3424 8.42933 48.7931 8.184 48.0891 8.184ZM54.2108 15V7H55.7308L55.8108 8.344C56.0881 7.832 56.4561 7.45333 56.9148 7.208C57.3841 6.96267 57.8801 6.84 58.4028 6.84C58.9788 6.84 59.5068 6.97333 59.9868 7.24C60.4775 7.496 60.8455 7.88533 61.0908 8.408C61.2615 8.056 61.4961 7.76267 61.7948 7.528C62.0935 7.29333 62.4241 7.12267 62.7868 7.016C63.1495 6.89867 63.5068 6.84 63.8588 6.84C64.3708 6.84 64.8508 6.94667 65.2988 7.16C65.7468 7.37333 66.1095 7.69867 66.3868 8.136C66.6641 8.57333 66.8028 9.13333 66.8028 9.816V15H65.0908V10.088C65.0908 9.42667 64.9308 8.95733 64.6108 8.68C64.3015 8.392 63.9121 8.248 63.4428 8.248C62.8881 8.248 62.4028 8.456 61.9868 8.872C61.5708 9.27733 61.3628 9.86933 61.3628 10.648V15H59.6508V10.088C59.6508 9.42667 59.4908 8.95733 59.1708 8.68C58.8615 8.392 58.4721 8.248 58.0028 8.248C57.6828 8.248 57.3628 8.33333 57.0428 8.504C56.7228 8.67467 56.4561 8.94133 56.2428 9.304C56.0295 9.66667 55.9228 10.1467 55.9228 10.744V15H54.2108ZM70.2623 5.656C69.889 5.656 69.601 5.56533 69.3983 5.384C69.2063 5.192 69.1103 4.92533 69.1103 4.584C69.1103 4.24267 69.2063 3.98133 69.3983 3.8C69.601 3.61867 69.889 3.528 70.2623 3.528C70.625 3.528 70.9023 3.61867 71.0943 3.8C71.297 3.98133 71.3983 4.24267 71.3983 4.584C71.3983 4.92533 71.297 5.192 71.0943 5.384C70.9023 5.56533 70.625 5.656 70.2623 5.656ZM71.1103 7V15H69.3983V7H71.1103ZM73.7889 15V7H75.3089L75.3889 8.376C75.6556 7.84267 76.0236 7.45333 76.4929 7.208C76.9729 6.96267 77.5063 6.84 78.0929 6.84C78.6583 6.84 79.1649 6.952 79.6129 7.176C80.0716 7.38933 80.4343 7.72 80.7009 8.168C80.9676 8.60533 81.1009 9.15467 81.1009 9.816V15H79.3889V10.344C79.3889 9.55467 79.2236 9.01067 78.8929 8.712C78.5729 8.40267 78.1676 8.248 77.6769 8.248C77.3249 8.248 76.9836 8.328 76.6529 8.488C76.3223 8.648 76.0449 8.91467 75.8209 9.288C75.6076 9.65067 75.5009 10.136 75.5009 10.744V15H73.7889ZM88.2072 13.752C89.0179 13.752 89.6472 13.9333 90.0952 14.296C90.5432 14.648 90.7672 15.1387 90.7672 15.768C90.7672 16.3333 90.5912 16.8133 90.2392 17.208C89.8872 17.6133 89.4072 17.9173 88.7992 18.12C88.1912 18.3333 87.5032 18.44 86.7352 18.44C85.4125 18.44 84.4365 18.2373 83.8072 17.832C83.1885 17.4267 82.8792 16.92 82.8792 16.312C82.8792 15.9493 82.9859 15.624 83.1992 15.336C83.4125 15.048 83.7645 14.8507 84.2552 14.744C83.9565 14.616 83.7219 14.44 83.5512 14.216C83.3805 13.9813 83.2952 13.6827 83.2952 13.32C83.2952 12.968 83.3965 12.6587 83.5992 12.392C83.8019 12.1147 84.1005 11.9067 84.4952 11.768C83.6525 11.288 83.2312 10.5467 83.2312 9.544C83.2312 8.73333 83.5459 8.08267 84.1752 7.592C84.8045 7.09067 85.6365 6.84 86.6712 6.84C87.3432 6.84 87.9352 6.94667 88.4472 7.16C88.5325 6.62667 88.7672 6.18933 89.1512 5.848C89.5352 5.496 90.0205 5.32 90.6072 5.32C90.6605 5.32 90.7032 5.32 90.7352 5.32L91.0072 6.664C90.9539 6.65333 90.8899 6.648 90.8152 6.648C89.8979 6.648 89.3859 6.984 89.2792 7.656C89.8445 8.14667 90.1272 8.776 90.1272 9.544C90.1272 10.3653 89.8125 11.0213 89.1832 11.512C88.5539 12.0027 87.7165 12.248 86.6712 12.248C86.2339 12.248 85.8339 12.2107 85.4712 12.136C85.1832 12.2107 84.9752 12.328 84.8472 12.488C84.7299 12.6373 84.6712 12.7973 84.6712 12.968C84.6712 13.4907 85.0499 13.752 85.8072 13.752H88.2072ZM86.6712 8.04C86.1805 8.04 85.7699 8.17867 85.4392 8.456C85.1192 8.72267 84.9592 9.08533 84.9592 9.544C84.9592 10.0027 85.1192 10.3707 85.4392 10.648C85.7699 10.9253 86.1805 11.064 86.6712 11.064C87.1725 11.064 87.5832 10.9253 87.9032 10.648C88.2339 10.3707 88.3992 10.0027 88.3992 9.544C88.3992 9.08533 88.2339 8.72267 87.9032 8.456C87.5832 8.17867 87.1725 8.04 86.6712 8.04ZM86.7352 17.16C87.6099 17.16 88.2552 17.0427 88.6712 16.808C89.0979 16.5733 89.3112 16.296 89.3112 15.976C89.3112 15.7307 89.2099 15.5333 89.0072 15.384C88.8152 15.2347 88.4632 15.16 87.9512 15.16H85.3752C85.0659 15.16 84.8099 15.24 84.6072 15.4C84.4152 15.56 84.3192 15.768 84.3192 16.024C84.3192 16.376 84.5325 16.6533 84.9592 16.856C85.3859 17.0587 85.9779 17.16 86.7352 17.16ZM12.6784 23.44V34H10.9664V23.44H12.6784ZM15.5077 34V26H17.0277L17.1077 27.376C17.3744 26.8427 17.7424 26.4533 18.2117 26.208C18.6917 25.9627 19.225 25.84 19.8117 25.84C20.377 25.84 20.8837 25.952 21.3317 26.176C21.7904 26.3893 22.153 26.72 22.4197 27.168C22.6864 27.6053 22.8197 28.1547 22.8197 28.816V34H21.1077V29.344C21.1077 28.5547 20.9424 28.0107 20.6117 27.712C20.2917 27.4027 19.8864 27.248 19.3957 27.248C19.0437 27.248 18.7024 27.328 18.3717 27.488C18.041 27.648 17.7637 27.9147 17.5397 28.288C17.3264 28.6507 17.2197 29.136 17.2197 29.744V34H15.5077ZM30.4082 26V27.344H27.6562V31.6C27.6562 31.984 27.7629 32.272 27.9762 32.464C28.1895 32.6453 28.4669 32.736 28.8082 32.736C29.1069 32.736 29.3575 32.6933 29.5602 32.608C29.7735 32.512 29.9709 32.384 30.1522 32.224L30.5362 33.472C30.2909 33.6853 29.9869 33.856 29.6242 33.984C29.2722 34.1013 28.8775 34.16 28.4402 34.16C27.7362 34.16 27.1442 33.9893 26.6642 33.648C26.1842 33.296 25.9442 32.7093 25.9442 31.888V27.344H24.4082V26H25.9442V24.128L27.6562 23.648V26H30.4082ZM35.6214 34.16C34.8214 34.16 34.1174 33.9947 33.5094 33.664C32.9121 33.3333 32.4428 32.8587 32.1014 32.24C31.7601 31.6107 31.5894 30.864 31.5894 30C31.5894 29.136 31.7548 28.3947 32.0854 27.776C32.4268 27.1467 32.8908 26.6667 33.4774 26.336C34.0748 26.0053 34.7574 25.84 35.5254 25.84C36.3041 25.84 36.9654 26 37.5094 26.32C38.0534 26.64 38.4694 27.0773 38.7574 27.632C39.0454 28.1867 39.1894 28.816 39.1894 29.52C39.1894 29.7227 39.1841 29.9093 39.1734 30.08C39.1628 30.2507 39.1468 30.3947 39.1254 30.512H33.2694C33.3441 31.2587 33.5841 31.8293 33.9894 32.224C34.4054 32.608 34.9388 32.8 35.5894 32.8C36.1228 32.8 36.5548 32.6987 36.8854 32.496C37.2161 32.2933 37.4774 32.0107 37.6694 31.648L39.0294 32.288C38.7521 32.8747 38.3094 33.3333 37.7014 33.664C37.1041 33.9947 36.4108 34.16 35.6214 34.16ZM35.4934 27.2C34.9068 27.2 34.4214 27.3707 34.0374 27.712C33.6641 28.0533 33.4241 28.5493 33.3174 29.2H37.5254C37.4828 28.56 37.2801 28.0693 36.9174 27.728C36.5548 27.376 36.0801 27.2 35.4934 27.2ZM45.8634 32.752C46.6741 32.752 47.3034 32.9333 47.7514 33.296C48.1994 33.648 48.4234 34.1387 48.4234 34.768C48.4234 35.3333 48.2474 35.8133 47.8954 36.208C47.5434 36.6133 47.0634 36.9173 46.4554 37.12C45.8474 37.3333 45.1594 37.44 44.3914 37.44C43.0688 37.44 42.0928 37.2373 41.4634 36.832C40.8448 36.4267 40.5354 35.92 40.5354 35.312C40.5354 34.9493 40.6421 34.624 40.8554 34.336C41.0688 34.048 41.4208 33.8507 41.9114 33.744C41.6128 33.616 41.3781 33.44 41.2074 33.216C41.0368 32.9813 40.9514 32.6827 40.9514 32.32C40.9514 31.968 41.0528 31.6587 41.2554 31.392C41.4581 31.1147 41.7568 30.9067 42.1514 30.768C41.3088 30.288 40.8874 29.5467 40.8874 28.544C40.8874 27.7333 41.2021 27.0827 41.8314 26.592C42.4608 26.0907 43.2928 25.84 44.3274 25.84C44.9994 25.84 45.5914 25.9467 46.1034 26.16C46.1888 25.6267 46.4234 25.1893 46.8074 24.848C47.1914 24.496 47.6768 24.32 48.2634 24.32C48.3168 24.32 48.3594 24.32 48.3914 24.32L48.6634 25.664C48.6101 25.6533 48.5461 25.648 48.4714 25.648C47.5541 25.648 47.0421 25.984 46.9354 26.656C47.5008 27.1467 47.7834 27.776 47.7834 28.544C47.7834 29.3653 47.4688 30.0213 46.8394 30.512C46.2101 31.0027 45.3728 31.248 44.3274 31.248C43.8901 31.248 43.4901 31.2107 43.1274 31.136C42.8394 31.2107 42.6314 31.328 42.5034 31.488C42.3861 31.6373 42.3274 31.7973 42.3274 31.968C42.3274 32.4907 42.7061 32.752 43.4634 32.752H45.8634ZM44.3274 27.04C43.8368 27.04 43.4261 27.1787 43.0954 27.456C42.7754 27.7227 42.6154 28.0853 42.6154 28.544C42.6154 29.0027 42.7754 29.3707 43.0954 29.648C43.4261 29.9253 43.8368 30.064 44.3274 30.064C44.8288 30.064 45.2394 29.9253 45.5594 29.648C45.8901 29.3707 46.0554 29.0027 46.0554 28.544C46.0554 28.0853 45.8901 27.7227 45.5594 27.456C45.2394 27.1787 44.8288 27.04 44.3274 27.04ZM44.3914 36.16C45.2661 36.16 45.9114 36.0427 46.3274 35.808C46.7541 35.5733 46.9674 35.296 46.9674 34.976C46.9674 34.7307 46.8661 34.5333 46.6634 34.384C46.4714 34.2347 46.1194 34.16 45.6074 34.16H43.0314C42.7221 34.16 42.4661 34.24 42.2634 34.4C42.0714 34.56 41.9754 34.768 41.9754 35.024C41.9754 35.376 42.1888 35.6533 42.6154 35.856C43.0421 36.0587 43.6341 36.16 44.3914 36.16ZM49.9921 34V26H51.4481L51.6081 27.44C52.0454 26.3733 52.8827 25.84 54.1201 25.84C54.2801 25.84 54.4401 25.856 54.6001 25.888C54.7601 25.9093 54.8934 25.9467 55.0001 26L54.7601 27.504C54.6427 27.4613 54.5094 27.4293 54.3601 27.408C54.2214 27.376 54.0294 27.36 53.7841 27.36C53.4427 27.36 53.1121 27.4507 52.7921 27.632C52.4827 27.8027 52.2214 28.0693 52.0081 28.432C51.8054 28.784 51.7041 29.2267 51.7041 29.76V34H49.9921ZM61.0692 28.864C61.0692 28.3307 60.9199 27.92 60.6212 27.632C60.3332 27.3333 59.9332 27.184 59.4212 27.184C58.9412 27.184 58.5252 27.296 58.1732 27.52C57.8319 27.744 57.5865 28.1067 57.4372 28.608L55.9972 28C56.1999 27.3493 56.5945 26.8267 57.1812 26.432C57.7785 26.0373 58.5465 25.84 59.4852 25.84C60.1145 25.84 60.6745 25.9467 61.1652 26.16C61.6665 26.3627 62.0559 26.6773 62.3332 27.104C62.6212 27.52 62.7652 28.048 62.7652 28.688V32.256C62.7652 32.6507 62.9625 32.848 63.3572 32.848C63.5492 32.848 63.7359 32.8213 63.9172 32.768L63.8212 33.952C63.5759 34.0693 63.2665 34.128 62.8932 34.128C62.4665 34.128 62.0985 34.032 61.7892 33.84C61.4799 33.648 61.2719 33.36 61.1652 32.976C60.9092 33.3707 60.5412 33.6693 60.0612 33.872C59.5812 34.064 59.1012 34.16 58.6212 34.16C57.8639 34.16 57.2345 33.9787 56.7332 33.616C56.2319 33.2533 55.9812 32.7093 55.9812 31.984C55.9812 31.3973 56.1732 30.912 56.5572 30.528C56.9519 30.144 57.5065 29.8773 58.2212 29.728L61.0692 29.168V28.864ZM57.7092 31.856C57.7092 32.1547 57.8212 32.3947 58.0452 32.576C58.2799 32.7467 58.5892 32.832 58.9732 32.832C59.3359 32.832 59.6772 32.7733 59.9972 32.656C60.3172 32.5387 60.5732 32.3467 60.7652 32.08C60.9679 31.8133 61.0692 31.4667 61.0692 31.04V30.368L59.0532 30.784C58.5945 30.8693 58.2532 30.992 58.0292 31.152C57.8159 31.312 57.7092 31.5467 57.7092 31.856ZM70.3457 26V27.344H67.5937V31.6C67.5937 31.984 67.7004 32.272 67.9137 32.464C68.127 32.6453 68.4044 32.736 68.7457 32.736C69.0444 32.736 69.295 32.6933 69.4977 32.608C69.711 32.512 69.9084 32.384 70.0897 32.224L70.4737 33.472C70.2284 33.6853 69.9244 33.856 69.5617 33.984C69.2097 34.1013 68.815 34.16 68.3777 34.16C67.6737 34.16 67.0817 33.9893 66.6017 33.648C66.1217 33.296 65.8817 32.7093 65.8817 31.888V27.344H64.3457V26H65.8817V24.128L67.5937 23.648V26H70.3457ZM72.9029 24.656C72.5296 24.656 72.2416 24.5653 72.0389 24.384C71.8469 24.192 71.7509 23.9253 71.7509 23.584C71.7509 23.2427 71.8469 22.9813 72.0389 22.8C72.2416 22.6187 72.5296 22.528 72.9029 22.528C73.2656 22.528 73.5429 22.6187 73.7349 22.8C73.9376 22.9813 74.0389 23.2427 74.0389 23.584C74.0389 23.9253 73.9376 24.192 73.7349 24.384C73.5429 24.5653 73.2656 24.656 72.9029 24.656ZM73.7509 26V34H72.0389V26H73.7509ZM79.9016 25.84C80.6802 25.84 81.3682 26.0053 81.9656 26.336C82.5629 26.6667 83.0269 27.1467 83.3576 27.776C83.6989 28.3947 83.8696 29.136 83.8696 30C83.8696 30.864 83.6989 31.6107 83.3576 32.24C83.0269 32.8587 82.5629 33.3333 81.9656 33.664C81.3682 33.9947 80.6802 34.16 79.9016 34.16C79.1229 34.16 78.4349 33.9947 77.8376 33.664C77.2402 33.3333 76.7709 32.8587 76.4296 32.24C76.0882 31.6107 75.9176 30.864 75.9176 30C75.9176 29.136 76.0882 28.3947 76.4296 27.776C76.7709 27.1467 77.2402 26.6667 77.8376 26.336C78.4349 26.0053 79.1229 25.84 79.9016 25.84ZM79.9016 27.184C79.1976 27.184 78.6429 27.4293 78.2376 27.92C77.8322 28.4 77.6296 29.0933 77.6296 30C77.6296 30.9067 77.8322 31.6053 78.2376 32.096C78.6429 32.576 79.1976 32.816 79.9016 32.816C80.6056 32.816 81.1549 32.576 81.5496 32.096C81.9549 31.6053 82.1576 30.9067 82.1576 30C82.1576 29.0933 81.9549 28.4 81.5496 27.92C81.1549 27.4293 80.6056 27.184 79.9016 27.184ZM86.0233 34V26H87.5433L87.6233 27.376C87.89 26.8427 88.258 26.4533 88.7273 26.208C89.2073 25.9627 89.7406 25.84 90.3273 25.84C90.8926 25.84 91.3993 25.952 91.8473 26.176C92.306 26.3893 92.6686 26.72 92.9353 27.168C93.202 27.6053 93.3353 28.1547 93.3353 28.816V34H91.6233V29.344C91.6233 28.5547 91.458 28.0107 91.1273 27.712C90.8073 27.4027 90.402 27.248 89.9113 27.248C89.5593 27.248 89.218 27.328 88.8873 27.488C88.5566 27.648 88.2793 27.9147 88.0553 28.288C87.842 28.6507 87.7353 29.136 87.7353 29.744V34H86.0233Z" fill="#43BEFF"/>
<defs>
<filter id="filter0_d" x="1" y="42" width="103" height="103" filterUnits="userSpaceOnUse" color-interpolation-filters="sRGB">
<feFlood flood-opacity="0" result="BackgroundImageFix"/>
<feColorMatrix in="SourceAlpha" type="matrix" values="0 0 0 0 0 0 0 0 0 0 0 0 0 0 0 0 0 0 127 0"/>
<feMorphology radius="4" operator="dilate" in="SourceAlpha" result="effect1_dropShadow"/>
<feOffset/>
<feGaussianBlur stdDeviation="5"/>
<feColorMatrix type="matrix" values="0 0 0 0 0.0156863 0 0 0 0 0.341176 0 0 0 0 0.607843 0 0 0 0.4 0"/>
<feBlend mode="normal" in2="BackgroundImageFix" result="effect1_dropShadow"/>
<feBlend mode="normal" in="SourceGraphic" in2="effect1_dropShadow" result="shape"/>
</filter>
<filter id="filter1_d" x="0" y="488" width="83" height="83" filterUnits="userSpaceOnUse" color-interpolation-filters="sRGB">
<feFlood flood-opacity="0" result="BackgroundImageFix"/>
<feColorMatrix in="SourceAlpha" type="matrix" values="0 0 0 0 0 0 0 0 0 0 0 0 0 0 0 0 0 0 127 0"/>
<feMorphology radius="4" operator="dilate" in="SourceAlpha" result="effect1_dropShadow"/>
<feOffset/>
<feGaussianBlur stdDeviation="5"/>
<feColorMatrix type="matrix" values="0 0 0 0 0.0156863 0 0 0 0 0.341176 0 0 0 0 0.607843 0 0 0 0.4 0"/>
<feBlend mode="normal" in2="BackgroundImageFix" result="effect1_dropShadow"/>
<feBlend mode="normal" in="SourceGraphic" in2="effect1_dropShadow" result="shape"/>
</filter>
<filter id="filter2_d" x="31" y="324" width="83" height="83" filterUnits="userSpaceOnUse" color-interpolation-filters="sRGB">
<feFlood flood-opacity="0" result="BackgroundImageFix"/>
<feColorMatrix in="SourceAlpha" type="matrix" values="0 0 0 0 0 0 0 0 0 0 0 0 0 0 0 0 0 0 127 0"/>
<feMorphology radius="4" operator="dilate" in="SourceAlpha" result="effect1_dropShadow"/>
<feOffset/>
<feGaussianBlur stdDeviation="5"/>
<feColorMatrix type="matrix" values="0 0 0 0 0.0156863 0 0 0 0 0.341176 0 0 0 0 0.607843 0 0 0 0.4 0"/>
<feBlend mode="normal" in2="BackgroundImageFix" result="effect1_dropShadow"/>
<feBlend mode="normal" in="SourceGraphic" in2="effect1_dropShadow" result="shape"/>
</filter>
<filter id="filter3_d" x="12" y="408" width="71" height="71" filterUnits="userSpaceOnUse" color-interpolation-filters="sRGB">
<feFlood flood-opacity="0" result="BackgroundImageFix"/>
<feColorMatrix in="SourceAlpha" type="matrix" values="0 0 0 0 0 0 0 0 0 0 0 0 0 0 0 0 0 0 127 0"/>
<feMorphology radius="4" operator="dilate" in="SourceAlpha" result="effect1_dropShadow"/>
<feOffset/>
<feGaussianBlur stdDeviation="5"/>
<feColorMatrix type="matrix" values="0 0 0 0 0.0156863 0 0 0 0 0.341176 0 0 0 0 0.607843 0 0 0 0.4 0"/>
<feBlend mode="normal" in2="BackgroundImageFix" result="effect1_dropShadow"/>
<feBlend mode="normal" in="SourceGraphic" in2="effect1_dropShadow" result="shape"/>
</filter>
<filter id="filter4_d" x="42" y="135" width="83" height="83" filterUnits="userSpaceOnUse" color-interpolation-filters="sRGB">
<feFlood flood-opacity="0" result="BackgroundImageFix"/>
<feColorMatrix in="SourceAlpha" type="matrix" values="0 0 0 0 0 0 0 0 0 0 0 0 0 0 0 0 0 0 127 0"/>
<feMorphology radius="4" operator="dilate" in="SourceAlpha" result="effect1_dropShadow"/>
<feOffset/>
<feGaussianBlur stdDeviation="5"/>
<feColorMatrix type="matrix" values="0 0 0 0 0.0156863 0 0 0 0 0.341176 0 0 0 0 0.607843 0 0 0 0.4 0"/>
<feBlend mode="normal" in2="BackgroundImageFix" result="effect1_dropShadow"/>
<feBlend mode="normal" in="SourceGraphic" in2="effect1_dropShadow" result="shape"/>
</filter>
<filter id="filter5_d" x="50" y="215" width="64" height="64" filterUnits="userSpaceOnUse" color-interpolation-filters="sRGB">
<feFlood flood-opacity="0" result="BackgroundImageFix"/>
<feColorMatrix in="SourceAlpha" type="matrix" values="0 0 0 0 0 0 0 0 0 0 0 0 0 0 0 0 0 0 127 0"/>
<feMorphology radius="4" operator="dilate" in="SourceAlpha" result="effect1_dropShadow"/>
<feOffset/>
<feGaussianBlur stdDeviation="5"/>
<feColorMatrix type="matrix" values="0 0 0 0 0.0156863 0 0 0 0 0.341176 0 0 0 0 0.607843 0 0 0 0.4 0"/>
<feBlend mode="normal" in2="BackgroundImageFix" result="effect1_dropShadow"/>
<feBlend mode="normal" in="SourceGraphic" in2="effect1_dropShadow" result="shape"/>
</filter>
<linearGradient id="paint0_linear" x1="32.3077" y1="61.7692" x2="90" y2="136.481" gradientUnits="userSpaceOnUse">
<stop stop-color="#43BEFF" stop-opacity="0.5"/>
<stop offset="1" stop-color="#B9DCFF" stop-opacity="0.2"/>
</linearGradient>
<linearGradient id="paint1_linear" x1="26.6923" y1="506.231" x2="69" y2="561.019" gradientUnits="userSpaceOnUse">
<stop stop-color="#43BEFF" stop-opacity="0.5"/>
<stop offset="1" stop-color="#B9DCFF" stop-opacity="0.2"/>
</linearGradient>
<linearGradient id="paint2_linear" x1="57.6923" y1="342.231" x2="100" y2="397.019" gradientUnits="userSpaceOnUse">
<stop stop-color="#43BEFF" stop-opacity="0.5"/>
<stop offset="1" stop-color="#B9DCFF" stop-opacity="0.2"/>
</linearGradient>
<linearGradient id="paint3_linear" x1="35.9231" y1="425.308" x2="69" y2="468.142" gradientUnits="userSpaceOnUse">
<stop stop-color="#43BEFF" stop-opacity="0.5"/>
<stop offset="1" stop-color="#B9DCFF" stop-opacity="0.2"/>
</linearGradient>
<linearGradient id="paint4_linear" x1="68.6923" y1="153.231" x2="111" y2="208.019" gradientUnits="userSpaceOnUse">
<stop stop-color="#43BEFF" stop-opacity="0.5"/>
<stop offset="1" stop-color="#B9DCFF" stop-opacity="0.2"/>
</linearGradient>
<linearGradient id="paint5_linear" x1="72.3077" y1="231.769" x2="100" y2="267.631" gradientUnits="userSpaceOnUse">
<stop stop-color="#43BEFF" stop-opacity="0.5"/>
<stop offset="1" stop-color="#B9DCFF" stop-opacity="0.2"/>
</linearGradient>
</defs>
</svg>
