<svg width="20" height="20" viewBox="0 0 20 20" fill="none" xmlns="http://www.w3.org/2000/svg">
<path opacity="0.9" d="M9.99655 0C4.47162 0 0 4.59338 0 10.2528C0 14.7818 2.86714 18.6311 6.83644 19.9833C7.3387 20.0764 7.49912 19.7615 7.49912 19.4897V17.5793C4.71572 18.2018 4.13676 16.3702 4.13676 16.3702C3.68332 15.1825 3.02761 14.8677 3.02761 14.8677C2.12074 14.2309 3.09735 14.2452 3.09735 14.2452C4.10189 14.3167 4.63202 15.3041 4.63202 15.3041C5.52494 16.871 6.96899 16.4203 7.54101 16.1555C7.6317 15.4901 7.88983 15.0394 8.17585 14.7818C5.9575 14.5242 3.62055 13.6442 3.62055 9.70906C3.62055 8.58576 4.01119 7.6771 4.65297 6.95446C4.54833 6.69689 4.20652 5.65229 4.75064 4.24279C4.75064 4.24279 5.58771 3.97091 7.49912 5.29455C8.29437 5.0656 9.15247 4.95112 10.0035 4.95112C10.8546 4.95827 11.7126 5.0656 12.5079 5.29455C14.4193 3.97091 15.2563 4.24279 15.2563 4.24279C15.8005 5.65229 15.4587 6.69689 15.354 6.95446C15.9958 7.66994 16.3864 8.58576 16.3864 9.70906C16.3864 13.6514 14.0496 14.5171 11.8173 14.7675C12.173 15.0823 12.5009 15.7119 12.5009 16.6635V19.4754C12.5009 19.7472 12.6613 20.0692 13.1705 19.969C17.1398 18.6096 20 14.7675 20 10.2385C20 4.59338 15.5215 0 9.99655 0Z" fill="white"/>
</svg>
