<svg width="136" height="16" viewBox="0 0 136 16" fill="none" xmlns="http://www.w3.org/2000/svg">
<path d="M26.5369 1.27629C25.8142 1.06794 24.9818 0.955078 24.0487 0.955078H19.4748H19.237L19.173 1.17212L15.1479 15.2535H17.8557L19.2004 10.5394H22.1368C23.2163 10.5394 24.2134 10.4266 25.1007 10.2009C26.0063 9.96647 26.8022 9.61921 27.47 9.16777C28.1469 8.70765 28.6775 8.13467 29.0434 7.4662C29.4093 6.80641 29.5923 6.03375 29.5923 5.1656C29.5923 4.01964 29.1989 3.06468 28.4305 2.33544C27.9274 1.85795 27.287 1.49333 26.5369 1.27629ZM25.8234 7.42279C25.0184 7.96104 23.8109 8.23017 22.2466 8.23017H19.8682L21.2678 3.32513H24.003C25.1282 3.32513 25.9515 3.55953 26.4454 4.01964C26.7839 4.34086 26.9394 4.73153 26.9394 5.2611C26.9394 6.23343 26.5827 6.91927 25.8234 7.42279Z" fill="#EBEAF6"/>
<path d="M8.77271 0.963543C7.97686 0.963543 7.24504 1.06772 6.57725 1.27608C5.90946 1.48443 5.324 1.7796 4.83002 2.14423C4.32689 2.51753 3.9244 2.97765 3.64082 3.50722C3.35723 4.03679 3.21087 4.61845 3.21087 5.21748C3.21087 5.70364 3.30234 6.15508 3.49445 6.54574C3.6774 6.93641 3.96099 7.29235 4.31775 7.5962C4.65622 7.89138 5.08616 8.1605 5.58929 8.42095C6.07412 8.66403 6.64128 8.90711 7.28162 9.15019C7.67498 9.29778 7.96771 9.44537 8.25129 9.59295C8.32447 9.62768 8.39765 9.6624 8.47084 9.69713C8.80016 9.8534 9.0563 10.0183 9.2301 10.1746C9.39476 10.3135 9.51368 10.4611 9.57772 10.6C9.64175 10.7389 9.67834 10.9039 9.67834 11.0775C9.67834 11.364 9.62346 11.5984 9.49539 11.8154C9.35817 12.0498 9.15692 12.2582 8.91908 12.4231C8.66294 12.5967 8.26044 12.7791 7.98601 12.8485C7.43714 12.9874 6.61384 13.0048 6.03753 13.0048C5.94605 13.0048 0.649491 12.9874 0.649491 12.9874L0 15.2533H6.75106C7.56521 15.2533 8.28788 15.1578 8.95567 14.9581C9.62346 14.7584 10.2272 14.4546 10.7578 14.0552C11.2701 13.6646 11.6909 13.1958 11.9927 12.6575C12.2946 12.1106 12.441 11.5289 12.441 10.8691C12.441 10.383 12.3495 9.94021 12.1757 9.54954C12.0019 9.16755 11.7366 8.81162 11.3981 8.4904C11.0688 8.18655 10.6663 7.90874 10.1815 7.65698C9.72408 7.42258 9.17522 7.18818 8.57146 6.97114C8.18726 6.83224 7.88538 6.68465 7.59265 6.55443C7.50117 6.51102 7.40969 6.46761 7.31822 6.4242C6.9706 6.26794 6.68702 6.10299 6.46747 5.93804C6.27537 5.79914 6.14731 5.65155 6.06498 5.50396C5.99179 5.36506 5.9552 5.20011 5.9552 5.00912C5.9552 4.79208 6.01009 4.57505 6.11986 4.37537C6.23878 4.15833 6.41259 3.96734 6.63213 3.79371C6.86083 3.62008 7.15356 3.4725 7.50118 3.36832C7.85794 3.26414 8.26958 3.20337 8.72697 3.20337H14.3529L15.0023 0.9375H8.77271V0.963543Z" fill="#EBEAF6"/>
<path d="M58.2449 11.0518C57.2752 12.2845 55.7658 13.0138 54.2015 13.0138C52.8934 13.0138 51.8323 12.6492 51.1462 11.9633C50.4876 11.3035 50.1674 10.3399 50.2314 9.17657C50.4235 5.74737 52.8568 3.25578 56.0128 3.25578C57.696 3.25578 59.1505 4.09789 59.8091 5.44352L59.9555 5.74737L61.968 4.59273L62.2058 4.45383L62.0961 4.21943C61.1447 2.19664 58.9767 0.98123 56.3055 0.963867H56.2415C51.4847 0.963867 47.8438 4.41042 47.5785 9.16788C47.4779 10.9129 48.0177 12.4148 49.1154 13.5173C50.2863 14.6893 51.9878 15.3057 54.0369 15.3057C56.1317 15.3057 58.1259 14.481 59.5164 13.1006L58.2449 11.0518Z" fill="#EBEAF6"/>
<path d="M73.6662 11.0511C72.6874 12.3013 71.1689 13.0218 69.5497 13.0218C69.5223 13.0218 69.5771 13.0218 69.5497 13.0218C68.2873 13.0044 67.2262 12.6398 66.5675 11.9714C65.918 11.3202 65.6162 10.3913 65.6528 9.21932L76.3282 9.17591L76.4105 8.9936C76.566 8.62029 76.8496 7.87368 76.9868 7.10103C77.2979 5.33 76.9319 3.80206 75.9257 2.68215C74.9652 1.60564 73.465 0.989258 71.8001 0.989258C67.1255 0.989258 63.256 4.57471 62.9908 9.14986C62.8901 10.8601 63.3933 12.3447 64.4544 13.4385C65.5887 14.6018 67.3725 15.253 69.4399 15.3137C69.504 15.3137 69.3759 15.3137 69.4399 15.3137C71.0591 15.3137 73.3918 14.6887 74.9469 13.126L73.6662 11.0511ZM74.3157 7.10103L66.0827 7.07499C66.8969 4.85252 68.7538 3.43744 71.1414 3.25513C71.2695 3.24644 71.3976 3.23777 71.5256 3.23777C72.541 3.23777 73.3826 3.56766 73.8857 4.17537C74.4438 4.85252 74.5901 5.85958 74.3157 7.10103Z" fill="#EBEAF6"/>
<path d="M43.5891 2.10971C42.592 1.34574 41.2015 0.972442 39.3353 0.972442C38.8597 0.972442 37.9083 0.963758 37.0027 0.963758C36.1794 0.963758 34.9078 0.955078 34.5419 0.955078H34.1486L35.5848 3.2904H39.006C40.2044 3.2904 41.1009 3.49875 41.6589 3.91547C42.1986 4.31482 42.473 4.91384 42.473 5.69517C42.473 5.8688 42.4547 6.05979 42.4181 6.26815C42.3815 6.48519 42.3358 6.67618 42.2901 6.84981L42.2809 6.86717C41.668 6.71091 40.9911 6.572 40.2684 6.44178C39.4085 6.2942 38.4938 6.21606 37.5424 6.21606C36.6185 6.21606 35.7494 6.32892 34.9719 6.56332C34.1852 6.79772 33.4899 7.12762 32.9045 7.56169C32.3099 7.99577 31.8433 8.5427 31.5232 9.17645C31.1938 9.8102 31.0292 10.5221 31.0292 11.3034C31.0292 11.9458 31.1664 12.5188 31.4317 13.0137C31.697 13.4998 32.0446 13.9165 32.4837 14.2464C32.9136 14.5763 33.4259 14.8281 33.9839 15.0017C34.5419 15.1754 35.1457 15.2622 35.7677 15.2622C36.7099 15.2622 37.5881 15.1059 38.384 14.7934C38.8414 14.6284 39.9757 13.96 40.6618 13.5172L41.5765 14.9844H42.6377L44.8331 7.29257C44.9063 7.0408 44.9521 6.78904 44.9887 6.53728C44.9978 6.45914 45.0161 6.38969 45.0253 6.31156C45.0801 5.99034 45.1076 5.66913 45.1076 5.36527C45.1167 3.9936 44.6045 2.89105 43.5891 2.10971ZM41.5217 9.61053C41.4942 9.7147 40.7441 12.2497 37.0484 12.9876C37.0393 12.9876 36.6368 13.0744 36.0696 13.0744C35.6488 13.0744 35.2554 13.031 34.8987 12.9442C34.6242 12.8574 34.4047 12.7532 34.2492 12.623C33.7918 12.2497 33.5631 11.7635 33.5631 11.1385C33.5631 10.7652 33.6729 10.3484 33.8741 9.98383C34.0571 9.65393 34.4962 9.29799 34.8072 9.06359C35.1091 8.83787 35.4933 8.65556 36.0239 8.49929C36.4995 8.35171 37.0484 8.28226 37.643 8.28226C38.4846 8.28226 39.2988 8.33435 40.0489 8.44721C40.6709 8.53402 41.2472 8.64688 41.7595 8.7771L41.5217 9.61053Z" fill="#EBEAF6"/>
<path d="M127.006 3.65477L126.265 6.24185H134.215L133.291 9.48873H125.341L124.546 12.2929H133.501L132.541 15.6439H119.103L123.484 0.303711H135.907L134.947 3.65477H127.006Z" fill="#EBEAF6"/>
<path d="M119.562 0.303711L115.189 15.6439H111.475L106.261 7.23154L103.855 15.6526H99.3724L103.754 0.312391H107.505L112.692 8.69004L115.079 0.312391H119.562V0.303711Z" fill="#EBEAF6"/>
<path d="M80.4178 9.22843C80.8112 3.88931 85.2661 0 91.2213 0C96.1977 0 99.0793 2.79544 98.7774 6.77157C98.384 12.1107 93.9291 16 87.9739 16C82.9975 15.9913 80.1251 13.2046 80.4178 9.22843ZM94.0754 7.02333C94.2218 4.98318 92.9503 3.59414 90.5444 3.59414C87.4067 3.59414 85.321 6.05969 85.1106 8.95931C84.9643 10.9995 86.2358 12.3885 88.6417 12.3885C91.7793 12.3885 93.865 9.93163 94.0754 7.02333Z" fill="#EBEAF6"/>
</svg>
