<svg width="62" height="62" viewBox="0 0 62 62" fill="none" xmlns="http://www.w3.org/2000/svg">
<path d="M19.9528 19.8294C20.4779 19.8294 20.9046 19.4027 20.9046 18.8776C20.9046 18.3525 20.4779 17.9258 19.9528 17.9258C19.4276 17.9258 19.001 18.3525 19.001 18.8776C19.001 19.4027 19.4276 19.8294 19.9528 19.8294Z" fill="#F8F8FC"/>
<path d="M27.184 18.5862C27.4575 18.5862 27.6763 18.3674 27.6763 18.0939C27.6763 17.8204 27.4575 17.6016 27.184 17.6016C26.9105 17.6016 26.6917 17.8204 26.6917 18.0939C26.6917 18.3674 26.9105 18.5862 27.184 18.5862Z" fill="#F8F8FC"/>
<path d="M13.986 15.8201C13.986 15.2534 13.5265 14.7939 12.9598 14.7939C12.3931 14.7939 11.9336 15.2534 11.9336 15.8201C11.9336 16.3868 12.3931 16.8463 12.9598 16.8463C13.5265 16.8616 13.986 16.3868 13.986 15.8201Z" fill="#F8F8FC"/>
<path d="M13.7206 20.2314C13.3224 20.2314 13.0007 20.5531 13.0007 20.9513C13.0007 21.3495 13.3224 21.6712 13.7206 21.6712C14.1188 21.6712 14.4405 21.3495 14.4405 20.9513C14.4251 20.5531 14.1035 20.2314 13.7206 20.2314Z" fill="#F8F8FC"/>
<path d="M11.0472 30.1574L9.60742 29.7439C9.57679 29.7439 9.56148 29.7132 9.56148 29.6979L9.07136 28.2735C9.04072 28.2122 8.94883 28.2122 8.93351 28.2735L8.51997 29.7132C8.51997 29.7439 8.48934 29.7592 8.47402 29.7592L7.04961 30.2493C6.98835 30.2799 6.98835 30.3718 7.04961 30.3871L8.48934 30.8007C8.51997 30.8007 8.53529 30.8313 8.53529 30.8466L9.02541 32.271C9.05604 32.3323 9.14794 32.3323 9.16326 32.271L9.57679 30.8313C9.57679 30.8007 9.60743 30.7854 9.62274 30.7854L11.0472 30.2952C11.1237 30.2646 11.1237 30.1727 11.0472 30.1574Z" fill="#F8F8FC"/>
<path d="M41.6309 47.57C41.539 47.6313 41.4471 47.6925 41.3552 47.7538C38.292 49.4386 34.708 50.5567 30.9249 50.5567C27.1571 50.5567 23.6803 49.4386 20.6324 47.7538C20.5252 47.6925 20.4179 47.6313 20.326 47.5547C18.3809 48.7953 16.742 50.281 15.3789 52.1036C19.6828 55.32 25.0588 57.2345 30.9708 57.2652C36.8522 57.2958 42.2129 55.3506 46.5933 52.1342C45.2149 50.2963 43.5914 48.8106 41.6309 47.57Z" fill="#F8F8FC"/>
<path d="M40.8756 13.7223C41.4423 13.7223 41.9018 13.2628 41.9018 12.6961C41.9018 12.1294 41.4423 11.6699 40.8756 11.6699C40.3089 11.6699 39.8494 12.1294 39.8494 12.6961C39.8494 13.2628 40.3089 13.7223 40.8756 13.7223Z" fill="#F8F8FC"/>
<path d="M24.1205 32.1513C23.2474 32.0594 22.4663 32.7027 22.3744 33.5757C22.2825 34.4488 22.9258 35.2299 23.7988 35.3218C24.6718 35.4137 25.453 34.7704 25.5449 33.8974C25.6214 33.0243 24.9935 32.2432 24.1205 32.1513Z" fill="#F8F8FC"/>
<path d="M36.0284 27.8329C34.941 28.3077 34.4356 29.5636 34.9104 30.6664C35.3852 31.7539 36.6411 32.2593 37.7439 31.7845C38.8313 31.3097 39.3367 30.0538 38.8619 28.951C38.3718 27.8635 37.1159 27.3581 36.0284 27.8329Z" fill="#F8F8FC"/>
<path d="M56.3144 27.0166L55.181 26.695C55.1657 26.695 55.1504 26.6797 55.135 26.6643L54.7674 25.5463C54.7521 25.485 54.6756 25.5003 54.6602 25.5463L54.3386 26.6797C54.3386 26.695 54.3233 26.7103 54.308 26.7256L53.2052 27.1085C53.1439 27.1238 53.1593 27.2004 53.2052 27.2157L54.3386 27.5374C54.3539 27.5374 54.3692 27.5527 54.3845 27.568L54.7674 28.6861C54.7828 28.7474 54.8593 28.732 54.8747 28.6861L55.1963 27.5527C55.1963 27.5374 55.2116 27.5221 55.2269 27.5067L56.3297 27.1238C56.3756 27.1085 56.3757 27.0319 56.3144 27.0166Z" fill="#F8F8FC"/>
<path d="M31 0C13.8765 0 0 13.8765 0 31C0 48.1236 13.8765 62.0001 31 62.0001C48.1235 62.0001 62 48.1236 62 31C62 13.8765 48.1235 0 31 0ZM30.9694 59.5648C15.1937 59.5342 2.43527 46.7298 2.4659 30.9694C2.49654 15.209 15.3009 2.43528 31.0613 2.46591C46.837 2.49655 59.5954 15.3009 59.5647 31.0613C59.5341 46.8217 46.7297 59.5801 30.9694 59.5648Z" fill="#F8F8FC"/>
<path d="M53.0628 21.0606L51.2861 20.5552C51.2554 20.5399 51.2401 20.5246 51.2248 20.4939L50.6122 18.7479C50.5815 18.656 50.459 18.6713 50.4437 18.7479L49.9382 20.5246C49.9229 20.5552 49.9076 20.5705 49.877 20.5858L48.1462 21.1985C48.0697 21.2291 48.0697 21.3516 48.1462 21.367L49.9229 21.8724C49.9536 21.8877 49.9689 21.903 49.9842 21.9336L50.5968 23.6797C50.6275 23.7716 50.75 23.7563 50.7653 23.6797L51.2708 21.903C51.2861 21.8724 51.3014 21.8571 51.332 21.8418L53.0628 21.2291C53.1547 21.1985 53.1547 21.0759 53.0628 21.0606Z" fill="#F8F8FC"/>
<path d="M31.0131 14.7939C22.0531 14.7939 14.7932 22.0538 14.7932 31.0138C14.7932 39.9738 22.0531 47.2337 31.0131 47.2337C39.9731 47.2337 47.233 39.9738 47.233 31.0138C47.2483 22.0538 39.9731 14.7939 31.0131 14.7939ZM31.0131 44.8291C24.4271 44.8291 19.0818 39.4837 19.0818 32.8977C19.0818 29.7579 20.307 26.8938 22.2982 24.7648C22.8802 24.1215 22.2216 23.0034 21.9459 22.5746C21.6702 22.1917 21.4404 21.7016 21.6242 21.4106C21.854 21.0583 22.2982 21.0123 22.7423 21.1042C24.0595 21.3799 25.0398 22.0079 25.2082 21.7935C25.3154 21.6709 25.0857 21.3033 24.9479 21.1042C24.6262 20.6447 24.6109 20.124 24.8866 19.9249C25.1776 19.7258 25.683 19.7717 25.974 19.9096C26.3876 20.0934 26.8624 20.2925 27.8426 20.752C28.1949 20.9051 29.1139 21.0583 30.2779 20.9817C30.523 20.9664 30.768 20.9511 31.0284 20.9511C37.6144 20.9511 42.9597 26.2964 42.9597 32.8824C42.9444 39.4837 37.6144 44.8291 31.0131 44.8291Z" fill="#F8F8FC"/>
<path d="M50.6931 37.4922C50.1877 37.4922 49.7742 37.9057 49.7742 38.4112C49.7742 38.9166 50.1877 39.3301 50.6931 39.3301C51.1986 39.3301 51.6121 38.9166 51.6121 38.4112C51.6121 37.9057 51.1986 37.4922 50.6931 37.4922Z" fill="#F8F8FC"/>
</svg>
