<svg width="350" height="345" viewBox="0 0 350 345" fill="none" xmlns="http://www.w3.org/2000/svg">
<g opacity="0.6" filter="url(#filter0_d)">
<ellipse cx="175" cy="171.486" rx="93" ry="90.4865" fill="url(#paint0_linear)"/>
<path d="M267.5 171.486C267.5 221.172 226.099 261.473 175 261.473C123.901 261.473 82.5 221.172 82.5 171.486C82.5 121.801 123.901 81.5 175 81.5C226.099 81.5 267.5 121.801 267.5 171.486Z" stroke="#6638B6"/>
</g>
<path d="M161.827 131.248C161.827 130.809 161.471 130.453 161.033 130.453C160.594 130.453 160.238 130.809 160.238 131.248C160.238 131.686 160.594 132.042 161.033 132.042C161.471 132.054 161.827 131.686 161.827 131.248Z" fill="white"/>
<path d="M161.624 134.663C161.316 134.663 161.067 134.912 161.067 135.22C161.067 135.529 161.316 135.778 161.624 135.778C161.932 135.778 162.181 135.529 162.181 135.22C162.169 134.912 161.92 134.663 161.624 134.663Z" fill="white"/>
<path d="M159.554 142.35L158.439 142.029C158.416 142.029 158.404 142.006 158.404 141.994L158.024 140.891C158.001 140.844 157.93 140.844 157.918 140.891L157.598 142.006C157.598 142.029 157.574 142.041 157.562 142.041L156.459 142.421C156.412 142.444 156.412 142.516 156.459 142.527L157.574 142.848C157.598 142.848 157.609 142.871 157.609 142.883L157.989 143.986C158.013 144.033 158.084 144.033 158.096 143.986L158.416 142.871C158.416 142.848 158.439 142.836 158.451 142.836L159.554 142.456C159.613 142.433 159.613 142.361 159.554 142.35Z" fill="white"/>
<path d="M183.23 155.828C183.159 155.876 183.088 155.923 183.017 155.971C180.645 157.275 177.871 158.141 174.942 158.141C172.025 158.141 169.333 157.275 166.973 155.971C166.89 155.923 166.807 155.876 166.736 155.816C165.23 156.777 163.962 157.927 162.906 159.338C166.238 161.828 170.4 163.31 174.977 163.334C179.531 163.358 183.681 161.852 187.072 159.362C186.005 157.939 184.748 156.789 183.23 155.828Z" fill="white"/>
<path d="M182.647 129.62C183.086 129.62 183.441 129.264 183.441 128.826C183.441 128.387 183.086 128.031 182.647 128.031C182.208 128.031 181.852 128.387 181.852 128.826C181.852 129.264 182.208 129.62 182.647 129.62Z" fill="white"/>
<path d="M172.624 127.048C173.193 127.048 173.655 126.585 173.655 126.016C173.655 125.447 173.193 124.984 172.624 124.984C172.054 124.984 171.592 125.447 171.592 126.016C171.592 126.585 172.054 127.048 172.624 127.048Z" fill="white"/>
<path d="M180.464 125.707C180.761 125.707 180.998 125.47 180.998 125.173C180.998 124.877 180.761 124.64 180.464 124.64C180.168 124.64 179.93 124.877 179.93 125.173C179.93 125.47 180.168 125.707 180.464 125.707Z" fill="white"/>
<path d="M169.67 143.891C168.994 143.819 168.39 144.317 168.318 144.993C168.247 145.669 168.745 146.274 169.421 146.345C170.097 146.416 170.702 145.918 170.773 145.242C170.832 144.566 170.346 143.962 169.67 143.891Z" fill="white"/>
<path d="M178.895 140.545C178.053 140.912 177.662 141.884 178.03 142.738C178.397 143.58 179.37 143.971 180.223 143.604C181.065 143.236 181.457 142.264 181.089 141.41C180.71 140.568 179.737 140.177 178.895 140.545Z" fill="white"/>
<path d="M194.598 139.921L193.721 139.672C193.709 139.672 193.697 139.66 193.685 139.648L193.401 138.782C193.389 138.735 193.33 138.747 193.318 138.782L193.069 139.66C193.069 139.672 193.057 139.683 193.045 139.695L192.191 139.992C192.144 140.004 192.156 140.063 192.191 140.075L193.069 140.324C193.081 140.324 193.093 140.336 193.104 140.347L193.401 141.213C193.413 141.261 193.472 141.249 193.484 141.213L193.733 140.336C193.733 140.324 193.745 140.312 193.757 140.3L194.61 140.004C194.646 139.992 194.646 139.932 194.598 139.921Z" fill="white"/>
<path d="M175 119C161.743 119 151 129.743 151 143C151 156.257 161.743 167 175 167C188.257 167 199 156.257 199 143C199 129.743 188.257 119 175 119ZM174.976 165.115C162.763 165.091 152.885 155.178 152.909 142.976C152.933 130.775 162.846 120.885 175.047 120.909C187.261 120.933 197.138 130.846 197.115 143.047C197.091 155.249 187.178 165.126 174.976 165.115Z" fill="white"/>
<path d="M192.081 135.303L190.706 134.912C190.682 134.9 190.67 134.888 190.658 134.865L190.184 133.513C190.16 133.442 190.065 133.454 190.053 133.513L189.662 134.888C189.65 134.912 189.638 134.924 189.615 134.936L188.275 135.41C188.215 135.434 188.215 135.529 188.275 135.541L189.65 135.932C189.674 135.944 189.686 135.956 189.698 135.979L190.172 137.331C190.196 137.402 190.291 137.39 190.302 137.331L190.694 135.956C190.706 135.932 190.717 135.92 190.741 135.908L192.081 135.434C192.152 135.41 192.152 135.315 192.081 135.303Z" fill="white"/>
<path d="M175.009 130.453C168.072 130.453 162.451 136.074 162.451 143.01C162.451 149.947 168.072 155.568 175.009 155.568C181.945 155.568 187.566 149.947 187.566 143.01C187.578 136.074 181.945 130.453 175.009 130.453ZM175.009 153.706C169.91 153.706 165.772 149.568 165.772 144.469C165.772 142.038 166.72 139.821 168.262 138.172C168.712 137.674 168.202 136.809 167.989 136.477C167.775 136.18 167.598 135.801 167.74 135.576C167.918 135.303 168.262 135.267 168.605 135.338C169.625 135.552 170.384 136.038 170.515 135.872C170.598 135.777 170.42 135.493 170.313 135.338C170.064 134.983 170.052 134.58 170.266 134.425C170.491 134.271 170.882 134.307 171.107 134.414C171.428 134.556 171.795 134.71 172.554 135.066C172.827 135.184 173.538 135.303 174.439 135.244C174.629 135.232 174.819 135.22 175.021 135.22C180.119 135.22 184.258 139.358 184.258 144.457C184.246 149.568 180.119 153.706 175.009 153.706Z" fill="white"/>
<path d="M190.247 148.028C189.855 148.028 189.535 148.348 189.535 148.74C189.535 149.131 189.855 149.451 190.247 149.451C190.638 149.451 190.958 149.131 190.958 148.74C190.958 148.348 190.638 148.028 190.247 148.028Z" fill="white"/>
<path d="M139.22 181.117C138.588 180.935 137.859 180.836 137.043 180.836H133.041H132.832L132.776 181.026L129.255 193.347H131.624L132.8 189.222H135.37C136.314 189.222 137.187 189.124 137.963 188.926C138.756 188.721 139.452 188.417 140.036 188.022C140.629 187.619 141.093 187.118 141.413 186.533C141.733 185.956 141.893 185.28 141.893 184.52C141.893 183.517 141.549 182.682 140.877 182.044C140.437 181.626 139.876 181.307 139.22 181.117ZM138.596 186.495C137.891 186.966 136.835 187.202 135.466 187.202H133.385L134.609 182.91H137.003C137.987 182.91 138.708 183.115 139.14 183.517C139.436 183.798 139.572 184.14 139.572 184.604C139.572 185.454 139.26 186.055 138.596 186.495Z" fill="white"/>
<path d="M123.676 180.843C122.98 180.843 122.339 180.934 121.755 181.117C121.171 181.299 120.659 181.557 120.226 181.876C119.786 182.203 119.434 182.605 119.186 183.069C118.938 183.532 118.81 184.041 118.81 184.565C118.81 184.991 118.89 185.386 119.058 185.728C119.218 186.069 119.466 186.381 119.778 186.647C120.074 186.905 120.45 187.14 120.891 187.368C121.315 187.581 121.811 187.794 122.371 188.006C122.716 188.136 122.972 188.265 123.22 188.394C123.284 188.424 123.348 188.455 123.412 188.485C123.7 188.622 123.924 188.766 124.076 188.903C124.22 189.024 124.324 189.153 124.381 189.275C124.437 189.397 124.469 189.541 124.469 189.693C124.469 189.943 124.421 190.149 124.308 190.338C124.188 190.544 124.012 190.726 123.804 190.87C123.58 191.022 123.228 191.182 122.988 191.242C122.507 191.364 121.787 191.379 121.283 191.379C121.203 191.379 116.568 191.364 116.568 191.364L116 193.347H121.907C122.62 193.347 123.252 193.263 123.836 193.088C124.421 192.914 124.949 192.648 125.413 192.298C125.861 191.957 126.229 191.546 126.494 191.075C126.758 190.597 126.886 190.088 126.886 189.51C126.886 189.085 126.806 188.698 126.654 188.356C126.502 188.022 126.27 187.71 125.973 187.429C125.685 187.163 125.333 186.92 124.909 186.7C124.509 186.495 124.028 186.29 123.5 186.1C123.164 185.978 122.9 185.849 122.644 185.735C122.564 185.697 122.483 185.659 122.403 185.621C122.099 185.484 121.851 185.34 121.659 185.196C121.491 185.074 121.379 184.945 121.307 184.816C121.243 184.694 121.211 184.55 121.211 184.383C121.211 184.193 121.259 184.003 121.355 183.828C121.459 183.639 121.611 183.471 121.803 183.319C122.003 183.168 122.259 183.038 122.564 182.947C122.876 182.856 123.236 182.803 123.636 182.803H128.559L129.127 180.82H123.676V180.843Z" fill="white"/>
<path d="M166.963 189.67C166.115 190.748 164.794 191.386 163.426 191.386C162.281 191.386 161.352 191.067 160.752 190.467C160.176 189.89 159.896 189.047 159.952 188.029C160.12 185.028 162.249 182.848 165.01 182.848C166.483 182.848 167.756 183.585 168.332 184.762L168.46 185.028L170.221 184.018L170.429 183.896L170.333 183.691C169.501 181.921 167.604 180.858 165.267 180.843H165.21C161.048 180.843 157.863 183.859 157.63 188.021C157.542 189.548 158.015 190.862 158.975 191.827C160 192.853 161.488 193.392 163.281 193.392C165.114 193.392 166.859 192.67 168.076 191.462L166.963 189.67Z" fill="white"/>
<path d="M180.458 189.67C179.601 190.764 178.273 191.395 176.856 191.395C176.832 191.395 176.88 191.395 176.856 191.395C175.751 191.38 174.823 191.06 174.247 190.476C173.678 189.906 173.414 189.093 173.446 188.068L182.787 188.03L182.859 187.87C182.995 187.543 183.243 186.89 183.363 186.214C183.636 184.664 183.315 183.327 182.435 182.347C181.595 181.406 180.282 180.866 178.825 180.866C174.735 180.866 171.349 184.003 171.117 188.007C171.029 189.503 171.469 190.802 172.398 191.759C173.39 192.777 174.951 193.347 176.76 193.4C176.816 193.4 176.704 193.4 176.76 193.4C178.177 193.4 180.218 192.853 181.579 191.486L180.458 189.67ZM181.026 186.214L173.822 186.191C174.535 184.247 176.16 183.008 178.249 182.849C178.361 182.841 178.473 182.834 178.585 182.834C179.473 182.834 180.21 183.122 180.65 183.654C181.138 184.247 181.266 185.128 181.026 186.214Z" fill="white"/>
<path d="M154.141 181.846C153.268 181.178 152.051 180.851 150.419 180.851C150.002 180.851 149.17 180.844 148.377 180.844C147.657 180.844 146.544 180.836 146.224 180.836H145.88L147.137 182.879H150.13C151.179 182.879 151.963 183.062 152.452 183.426C152.924 183.776 153.164 184.3 153.164 184.984C153.164 185.135 153.148 185.303 153.116 185.485C153.084 185.675 153.044 185.842 153.004 185.994L152.996 186.009C152.46 185.872 151.867 185.751 151.235 185.637C150.483 185.508 149.682 185.439 148.85 185.439C148.041 185.439 147.281 185.538 146.6 185.743C145.912 185.948 145.304 186.237 144.792 186.617C144.271 186.997 143.863 187.475 143.583 188.03C143.295 188.584 143.151 189.207 143.151 189.891C143.151 190.453 143.271 190.954 143.503 191.387C143.735 191.813 144.039 192.177 144.423 192.466C144.8 192.755 145.248 192.975 145.736 193.127C146.224 193.279 146.753 193.355 147.297 193.355C148.121 193.355 148.89 193.218 149.586 192.944C149.986 192.8 150.979 192.215 151.579 191.828L152.38 193.112H153.308L155.229 186.381C155.293 186.161 155.333 185.941 155.365 185.72C155.373 185.652 155.389 185.591 155.397 185.523C155.445 185.242 155.469 184.961 155.469 184.695C155.477 183.495 155.029 182.53 154.141 181.846ZM152.332 188.409C152.308 188.501 151.651 190.719 148.417 191.364C148.409 191.364 148.057 191.44 147.561 191.44C147.193 191.44 146.849 191.402 146.536 191.326C146.296 191.25 146.104 191.159 145.968 191.045C145.568 190.719 145.368 190.293 145.368 189.746C145.368 189.42 145.464 189.055 145.64 188.736C145.8 188.447 146.184 188.136 146.456 187.931C146.721 187.733 147.057 187.574 147.521 187.437C147.937 187.308 148.417 187.247 148.938 187.247C149.674 187.247 150.387 187.293 151.043 187.392C151.587 187.468 152.091 187.566 152.54 187.68L152.332 188.409Z" fill="white"/>
<path d="M227.131 183.198L226.482 185.462H233.438L232.63 188.303H225.674L224.977 190.756H232.814L231.973 193.688H220.215L224.049 180.266H234.919L234.078 183.198H227.131Z" fill="white"/>
<path d="M220.616 180.266L216.79 193.688H213.541L208.978 186.327L206.873 193.696H202.951L206.785 180.273H210.067L214.605 187.604L216.694 180.273H220.616V180.266Z" fill="white"/>
<path d="M186.365 188.075C186.71 183.403 190.608 180 195.818 180C200.173 180 202.694 182.446 202.43 185.925C202.086 190.597 198.188 194 192.977 194C188.623 193.992 186.109 191.554 186.365 188.075ZM198.316 186.145C198.444 184.36 197.331 183.145 195.226 183.145C192.481 183.145 190.656 185.302 190.472 187.839C190.344 189.625 191.456 190.84 193.561 190.84C196.307 190.84 198.132 188.69 198.316 186.145Z" fill="white"/>
<path d="M147.02 213.712V219H145.238V205.492H150.22C151.698 205.492 152.855 205.869 153.69 206.624C154.531 207.379 154.952 208.377 154.952 209.621C154.952 210.932 154.54 211.943 153.718 212.654C152.901 213.359 151.729 213.712 150.202 213.712H147.02ZM147.02 212.255H150.22C151.173 212.255 151.903 212.033 152.41 211.587C152.917 211.136 153.17 210.486 153.17 209.639C153.17 208.835 152.917 208.192 152.41 207.709C151.903 207.227 151.207 206.977 150.322 206.958H147.02V212.255ZM158.82 219H157.104V204.75H158.82V219ZM167.773 218.007C167.105 218.793 166.125 219.186 164.832 219.186C163.762 219.186 162.946 218.876 162.383 218.258C161.826 217.633 161.545 216.712 161.539 215.493V208.962H163.255V215.447C163.255 216.968 163.873 217.729 165.11 217.729C166.422 217.729 167.294 217.24 167.727 216.263V208.962H169.443V219H167.81L167.773 218.007ZM171.651 213.897C171.651 212.333 172.013 211.09 172.736 210.168C173.46 209.24 174.419 208.776 175.612 208.776C176.837 208.776 177.792 209.209 178.479 210.075L178.562 208.962H180.13V218.759C180.13 220.058 179.744 221.081 178.971 221.83C178.204 222.578 177.171 222.952 175.872 222.952C175.148 222.952 174.44 222.798 173.748 222.488C173.055 222.179 172.526 221.755 172.161 221.217L173.052 220.188C173.788 221.097 174.688 221.551 175.751 221.551C176.586 221.551 177.236 221.316 177.7 220.846C178.17 220.376 178.405 219.714 178.405 218.861V217.998C177.718 218.79 176.781 219.186 175.594 219.186C174.419 219.186 173.466 218.712 172.736 217.766C172.013 216.82 171.651 215.53 171.651 213.897ZM173.376 214.092C173.376 215.224 173.608 216.115 174.072 216.764C174.536 217.407 175.186 217.729 176.021 217.729C177.103 217.729 177.898 217.237 178.405 216.254V211.671C177.879 210.712 177.09 210.233 176.039 210.233C175.204 210.233 174.552 210.558 174.082 211.207C173.611 211.856 173.376 212.818 173.376 214.092ZM184.593 219H182.876V208.962H184.593V219ZM182.737 206.299C182.737 206.021 182.821 205.786 182.988 205.594C183.161 205.403 183.415 205.307 183.749 205.307C184.083 205.307 184.336 205.403 184.509 205.594C184.682 205.786 184.769 206.021 184.769 206.299C184.769 206.578 184.682 206.81 184.509 206.995C184.336 207.181 184.083 207.273 183.749 207.273C183.415 207.273 183.161 207.181 182.988 206.995C182.821 206.81 182.737 206.578 182.737 206.299ZM188.972 208.962L189.027 210.224C189.794 209.259 190.796 208.776 192.033 208.776C194.155 208.776 195.225 209.973 195.243 212.367V219H193.527V212.357C193.521 211.634 193.354 211.099 193.026 210.752C192.704 210.406 192.2 210.233 191.514 210.233C190.957 210.233 190.468 210.381 190.048 210.678C189.627 210.975 189.299 211.365 189.064 211.847V219H187.348V208.962H188.972ZM203.676 216.337C203.676 215.874 203.5 215.515 203.147 215.261C202.801 215.001 202.192 214.779 201.32 214.593C200.454 214.408 199.764 214.185 199.251 213.925C198.744 213.666 198.367 213.356 198.119 212.998C197.878 212.639 197.757 212.212 197.757 211.717C197.757 210.895 198.104 210.199 198.796 209.63C199.495 209.061 200.386 208.776 201.468 208.776C202.606 208.776 203.528 209.07 204.233 209.658C204.944 210.245 205.3 210.997 205.3 211.912H203.574C203.574 211.442 203.373 211.037 202.971 210.697C202.575 210.357 202.074 210.187 201.468 210.187C200.844 210.187 200.355 210.323 200.002 210.595C199.65 210.867 199.474 211.222 199.474 211.662C199.474 212.076 199.638 212.388 199.965 212.599C200.293 212.809 200.884 213.01 201.737 213.202C202.597 213.393 203.293 213.622 203.825 213.888C204.357 214.154 204.749 214.476 205.003 214.853C205.263 215.224 205.393 215.679 205.393 216.217C205.393 217.114 205.034 217.834 204.316 218.378C203.599 218.917 202.668 219.186 201.524 219.186C200.72 219.186 200.009 219.043 199.39 218.759C198.772 218.474 198.286 218.078 197.934 217.571C197.587 217.058 197.414 216.504 197.414 215.911H199.13C199.161 216.486 199.39 216.944 199.817 217.284C200.25 217.618 200.819 217.785 201.524 217.785C202.173 217.785 202.693 217.655 203.083 217.395C203.478 217.129 203.676 216.777 203.676 216.337Z" fill="#EBEAF6"/>
<g opacity="0.8" filter="url(#filter1_d)">
<path d="M289.5 172.313C289.5 234.055 238.248 284.126 175 284.126C111.752 284.126 60.5 234.055 60.5 172.313C60.5 110.572 111.752 60.5 175 60.5C238.248 60.5 289.5 110.572 289.5 172.313Z" stroke="#6638B6"/>
</g>
<defs>
<filter id="filter0_d" x="22" y="21" width="306" height="300.973" filterUnits="userSpaceOnUse" color-interpolation-filters="sRGB">
<feFlood flood-opacity="0" result="BackgroundImageFix"/>
<feColorMatrix in="SourceAlpha" type="matrix" values="0 0 0 0 0 0 0 0 0 0 0 0 0 0 0 0 0 0 127 0"/>
<feMorphology radius="10" operator="dilate" in="SourceAlpha" result="effect1_dropShadow"/>
<feOffset/>
<feGaussianBlur stdDeviation="25"/>
<feColorMatrix type="matrix" values="0 0 0 0 0.67451 0 0 0 0 0.407843 0 0 0 0 0.505882 0 0 0 0.2 0"/>
<feBlend mode="normal" in2="BackgroundImageFix" result="effect1_dropShadow"/>
<feBlend mode="normal" in="SourceGraphic" in2="effect1_dropShadow" result="shape"/>
</filter>
<filter id="filter1_d" x="0" y="0" width="350" height="344.626" filterUnits="userSpaceOnUse" color-interpolation-filters="sRGB">
<feFlood flood-opacity="0" result="BackgroundImageFix"/>
<feColorMatrix in="SourceAlpha" type="matrix" values="0 0 0 0 0 0 0 0 0 0 0 0 0 0 0 0 0 0 127 0"/>
<feMorphology radius="10" operator="dilate" in="SourceAlpha" result="effect1_dropShadow"/>
<feOffset/>
<feGaussianBlur stdDeviation="25"/>
<feColorMatrix type="matrix" values="0 0 0 0 0.979167 0 0 0 0 0.753742 0 0 0 0 0.58342 0 0 0 0.3 0"/>
<feBlend mode="normal" in2="BackgroundImageFix" result="effect1_dropShadow"/>
<feBlend mode="normal" in="SourceGraphic" in2="effect1_dropShadow" result="shape"/>
</filter>
<linearGradient id="paint0_linear" x1="82.7666" y1="95.8714" x2="243.197" y2="243.106" gradientUnits="userSpaceOnUse">
<stop offset="0.0138937" stop-color="#EE9450"/>
<stop offset="1" stop-color="#6638B6" stop-opacity="0.5"/>
</linearGradient>
</defs>
</svg>
