<svg width="178" height="569" viewBox="0 0 178 569" fill="none" xmlns="http://www.w3.org/2000/svg">
<g opacity="0.6" filter="url(#filter0_d)">
<circle cx="103" cy="52" r="38" fill="url(#paint0_linear)"/>
<circle cx="103" cy="52" r="37.5" stroke="#007EE5"/>
</g>
<path d="M90.3882 43.2031C90.9404 43.2031 91.3698 43.1234 91.6766 42.9639C92.1587 42.7132 92.3997 42.262 92.3997 41.6104C92.3997 40.9541 92.1433 40.512 91.6306 40.2842C91.3414 40.1566 90.9119 40.0928 90.3422 40.0928H88.0086V43.2031H90.3882ZM90.8286 47.8379C91.6306 47.8379 92.2025 47.5964 92.5443 47.1133C92.759 46.8079 92.8664 46.4388 92.8664 46.0059C92.8664 45.2767 92.5531 44.7799 91.9264 44.5156C91.5933 44.3743 91.1529 44.3037 90.6051 44.3037H88.0086V47.8379H90.8286ZM86.7268 38.958H90.8746C92.0053 38.958 92.8094 39.3089 93.2871 40.0107C93.5676 40.4255 93.7078 40.904 93.7078 41.4463C93.7078 42.0798 93.5347 42.5993 93.1885 43.0049C93.0088 43.2191 92.7503 43.415 92.4128 43.5928C92.908 43.7887 93.2783 44.0098 93.5237 44.2559C93.9576 44.6934 94.1745 45.2972 94.1745 46.0674C94.1745 46.7145 93.9795 47.3001 93.5895 47.8242C93.0066 48.6081 92.0798 49 90.8089 49H86.7268V38.958ZM96.4884 47.0518C96.4884 47.4072 96.6133 47.6875 96.8631 47.8926C97.1128 48.0977 97.4086 48.2002 97.7505 48.2002C98.1668 48.2002 98.57 48.0999 98.96 47.8994C99.6173 47.5667 99.946 47.0221 99.946 46.2656V45.2744C99.8014 45.3701 99.6151 45.4499 99.3873 45.5137C99.1594 45.5775 98.9359 45.623 98.7168 45.6504L98.0003 45.7461C97.5708 45.8053 97.2487 45.8988 97.034 46.0264C96.6702 46.2406 96.4884 46.5824 96.4884 47.0518ZM99.3544 44.5635C99.6261 44.527 99.808 44.4085 99.9 44.208C99.9526 44.0986 99.9789 43.9414 99.9789 43.7363C99.9789 43.3171 99.8342 43.014 99.545 42.8271C99.2602 42.6357 98.8504 42.54 98.3158 42.54C97.6979 42.54 97.2596 42.7132 97.0011 43.0596C96.8565 43.251 96.7623 43.5358 96.7184 43.9141H95.6141C95.636 43.0117 95.9165 42.3851 96.4555 42.0342C96.9989 41.6787 97.6278 41.501 98.3421 41.501C99.1703 41.501 99.843 41.665 100.36 41.9932C100.873 42.3213 101.129 42.8317 101.129 43.5244V47.7422C101.129 47.8698 101.153 47.9723 101.202 48.0498C101.254 48.1273 101.361 48.166 101.524 48.166C101.576 48.166 101.635 48.1637 101.701 48.1592C101.767 48.1501 101.837 48.1387 101.911 48.125V49.0342C101.727 49.0889 101.587 49.123 101.491 49.1367C101.394 49.1504 101.263 49.1572 101.096 49.1572C100.689 49.1572 100.393 49.0068 100.209 48.7061C100.113 48.5465 100.045 48.321 100.005 48.0293C99.7641 48.3574 99.4179 48.6423 98.9666 48.8838C98.5152 49.1253 98.0178 49.2461 97.4744 49.2461C96.8214 49.2461 96.2868 49.041 95.8705 48.6309C95.4585 48.2161 95.2526 47.6989 95.2526 47.0791C95.2526 46.4001 95.4563 45.8737 95.8639 45.5C96.2714 45.1263 96.8061 44.8962 97.4678 44.8096L99.3544 44.5635ZM103.075 41.7129H104.278V49H103.075V41.7129ZM103.075 38.958H104.278V40.3525H103.075V38.958ZM106.822 45.4248C106.822 46.2087 106.982 46.8649 107.302 47.3936C107.622 47.9222 108.134 48.1865 108.84 48.1865C109.388 48.1865 109.837 47.9427 110.187 47.4551C110.542 46.9629 110.72 46.2588 110.72 45.3428C110.72 44.4176 110.538 43.734 110.174 43.292C109.811 42.8454 109.361 42.6221 108.827 42.6221C108.231 42.6221 107.746 42.859 107.374 43.333C107.006 43.807 106.822 44.5042 106.822 45.4248ZM108.603 41.5488C109.142 41.5488 109.594 41.6673 109.957 41.9043C110.168 42.041 110.407 42.2803 110.674 42.6221V38.9238H111.811V49H110.746V47.9814C110.47 48.4326 110.144 48.7585 109.767 48.959C109.39 49.1595 108.958 49.2598 108.472 49.2598C107.687 49.2598 107.008 48.918 106.434 48.2344C105.86 47.5462 105.573 46.6325 105.573 45.4932C105.573 44.4268 105.834 43.5039 106.355 42.7246C106.881 41.9408 107.63 41.5488 108.603 41.5488ZM114.749 41.6787V46.5391C114.749 46.9128 114.806 47.2181 114.92 47.4551C115.131 47.8926 115.523 48.1113 116.097 48.1113C116.921 48.1113 117.482 47.7285 117.78 46.9629C117.942 46.5527 118.023 45.9899 118.023 45.2744V41.6787H119.206V49H118.089L118.102 47.9199C117.948 48.1979 117.758 48.4326 117.53 48.624C117.079 49.0068 116.531 49.1982 115.887 49.1982C114.883 49.1982 114.199 48.8496 113.836 48.1523C113.638 47.7786 113.54 47.2796 113.54 46.6553V41.6787H114.749ZM83.1048 60.8848L81.639 56.4482L80.0811 60.8848H83.1048ZM80.9553 54.958H82.4344L85.938 65H84.505L83.5255 61.9922H79.7064L78.6612 65H77.3202L80.9553 54.958ZM87.4236 54.958H88.7449V65H87.4236V54.958ZM98.6905 54.6846C99.9131 54.6846 100.862 55.0195 101.537 55.6895C102.212 56.3594 102.586 57.1204 102.661 57.9727H101.386C101.241 57.3255 100.952 56.8128 100.518 56.4346C100.088 56.0563 99.4837 55.8672 98.7036 55.8672C97.7527 55.8672 96.9836 56.2158 96.3963 56.9131C95.8135 57.6058 95.5221 58.6699 95.5221 60.1055C95.5221 61.2812 95.785 62.236 96.3109 62.9697C96.8411 63.6989 97.63 64.0635 98.6773 64.0635C99.6414 64.0635 100.375 63.6784 100.879 62.9082C101.147 62.5026 101.346 61.9694 101.478 61.3086H102.753C102.639 62.3659 102.262 63.2523 101.622 63.9678C100.855 64.8291 99.8211 65.2598 98.5196 65.2598C97.3977 65.2598 96.4555 64.9066 95.693 64.2002C94.6894 63.266 94.1877 61.8236 94.1877 59.873C94.1877 58.3919 94.5645 57.1774 95.3183 56.2295C96.1334 55.1995 97.2575 54.6846 98.6905 54.6846ZM104.225 54.958H105.409V65H104.225V54.958ZM109.984 64.207C110.768 64.207 111.305 63.8994 111.594 63.2842C111.888 62.6644 112.035 61.9762 112.035 61.2197C112.035 60.5361 111.929 59.9801 111.719 59.5518C111.386 58.8773 110.812 58.54 109.997 58.54C109.274 58.54 108.748 58.8271 108.419 59.4014C108.09 59.9756 107.926 60.6683 107.926 61.4795C107.926 62.2588 108.09 62.9082 108.419 63.4277C108.748 63.9473 109.269 64.207 109.984 64.207ZM110.03 57.4668C110.937 57.4668 111.704 57.7812 112.33 58.4102C112.957 59.0391 113.27 59.9642 113.27 61.1855C113.27 62.3659 112.994 63.3411 112.442 64.1113C111.89 64.8815 111.033 65.2666 109.872 65.2666C108.903 65.2666 108.134 64.9271 107.565 64.248C106.995 63.5645 106.71 62.6484 106.71 61.5C106.71 60.2695 107.01 59.2897 107.611 58.5605C108.211 57.8314 109.017 57.4668 110.03 57.4668ZM115.867 57.6787V62.5391C115.867 62.9128 115.924 63.2181 116.038 63.4551C116.248 63.8926 116.64 64.1113 117.214 64.1113C118.038 64.1113 118.599 63.7285 118.897 62.9629C119.059 62.5527 119.14 61.9899 119.14 61.2744V57.6787H120.324V65H119.206L119.219 63.9199C119.066 64.1979 118.875 64.4326 118.647 64.624C118.196 65.0068 117.648 65.1982 117.004 65.1982C116.001 65.1982 115.317 64.8496 114.953 64.1523C114.756 63.7786 114.657 63.2796 114.657 62.6553V57.6787H115.867ZM122.927 61.4248C122.927 62.2087 123.087 62.8649 123.407 63.3936C123.726 63.9222 124.239 64.1865 124.945 64.1865C125.493 64.1865 125.942 63.9427 126.292 63.4551C126.647 62.9629 126.825 62.2588 126.825 61.3428C126.825 60.4176 126.643 59.734 126.279 59.292C125.915 58.8454 125.466 58.6221 124.932 58.6221C124.336 58.6221 123.851 58.859 123.479 59.333C123.111 59.807 122.927 60.5042 122.927 61.4248ZM124.708 57.5488C125.247 57.5488 125.699 57.6673 126.062 57.9043C126.273 58.041 126.511 58.2803 126.779 58.6221V54.9238H127.916V65H126.851V63.9814C126.575 64.4326 126.249 64.7585 125.872 64.959C125.495 65.1595 125.063 65.2598 124.577 65.2598C123.792 65.2598 123.113 64.918 122.539 64.2344C121.965 63.5462 121.678 62.6325 121.678 61.4932C121.678 60.4268 121.939 59.5039 122.46 58.7246C122.986 57.9408 123.735 57.5488 124.708 57.5488Z" fill="#B9DCFF"/>
<g opacity="0.6" filter="url(#filter1_d)">
<circle cx="120" cy="295" r="44" fill="url(#paint1_linear)"/>
<circle cx="120" cy="295" r="43.5" stroke="#007EE5"/>
</g>
<path d="M105.762 278.089H107.528V291H105.762V278.089ZM115.228 283.547C115.966 283.547 116.54 283.444 116.95 283.239C117.595 282.917 117.917 282.337 117.917 281.499C117.917 280.655 117.574 280.087 116.889 279.794C116.502 279.63 115.928 279.548 115.166 279.548H112.046V283.547H115.228ZM115.816 289.506C116.889 289.506 117.653 289.195 118.11 288.574C118.397 288.182 118.541 287.707 118.541 287.15C118.541 286.213 118.122 285.574 117.284 285.234C116.839 285.053 116.25 284.962 115.518 284.962H112.046V289.506H115.816ZM110.332 278.089H115.878C117.39 278.089 118.465 278.54 119.104 279.442C119.479 279.976 119.666 280.591 119.666 281.288C119.666 282.103 119.435 282.771 118.972 283.292C118.731 283.567 118.386 283.819 117.935 284.048C118.597 284.3 119.092 284.584 119.42 284.9C120 285.463 120.29 286.239 120.29 287.229C120.29 288.062 120.029 288.814 119.508 289.488C118.729 290.496 117.489 291 115.79 291H110.332V278.089ZM122.338 278.089H124.843L128.552 289.005L132.234 278.089H134.713V291H133.052V283.38C133.052 283.116 133.058 282.68 133.069 282.07C133.081 281.461 133.087 280.808 133.087 280.11L129.404 291H127.673L123.964 280.11V280.506C123.964 280.822 123.97 281.306 123.981 281.956C123.999 282.601 124.008 283.075 124.008 283.38V291H122.338V278.089ZM103.274 298.737C104.909 298.737 106.178 299.168 107.08 300.029C107.982 300.891 108.483 301.869 108.583 302.965H106.878C106.685 302.133 106.298 301.474 105.718 300.987C105.144 300.501 104.335 300.258 103.292 300.258C102.021 300.258 100.992 300.706 100.207 301.603C99.4277 302.493 99.0381 303.861 99.0381 305.707C99.0381 307.219 99.3896 308.446 100.093 309.39C100.802 310.327 101.856 310.796 103.257 310.796C104.546 310.796 105.527 310.301 106.201 309.311C106.559 308.789 106.825 308.104 107.001 307.254H108.706C108.554 308.613 108.05 309.753 107.194 310.673C106.169 311.78 104.786 312.334 103.046 312.334C101.546 312.334 100.286 311.88 99.2666 310.972C97.9248 309.771 97.2539 307.916 97.2539 305.408C97.2539 303.504 97.7578 301.942 98.7656 300.724C99.8555 299.399 101.358 298.737 103.274 298.737ZM110.675 299.089H112.257V312H110.675V299.089ZM118.374 310.98C119.423 310.98 120.141 310.585 120.527 309.794C120.92 308.997 121.116 308.112 121.116 307.14C121.116 306.261 120.976 305.546 120.694 304.995C120.249 304.128 119.481 303.694 118.392 303.694C117.425 303.694 116.722 304.063 116.282 304.802C115.843 305.54 115.623 306.431 115.623 307.474C115.623 308.476 115.843 309.311 116.282 309.979C116.722 310.646 117.419 310.98 118.374 310.98ZM118.436 302.314C119.648 302.314 120.674 302.719 121.512 303.527C122.35 304.336 122.769 305.525 122.769 307.096C122.769 308.613 122.399 309.867 121.661 310.857C120.923 311.848 119.777 312.343 118.225 312.343C116.93 312.343 115.901 311.906 115.14 311.033C114.378 310.154 113.997 308.977 113.997 307.5C113.997 305.918 114.398 304.658 115.201 303.721C116.004 302.783 117.082 302.314 118.436 302.314ZM126.24 302.587V308.836C126.24 309.316 126.316 309.709 126.469 310.014C126.75 310.576 127.274 310.857 128.042 310.857C129.144 310.857 129.894 310.365 130.292 309.381C130.509 308.854 130.617 308.13 130.617 307.21V302.587H132.199V312H130.705L130.723 310.611C130.518 310.969 130.263 311.271 129.958 311.517C129.354 312.009 128.622 312.255 127.761 312.255C126.419 312.255 125.505 311.807 125.019 310.91C124.755 310.43 124.623 309.788 124.623 308.985V302.587H126.24ZM135.68 307.403C135.68 308.411 135.894 309.255 136.321 309.935C136.749 310.614 137.435 310.954 138.378 310.954C139.11 310.954 139.711 310.641 140.18 310.014C140.654 309.381 140.892 308.476 140.892 307.298C140.892 306.108 140.648 305.229 140.162 304.661C139.676 304.087 139.075 303.8 138.36 303.8C137.563 303.8 136.916 304.104 136.418 304.714C135.926 305.323 135.68 306.22 135.68 307.403ZM138.062 302.42C138.782 302.42 139.386 302.572 139.872 302.877C140.153 303.053 140.473 303.36 140.83 303.8V299.045H142.351V312H140.927V310.69C140.558 311.271 140.121 311.689 139.617 311.947C139.113 312.205 138.536 312.334 137.886 312.334C136.837 312.334 135.929 311.895 135.161 311.016C134.394 310.131 134.01 308.956 134.01 307.491C134.01 306.12 134.358 304.934 135.056 303.932C135.759 302.924 136.761 302.42 138.062 302.42Z" fill="#B9DCFF"/>
<g opacity="0.6" filter="url(#filter2_d)">
<circle cx="64" cy="505" r="50" fill="url(#paint2_linear)"/>
<circle cx="64" cy="505" r="49.5" stroke="#007EE5"/>
</g>
<path d="M40.6525 494.121L38.5584 487.783L36.3328 494.121H40.6525ZM37.5818 485.654H39.6947L44.6999 500H42.6527L41.2535 495.703H35.7976L34.3045 500H32.3888L37.5818 485.654ZM46.2212 485.654H47.9115V500H46.2212V485.654ZM50.4563 489.59H52.1748V500H50.4563V489.59ZM50.4563 485.654H52.1748V487.646H50.4563V485.654ZM54.607 485.605H56.2504V490.811C56.6197 490.309 57.0611 489.928 57.5744 489.668C58.0878 489.401 58.645 489.268 59.246 489.268C60.498 489.268 61.5122 489.717 62.2885 490.615C63.0711 491.507 63.4624 492.826 63.4624 494.57C63.4624 496.224 63.0773 497.598 62.3073 498.691C61.5373 499.785 60.4699 500.332 59.1051 500.332C58.3413 500.332 57.6965 500.14 57.1706 499.756C56.8576 499.528 56.5227 499.163 56.1658 498.662V500H54.607V485.605ZM59.0018 498.779C59.9158 498.779 60.5982 498.402 61.049 497.646C61.506 496.891 61.7345 495.895 61.7345 494.658C61.7345 493.558 61.506 492.646 61.049 491.924C60.5982 491.201 59.9315 490.84 59.0488 490.84C58.2787 490.84 57.6026 491.136 57.0204 491.729C56.4444 492.321 56.1564 493.298 56.1564 494.658C56.1564 495.641 56.2754 496.439 56.5133 497.051C56.9578 498.203 57.7873 498.779 59.0018 498.779ZM66.7397 497.217C66.7397 497.725 66.9181 498.125 67.2749 498.418C67.6318 498.711 68.0544 498.857 68.5427 498.857C69.1374 498.857 69.7134 498.714 70.2706 498.428C71.2096 497.952 71.6791 497.174 71.6791 496.094V494.678C71.4726 494.814 71.2065 494.928 70.8809 495.02C70.5554 495.111 70.2361 495.176 69.9231 495.215L68.8995 495.352C68.286 495.436 67.8259 495.57 67.5191 495.752C66.9995 496.058 66.7397 496.546 66.7397 497.217ZM70.834 493.662C71.2221 493.61 71.4819 493.441 71.6134 493.154C71.6885 492.998 71.7261 492.773 71.7261 492.48C71.7261 491.882 71.5195 491.449 71.1063 491.182C70.6994 490.908 70.114 490.771 69.3503 490.771C68.4676 490.771 67.8415 491.019 67.4721 491.514C67.2656 491.787 67.131 492.194 67.0684 492.734H65.4907C65.522 491.445 65.9227 490.55 66.6927 490.049C67.469 489.541 68.3674 489.287 69.3878 489.287C70.5711 489.287 71.532 489.521 72.2708 489.99C73.0032 490.459 73.3695 491.188 73.3695 492.178V498.203C73.3695 498.385 73.4039 498.532 73.4728 498.643C73.5479 498.753 73.7013 498.809 73.9329 498.809C74.008 498.809 74.0925 498.805 74.1864 498.799C74.2804 498.786 74.3805 498.77 74.4869 498.75V500.049C74.224 500.127 74.0237 500.176 73.8859 500.195C73.7482 500.215 73.5604 500.225 73.3225 500.225C72.7403 500.225 72.3177 500.01 72.0548 499.58C71.917 499.352 71.82 499.03 71.7637 498.613C71.4193 499.082 70.9248 499.489 70.2799 499.834C69.6351 500.179 68.9246 500.352 68.1483 500.352C67.2155 500.352 66.4517 500.059 65.857 499.473C65.2685 498.88 64.9742 498.141 64.9742 497.256C64.9742 496.286 65.2654 495.534 65.8476 495C66.4298 494.466 67.1936 494.137 68.1389 494.014L70.834 493.662ZM76.0176 485.605H77.661V490.811C78.0303 490.309 78.4717 489.928 78.9851 489.668C79.4984 489.401 80.0556 489.268 80.6566 489.268C81.9087 489.268 82.9229 489.717 83.6991 490.615C84.4817 491.507 84.873 492.826 84.873 494.57C84.873 496.224 84.488 497.598 83.7179 498.691C82.9479 499.785 81.8805 500.332 80.5157 500.332C79.752 500.332 79.1071 500.14 78.5813 499.756C78.2682 499.528 77.9333 499.163 77.5765 498.662V500H76.0176V485.605ZM80.4124 498.779C81.3264 498.779 82.0088 498.402 82.4596 497.646C82.9166 496.891 83.1451 495.895 83.1451 494.658C83.1451 493.558 82.9166 492.646 82.4596 491.924C82.0088 491.201 81.3421 490.84 80.4594 490.84C79.6894 490.84 79.0132 491.136 78.431 491.729C77.855 492.321 77.5671 493.298 77.5671 494.658C77.5671 495.641 77.686 496.439 77.9239 497.051C78.3684 498.203 79.1979 498.779 80.4124 498.779ZM88.1503 497.217C88.1503 497.725 88.3287 498.125 88.6856 498.418C89.0424 498.711 89.465 498.857 89.9533 498.857C90.548 498.857 91.124 498.714 91.6812 498.428C92.6202 497.952 93.0898 497.174 93.0898 496.094V494.678C92.8832 494.814 92.6171 494.928 92.2916 495.02C91.966 495.111 91.6467 495.176 91.3337 495.215L90.3101 495.352C89.6966 495.436 89.2365 495.57 88.9297 495.752C88.4101 496.058 88.1503 496.546 88.1503 497.217ZM92.2446 493.662C92.6328 493.61 92.8926 493.441 93.024 493.154C93.0992 492.998 93.1367 492.773 93.1367 492.48C93.1367 491.882 92.9301 491.449 92.5169 491.182C92.11 490.908 91.5247 490.771 90.7609 490.771C89.8782 490.771 89.2521 491.019 88.8828 491.514C88.6762 491.787 88.5416 492.194 88.479 492.734H86.9014C86.9327 491.445 87.3333 490.55 88.1034 490.049C88.8796 489.541 89.778 489.287 90.7985 489.287C91.9817 489.287 92.9427 489.521 93.6814 489.99C94.4139 490.459 94.7801 491.188 94.7801 492.178V498.203C94.7801 498.385 94.8145 498.532 94.8834 498.643C94.9585 498.753 95.1119 498.809 95.3435 498.809C95.4186 498.809 95.5032 498.805 95.5971 498.799C95.691 498.786 95.7911 498.77 95.8976 498.75V500.049C95.6346 500.127 95.4343 500.176 95.2966 500.195C95.1588 500.215 94.971 500.225 94.7331 500.225C94.1509 500.225 93.7283 500.01 93.4654 499.58C93.3277 499.352 93.2306 499.03 93.1743 498.613C92.83 499.082 92.3354 499.489 91.6906 499.834C91.0457 500.179 90.3352 500.352 89.5589 500.352C88.6261 500.352 87.8623 500.059 87.2676 499.473C86.6791 498.88 86.3849 498.141 86.3849 497.256C86.3849 496.286 86.676 495.534 87.2582 495C87.8404 494.466 88.6042 494.137 89.5495 494.014L92.2446 493.662ZM46.3432 508.264C48.0899 508.264 49.4453 508.742 50.4094 509.699C51.3735 510.656 51.9088 511.743 52.0152 512.961H50.1934C49.9868 512.036 49.5736 511.304 48.9538 510.764C48.3403 510.223 47.4764 509.953 46.362 509.953C45.0035 509.953 43.9048 510.451 43.0659 511.447C42.2333 512.437 41.817 513.957 41.817 516.008C41.817 517.688 42.1926 519.051 42.9438 520.1C43.7013 521.141 44.8282 521.662 46.3245 521.662C47.7018 521.662 48.7504 521.112 49.4703 520.012C49.8522 519.432 50.1371 518.671 50.3249 517.727H52.1466C51.9839 519.237 51.4455 520.503 50.5315 521.525C49.4359 522.756 47.9584 523.371 46.0991 523.371C44.4964 523.371 43.1504 522.867 42.0611 521.857C40.6275 520.523 39.9107 518.462 39.9107 515.676C39.9107 513.56 40.4491 511.825 41.5259 510.471C42.6903 508.999 44.2961 508.264 46.3432 508.264ZM54.2501 508.654H55.9405V523H54.2501V508.654ZM62.4763 521.867C63.5969 521.867 64.3639 521.428 64.777 520.549C65.1965 519.663 65.4062 518.68 65.4062 517.6C65.4062 516.623 65.256 515.829 64.9555 515.217C64.4797 514.253 63.6596 513.771 62.4951 513.771C61.4621 513.771 60.7109 514.182 60.2414 515.002C59.7718 515.822 59.5371 516.812 59.5371 517.971C59.5371 519.084 59.7718 520.012 60.2414 520.754C60.7109 521.496 61.4559 521.867 62.4763 521.867ZM62.5421 512.238C63.838 512.238 64.9335 512.688 65.8288 513.586C66.724 514.484 67.1716 515.806 67.1716 517.551C67.1716 519.237 66.7772 520.63 65.9884 521.73C65.1996 522.831 63.9757 523.381 62.3167 523.381C60.9331 523.381 59.8344 522.896 59.0206 521.926C58.2067 520.949 57.7998 519.641 57.7998 518C57.7998 516.242 58.2286 514.842 59.0863 513.801C59.944 512.759 61.0959 512.238 62.5421 512.238ZM70.8809 512.541V519.484C70.8809 520.018 70.9623 520.454 71.1251 520.793C71.4256 521.418 71.9859 521.73 72.806 521.73C73.983 521.73 74.7843 521.184 75.21 520.09C75.4417 519.504 75.5575 518.7 75.5575 517.678V512.541H77.2478V523H75.6514L75.6702 521.457C75.451 521.854 75.1787 522.189 74.8532 522.463C74.2084 523.01 73.4258 523.283 72.5055 523.283C71.0719 523.283 70.0953 522.785 69.5756 521.789C69.2939 521.255 69.1531 520.542 69.1531 519.65V512.541H70.8809ZM80.9665 517.893C80.9665 519.012 81.195 519.95 81.652 520.705C82.109 521.46 82.8415 521.838 83.8494 521.838C84.6319 521.838 85.2736 521.49 85.7745 520.793C86.2816 520.09 86.5351 519.084 86.5351 517.775C86.5351 516.454 86.2753 515.477 85.7557 514.846C85.2361 514.208 84.5944 513.889 83.8306 513.889C82.9792 513.889 82.2874 514.227 81.7553 514.904C81.2294 515.581 80.9665 516.577 80.9665 517.893ZM83.5113 512.355C84.2814 512.355 84.9262 512.525 85.4458 512.863C85.7463 513.059 86.0875 513.4 86.4694 513.889V508.605H88.094V523H86.5727V521.545C86.1783 522.189 85.7119 522.655 85.1735 522.941C84.6351 523.228 84.0184 523.371 83.3235 523.371C82.2029 523.371 81.2325 522.883 80.4124 521.906C79.5923 520.923 79.1823 519.618 79.1823 517.99C79.1823 516.467 79.5548 515.148 80.2997 514.035C81.051 512.915 82.1215 512.355 83.5113 512.355Z" fill="#B9DCFF"/>
<g opacity="0.6" filter="url(#filter3_d)">
<circle cx="102" cy="398" r="28" fill="url(#paint3_linear)"/>
<circle cx="102" cy="398" r="27.5" stroke="#007EE5"/>
</g>
<path d="M88.8828 392.523H90.4531V404H88.8828V392.523ZM93.6328 401.375C93.6745 401.844 93.7917 402.203 93.9844 402.453C94.3385 402.906 94.9531 403.133 95.8281 403.133C96.349 403.133 96.8073 403.021 97.2031 402.797C97.599 402.568 97.7969 402.216 97.7969 401.742C97.7969 401.383 97.638 401.109 97.3203 400.922C97.1172 400.807 96.7161 400.674 96.1172 400.523L95 400.242C94.2865 400.065 93.7604 399.867 93.4219 399.648C92.8177 399.268 92.5156 398.742 92.5156 398.07C92.5156 397.279 92.7995 396.638 93.3672 396.148C93.9401 395.659 94.7083 395.414 95.6719 395.414C96.9323 395.414 97.8411 395.784 98.3984 396.523C98.7474 396.992 98.9167 397.497 98.9062 398.039H97.5781C97.5521 397.721 97.4401 397.432 97.2422 397.172C96.9193 396.802 96.3594 396.617 95.5625 396.617C95.0312 396.617 94.6276 396.719 94.3516 396.922C94.0807 397.125 93.9453 397.393 93.9453 397.727C93.9453 398.091 94.125 398.383 94.4844 398.602C94.6927 398.732 95 398.846 95.4062 398.945L96.3359 399.172C97.3464 399.417 98.0234 399.654 98.3672 399.883C98.9141 400.242 99.1875 400.807 99.1875 401.578C99.1875 402.323 98.9036 402.966 98.3359 403.508C97.7734 404.049 96.9141 404.32 95.7578 404.32C94.513 404.32 93.6302 404.039 93.1094 403.477C92.5938 402.909 92.3177 402.208 92.2812 401.375H93.6328ZM101.078 393.297H102.5V395.633H103.836V396.781H102.5V402.242C102.5 402.534 102.599 402.729 102.797 402.828C102.906 402.885 103.089 402.914 103.344 402.914C103.411 402.914 103.484 402.914 103.562 402.914C103.641 402.909 103.732 402.901 103.836 402.891V404C103.674 404.047 103.505 404.081 103.328 404.102C103.156 404.122 102.969 404.133 102.766 404.133C102.109 404.133 101.664 403.966 101.43 403.633C101.195 403.294 101.078 402.857 101.078 402.32V396.781H99.9453V395.633H101.078V393.297ZM105.25 395.672H106.68V404H105.25V395.672ZM105.25 392.523H106.68V394.117H105.25V392.523ZM112.133 403.094C113.065 403.094 113.703 402.742 114.047 402.039C114.396 401.331 114.57 400.544 114.57 399.68C114.57 398.898 114.445 398.263 114.195 397.773C113.799 397.003 113.117 396.617 112.148 396.617C111.289 396.617 110.664 396.945 110.273 397.602C109.883 398.258 109.688 399.049 109.688 399.977C109.688 400.867 109.883 401.609 110.273 402.203C110.664 402.797 111.284 403.094 112.133 403.094ZM112.188 395.391C113.266 395.391 114.177 395.75 114.922 396.469C115.667 397.188 116.039 398.245 116.039 399.641C116.039 400.99 115.711 402.104 115.055 402.984C114.398 403.865 113.38 404.305 112 404.305C110.849 404.305 109.935 403.917 109.258 403.141C108.581 402.359 108.242 401.312 108.242 400C108.242 398.594 108.599 397.474 109.312 396.641C110.026 395.807 110.984 395.391 112.188 395.391Z" fill="#B9DCFF"/>
<defs>
<filter id="filter0_d" x="51" y="0" width="104" height="104" filterUnits="userSpaceOnUse" color-interpolation-filters="sRGB">
<feFlood flood-opacity="0" result="BackgroundImageFix"/>
<feColorMatrix in="SourceAlpha" type="matrix" values="0 0 0 0 0 0 0 0 0 0 0 0 0 0 0 0 0 0 127 0"/>
<feMorphology radius="4" operator="dilate" in="SourceAlpha" result="effect1_dropShadow"/>
<feOffset/>
<feGaussianBlur stdDeviation="5"/>
<feColorMatrix type="matrix" values="0 0 0 0 0.0156863 0 0 0 0 0.341176 0 0 0 0 0.607843 0 0 0 0.4 0"/>
<feBlend mode="normal" in2="BackgroundImageFix" result="effect1_dropShadow"/>
<feBlend mode="normal" in="SourceGraphic" in2="effect1_dropShadow" result="shape"/>
</filter>
<filter id="filter1_d" x="62" y="237" width="116" height="116" filterUnits="userSpaceOnUse" color-interpolation-filters="sRGB">
<feFlood flood-opacity="0" result="BackgroundImageFix"/>
<feColorMatrix in="SourceAlpha" type="matrix" values="0 0 0 0 0 0 0 0 0 0 0 0 0 0 0 0 0 0 127 0"/>
<feMorphology radius="4" operator="dilate" in="SourceAlpha" result="effect1_dropShadow"/>
<feOffset/>
<feGaussianBlur stdDeviation="5"/>
<feColorMatrix type="matrix" values="0 0 0 0 0.0156863 0 0 0 0 0.341176 0 0 0 0 0.607843 0 0 0 0.4 0"/>
<feBlend mode="normal" in2="BackgroundImageFix" result="effect1_dropShadow"/>
<feBlend mode="normal" in="SourceGraphic" in2="effect1_dropShadow" result="shape"/>
</filter>
<filter id="filter2_d" x="0" y="441" width="128" height="128" filterUnits="userSpaceOnUse" color-interpolation-filters="sRGB">
<feFlood flood-opacity="0" result="BackgroundImageFix"/>
<feColorMatrix in="SourceAlpha" type="matrix" values="0 0 0 0 0 0 0 0 0 0 0 0 0 0 0 0 0 0 127 0"/>
<feMorphology radius="4" operator="dilate" in="SourceAlpha" result="effect1_dropShadow"/>
<feOffset/>
<feGaussianBlur stdDeviation="5"/>
<feColorMatrix type="matrix" values="0 0 0 0 0.0156863 0 0 0 0 0.341176 0 0 0 0 0.607843 0 0 0 0.4 0"/>
<feBlend mode="normal" in2="BackgroundImageFix" result="effect1_dropShadow"/>
<feBlend mode="normal" in="SourceGraphic" in2="effect1_dropShadow" result="shape"/>
</filter>
<filter id="filter3_d" x="60" y="356" width="84" height="84" filterUnits="userSpaceOnUse" color-interpolation-filters="sRGB">
<feFlood flood-opacity="0" result="BackgroundImageFix"/>
<feColorMatrix in="SourceAlpha" type="matrix" values="0 0 0 0 0 0 0 0 0 0 0 0 0 0 0 0 0 0 127 0"/>
<feMorphology radius="4" operator="dilate" in="SourceAlpha" result="effect1_dropShadow"/>
<feOffset/>
<feGaussianBlur stdDeviation="5"/>
<feColorMatrix type="matrix" values="0 0 0 0 0.0156863 0 0 0 0 0.341176 0 0 0 0 0.607843 0 0 0 0.4 0"/>
<feBlend mode="normal" in2="BackgroundImageFix" result="effect1_dropShadow"/>
<feBlend mode="normal" in="SourceGraphic" in2="effect1_dropShadow" result="shape"/>
</filter>
<linearGradient id="paint0_linear" x1="82.5385" y1="19.8462" x2="141" y2="95.5538" gradientUnits="userSpaceOnUse">
<stop stop-color="#43BEFF" stop-opacity="0.5"/>
<stop offset="1" stop-color="#B9DCFF" stop-opacity="0.2"/>
</linearGradient>
<linearGradient id="paint1_linear" x1="96.3077" y1="257.769" x2="164" y2="345.431" gradientUnits="userSpaceOnUse">
<stop stop-color="#43BEFF" stop-opacity="0.5"/>
<stop offset="1" stop-color="#B9DCFF" stop-opacity="0.2"/>
</linearGradient>
<linearGradient id="paint2_linear" x1="37.0769" y1="462.692" x2="114" y2="562.308" gradientUnits="userSpaceOnUse">
<stop stop-color="#43BEFF" stop-opacity="0.5"/>
<stop offset="1" stop-color="#B9DCFF" stop-opacity="0.2"/>
</linearGradient>
<linearGradient id="paint3_linear" x1="86.9231" y1="374.308" x2="130" y2="430.092" gradientUnits="userSpaceOnUse">
<stop stop-color="#43BEFF" stop-opacity="0.5"/>
<stop offset="1" stop-color="#B9DCFF" stop-opacity="0.2"/>
</linearGradient>
</defs>
</svg>
